<svg width="25" height="25" viewBox="0 0 25 25" fill="none" xmlns="http://www.w3.org/2000/svg">
<g clip-path="url(#clip0_6422_7885)">
<path d="M12.8027 24.7257C19.4301 24.7257 24.8027 19.3531 24.8027 12.7257C24.8027 6.09829 19.4301 0.725708 12.8027 0.725708C6.1753 0.725708 0.802719 6.09829 0.802719 12.7257C0.802719 19.3531 6.1753 24.7257 12.8027 24.7257Z" fill="#D80027"/>
<path d="M12.8027 18.4652C15.9723 18.4652 18.5418 15.8957 18.5418 12.726C18.5418 9.55638 15.9723 6.98688 12.8027 6.98688C9.63307 6.98688 7.06357 9.55638 7.06357 12.726C7.06357 15.8957 9.63307 18.4652 12.8027 18.4652Z" fill="#F0F0F0"/>
<path d="M13.5094 10.5309L14.4939 11.8877L16.0885 11.3706L15.1024 12.7263L16.0868 14.083L14.4928 13.564L13.5067 14.9196L13.5077 13.2434L11.9137 12.7244L13.5083 12.2073L13.5094 10.5309Z" fill="#D80027"/>
<path d="M14.1069 16.1165C12.2339 16.1165 10.7156 14.5981 10.7156 12.7251C10.7156 10.8522 12.2339 9.33383 14.1069 9.33383C14.6908 9.33383 15.2404 9.48149 15.7201 9.74146C14.9675 9.00547 13.9384 8.55121 12.8025 8.55121C10.4974 8.55121 8.62865 10.4199 8.62865 12.7251C8.62865 15.0303 10.4974 16.899 12.8025 16.899C13.9384 16.899 14.9676 16.4447 15.7201 15.7087C15.2404 15.9688 14.6908 16.1165 14.1069 16.1165Z" fill="#D80027"/>
</g>
<defs>
<clipPath id="clip0_6422_7885">
<rect width="24" height="24" fill="white" transform="translate(0.802734 0.725586)"/>
</clipPath>
</defs>
</svg>
