<svg width="25" height="25" viewBox="0 0 25 25" fill="none" xmlns="http://www.w3.org/2000/svg">
<g clip-path="url(#clip0_6422_7766)">
<path d="M24.0565 16.8998C24.5388 15.5998 24.8028 14.1938 24.8028 12.7259C24.8028 11.2581 24.5388 9.85201 24.0565 8.55203L12.8028 7.50854L1.54923 8.55203C1.06689 9.85201 0.802841 11.2581 0.802841 12.7259C0.802841 14.1938 1.06689 15.5998 1.54923 16.8998L12.8028 17.9433L24.0565 16.8998Z" fill="#F0F0F0"/>
<path d="M12.803 24.7255C17.9625 24.7255 22.361 21.469 24.0565 16.8994H1.5493C3.24486 21.469 7.64333 24.7255 12.803 24.7255Z" fill="#D80027"/>
<path d="M12.803 0.725464C7.64333 0.725464 3.24486 3.98196 1.5493 8.55157H24.0566C22.3611 3.98196 17.9625 0.725464 12.803 0.725464Z" fill="#6DA544"/>
<path d="M4.31755 4.24072C-0.368729 8.927 -0.368729 16.525 4.31755 21.2113C5.54075 19.9881 6.73466 18.7942 8.62893 16.9V8.55214L4.31755 4.24072Z" fill="black"/>
</g>
<defs>
<clipPath id="clip0_6422_7766">
<rect width="24" height="24" fill="white" transform="translate(0.802734 0.725586)"/>
</clipPath>
</defs>
</svg>
