<svg width="25" height="24" viewBox="0 0 25 24" fill="none" xmlns="http://www.w3.org/2000/svg">
<g clip-path="url(#clip0_6422_7780)">
<path d="M24.8027 12.0002C24.8027 18.6276 19.43 24.0002 12.8027 24.0002C6.17528 24.0002 0.802658 18.6276 0.802658 12.0002C0.802658 12.003 12.8027 0.00149561 12.8027 0.000183105C19.43 0.000183105 24.8027 5.37281 24.8027 12.0002Z" fill="#0052B4"/>
<path d="M12.7704 12.0013H12.8036C12.8036 11.9901 12.8036 11.9793 12.8036 11.968C12.7926 11.9792 12.7815 11.9902 12.7704 12.0013Z" fill="#F0F0F0"/>
<path d="M12.8027 6.26113C12.8027 4.14965 12.8027 2.76613 12.8027 0.000274658H12.8006C6.17411 0.00139966 0.802658 5.37351 0.802658 12.0003H7.06352V8.47476L10.589 12.0003H12.7706C12.7813 11.9896 12.792 11.9789 12.8027 11.9682C12.8027 11.1597 12.8027 10.4384 12.8027 9.78674L9.27709 6.26113H12.8027Z" fill="#F0F0F0"/>
<path d="M6.8736 1.56534C4.99677 2.63404 3.43644 4.19432 2.36778 6.07115V12.0001H5.49824V4.69589V4.69579H12.8026C12.8026 3.70846 12.8026 2.76787 12.8026 1.56534H6.8736Z" fill="#D80027"/>
<path d="M12.8025 10.5241L8.53902 6.26065H7.0634V6.26074L12.8024 11.9997H12.8025C12.8025 11.9997 12.8025 10.9822 12.8025 10.5241V10.5241Z" fill="#D80027"/>
<path d="M21.0967 13.7564C21.4417 13.2816 21.6722 12.7019 21.6722 11.9998V6.78241C21.2362 7.10998 20.6943 7.30413 20.107 7.30413C19.2536 7.30413 18.496 6.8943 18.02 6.26074C17.5441 6.8943 16.7864 7.30413 15.9331 7.30413C15.3457 7.30413 14.8039 7.10993 14.3679 6.78251V11.9998C14.3679 12.7019 14.5984 13.2816 14.9434 13.7564H21.0967Z" fill="#F3F3F3"/>
<path d="M20.0112 11.0323C20.1773 10.627 20.3065 10.0347 20.3065 9.73989C20.3065 9.26622 19.689 8.88226 19.689 8.88226C19.689 8.88226 19.0714 9.26622 19.0714 9.73989C19.0714 10.0347 19.2007 10.6271 19.3667 11.0323L19.0102 11.8372C19.2197 11.9224 19.4488 11.9698 19.689 11.9698C19.9292 11.9698 20.1582 11.9224 20.3678 11.8372L20.0112 11.0323Z" fill="#FF9811"/>
<path d="M17.5974 8.42583C17.1635 8.48461 16.5859 8.66907 16.3306 8.81644C15.9204 9.0533 15.8966 9.78 15.8966 9.78C15.8966 9.78 16.5379 10.1228 16.9481 9.88599C17.2035 9.73857 17.6518 9.33057 17.9196 8.98407L18.795 8.89032C18.764 8.66635 18.6903 8.4443 18.5704 8.23632C18.4502 8.02833 18.2948 7.85358 18.1162 7.71469L17.5974 8.42583Z" fill="#FF9811"/>
<path d="M16.5474 11.8192C16.8152 12.1655 17.2637 12.5735 17.5191 12.7209C17.9293 12.9577 18.5706 12.615 18.5706 12.615C18.5706 12.615 18.5467 11.8882 18.1365 11.6514C17.8811 11.504 17.3036 11.3197 16.8696 11.261L16.3508 10.5498C16.1723 10.6886 16.0169 10.8635 15.8967 11.0713C15.7767 11.2793 15.7032 11.5013 15.672 11.7254L16.5474 11.8192Z" fill="#FF9811"/>
<path d="M14.8144 13.5657C15.7889 15.1293 18.0202 15.6526 18.0202 15.6526C18.0202 15.6526 20.2514 15.1293 21.2259 13.5657H14.8144Z" fill="#338AF3"/>
</g>
<defs>
<clipPath id="clip0_6422_7780">
<rect width="24" height="24" fill="white" transform="translate(0.802734)"/>
</clipPath>
</defs>
</svg>
