<?xml version="1.0" encoding="UTF-8"?>
<svg width="15px" height="22px" viewBox="0 0 15 22" version="1.1" xmlns="http://www.w3.org/2000/svg" xmlns:xlink="http://www.w3.org/1999/xlink">
    <!-- Generator: Sketch 56.2 (81672) - https://sketch.com -->
    <title>Group 19 Copy</title>
    <desc>Created with Sketch.</desc>
    <g id="Page-1" stroke="none" stroke-width="1" fill="none" fill-rule="evenodd">
        <g id="MH-Purchased---Tip" transform="translate(-52.000000, -91.000000)" fill="#FF9000" fill-rule="nonzero">
            <g id="Group-117-Copy-2" transform="translate(42.000000, 70.000000)">
                <g id="Group-19-Copy" transform="translate(10.000000, 21.000000)">
                    <path d="M12.2463704,10.8704986 C11.363571,10.2447015 10.2331181,9.86363636 9.1909095,9.41273456 C8.14514268,8.96001093 7.04849302,8.59169855 6.01233344,8.12500759 C5.40351853,7.85051922 4.96976903,7.386561 5.11708018,6.73950932 C5.25869815,6.11705229 5.79314584,5.78031821 6.49056094,5.65977409 C6.96629767,5.57748831 7.47370273,5.47759155 7.94125551,5.53558632 C9.38056371,5.71351794 10.8070622,5.96401895 12.3143328,6.19812352 C12.5623422,5.36463837 12.8487805,4.40149997 13.1853901,3.27105727 C11.8859207,3.01144714 10.6433832,2.7630716 9.31331297,2.49738872 L9.31331297,0.166666667 L4.99645584,0.166666667 L4.99645584,2.86266472 C4.8833038,2.90244125 4.75236055,2.93553774 4.60113534,2.96256149 C3.29170291,3.19393332 2.23632884,3.85404142 1.3859094,4.73033947 C-0.291445074,6.45925184 -0.0227979315,9.30433594 2.10147153,10.615443 C3.26964182,11.3362786 4.68119575,11.7713913 5.9895607,12.323708 C6.73180963,12.637062 7.50928514,12.8936358 8.23125209,13.2364426 C8.98631069,13.5950386 9.3464046,14.1825773 9.17240665,14.9258821 C9.00837178,15.6291067 8.38745884,15.9494443 7.62670707,16.1076395 C6.33542166,16.3769661 5.04413626,16.3138094 3.77989348,16.0132082 C2.87076308,15.7976256 1.98938696,15.4958098 1.04396251,15.2170705 C0.768198887,16.1203923 0.47357659,16.9988158 0.254033164,17.890903 C0.215959993,18.0451509 0.455429565,18.378545 0.635832348,18.4222688 C2.01785288,18.7580919 3.40841319,19.0784296 4.81534141,19.3225542 C4.88259215,19.3343961 4.94130311,19.3468452 4.99645584,19.3599016 L4.99645584,21.8333333 L5.41419325,21.8333333 L8.49029199,21.8333333 L9.31331297,21.8333333 L9.31331297,18.9739783 C9.95806611,18.8206413 10.6031751,18.6193296 11.1835241,18.3405903 C14.4966016,16.7495294 15.076239,12.8763284 12.2463704,10.8704986" id="Tips"></path>
                </g>
            </g>
        </g>
    </g>
</svg>