<svg width="25" height="25" viewBox="0 0 25 25" fill="none" xmlns="http://www.w3.org/2000/svg">
<g clip-path="url(#clip0_6422_7833)">
<path d="M24.8027 12.8028C24.8027 19.4302 19.43 24.8028 12.8027 24.8028C6.1753 24.8028 0.802673 19.4302 0.802673 12.8028C0.802673 12.8056 12.8027 0.804087 12.8027 0.802774C19.43 0.802774 24.8027 6.1754 24.8027 12.8028Z" fill="#0052B4"/>
<path d="M12.7703 12.8038H12.8035C12.8035 12.7927 12.8035 12.7818 12.8035 12.7706C12.7925 12.7817 12.7814 12.7927 12.7703 12.8038Z" fill="#F0F0F0"/>
<path d="M12.8024 7.06363C12.8024 4.95215 12.8024 3.56863 12.8024 0.802774H12.8004C6.17384 0.803899 0.802391 6.17601 0.802391 12.8028H7.06325V9.27726L10.5888 12.8028H12.7703C12.781 12.7921 12.7917 12.7814 12.8024 12.7707C12.8024 11.9622 12.8024 11.2409 12.8024 10.5892L9.27683 7.06363H12.8024Z" fill="#F0F0F0"/>
<path d="M6.87352 2.36838C4.99669 3.43708 3.43636 4.99736 2.36771 6.87419V12.8032H5.49816V5.49892V5.49883H12.8025C12.8025 4.5115 12.8025 3.57091 12.8025 2.36838H6.87352Z" fill="#D80027"/>
<path d="M12.8026 11.3272L8.53905 7.06378H7.06342V7.06387L12.8025 12.8029H12.8026C12.8026 12.8029 12.8026 11.7854 12.8026 11.3272V11.3272Z" fill="#D80027"/>
<path d="M19.5852 8.10687L18.0199 8.62863L16.4547 8.10687L15.933 6.80252L16.4547 5.49818H19.5852L19.0634 6.80252L19.5852 8.10687Z" fill="#ACABB1"/>
<path d="M14.3679 8.10715V13.8462C14.3679 16.6419 18.0201 17.4985 18.0201 17.4985C18.0201 17.4985 21.6722 16.6419 21.6722 13.8462V8.10715H14.3679Z" fill="#338AF3"/>
<path d="M14.697 15.2058C15.5947 16.9293 18.02 17.4984 18.02 17.4984C18.02 17.4984 20.4452 16.9293 21.3429 15.2058L18.02 9.67229L14.697 15.2058Z" fill="#6DA544"/>
<path d="M21.6722 13.7883L18.0201 8.10715L14.3679 13.7883V13.8462C14.3679 14.3637 14.4932 14.8145 14.6971 15.2059L18.0201 10.0368L21.343 15.2059C21.5469 14.8144 21.6722 14.3636 21.6722 13.8462V13.7883Z" fill="#FFDA44"/>
</g>
<defs>
<clipPath id="clip0_6422_7833">
<rect width="24" height="24" fill="white" transform="translate(0.802734 0.802734)"/>
</clipPath>
</defs>
</svg>
