<svg width="25" height="24" viewBox="0 0 25 24" fill="none" xmlns="http://www.w3.org/2000/svg">
<g clip-path="url(#clip0_6422_7657)">
<path d="M12.8027 24C19.4301 24 24.8027 18.6274 24.8027 12C24.8027 5.37258 19.4301 0 12.8027 0C6.17526 0 0.802673 5.37258 0.802673 12C0.802673 18.6274 6.17526 24 12.8027 24Z" fill="#F0F0F0"/>
<path d="M12.8027 0C7.64313 0 3.24462 3.2565 1.5491 7.82611H24.0564C22.3608 3.2565 17.9623 0 12.8027 0V0Z" fill="#A2001D"/>
<path d="M12.8027 24C17.9623 24 22.3608 20.7435 24.0563 16.1739H1.5491C3.24462 20.7435 7.64313 24 12.8027 24Z" fill="#0052B4"/>
</g>
<defs>
<clipPath id="clip0_6422_7657">
<rect width="24" height="24" fill="white" transform="translate(0.802734)"/>
</clipPath>
</defs>
</svg>
