<svg width="25" height="25" viewBox="0 0 25 25" fill="none" xmlns="http://www.w3.org/2000/svg">
<g clip-path="url(#clip0_6422_7738)">
<path d="M6.03909 22.3226C7.96491 23.6391 10.2937 24.4095 12.8025 24.4095C15.3114 24.4095 17.6401 23.6391 19.566 22.3226L12.8025 21.2791L6.03909 22.3226Z" fill="#D80027"/>
<path d="M19.566 2.49667C17.6401 1.18018 15.3114 0.409698 12.8025 0.409698C10.2937 0.409698 7.96491 1.18018 6.03909 2.49667L12.8025 3.54015L19.566 2.49667Z" fill="#D80027"/>
<path d="M24.8026 12.4104C24.8026 8.43963 22.4253 4.45197 19.5661 2.49738H6.03916C2.87777 4.6585 0.802612 8.29197 0.802612 12.4104C0.802612 16.529 2.87777 20.1623 6.03916 22.3234H19.5661C22.7275 20.1623 24.8026 16.529 24.8026 12.4104Z" fill="#0052B4"/>
<path d="M12.1235 19.9853C11.9596 19.8446 8.10696 16.4955 8.10696 12.4104C8.10696 8.32529 11.9595 4.97612 12.1235 4.83554L12.8026 4.25345L13.4817 4.8355C13.6457 4.97612 17.4983 8.32525 17.4983 12.4104C17.4983 16.4956 13.6457 19.8447 13.4817 19.9853L12.8026 20.5674L12.1235 19.9853Z" fill="#D80027"/>
<path d="M16.4549 12.4096C16.4549 8.75747 12.8027 5.62701 12.8027 5.62701C12.8027 5.62701 9.15051 8.75756 9.15051 12.4096C9.15051 13.5269 9.49256 14.5951 9.96703 15.5401H15.6383C16.1128 14.5951 16.4549 13.5269 16.4549 12.4096Z" fill="#338AF3"/>
<path d="M16.4549 12.4101C16.4549 13.5274 16.1128 14.5956 15.6383 15.5405L12.8027 16.0623L9.96703 15.5405C9.49256 14.5956 9.15051 13.5274 9.15051 12.4101H16.4549Z" fill="#0052B4"/>
<path d="M12.8026 19.1925C12.8026 19.1925 14.5618 17.6842 15.6383 15.5404H9.96698C11.0435 17.6842 12.8026 19.1925 12.8026 19.1925Z" fill="#FFDA44"/>
<path d="M10.4547 10.3231H15.1503L12.8025 12.6709L10.4547 10.3231Z" fill="#6DA544"/>
<path d="M12.0198 11.8882H13.585V16.5838H12.0198V11.8882Z" fill="#A2001D"/>
</g>
<defs>
<clipPath id="clip0_6422_7738">
<rect width="24" height="24" fill="white" transform="translate(0.802734 0.410156)"/>
</clipPath>
</defs>
</svg>
