<svg width="25" height="25" viewBox="0 0 25 25" fill="none" xmlns="http://www.w3.org/2000/svg">
<g clip-path="url(#clip0_6422_7729)">
<path d="M24.0562 16.9528C24.5386 15.6529 24.8026 14.2468 24.8026 12.7789C24.8026 11.3111 24.5386 9.90508 24.0562 8.60505L12.8026 7.56157L1.54899 8.60505C1.06665 9.90508 0.802601 11.3111 0.802601 12.7789C0.802601 14.2468 1.06665 15.6529 1.54899 16.9528L12.8026 17.9963L24.0562 16.9528Z" fill="#FFDA44"/>
<path d="M12.8027 24.7791C17.9622 24.7791 22.3608 21.5226 24.0563 16.953H1.54905C3.24462 21.5226 7.64308 24.7791 12.8027 24.7791Z" fill="#0052B4"/>
<path d="M12.8027 0.779114C7.64308 0.779114 3.24462 4.03561 1.54905 8.60522H24.0563C22.3608 4.03561 17.9622 0.779114 12.8027 0.779114Z" fill="#6DA544"/>
</g>
<defs>
<clipPath id="clip0_6422_7729">
<rect width="24" height="24" fill="white" transform="translate(0.802734 0.779297)"/>
</clipPath>
</defs>
</svg>
