<svg width="25" height="25" viewBox="0 0 25 25" fill="none" xmlns="http://www.w3.org/2000/svg">
<g clip-path="url(#clip0_6422_7761)">
<path d="M12.8027 24.7257C19.4301 24.7257 24.8027 19.3531 24.8027 12.7257C24.8027 6.09829 19.4301 0.725708 12.8027 0.725708C6.17531 0.725708 0.802727 6.09829 0.802727 12.7257C0.802727 19.3531 6.17531 24.7257 12.8027 24.7257Z" fill="#F0F0F0"/>
<path d="M8.1066 8.55182H24.0558C22.3604 3.98221 17.9618 0.725708 12.8023 0.725708C9.48848 0.725708 6.48881 2.0691 4.31737 4.24082L8.1066 8.55182Z" fill="black"/>
<path d="M8.1066 16.8996H24.0558C22.3604 21.4692 17.9618 24.7257 12.8023 24.7257C9.48848 24.7257 6.48881 23.3823 4.31737 21.2106L8.1066 16.8996Z" fill="#6DA544"/>
<path d="M4.31744 4.24036C-0.368844 8.92664 -0.368844 16.5247 4.31744 21.211C6.25398 19.2744 8.11647 17.412 12.8027 12.7257L4.31744 4.24036Z" fill="#D80027"/>
<path d="M5.56523 10.1172L6.22378 11.4943L7.71107 11.1506L7.04498 12.5241L8.241 13.4725L6.75192 13.8081L6.75604 15.3346L5.56523 14.3796L4.37437 15.3346L4.37854 13.8081L2.88947 13.4725L4.08543 12.5241L3.41943 11.1506L4.90664 11.4943L5.56523 10.1172Z" fill="#F0F0F0"/>
</g>
<defs>
<clipPath id="clip0_6422_7761">
<rect width="24" height="24" fill="white" transform="translate(0.802734 0.725586)"/>
</clipPath>
</defs>
</svg>
