<svg width="25" height="24" viewBox="0 0 25 24" fill="none" xmlns="http://www.w3.org/2000/svg">
<g clip-path="url(#clip0_6422_7681)">
<path d="M12.8028 24C19.4302 24 24.8028 18.6274 24.8028 12C24.8028 5.37255 19.4302 -3.05176e-05 12.8028 -3.05176e-05C6.17534 -3.05176e-05 0.802757 5.37255 0.802757 12C0.802757 18.6274 6.17534 24 12.8028 24Z" fill="#F0F0F0"/>
<path d="M4.3174 3.51487C1.7456 6.08667 0.585583 9.53545 0.836505 12.8985L13.701 0.0340282C10.3379 -0.216941 6.88919 0.943075 4.3174 3.51487V3.51487Z" fill="#FFDA44"/>
<path d="M5.08772 21.1912C9.80246 25.1579 16.8505 24.9233 21.2882 20.4857C25.7258 16.0481 25.9605 8.99995 21.9938 4.28526L5.08772 21.1912Z" fill="#0052B4"/>
<path d="M12.76 11.517L13.7941 10.9568L12.76 10.3967C12.5186 8.82817 11.2793 7.58884 9.71081 7.34743L9.15061 6.31328L8.59045 7.34739C7.02202 7.58879 5.78273 8.82812 5.54123 10.3966L4.50708 10.9568L5.54119 11.517C5.78264 13.0855 7.02192 14.3248 8.59041 14.5662L9.15061 15.6003L9.71077 14.5662C11.2793 14.3248 12.5186 13.0855 12.76 11.517V11.517ZM9.15066 13.0438C7.99805 13.0438 7.06369 12.1095 7.06369 10.9568C7.06369 9.80415 7.998 8.86984 9.15066 8.86984C10.3033 8.86984 11.2376 9.80415 11.2376 10.9568C11.2376 12.1095 10.3033 13.0438 9.15066 13.0438Z" fill="black"/>
<path d="M9.15048 9.39142L9.6023 10.174H10.506L10.0541 10.9566L10.506 11.7392H9.6023L9.15048 12.5218L8.69865 11.7392H7.79499L8.24682 10.9566L7.79499 10.174H8.69865L9.15048 9.39142Z" fill="#D80027"/>
</g>
<defs>
<clipPath id="clip0_6422_7681">
<rect width="24" height="24" fill="white" transform="translate(0.802734)"/>
</clipPath>
</defs>
</svg>
