<svg width="25" height="25" viewBox="0 0 25 25" fill="none" xmlns="http://www.w3.org/2000/svg">
<g clip-path="url(#clip0_6422_7837)">
<path d="M12.8027 24.2821C19.4301 24.2821 24.8027 18.9095 24.8027 12.2821C24.8027 5.65467 19.4301 0.282085 12.8027 0.282085C6.1753 0.282085 0.802719 5.65467 0.802719 12.2821C0.802719 18.9095 6.1753 24.2821 12.8027 24.2821Z" fill="#FFDA44"/>
<path d="M14.6274 24.1437C16.5791 23.8459 18.3756 23.0773 19.8988 21.9584L12.8024 12.2816L14.6274 24.1437Z" fill="#D80027"/>
<path d="M10.9774 0.419376C9.02573 0.717126 7.2292 1.48569 5.70595 2.60455L12.8024 12.2814L10.9774 0.419376Z" fill="#D80027"/>
<path d="M5.70595 21.9584C7.22911 23.0773 9.02564 23.8459 10.9773 24.1437L12.8024 12.2816L5.70595 21.9584Z" fill="#D80027"/>
<path d="M3.12569 5.18512C2.00678 6.70837 1.23832 8.50485 0.940519 10.4565L12.8026 12.2815L3.12569 5.18512Z" fill="#D80027"/>
<path d="M0.940519 14.1065C1.23827 16.0582 2.00683 17.8548 3.12574 19.3779L12.8026 12.2816L0.940519 14.1065Z" fill="#D80027"/>
<path d="M24.6645 10.4565C24.3667 8.50485 23.5982 6.70832 22.4793 5.18512L12.8024 12.2815L24.6645 10.4565Z" fill="#D80027"/>
<path d="M19.8988 2.6045C18.3755 1.48564 16.5791 0.717126 14.6274 0.419376L12.8024 12.2814L19.8988 2.6045Z" fill="#D80027"/>
<path d="M22.4794 19.378C23.5982 17.8548 24.3667 16.0582 24.6646 14.1066L12.8024 12.2816L22.4794 19.378Z" fill="#D80027"/>
<path d="M12.8025 16.4559C15.1077 16.4559 16.9764 14.5872 16.9764 12.282C16.9764 9.97684 15.1077 8.10813 12.8025 8.10813C10.4974 8.10813 8.62864 9.97684 8.62864 12.282C8.62864 14.5872 10.4974 16.4559 12.8025 16.4559Z" fill="#D80027"/>
<path d="M12.8027 15.4119C14.5316 15.4119 15.9331 14.0103 15.9331 12.2814C15.9331 10.5525 14.5316 9.15095 12.8027 9.15095C11.0738 9.15095 9.67223 10.5525 9.67223 12.2814C9.67223 14.0103 11.0738 15.4119 12.8027 15.4119Z" fill="#FFDA44"/>
</g>
<defs>
<clipPath id="clip0_6422_7837">
<rect width="24" height="24" fill="white" transform="translate(0.802734 0.282227)"/>
</clipPath>
</defs>
</svg>
