<svg width="25" height="24" viewBox="0 0 25 24" fill="none" xmlns="http://www.w3.org/2000/svg">
<g clip-path="url(#clip0_6422_7651)">
<path d="M12.8028 24.0001C19.4302 24.0001 24.8028 18.6275 24.8028 12.0001C24.8028 5.37264 19.4302 6.10352e-05 12.8028 6.10352e-05C6.17538 6.10352e-05 0.802795 5.37264 0.802795 12.0001C0.802795 18.6275 6.17538 24.0001 12.8028 24.0001Z" fill="#D80027"/>
<path d="M7.36992 7.30334L8.40586 10.4908H11.7574L9.04805 12.4643L10.084 15.6518L7.36992 13.683L4.65586 15.6518L5.69648 12.4643L2.98242 10.4908H6.33398L7.36992 7.30334Z" fill="#FFDA44"/>
<path d="M15.0292 18.5858L14.237 17.6108L13.0651 18.0655L13.7448 17.0108L12.9526 16.0311L14.1667 16.3546L14.851 15.2999L14.9167 16.5561L16.1354 16.8796L14.9589 17.3296L15.0292 18.5858Z" fill="#FFDA44"/>
<path d="M16.6044 15.7269L16.9794 14.5269L15.9529 13.8004L17.2091 13.7816L17.5794 12.5816L17.9873 13.7722L19.2435 13.7582L18.2357 14.5082L18.6388 15.6988L17.6123 14.9722L16.6044 15.7269Z" fill="#FFDA44"/>
<path d="M18.7278 8.80802L18.1747 9.93771L19.0747 10.8143L17.8325 10.6361L17.2794 11.7611L17.0638 10.5236L15.8169 10.3455L16.9325 9.75958L16.7169 8.5174L17.6169 9.39396L18.7278 8.80802Z" fill="#FFDA44"/>
<path d="M15.0622 5.38586L14.9685 6.63743L16.1357 7.11087L14.9122 7.41086L14.8232 8.66711L14.1622 7.59836L12.9388 7.89836L13.7497 6.93743L13.0841 5.87336L14.2513 6.3468L15.0622 5.38586Z" fill="#FFDA44"/>
</g>
<defs>
<clipPath id="clip0_6422_7651">
<rect width="24" height="24" fill="white" transform="translate(0.802734)"/>
</clipPath>
</defs>
</svg>
