<svg width="25" height="25" viewBox="0 0 25 25" fill="none" xmlns="http://www.w3.org/2000/svg">
<g clip-path="url(#clip0_6422_7707)">
<path d="M12.8028 24.8026C19.4302 24.8026 24.8028 19.43 24.8028 12.8026C24.8028 6.17518 19.4302 0.802593 12.8028 0.802593C6.17541 0.802593 0.802826 6.17518 0.802826 12.8026C0.802826 19.43 6.17541 24.8026 12.8028 24.8026Z" fill="#F0F0F0"/>
<path d="M11.7593 12.8017C11.7593 12.8017 4.32454 21.2887 4.3175 21.287C6.48904 23.4586 9.48908 24.8017 12.8028 24.8017C19.4302 24.8017 24.8028 19.4291 24.8028 12.8017H11.7593Z" fill="#D80027"/>
<path d="M4.31726 4.31659C-0.369019 9.00287 -0.369019 16.6009 4.31726 21.2872C6.25381 19.3507 8.11629 17.4882 12.8026 12.8019L4.31726 4.31659Z" fill="#0052B4"/>
</g>
<defs>
<clipPath id="clip0_6422_7707">
<rect width="24" height="24" fill="white" transform="translate(0.802734 0.802734)"/>
</clipPath>
</defs>
</svg>
