<svg width="25" height="24" viewBox="0 0 25 24" fill="none" xmlns="http://www.w3.org/2000/svg">
<g clip-path="url(#clip0_6422_7814)">
<path d="M1.99347 6.78271C1.23063 8.36034 0.802753 10.1302 0.802753 12.0001C0.802753 13.87 1.23063 15.6398 1.99347 17.2175L12.8028 18.2609L23.612 17.2175C24.3749 15.6398 24.8028 13.87 24.8028 12.0001C24.8028 10.1302 24.3749 8.36034 23.612 6.78271L12.8028 5.73923L1.99347 6.78271Z" fill="#F0F0F0"/>
<path d="M1.99387 17.2177C3.93478 21.2317 8.0452 24.0003 12.8027 24.0003C17.5603 24.0003 21.6707 21.2317 23.6116 17.2177H1.99387Z" fill="#6DA544"/>
<path d="M1.99387 6.78261H23.6116C21.6707 2.76866 17.5602 -1.52588e-05 12.8027 -1.52588e-05C8.04525 -1.52588e-05 3.93478 2.76866 1.99387 6.78261Z" fill="#FF9811"/>
<path d="M12.8029 16.174C15.1081 16.174 16.9768 14.3053 16.9768 12.0002C16.9768 9.69498 15.1081 7.82626 12.8029 7.82626C10.4977 7.82626 8.62899 9.69498 8.62899 12.0002C8.62899 14.3053 10.4977 16.174 12.8029 16.174Z" fill="#FF9811"/>
</g>
<defs>
<clipPath id="clip0_6422_7814">
<rect width="24" height="24" fill="white" transform="translate(0.802734)"/>
</clipPath>
</defs>
</svg>
