<svg width="25" height="24" viewBox="0 0 25 24" fill="none" xmlns="http://www.w3.org/2000/svg">
<g clip-path="url(#clip0_6422_7781)">
<path d="M0.802719 12.0002C0.802719 12.8221 0.885594 13.6247 1.04305 14.4002L12.8027 15.1306L24.5624 14.4002C24.7199 13.6247 24.8027 12.8221 24.8027 12.0002C24.8027 11.1782 24.7198 10.3756 24.5624 9.60017L12.8027 8.86972L1.04305 9.60017C0.885594 10.3756 0.802719 11.1782 0.802719 12.0002H0.802719Z" fill="#0052B4"/>
<path d="M24.5623 14.4005H1.04295C2.15478 19.8778 6.9972 24.0005 12.8026 24.0005C18.608 24.0005 23.4505 19.8778 24.5623 14.4005Z" fill="#F0F0F0"/>
<path d="M1.04295 9.60022H24.5624C23.4505 4.12287 18.6081 0.000213623 12.8026 0.000213623C6.99711 0.000213623 2.15478 4.12287 1.04295 9.60022V9.60022Z" fill="black"/>
<path d="M18.0199 9.60047H7.58517L9.71705 8.59763L8.58178 6.53302L10.8967 6.97575L11.1901 4.63721L12.8025 6.35724L14.415 4.63721L14.7083 6.97575L17.0233 6.53302L15.8881 8.59772L18.0199 9.60047Z" fill="#FFDA44"/>
<path d="M0.802414 12.0003C0.802414 18.6277 6.17504 24.0003 12.8024 24.0003L3.20223 4.79987C1.69548 6.8056 0.802414 9.29855 0.802414 12.0003Z" fill="#A2001D"/>
<path d="M12.8021 24.0003C19.4295 24.0003 24.8021 18.6276 24.8021 12.0003C24.8021 9.29852 23.9091 6.80557 22.4023 4.79984L12.8021 24.0003Z" fill="#A2001D"/>
</g>
<defs>
<clipPath id="clip0_6422_7781">
<rect width="24" height="24" fill="white" transform="translate(0.802734)"/>
</clipPath>
</defs>
</svg>
