<svg width="25" height="24" viewBox="0 0 25 24" fill="none" xmlns="http://www.w3.org/2000/svg">
<g clip-path="url(#clip0_6422_7701)">
<path d="M24.8028 12C24.8028 18.6274 19.4301 24 12.8028 24C6.17539 24 0.802765 18.6274 0.802765 12C0.802765 12.0029 12.8028 0.00135065 12.8028 3.8147e-05C19.4301 3.8147e-05 24.8028 5.37266 24.8028 12Z" fill="#0052B4"/>
<path d="M12.7706 12.0011H12.8038C12.8038 11.9899 12.8038 11.979 12.8038 11.9678C12.7927 11.9789 12.7817 11.99 12.7706 12.0011Z" fill="#F0F0F0"/>
<path d="M12.8028 6.2609C12.8028 4.14941 12.8028 2.7659 12.8028 3.8147e-05H12.8007C6.17422 0.00116315 0.802765 5.37327 0.802765 12H7.06362V8.47452L10.5891 12H12.7707C12.7814 11.9894 12.7921 11.9787 12.8028 11.9679C12.8028 11.1595 12.8028 10.4381 12.8028 9.78651L9.2772 6.2609H12.8028Z" fill="#F0F0F0"/>
<path d="M6.87338 1.56564C4.99655 2.63435 3.43623 4.19463 2.36757 6.07146V12.0004H5.49802V4.69619V4.6961H12.8024C12.8024 3.70877 12.8024 2.76817 12.8024 1.56564H6.87338Z" fill="#D80027"/>
<path d="M12.8024 10.5245L8.5389 6.26105H7.06328V6.26114L12.8023 12.0001H12.8024C12.8024 12.0001 12.8024 10.9826 12.8024 10.5245V10.5245Z" fill="#D80027"/>
<path d="M16.9769 11.9999L17.199 12.6831H17.9173L17.3362 13.1054L17.5582 13.7887L16.9769 13.3664L16.3957 13.7887L16.6177 13.1054L16.0365 12.6831H16.7549L16.9769 11.9999Z" fill="#F0F0F0"/>
<path d="M14.0252 13.2225L14.6653 13.5486L15.1733 13.0406L15.0609 13.7502L15.701 14.0763L14.9914 14.1887L14.8791 14.8983L14.5529 14.2582L13.8433 14.3706L14.3514 13.8626L14.0252 13.2225Z" fill="#F0F0F0"/>
<path d="M12.8026 16.1741L13.4859 15.9521L13.486 15.2338L13.9081 15.8149L14.5914 15.5929L14.1691 16.1741L14.5914 16.7554L13.9081 16.5334L13.486 17.1146V16.3962L12.8026 16.1741Z" fill="#F0F0F0"/>
<path d="M14.0252 19.1254L14.3513 18.4853L13.8433 17.9774L14.5529 18.0897L14.8791 17.4496L14.9914 18.1592L15.701 18.2715L15.0609 18.5977L15.1733 19.3073L14.6653 18.7992L14.0252 19.1254Z" fill="#F0F0F0"/>
<path d="M16.9766 20.3476L16.7546 19.6643H16.0362L16.6174 19.242L16.3954 18.5588L16.9766 18.981L17.5579 18.5588L17.3359 19.242L17.9171 19.6643H17.1987L16.9766 20.3476Z" fill="#F0F0F0"/>
<path d="M19.9281 19.1254L19.288 18.7994L18.7801 19.3073L18.8924 18.5977L18.2523 18.2716L18.9619 18.1592L19.0743 17.4496L19.4004 18.0897L20.11 17.9774L19.6019 18.4853L19.9281 19.1254Z" fill="#F0F0F0"/>
<path d="M21.1506 16.1741L20.4673 16.3962V17.1146L20.0451 16.5334L19.3618 16.7554L19.7841 16.1741L19.3618 15.5929L20.0451 15.8149L20.4673 15.2338V15.9521L21.1506 16.1741Z" fill="#F0F0F0"/>
<path d="M19.9281 13.2231L19.6021 13.8632L20.11 14.3712L19.4004 14.2588L19.0743 14.8989L18.9619 14.1892L18.2523 14.0769L18.8924 13.7508L18.7801 13.0412L19.2881 13.5492L19.9281 13.2231Z" fill="#F0F0F0"/>
</g>
<defs>
<clipPath id="clip0_6422_7701">
<rect width="24" height="24" fill="white" transform="translate(0.802734)"/>
</clipPath>
</defs>
</svg>
