<svg width="25" height="24" viewBox="0 0 25 24" fill="none" xmlns="http://www.w3.org/2000/svg">
<g clip-path="url(#clip0_6422_7646)">
<path d="M24.0565 16.1743C24.5388 14.8743 24.8028 13.4682 24.8028 12.0004C24.8028 10.5326 24.5388 9.12654 24.0565 7.8265L12.8028 6.78302L1.54923 7.8265C1.06689 9.12654 0.802841 10.5326 0.802841 12.0004C0.802841 13.4682 1.06689 14.8743 1.54923 16.1743L12.8028 17.2178L24.0565 16.1743Z" fill="#F0F0F0"/>
<path d="M12.803 23.9999C17.9625 23.9999 22.3611 20.7434 24.0566 16.1738H1.54935C3.24491 20.7434 7.64338 23.9999 12.803 23.9999Z" fill="#D80027"/>
<path d="M12.803 -6.10352e-05C7.64333 -6.10352e-05 3.24486 3.25644 1.5493 7.82605H24.0566C22.3611 3.25644 17.9625 -6.10352e-05 12.803 -6.10352e-05Z" fill="#D80027"/>
</g>
<defs>
<clipPath id="clip0_6422_7646">
<rect width="24" height="24" fill="white" transform="translate(0.802734)"/>
</clipPath>
</defs>
</svg>
