<svg width="25" height="25" viewBox="0 0 25 25" fill="none" xmlns="http://www.w3.org/2000/svg">
<g clip-path="url(#clip0_6422_7709)">
<path d="M12.8026 24.2821C19.43 24.2821 24.8026 18.9095 24.8026 12.2821C24.8026 5.65467 19.43 0.282085 12.8026 0.282085C6.17519 0.282085 0.802612 5.65467 0.802612 12.2821C0.802612 18.9095 6.17519 24.2821 12.8026 24.2821Z" fill="#F0F0F0"/>
<path d="M10.1939 10.716H24.701C23.9339 4.82817 18.8994 0.2812 12.8025 0.2812C11.9065 0.2812 11.0338 0.380247 10.1938 0.566435V10.716H10.1939Z" fill="#D80027"/>
<path d="M7.06346 10.7159V1.74019C3.76847 3.53804 1.40963 6.83574 0.904175 10.7159H7.06346V10.7159Z" fill="#D80027"/>
<path d="M7.06341 13.8461H0.904175C1.40963 17.7263 3.76847 21.024 7.06346 22.8218L7.06341 13.8461Z" fill="#D80027"/>
<path d="M10.1938 13.8462V23.9957C11.0338 24.1819 11.9065 24.2809 12.8025 24.2809C18.8994 24.2809 23.9339 19.7339 24.701 13.8461H10.1938V13.8462Z" fill="#D80027"/>
</g>
<defs>
<clipPath id="clip0_6422_7709">
<rect width="24" height="24" fill="white" transform="translate(0.802734 0.282227)"/>
</clipPath>
</defs>
</svg>
