<svg width="25" height="24" viewBox="0 0 25 24" fill="none" xmlns="http://www.w3.org/2000/svg">
<g clip-path="url(#clip0_6422_7679)">
<path d="M21.2879 20.4857C16.6017 25.172 9.00369 25.172 4.31736 20.4857C-0.368916 15.7994 -0.368916 8.20139 4.31736 3.51506C4.31905 3.51506 15.1013 0.329108 19.7877 5.01539C24.474 9.70167 21.2912 20.4824 21.2879 20.4857Z" fill="#FFDA44"/>
<path d="M21.2879 20.4856C25.9742 15.7993 25.9742 8.20133 21.2879 3.515C16.6016 -1.17132 9.00363 -1.17128 4.3173 3.515L21.2879 20.4856Z" fill="#D80027"/>
<path d="M15.9393 15.1378C15.4463 15.3314 14.8736 15.3109 14.3767 15.032C13.4987 14.5392 13.1853 13.4239 13.6782 12.5458L13.5285 12.4619C15.0319 12.0994 16.1441 10.7349 16.1246 9.12462C16.1125 8.12351 15.6652 7.22786 14.9655 6.61502L13.8698 7.73749C14.284 8.06758 14.5526 8.57393 14.5595 9.1436C14.5717 10.1505 13.7625 10.9796 12.7557 10.9917L12.7578 11.1631C11.6922 10.0425 9.95442 9.7616 8.56969 10.5836C7.70878 11.0947 7.15687 11.9299 6.97589 12.8423L8.49576 13.2299C8.57456 12.7061 8.87873 12.2204 9.36862 11.9296C10.2345 11.4156 11.357 11.7019 11.871 12.5677L12.0186 12.4802C11.5808 13.9632 12.2064 15.6086 13.6107 16.3969C14.4838 16.8869 15.483 16.9474 16.3637 16.6479L15.9393 15.1378ZM12.7683 12.0349L12.7682 12.035L12.7683 12.0349Z" fill="#FF9811"/>
<path d="M17.2457 8.12696L16.3976 11.1537L13.8527 10.6838L12.2146 7.30716L7.7893 8.87752L7.44032 7.89408L6.28251 7.75144L7.1549 10.21L10.2003 9.43111L11.0658 11.87L8.96052 14.9769L12.5332 18.0241L11.856 18.818L12.3114 19.8921L14.0044 17.9072L11.8072 15.6593L13.4866 13.6904L17.2299 13.9601L18.0825 9.34243L19.1087 9.53194L19.8113 8.60053L17.2457 8.12696ZM12.8017 12.0814V12.0815V12.0814Z" fill="#FFEACF"/>
</g>
<defs>
<clipPath id="clip0_6422_7679">
<rect width="24" height="24" fill="white" transform="translate(0.802734)"/>
</clipPath>
</defs>
</svg>
