<svg width="25" height="24" viewBox="0 0 25 24" fill="none" xmlns="http://www.w3.org/2000/svg">
<g clip-path="url(#clip0_6422_7777)">
<path d="M12.8026 24.0002C19.43 24.0002 24.8026 18.6276 24.8026 12.0002C24.8026 5.37277 19.43 0.000183105 12.8026 0.000183105C6.1752 0.000183105 0.802616 5.37277 0.802616 12.0002C0.802616 18.6276 6.1752 24.0002 12.8026 24.0002Z" fill="#F0F0F0"/>
<path d="M18.6242 1.50562C16.8999 0.547116 14.9152 0.000366211 12.8025 0.000366211C6.17559 0.000366211 0.803342 5.37215 0.802498 11.999L9.15033 7.82647L18.6242 1.50562Z" fill="#0052B4"/>
<path d="M0.802467 12.0014C0.803311 18.6282 6.17556 24 12.8025 24C14.9151 24 16.8999 23.4534 18.6242 22.4948L9.1503 16.1739L0.802467 12.0014Z" fill="#0052B4"/>
<path d="M19.6243 2.12752C19.302 1.90444 18.968 1.69697 18.6239 1.50568L0.802601 11.9988V12.0002C0.802601 12.0002 0.802601 12.0012 0.802601 12.0016L18.6239 22.4948C18.9681 22.3034 19.302 22.096 19.6244 21.8729L2.85676 12.0002L19.6243 2.12752Z" fill="#D80027"/>
<path d="M21.6721 11.5526H20.2427C20.6144 11.1063 20.5915 10.4424 20.1727 10.0238C20.6163 9.58032 20.6163 8.86121 20.1727 8.41763L20.146 8.44444C20.5895 8.00096 20.6163 7.25504 20.1727 6.81155L13.7482 13.2361C14.1918 13.6796 14.8983 13.6743 15.3418 13.2308L15.4654 13.1178L18.5417 12.8381V14.1612H19.5852V12.7433L21.1504 12.601L21.6721 11.5526Z" fill="#A2001D"/>
<path d="M13.8466 14.6086L12.8027 14.0869L13.8466 13.5651H20.6291V14.6086H13.8466Z" fill="#FFDA44"/>
</g>
<defs>
<clipPath id="clip0_6422_7777">
<rect width="24" height="24" fill="white" transform="translate(0.802734)"/>
</clipPath>
</defs>
</svg>
