<svg width="25" height="24" viewBox="0 0 25 24" fill="none" xmlns="http://www.w3.org/2000/svg">
<g clip-path="url(#clip0_6422_7650)">
<path d="M12.8028 24.0001C19.4302 24.0001 24.8028 18.6275 24.8028 12.0001C24.8028 5.37264 19.4302 6.10352e-05 12.8028 6.10352e-05C6.17535 6.10352e-05 0.802765 5.37264 0.802765 12.0001C0.802765 18.6275 6.17535 24.0001 12.8028 24.0001Z" fill="#F0F0F0"/>
<path d="M24.8028 11.9997C24.8028 18.6271 19.4301 23.9997 12.8028 23.9997C6.17539 23.9997 0.802765 18.6271 0.802765 11.9997C0.802765 5.37232 12.8028 11.9997 12.8028 11.9997C12.8028 11.9997 21.8853 11.9997 24.8028 11.9997Z" fill="#D80027"/>
<path d="M0.802765 12.0001C0.802765 5.37269 6.17539 6.10352e-05 12.8028 6.10352e-05V12.0001C12.8028 12.0001 4.97666 12.0001 0.802765 12.0001Z" fill="#0052B4"/>
<path d="M7.94592 4.17352L8.72297 6.56499H11.2375L9.2032 8.04296L9.9802 10.4344L7.94592 8.95641L5.91164 10.4344L6.68864 8.04296L4.65436 6.56499H7.16887L7.94592 4.17352Z" fill="#F0F0F0"/>
</g>
<defs>
<clipPath id="clip0_6422_7650">
<rect width="24" height="24" fill="white" transform="translate(0.802734)"/>
</clipPath>
</defs>
</svg>
