<svg width="25" height="25" viewBox="0 0 25 25" fill="none" xmlns="http://www.w3.org/2000/svg">
<g clip-path="url(#clip0_6422_7895)">
<path d="M1.36936 9.07352C1.00177 10.2251 0.802688 11.452 0.802734 12.7256C0.802688 13.9991 1.00181 15.2261 1.36941 16.3777L12.8027 16.8995L24.2361 16.3778C24.6036 15.2261 24.8028 13.9991 24.8028 12.7256C24.8027 11.4521 24.6037 10.2251 24.2361 9.07348L12.8027 8.55176L1.36936 9.07352Z" fill="#F0F0F0"/>
<path d="M24.2363 9.07433L12.803 8.55261L1.3696 9.07433C1.26066 9.41577 1.16687 9.76391 1.08826 10.1178H24.5175C24.439 9.76386 24.3452 9.41568 24.2363 9.07433Z" fill="#D80027"/>
<path d="M1.08858 15.3351C1.16709 15.689 1.26089 16.0371 1.36983 16.3785L1.37095 16.3786L12.8031 16.9003L24.2364 16.3786C24.3454 16.0371 24.4392 15.689 24.5177 15.3351H1.08858Z" fill="#D80027"/>
<path d="M12.8028 24.7259C18.1567 24.7259 22.6909 21.2195 24.2362 16.3781H1.36957C2.9148 21.2194 7.44911 24.7259 12.8028 24.7259V24.7259Z" fill="#6DA544"/>
<path d="M12.8029 0.725464C7.44912 0.725511 2.9149 4.2319 1.36957 9.07329L24.2362 9.07334C22.691 4.23185 18.1568 0.725417 12.8029 0.725464V0.725464Z" fill="#338AF3"/>
<path d="M6.28642 5.68219C6.28642 4.55827 7.07631 3.61936 8.13113 3.38902C7.96904 3.35358 7.80081 3.33441 7.62802 3.33441C6.33137 3.33441 5.2802 4.38554 5.2802 5.68224C5.2802 6.97894 6.33127 8.03007 7.62802 8.03007C7.80081 8.03007 7.96899 8.01085 8.13113 7.97546C7.07635 7.74502 6.28642 6.80611 6.28642 5.68219V5.68219Z" fill="#F0F0F0"/>
<path d="M9.51868 6.74982L9.67759 7.23896H10.1919L9.77584 7.5413L9.93474 8.03044L9.51868 7.72814L9.10252 8.03044L9.26148 7.5413L8.84537 7.23896H9.35968L9.51868 6.74982Z" fill="#F0F0F0"/>
<path d="M11.1603 6.74982L11.3193 7.23896H11.8336L11.4175 7.5413L11.5765 8.03044L11.1603 7.72814L10.7442 8.03044L10.9032 7.5413L10.4871 7.23896H11.0014L11.1603 6.74982Z" fill="#F0F0F0"/>
<path d="M12.8022 6.74982L12.9611 7.23896H13.4755L13.0594 7.5413L13.2183 8.03044L12.8022 7.72814L12.386 8.03044L12.545 7.5413L12.1289 7.23896H12.6433L12.8022 6.74982Z" fill="#F0F0F0"/>
<path d="M14.4436 6.74982L14.6026 7.23896H15.1169L14.7008 7.5413L14.8597 8.03044L14.4436 7.72814L14.0275 8.03044L14.1865 7.5413L13.7703 7.23896H14.2846L14.4436 6.74982Z" fill="#F0F0F0"/>
<path d="M16.0853 6.74982L16.2443 7.23896H16.7586L16.3425 7.5413L16.5015 8.03044L16.0853 7.72814L15.6692 8.03044L15.8282 7.5413L15.4121 7.23896H15.9264L16.0853 6.74982Z" fill="#F0F0F0"/>
<path d="M11.1603 5.04211L11.3193 5.53121H11.8336L11.4175 5.8336L11.5765 6.32269L11.1603 6.0204L10.7442 6.32269L10.9032 5.8336L10.4871 5.53121H11.0014L11.1603 5.04211Z" fill="#F0F0F0"/>
<path d="M12.8022 5.04211L12.9611 5.53121H13.4755L13.0594 5.8336L13.2183 6.32269L12.8022 6.0204L12.386 6.32269L12.545 5.8336L12.1289 5.53121H12.6433L12.8022 5.04211Z" fill="#F0F0F0"/>
<path d="M14.4436 5.04211L14.6026 5.53121H15.1169L14.7008 5.8336L14.8597 6.32269L14.4436 6.0204L14.0275 6.32269L14.1865 5.8336L13.7703 5.53121H14.2846L14.4436 5.04211Z" fill="#F0F0F0"/>
<path d="M16.0853 5.04211L16.2443 5.53121H16.7586L16.3425 5.8336L16.5015 6.32269L16.0853 6.0204L15.6692 6.32269L15.8282 5.8336L15.4121 5.53121H15.9264L16.0853 5.04211Z" fill="#F0F0F0"/>
<path d="M12.8022 3.33441L12.9611 3.8236H13.4755L13.0594 4.1259L13.2183 4.61508L12.8022 4.31279L12.386 4.61508L12.545 4.1259L12.1289 3.8236H12.6433L12.8022 3.33441Z" fill="#F0F0F0"/>
<path d="M14.4436 3.33441L14.6026 3.8236H15.1169L14.7008 4.1259L14.8597 4.61508L14.4436 4.31279L14.0275 4.61508L14.1865 4.1259L13.7703 3.8236H14.2846L14.4436 3.33441Z" fill="#F0F0F0"/>
<path d="M16.0853 3.33441L16.2443 3.8236H16.7586L16.3425 4.1259L16.5015 4.61508L16.0853 4.31279L15.6692 4.61508L15.8282 4.1259L15.4121 3.8236H15.9264L16.0853 3.33441Z" fill="#F0F0F0"/>
</g>
<defs>
<clipPath id="clip0_6422_7895">
<rect width="24" height="24" fill="white" transform="translate(0.802734 0.725586)"/>
</clipPath>
</defs>
</svg>
