<svg width="25" height="24" viewBox="0 0 25 24" fill="none" xmlns="http://www.w3.org/2000/svg">
<g clip-path="url(#clip0_6422_7687)">
<path d="M12.8027 23.9983C19.4292 23.9983 24.801 18.6266 24.801 12.0001C24.801 5.37366 19.4292 0.00186157 12.8027 0.00186157C6.1763 0.00186157 0.804504 5.37366 0.804504 12.0001C0.804504 18.6266 6.1763 23.9983 12.8027 23.9983Z" fill="#F0F0F0"/>
<path d="M2.41195 6.00125C1.87039 6.93915 1.47092 7.9197 1.2049 8.91849L21.2705 20.5035C22.0025 19.7737 22.652 18.9373 23.1934 17.9995L2.41195 6.00125Z" fill="black"/>
<path d="M18.8023 1.60917C14.0014 -1.16256 8.08193 -0.238772 4.33527 3.49687L24.4009 15.0818C25.7628 9.96937 23.603 4.38095 18.8023 1.60917V1.60917Z" fill="#FFDA44"/>
<path d="M6.80389 22.3907C11.6047 25.1624 17.5243 24.2387 21.2709 20.5031L1.20516 8.91803C-0.156633 14.0306 2.00304 19.619 6.80389 22.3907Z" fill="#FFDA44"/>
<path d="M16.1936 10.6955C16.1936 12.5682 14.6755 14.0864 12.8028 14.0864C10.9301 14.0864 9.41196 12.5682 9.41196 10.6955C9.41196 10.1117 9.55957 9.56222 9.81954 9.08253C9.08373 9.83504 8.62946 10.8641 8.62946 11.9997C8.62946 14.3045 10.4979 16.173 12.8028 16.173C15.1077 16.173 16.9761 14.3046 16.9761 11.9997C16.9761 10.8641 16.5219 9.83504 15.786 9.08253C16.046 9.56231 16.1936 10.1117 16.1936 10.6955V10.6955Z" fill="#D80027"/>
<path d="M12.0204 6.78314H13.5854V14.6081H12.0204V6.78314Z" fill="#D80027"/>
<path d="M15.4109 8.34769H10.1943C10.1943 8.70784 10.508 8.99978 10.8681 8.99978H10.8464C10.8464 9.35993 11.1384 9.65187 11.4985 9.65187C11.4985 10.012 11.7905 10.304 12.1506 10.304H13.4547C13.8149 10.304 14.1068 10.012 14.1068 9.65187C14.467 9.65187 14.7589 9.35993 14.7589 8.99978H14.7372C15.0972 8.99973 15.4109 8.70788 15.4109 8.34769Z" fill="#D80027"/>
<path d="M9.15106 15.1297H16.4543V16.6947H9.15106V15.1297Z" fill="#D80027"/>
<path d="M14.3676 15.6516H17.4975V17.2166H14.3676V15.6516Z" fill="#D80027"/>
<path d="M8.10782 15.6516H11.2378V17.2166H8.10782V15.6516Z" fill="#D80027"/>
</g>
<defs>
<clipPath id="clip0_6422_7687">
<rect width="24" height="24" fill="white" transform="translate(0.802734)"/>
</clipPath>
</defs>
</svg>
