<svg width="25" height="25" viewBox="0 0 25 25" fill="none" xmlns="http://www.w3.org/2000/svg">
<g clip-path="url(#clip0_6422_7892)">
<path d="M12.8026 24.7257C19.43 24.7257 24.8026 19.3531 24.8026 12.7257C24.8026 6.09829 19.43 0.725708 12.8026 0.725708C6.17521 0.725708 0.802628 6.09829 0.802628 12.7257C0.802628 19.3531 6.17521 24.7257 12.8026 24.7257Z" fill="#F0F0F0"/>
<path d="M7.58508 16.8996L8.62857 23.9794C9.92851 24.4618 11.3346 24.7257 12.8025 24.7257C17.962 24.7257 22.3606 21.4692 24.056 16.8996H7.58508Z" fill="black"/>
<path d="M7.58508 8.55182L8.62857 1.472C9.92851 0.989614 11.3346 0.725708 12.8025 0.725708C17.962 0.725708 22.3606 3.98221 24.056 8.55182H7.58508Z" fill="#6DA544"/>
<path d="M0.802628 12.7255C0.802628 17.885 4.05917 22.2836 8.62874 23.9791V1.47186C4.05917 3.16738 0.802628 7.56589 0.802628 12.7255Z" fill="#A2001D"/>
</g>
<defs>
<clipPath id="clip0_6422_7892">
<rect width="24" height="24" fill="white" transform="translate(0.802734 0.725586)"/>
</clipPath>
</defs>
</svg>
