<svg width="25" height="25" viewBox="0 0 25 25" fill="none" xmlns="http://www.w3.org/2000/svg">
<g clip-path="url(#clip0_6422_7768)">
<path d="M23.6126 7.5087C21.6716 3.49475 17.5608 0.726074 12.8033 0.726074C8.04574 0.726074 3.93499 3.49475 1.99399 7.5087L12.8033 8.55218L23.6126 7.5087Z" fill="#D80027"/>
<path d="M1.99405 17.9434C3.93505 21.9573 8.0458 24.726 12.8033 24.726C17.5609 24.726 21.6716 21.9573 23.6126 17.9434L12.8033 16.8999L1.99405 17.9434Z" fill="#D80027"/>
<path d="M23.6121 7.50854H1.99358C1.23073 9.08612 0.802856 10.856 0.802856 12.7259C0.802856 14.5958 1.23073 16.3657 1.99358 17.9433H23.6121C24.375 16.3657 24.8029 14.5958 24.8029 12.7259C24.8029 10.856 24.375 9.08612 23.6121 7.50854V7.50854Z" fill="#0052B4"/>
<path d="M12.803 16.8995C15.1082 16.8995 16.9769 15.0308 16.9769 12.7256C16.9769 10.4205 15.1082 8.55176 12.803 8.55176C10.4979 8.55176 8.62915 10.4205 8.62915 12.7256C8.62915 15.0308 10.4979 16.8995 12.803 16.8995Z" fill="#F0F0F0"/>
</g>
<defs>
<clipPath id="clip0_6422_7768">
<rect width="24" height="24" fill="white" transform="translate(0.802734 0.725586)"/>
</clipPath>
</defs>
</svg>
