<svg width="25" height="25" viewBox="0 0 25 25" fill="none" xmlns="http://www.w3.org/2000/svg">
<g clip-path="url(#clip0_6422_7896)">
<path d="M24.8028 12.726C24.8028 12.1955 24.7679 11.6732 24.7012 11.1608H11.2374C8.78583 8.70935 4.31729 4.2411 4.31748 4.24072C-0.368796 8.92699 -0.368796 16.5249 4.31748 21.2113L11.2376 14.2913H24.7012C24.7679 13.7789 24.8028 13.2565 24.8028 12.726V12.726Z" fill="black"/>
<path d="M24.7995 12.9991C24.7989 13.0222 24.7984 13.0454 24.7978 13.0685C24.7983 13.0453 24.7989 13.0222 24.7995 12.9991Z" fill="#F0F0F0"/>
<path d="M24.7878 13.327C24.7868 13.3498 24.7852 13.3726 24.784 13.3954C24.7852 13.3727 24.7867 13.3498 24.7878 13.327Z" fill="#F0F0F0"/>
<path d="M24.7716 13.5889C24.7692 13.6225 24.7669 13.6561 24.7642 13.6896C24.7669 13.6561 24.7692 13.6225 24.7716 13.5889Z" fill="#F0F0F0"/>
<path d="M24.7316 11.4182C24.736 11.4582 24.7404 11.4982 24.7444 11.5384C24.7404 11.4982 24.736 11.4582 24.7316 11.4182Z" fill="#F0F0F0"/>
<path d="M24.784 12.0564C24.7852 12.0792 24.7868 12.102 24.7878 12.1249C24.7867 12.102 24.7852 12.0792 24.784 12.0564Z" fill="#F0F0F0"/>
<path d="M24.7978 12.3836C24.7984 12.4067 24.7989 12.4299 24.7995 12.453C24.7989 12.4298 24.7984 12.4067 24.7978 12.3836Z" fill="#F0F0F0"/>
<path d="M24.7642 11.7631C24.7669 11.7966 24.7692 11.8302 24.7716 11.8638C24.7692 11.8302 24.7669 11.7966 24.7642 11.7631Z" fill="#F0F0F0"/>
<path d="M24.7012 11.1602C24.7066 11.2013 24.7114 11.2426 24.7163 11.2838C24.0041 5.33627 18.9422 0.725464 12.8028 0.725464C9.48902 0.725464 6.48898 2.06866 4.31741 4.24033L11.2373 11.1602H24.7012V11.1602Z" fill="#D80027"/>
<path d="M24.7012 14.2909H11.2373L4.31741 21.2108C6.48898 23.3824 9.48902 24.7257 12.8028 24.7257C18.9422 24.7257 24.0041 20.1149 24.7163 14.1672C24.7114 14.2084 24.7065 14.2498 24.7012 14.2909V14.2909Z" fill="#6DA544"/>
<path d="M24.7444 13.9135C24.7404 13.9536 24.736 13.9936 24.7316 14.0336C24.736 13.9936 24.7405 13.9537 24.7444 13.9135Z" fill="#F0F0F0"/>
<path d="M24.7715 11.8635C24.776 11.9275 24.7802 11.9917 24.7837 12.056C24.7801 11.9917 24.776 11.9275 24.7715 11.8635V11.8635Z" fill="black"/>
<path d="M24.7162 11.2844C24.7216 11.3288 24.7267 11.3733 24.7315 11.4178C24.7266 11.3733 24.7215 11.3288 24.7162 11.2844Z" fill="black"/>
<path d="M24.7445 11.5388C24.7518 11.6131 24.7584 11.6876 24.7643 11.7624C24.7584 11.6876 24.7518 11.6131 24.7445 11.5388Z" fill="black"/>
<path d="M24.8026 12.7258C24.8026 12.8169 24.8012 12.9076 24.7991 12.998C24.8012 12.9075 24.8026 12.8168 24.8026 12.7258Z" fill="black"/>
<path d="M24.7837 13.3953C24.7801 13.4596 24.776 13.5238 24.7715 13.5878C24.776 13.5238 24.7801 13.4596 24.7837 13.3953Z" fill="black"/>
<path d="M24.7643 13.6893C24.7584 13.764 24.7518 13.8385 24.7445 13.9128C24.7518 13.8385 24.7584 13.764 24.7643 13.6893Z" fill="black"/>
<path d="M24.7315 14.0334C24.7267 14.078 24.7216 14.1224 24.7162 14.1668C24.7215 14.1224 24.7266 14.078 24.7315 14.0334Z" fill="black"/>
<path d="M24.7991 12.4526C24.8012 12.5432 24.8026 12.6339 24.8026 12.7248C24.8026 12.6339 24.8012 12.5432 24.7991 12.4526Z" fill="black"/>
<path d="M24.7878 12.1254C24.792 12.2111 24.7952 12.2971 24.7977 12.3832C24.7952 12.2971 24.7921 12.2111 24.7878 12.1254Z" fill="black"/>
<path d="M24.7977 13.0688C24.7952 13.1549 24.792 13.2409 24.7878 13.3266C24.7921 13.2409 24.7953 13.1549 24.7977 13.0688Z" fill="black"/>
<path d="M24.7915 12.1998H10.7968L3.60817 5.01227C3.37582 5.25733 3.12396 5.59952 2.96819 5.84322L9.84282 12.7215L2.96243 19.602C3.09864 19.8443 3.39541 20.203 3.60377 20.4364L10.7969 13.2433H24.7932C24.8007 13.0702 24.803 12.8964 24.803 12.7216C24.8029 12.4873 24.7965 12.3145 24.7915 12.1998Z" fill="#FFDA44"/>
<path d="M3.71799 15.2834V14.2783C4.72102 14.2783 5.53698 13.4623 5.53698 12.4593C5.53698 11.7497 4.95962 11.1724 4.25002 11.1724C3.7666 11.1724 3.37328 11.5657 3.37328 12.0492C3.37328 12.3583 3.62476 12.6098 3.93395 12.6098C4.1087 12.6098 4.25087 12.4676 4.25087 12.2928H5.25596C5.25596 13.0219 4.6629 13.6149 3.93399 13.6149C3.07061 13.615 2.36828 12.9125 2.36828 12.0493C2.36828 11.0116 3.2125 10.1674 4.25007 10.1674C5.51391 10.1674 6.54216 11.1957 6.54216 12.4595C6.54211 14.0165 5.27523 15.2834 3.71799 15.2834V15.2834Z" fill="#FFDA44"/>
</g>
<defs>
<clipPath id="clip0_6422_7896">
<rect width="24" height="24" fill="white" transform="translate(0.802734 0.725586)"/>
</clipPath>
</defs>
</svg>
