<svg width="25" height="24" viewBox="0 0 25 24" fill="none" xmlns="http://www.w3.org/2000/svg">
<g clip-path="url(#clip0_6422_7809)">
<path d="M12.8026 24.0002C19.43 24.0002 24.8026 18.6277 24.8026 12.0002C24.8026 5.37283 19.43 0.000244141 12.8026 0.000244141C6.17521 0.000244141 0.802628 5.37283 0.802628 12.0002C0.802628 18.6277 6.17521 24.0002 12.8026 24.0002Z" fill="#F0F0F0"/>
<path d="M4.31726 20.4858C4.82065 20.9891 5.35774 21.4381 5.92113 21.8333L22.6353 5.1191C22.2401 4.55571 21.7912 4.01862 21.2877 3.51522C20.7843 3.01183 20.2473 2.56296 19.6839 2.16771L2.96974 18.8819C3.36494 19.4452 3.81387 19.9824 4.31726 20.4858V20.4858Z" fill="#A2001D"/>
<path d="M4.31718 3.51496C0.53137 7.30077 -0.19538 12.9863 2.13539 17.5024L18.3045 1.33326C13.7885 -0.997509 8.1029 -0.270665 4.31718 3.51496V3.51496Z" fill="#0052B4"/>
<path d="M21.2879 20.485C25.0736 16.6993 25.8004 11.0137 23.4697 6.49757L7.30055 22.6667C11.8165 24.9975 17.5021 24.2707 21.2879 20.485Z" fill="#496E2D"/>
<path d="M10.7154 6.7829L9.37073 7.41539L10.0868 8.71767L8.62669 8.43839L8.44162 9.91331L7.42462 8.82848L6.40758 9.91331L6.22261 8.43839L4.76245 8.71762L5.47847 7.41534L4.13386 6.7829L5.47851 6.15037L4.76245 4.84818L6.22256 5.12747L6.40762 3.65245L7.42462 4.73733L8.44167 3.65245L8.62669 5.12747L10.0868 4.84818L9.37083 6.15042L10.7154 6.7829Z" fill="#FFDA44"/>
</g>
<defs>
<clipPath id="clip0_6422_7809">
<rect width="24" height="24" fill="white" transform="translate(0.802734)"/>
</clipPath>
</defs>
</svg>
