<svg width="25" height="24" viewBox="0 0 25 24" fill="none" xmlns="http://www.w3.org/2000/svg">
<g clip-path="url(#clip0_6422_7676)">
<path d="M24.8026 12.0002C24.8026 7.88171 22.7275 4.24829 19.566 2.08716L12.8026 1.5654L6.03914 2.08712C2.87775 4.24829 0.802597 7.88176 0.802597 12.0002C0.802597 16.1188 2.87775 19.7521 6.03914 21.9132L12.8026 22.435L19.566 21.9133C22.7275 19.7521 24.8026 16.1188 24.8026 12.0002Z" fill="#0052B4"/>
<path d="M19.566 2.08749C17.6401 0.770956 15.3115 0.000518799 12.8025 0.000518799C10.2936 0.000518799 7.96492 0.770956 6.03906 2.08749H19.566Z" fill="#A2001D"/>
<path d="M6.03906 21.9136C7.96487 23.2302 10.2936 24.0006 12.8025 24.0006C15.3115 24.0006 17.6401 23.2302 19.566 21.9136H6.03906Z" fill="#A2001D"/>
<path d="M12.8026 17.7391C15.9722 17.7391 18.5417 15.1696 18.5417 11.9999C18.5417 8.8303 15.9722 6.2608 12.8026 6.2608C9.63295 6.2608 7.06345 8.8303 7.06345 11.9999C7.06345 15.1696 9.63295 17.7391 12.8026 17.7391Z" fill="#F0F0F0"/>
<path d="M12.8026 16.6959C15.396 16.6959 17.4983 14.5936 17.4983 12.0003C17.4983 9.40694 15.396 7.30463 12.8026 7.30463C10.2093 7.30463 8.10698 9.40694 8.10698 12.0003C8.10698 14.5936 10.2093 16.6959 12.8026 16.6959Z" fill="#6DA544"/>
<path d="M12.8026 15.1307C14.5315 15.1307 15.933 13.7291 15.933 12.0002C15.933 10.2713 14.5315 8.86978 12.8026 8.86978C11.0737 8.86978 9.67212 10.2713 9.67212 12.0002C9.67212 13.7291 11.0737 15.1307 12.8026 15.1307Z" fill="#F0F0F0"/>
<path d="M12.8026 11.2175L11.1069 12.0001V13.3044L12.8026 14.3479L14.4982 13.3044V12.0001L12.8026 11.2175Z" fill="#0052B4"/>
<path d="M11.1069 10.4349H14.4982V12.0001H11.1069V10.4349Z" fill="#FFDA44"/>
</g>
<defs>
<clipPath id="clip0_6422_7676">
<rect width="24" height="24" fill="white" transform="translate(0.802734)"/>
</clipPath>
</defs>
</svg>
