<svg width="25" height="24" viewBox="0 0 25 24" fill="none" xmlns="http://www.w3.org/2000/svg">
<g clip-path="url(#clip0_6422_7648)">
<path d="M12.8028 24C19.4303 24 24.8028 18.6274 24.8028 12C24.8028 5.37258 19.4303 0 12.8028 0C6.17542 0 0.802841 5.37258 0.802841 12C0.802841 18.6274 6.17542 24 12.8028 24Z" fill="#6DA544"/>
<path d="M12.8026 4.69537L22.7157 11.9997L12.8026 19.3041L2.8896 11.9997L12.8026 4.69537Z" fill="#FFDA44"/>
<path d="M12.8027 16.1741C15.1079 16.1741 16.9766 14.3054 16.9766 12.0002C16.9766 9.69501 15.1079 7.82629 12.8027 7.82629C10.4976 7.82629 8.62884 9.69501 8.62884 12.0002C8.62884 14.3054 10.4976 16.1741 12.8027 16.1741Z" fill="#F0F0F0"/>
<path d="M10.7157 11.7394C9.98985 11.7394 9.2894 11.8498 8.63006 12.0546C8.65926 14.3346 10.5157 16.1742 12.8026 16.1742C14.2168 16.1742 15.4657 15.4703 16.2207 14.3944C14.929 12.7774 12.9414 11.7394 10.7157 11.7394V11.7394Z" fill="#0052B4"/>
<path d="M16.8991 12.8001C16.9494 12.5412 16.9765 12.274 16.9765 12.0004C16.9765 9.69521 15.1078 7.82654 12.8026 7.82654C11.0826 7.82654 9.60602 8.86721 8.96702 10.3531C9.53186 10.236 10.1167 10.1744 10.7157 10.1744C13.1399 10.1743 15.333 11.182 16.8991 12.8001V12.8001Z" fill="#0052B4"/>
</g>
<defs>
<clipPath id="clip0_6422_7648">
<rect width="24" height="24" fill="white" transform="translate(0.802734)"/>
</clipPath>
</defs>
</svg>
