<svg width="25" height="25" viewBox="0 0 25 25" fill="none" xmlns="http://www.w3.org/2000/svg">
<g clip-path="url(#clip0_6422_7746)">
<path d="M12.8026 24.7255C19.43 24.7255 24.8026 19.3529 24.8026 12.7255C24.8026 6.09808 19.43 0.725494 12.8026 0.725494C6.17515 0.725494 0.802567 6.09808 0.802567 12.7255C0.802567 19.3529 6.17515 24.7255 12.8026 24.7255Z" fill="#F0F0F0"/>
<path d="M12.8026 24.7258C17.5601 24.7258 21.6709 21.9571 23.6119 17.9432H1.99331C3.93431 21.9571 8.04506 24.7258 12.8026 24.7258Z" fill="#338AF3"/>
<path d="M12.8026 0.726105C8.0451 0.726105 3.93435 3.49478 1.99335 7.50873H23.6119C21.6709 3.49478 17.5601 0.726105 12.8026 0.726105V0.726105Z" fill="#338AF3"/>
<path d="M8.18752 8.55237L8.57602 9.7481H9.83326L8.81616 10.487L9.20471 11.6828L8.18752 10.9438L7.17033 11.6828L7.55888 10.487L6.54174 9.7481H7.79897L8.18752 8.55237Z" fill="#338AF3"/>
<path d="M8.18752 13.7697L8.57602 14.9655H9.83326L8.81616 15.7044L9.20471 16.9001L8.18752 16.1611L7.17033 16.9001L7.55888 15.7044L6.54174 14.9655H7.79897L8.18752 13.7697Z" fill="#338AF3"/>
<path d="M17.4179 8.55237L17.8064 9.7481H19.0636L18.0465 10.487L18.435 11.6828L17.4179 10.9438L16.4007 11.6828L16.7892 10.487L15.7721 9.7481H17.0294L17.4179 8.55237Z" fill="#338AF3"/>
<path d="M17.4179 13.7697L17.8064 14.9655H19.0636L18.0465 15.7044L18.435 16.9001L17.4179 16.1611L16.4007 16.9001L16.7892 15.7044L15.7721 14.9655H17.0294L17.4179 13.7697Z" fill="#338AF3"/>
<path d="M12.8025 11.1607L13.1911 12.3565H14.4483L13.4312 13.0954L13.8197 14.2911L12.8025 13.5521L11.7853 14.2911L12.1739 13.0954L11.1567 12.3565H12.414L12.8025 11.1607Z" fill="#338AF3"/>
</g>
<defs>
<clipPath id="clip0_6422_7746">
<rect width="24" height="24" fill="white" transform="translate(0.802734 0.725586)"/>
</clipPath>
</defs>
</svg>
