<svg width="25" height="25" viewBox="0 0 25 25" fill="none" xmlns="http://www.w3.org/2000/svg">
<g clip-path="url(#clip0_6422_7754)">
<path d="M12.8028 24.7257C19.4302 24.7257 24.8028 19.3531 24.8028 12.7257C24.8028 6.09829 19.4302 0.725708 12.8028 0.725708C6.17538 0.725708 0.802795 6.09829 0.802795 12.7257C0.802795 19.3531 6.17538 24.7257 12.8028 24.7257Z" fill="#F0F0F0"/>
<path d="M24.8028 12.7254C24.8028 7.56589 21.5463 3.16733 16.9767 1.47186V23.9791C21.5463 22.2835 24.8028 17.8851 24.8028 12.7254V12.7254Z" fill="#FF9811"/>
<path d="M0.802795 12.7254C0.802795 17.885 4.0593 22.2835 8.6289 23.9791V1.47186C4.0593 3.16733 0.802795 7.56589 0.802795 12.7254V12.7254Z" fill="#6DA544"/>
</g>
<defs>
<clipPath id="clip0_6422_7754">
<rect width="24" height="24" fill="white" transform="translate(0.802734 0.725586)"/>
</clipPath>
</defs>
</svg>
