<svg width="25" height="24" viewBox="0 0 25 24" fill="none" xmlns="http://www.w3.org/2000/svg">
<g clip-path="url(#clip0_6422_7644)">
<path d="M12.8028 24C19.4302 24 24.8028 18.6274 24.8028 12C24.8028 5.37258 19.4302 0 12.8028 0C6.17536 0 0.80278 5.37258 0.80278 12C0.80278 18.6274 6.17536 24 12.8028 24Z" fill="#F0F0F0"/>
<path d="M12.8029 -6.10352e-05C8.04533 -6.10352e-05 3.93458 2.76861 1.99358 6.78256H23.6121C21.6711 2.76861 17.5603 -6.10352e-05 12.8029 -6.10352e-05V-6.10352e-05Z" fill="#338AF3"/>
<path d="M12.8028 23.9996C17.5602 23.9996 21.671 21.2309 23.612 17.217H1.99348C3.93448 21.2309 8.04523 23.9996 12.8028 23.9996Z" fill="#338AF3"/>
<path d="M16.3893 12L14.9237 12.6894L15.7041 14.1087L14.1127 13.8042L13.9111 15.4119L12.8026 14.2295L11.6941 15.4119L11.4925 13.8042L9.90111 14.1086L10.6815 12.6893L9.21599 12L10.6815 11.3106L9.90111 9.89129L11.4925 10.1957L11.6942 8.58807L12.8026 9.77045L13.9111 8.58807L14.1127 10.1957L15.7042 9.89129L14.9238 11.3106L16.3893 12Z" fill="#FFDA44"/>
</g>
<defs>
<clipPath id="clip0_6422_7644">
<rect width="24" height="24" fill="white" transform="translate(0.802734)"/>
</clipPath>
</defs>
</svg>
