<svg width="25" height="24" viewBox="0 0 25 24" fill="none" xmlns="http://www.w3.org/2000/svg">
<g clip-path="url(#clip0_6422_7807)">
<path d="M12.8028 24.0002C19.4302 24.0002 24.8028 18.6277 24.8028 12.0002C24.8028 5.37283 19.4302 0.000244141 12.8028 0.000244141C6.17539 0.000244141 0.802811 5.37283 0.802811 12.0002C0.802811 18.6277 6.17539 24.0002 12.8028 24.0002Z" fill="#F0F0F0"/>
<path d="M7.28913 16.6961L4.3181 20.4853C6.48954 22.657 9.48921 24.0004 12.803 24.0004C17.7638 24.0004 22.0207 20.9897 23.8482 16.6961H7.28913Z" fill="#FFDA44"/>
<path d="M23.8668 7.34807C22.0495 3.03131 17.7806 0.000274658 12.803 0.000274658C9.48921 0.000274658 6.48954 1.34367 4.3181 3.51538L7.32326 7.34807H23.8668Z" fill="#496E2D"/>
<path d="M3.4118 8.82645V15.1308H24.3898C24.6589 14.1327 24.8031 13.0835 24.8031 12.0004C24.8031 10.9015 24.6551 9.83745 24.3784 8.82645H3.4118Z" fill="black"/>
<path d="M4.31754 3.51491C-0.368744 8.20119 -0.368744 15.7992 4.31754 20.4855C6.25408 18.549 8.11657 16.6865 12.8028 12.0002L4.31754 3.51491Z" fill="#A2001D"/>
<path d="M5.65979 8.86978L6.43674 11.2612H8.9514L6.91711 12.7392L7.69402 15.1307L5.65979 13.6527L3.62546 15.1307L4.40255 12.7392L2.36827 11.2612H4.88274L5.65979 8.86978Z" fill="#FFDA44"/>
<path d="M3.38605 12H7.93405V14.087H3.38605V12Z" fill="#F0F0F0"/>
<path d="M8.79518 9.60769L8.05732 8.86978L5.65976 11.2673L3.2622 8.86978L2.52434 9.60769L4.92401 12.0031L2.52434 14.4028L3.2622 15.1307L5.65976 12.7374L8.05732 15.1307L8.79518 14.4028L6.39551 12.0031L8.79518 9.60769Z" fill="black"/>
</g>
<defs>
<clipPath id="clip0_6422_7807">
<rect width="24" height="24" fill="white" transform="translate(0.802734)"/>
</clipPath>
</defs>
</svg>
