<svg width="25" height="24" viewBox="0 0 25 24" fill="none" xmlns="http://www.w3.org/2000/svg">
<g clip-path="url(#clip0_6422_7825)">
<path d="M12.8029 23.9995C19.4303 23.9995 24.8029 18.6269 24.8029 11.9995C24.8029 5.37205 19.4303 -0.000534058 12.8029 -0.000534058C6.17547 -0.000534058 0.802887 5.37205 0.802887 11.9995C0.802887 18.6269 6.17547 23.9995 12.8029 23.9995Z" fill="#F0F0F0"/>
<path d="M0.802902 11.9993C0.802902 16.5478 3.33364 20.505 7.06376 22.5402V1.45839C3.33364 3.49365 0.802902 7.45079 0.802902 11.9993Z" fill="#F0F0F0"/>
<path d="M12.8028 -0.000221252C10.7239 -0.000221252 8.76857 0.528669 7.06367 1.45886V22.5407C8.76857 23.4709 10.7239 23.9998 12.8028 23.9998C19.4302 23.9998 24.8028 18.6272 24.8028 11.9998C24.8028 5.3724 19.4302 -0.000221252 12.8028 -0.000221252Z" fill="#496E2D"/>
<path d="M17.9335 13.9837C16.4153 15.0807 14.2954 14.7392 13.1985 13.2211C12.1015 11.7029 12.443 9.58302 13.9611 8.48614C14.4345 8.14414 14.9663 7.94197 15.5074 7.87171C14.4665 7.71604 13.3661 7.9506 12.4456 8.61571C10.5771 9.9658 10.1568 12.5749 11.5069 14.4434C12.8569 16.3118 15.4661 16.7322 17.3346 15.382C18.2552 14.7169 18.8234 13.746 19.0023 12.7087C18.7658 13.2002 18.4069 13.6417 17.9335 13.9837V13.9837Z" fill="#F0F0F0"/>
<path d="M17.8681 7.82542L18.7233 8.74703L19.8641 8.21866L19.2518 9.31666L20.1069 10.2384L18.8733 9.99532L18.261 11.0934L18.111 9.84513L16.8774 9.60208L18.0182 9.07371L17.8681 7.82542Z" fill="#F0F0F0"/>
</g>
<defs>
<clipPath id="clip0_6422_7825">
<rect width="24" height="24" fill="white" transform="translate(0.802734)"/>
</clipPath>
</defs>
</svg>
