<svg width="25" height="24" viewBox="0 0 25 24" fill="none" xmlns="http://www.w3.org/2000/svg">
<g clip-path="url(#clip0_6422_7806)">
<path d="M12.8028 24.0002C19.4302 24.0002 24.8028 18.6277 24.8028 12.0002C24.8028 5.37283 19.4302 0.000244141 12.8028 0.000244141C6.17541 0.000244141 0.802826 5.37283 0.802826 12.0002C0.802826 18.6277 6.17541 24.0002 12.8028 24.0002Z" fill="#D80027"/>
<path d="M19.8944 9.84798H14.4769L12.8028 4.69566L11.1287 9.84798H5.71115L10.094 13.0323L8.41987 18.1847L12.8028 15.0004L17.1857 18.1848L15.5115 13.0323L19.8944 9.84798ZM11.3207 12.6337L11.8868 10.8914H13.7187L14.2849 12.6337V12.6338L12.8028 13.7105L11.3207 12.6338L11.3207 12.6337ZM13.3797 9.84798H12.2259L12.8028 8.07235L13.3797 9.84798ZM15.1724 11.9889L14.8159 10.8915H16.6829L15.1724 11.9889ZM10.7896 10.8915L10.4331 11.9889L8.9226 10.8915H10.7896ZM10.4047 15.4529L10.9816 13.6773L11.9152 14.3555L10.4047 15.4529ZM13.6904 14.3555L14.6239 13.6773L15.2009 15.4529L13.6904 14.3555Z" fill="#FFDA44"/>
</g>
<defs>
<clipPath id="clip0_6422_7806">
<rect width="24" height="24" fill="white" transform="translate(0.802734)"/>
</clipPath>
</defs>
</svg>
