<svg width="25" height="24" viewBox="0 0 25 24" fill="none" xmlns="http://www.w3.org/2000/svg">
<g clip-path="url(#clip0_6422_7698)">
<path d="M12.8024 -0.000213623C11.3346 -0.000213623 9.92849 0.263833 8.62855 0.746177L8.10679 11.9998L8.62851 23.2534C9.92849 23.7358 11.3346 23.9998 12.8024 23.9998C14.2703 23.9998 15.6764 23.7358 16.9763 23.2534L17.4981 11.9998L16.9764 0.746177C15.6764 0.263833 14.2703 -0.000213623 12.8024 -0.000213623V-0.000213623Z" fill="#FFDA44"/>
<path d="M24.8024 11.9995C24.8024 6.83996 21.5459 2.44144 16.9763 0.745926V23.2532C21.5459 21.5576 24.8024 17.1591 24.8024 11.9995V11.9995Z" fill="#D80027"/>
<path d="M8.62884 23.2531V0.745926C4.05923 2.44144 0.802727 6.83996 0.802727 11.9995C0.802727 17.1591 4.05923 21.5576 8.62884 23.2531Z" fill="#0052B4"/>
</g>
<defs>
<clipPath id="clip0_6422_7698">
<rect width="24" height="24" fill="white" transform="translate(0.802734)"/>
</clipPath>
</defs>
</svg>
