<svg width="25" height="25" viewBox="0 0 25 25" fill="none" xmlns="http://www.w3.org/2000/svg">
<g clip-path="url(#clip0_6422_7753)">
<path d="M12.8028 24.7257C19.4302 24.7257 24.8028 19.3531 24.8028 12.7257C24.8028 6.09829 19.4302 0.725708 12.8028 0.725708C6.17535 0.725708 0.802765 6.09829 0.802765 12.7257C0.802765 19.3531 6.17535 24.7257 12.8028 24.7257Z" fill="#F0F0F0"/>
<path d="M12.8028 0.725739C7.64326 0.725739 3.24474 3.98224 1.54922 8.55185H24.0565C22.3609 3.98224 17.9624 0.725739 12.8028 0.725739V0.725739Z" fill="#A2001D"/>
<path d="M12.8028 24.7257C17.9624 24.7257 22.3609 21.4692 24.0564 16.8996H1.54922C3.24474 21.4692 7.64326 24.7257 12.8028 24.7257Z" fill="black"/>
<path d="M9.93322 11.9434C9.92665 11.9434 9.92023 11.9439 9.91367 11.944V11.9434H7.61975C7.73604 11.4941 8.14376 11.1608 8.62887 11.1608V9.59561C7.19042 9.59561 6.02019 10.7659 6.02019 12.2043V13.4826V13.5087H9.91367H9.93322C10.0771 13.5087 10.1941 13.6257 10.1941 13.7695V14.2913H4.97665V15.8565H11.7593V13.7695C11.7593 12.7626 10.9401 11.9434 9.93322 11.9434V11.9434Z" fill="#496E2D"/>
<path d="M13.8462 14.2913V9.59561H12.281V15.8565H14.8897V14.2913H13.8462Z" fill="#496E2D"/>
<path d="M19.0638 14.2913V9.59561H17.4986V14.2913H16.9768V12.7261H15.4116V15.8566H20.1073V14.2913H19.0638Z" fill="#496E2D"/>
</g>
<defs>
<clipPath id="clip0_6422_7753">
<rect width="24" height="24" fill="white" transform="translate(0.802734 0.725586)"/>
</clipPath>
</defs>
</svg>
