<svg width="25" height="25" viewBox="0 0 25 25" fill="none" xmlns="http://www.w3.org/2000/svg">
<g clip-path="url(#clip0_6422_7704)">
<path d="M0.802807 2.889H0.802765V22.7151H0.802807V12.8021V2.889Z" fill="#FF9811"/>
<path d="M12.8027 24.8025C19.4301 24.8025 24.8027 19.4299 24.8027 12.8025C24.8027 6.17515 19.4301 0.802593 12.8027 0.802593C6.17533 0.802593 0.802765 6.17515 0.802765 12.8025C0.802765 19.4299 6.17533 24.8025 12.8027 24.8025Z" fill="#F0F0F0"/>
<path d="M12.8028 0.80171C8.87694 0.80171 5.3916 2.68716 3.2023 5.60171H22.4033C20.214 2.68712 16.7286 0.80171 12.8028 0.80171V0.80171Z" fill="#0052B4"/>
<path d="M12.8028 24.8016C16.7287 24.8016 20.214 22.9162 22.4033 20.0016H3.2023C5.39155 22.9162 8.87694 24.8016 12.8028 24.8016Z" fill="#0052B4"/>
<path d="M0.80278 12.8017C0.80278 13.6236 0.885655 14.4262 1.04311 15.2017H24.5625C24.7199 14.4262 24.8028 13.6236 24.8028 12.8017C24.8028 11.9797 24.7199 11.1771 24.5625 10.4017H1.04311C0.885655 11.1771 0.80278 11.9797 0.80278 12.8017V12.8017Z" fill="#0052B4"/>
<path d="M4.31744 4.31659C-0.368794 9.00282 -0.368794 16.6008 4.31744 21.2872C6.25399 19.3506 8.11643 17.4881 12.8027 12.8019L4.31744 4.31659Z" fill="#D80027"/>
<path d="M5.65973 9.67146L6.43663 12.0628H8.95129L6.91705 13.5408L7.69396 15.9322L5.65973 14.4543L3.6254 15.9322L4.40249 13.5408L2.36821 12.0628H4.88268L5.65973 9.67146Z" fill="#F0F0F0"/>
</g>
<defs>
<clipPath id="clip0_6422_7704">
<rect width="24" height="24" fill="white" transform="translate(0.802734 0.802734)"/>
</clipPath>
</defs>
</svg>
