<svg width="25" height="24" viewBox="0 0 25 24" fill="none" xmlns="http://www.w3.org/2000/svg">
<g clip-path="url(#clip0_6422_7784)">
<path d="M24.8027 12C24.8027 18.6274 19.4301 24 12.8027 24C6.17536 24 0.802734 18.6274 0.802734 12C1.32445 12 12.8027 10.4348 12.8027 10.4348L24.8027 12Z" fill="#D80027"/>
<path d="M0.802734 12.0002C0.802734 5.37281 6.17536 0.000183105 12.8027 0.000183105C19.4301 0.000183105 24.8027 5.37281 24.8027 12.0002" fill="#0052B4"/>
<path d="M9.67227 8.34779C9.67227 7.48337 8.97149 6.78259 8.10706 6.78259C7.70605 6.78259 7.34056 6.93352 7.06358 7.18145V6.26082H7.5853V5.21734H7.06358V4.69562H6.02009V5.21734H5.49838V6.26082H6.02009V7.18145C5.74311 6.93352 5.37763 6.78259 4.97661 6.78259C4.11219 6.78259 3.41141 7.48337 3.41141 8.34779C3.41141 8.81124 3.61302 9.22749 3.93313 9.51413V10.4348H9.1505V9.51413C9.4707 9.22749 9.67227 8.81124 9.67227 8.34779V8.34779Z" fill="#FFDA44"/>
</g>
<defs>
<clipPath id="clip0_6422_7784">
<rect width="24" height="24" fill="white" transform="translate(0.802734)"/>
</clipPath>
</defs>
</svg>
