<svg width="25" height="25" viewBox="0 0 25 25" fill="none" xmlns="http://www.w3.org/2000/svg">
<g clip-path="url(#clip0_6422_7708)">
<path d="M23.4706 6.7793C22.9161 5.70497 22.1893 4.6966 21.2887 3.79603C20.3881 2.89542 19.3797 2.16863 18.3054 1.61419L9.85154 9.3301L2.13559 17.784C2.69007 18.8583 3.41687 19.8667 4.31743 20.7673C5.218 21.6678 6.22642 22.3946 7.3007 22.9491L15.7546 15.2332L23.4706 6.7793Z" fill="#FFDA44"/>
<path d="M4.31723 20.7671C4.82062 21.2704 5.35776 21.7194 5.92115 22.1147L22.636 5.39974C22.2408 4.83635 21.7919 4.29921 21.2885 3.79582C20.785 3.29243 20.2479 2.84351 19.6845 2.44826L2.96967 19.1631C3.36487 19.7264 3.81379 20.2637 4.31723 20.7671V20.7671Z" fill="#D80027"/>
<path d="M4.31736 3.79551C0.531407 7.58146 -0.19539 13.2673 2.13552 17.7835L18.3053 1.61371C13.7891 -0.717147 8.10327 0.00974371 4.31736 3.79551V3.79551Z" fill="#338AF3"/>
<path d="M21.2888 20.7664C25.0747 16.9805 25.8015 11.2947 23.4707 6.77851L7.3009 22.9483C11.8171 25.2791 17.503 24.5524 21.2888 20.7664V20.7664Z" fill="#338AF3"/>
<path d="M7.19784 3.93363L7.84537 5.92661H9.94087L8.24559 7.1583L8.89312 9.15124L7.19784 7.9195L5.50246 9.15124L6.15009 7.1583L4.45471 5.92661H6.55021L7.19784 3.93363Z" fill="#FFDA44"/>
</g>
<defs>
<clipPath id="clip0_6422_7708">
<rect width="24" height="24" fill="white" transform="translate(0.802734 0.282227)"/>
</clipPath>
</defs>
</svg>
