<svg width="25" height="25" viewBox="0 0 25 25" fill="none" xmlns="http://www.w3.org/2000/svg">
<g clip-path="url(#clip0_6422_7878)">
<path d="M12.8028 24.7255C19.4302 24.7255 24.8028 19.3529 24.8028 12.7255C24.8028 6.09808 19.4302 0.725494 12.8028 0.725494C6.17535 0.725494 0.802765 6.09808 0.802765 12.7255C0.802765 19.3529 6.17535 24.7255 12.8028 24.7255Z" fill="#F0F0F0"/>
<path d="M24.0564 8.55176H1.54916C1.06676 9.85174 0.802765 11.2578 0.802765 12.7256C0.802765 14.1935 1.06676 15.5996 1.54916 16.8995H24.0564C24.5388 15.5996 24.8028 14.1935 24.8028 12.7256C24.8028 11.2578 24.5388 9.85174 24.0564 8.55176Z" fill="#0052B4"/>
<path d="M12.8026 0.72464C9.16548 0.72464 5.90659 2.34295 3.70595 4.89853H21.8991C19.6985 2.34295 16.4396 0.72464 12.8026 0.72464V0.72464Z" fill="#D80027"/>
<path d="M21.8992 20.5507H3.70595C5.90659 23.1063 9.16548 24.7246 12.8026 24.7246C16.4396 24.7246 19.6985 23.1063 21.8992 20.5507Z" fill="#D80027"/>
</g>
<defs>
<clipPath id="clip0_6422_7878">
<rect width="24" height="24" fill="white" transform="translate(0.802734 0.725586)"/>
</clipPath>
</defs>
</svg>
