<svg width="25" height="25" viewBox="0 0 25 25" fill="none" xmlns="http://www.w3.org/2000/svg">
<g clip-path="url(#clip0_6422_7757)">
<path d="M12.8026 24.7257C14.2705 24.7257 15.6766 24.4617 16.9765 23.9793L17.4983 12.7257L16.9766 1.4721C15.6766 0.989755 14.2705 0.725708 12.8026 0.725708C11.3348 0.725708 9.92868 0.989755 8.62874 1.4721L8.10698 12.7257L8.6287 23.9793C9.92868 24.4617 11.3348 24.7257 12.8026 24.7257Z" fill="#F0F0F0"/>
<path d="M0.802597 12.7255C0.802597 17.885 4.0591 22.2836 8.62871 23.9791V1.47186C4.0591 3.16738 0.802597 7.56589 0.802597 12.7255Z" fill="#FF9811"/>
<path d="M16.9765 1.47186V23.9791C21.5461 22.2836 24.8026 17.8851 24.8026 12.7255C24.8026 7.56589 21.5461 3.16738 16.9765 1.47186V1.47186Z" fill="#6DA544"/>
</g>
<defs>
<clipPath id="clip0_6422_7757">
<rect width="24" height="24" fill="white" transform="translate(0.802734 0.725586)"/>
</clipPath>
</defs>
</svg>
