<svg width="25" height="24" viewBox="0 0 25 24" fill="none" xmlns="http://www.w3.org/2000/svg">
<g clip-path="url(#clip0_6422_7775)">
<path d="M12.8028 24.0001C19.4303 24.0001 24.8028 18.6275 24.8028 12.0001C24.8028 5.37267 19.4303 9.15527e-05 12.8028 9.15527e-05C6.17542 9.15527e-05 0.802841 5.37267 0.802841 12.0001C0.802841 18.6275 6.17542 24.0001 12.8028 24.0001Z" fill="#D80027"/>
<path d="M19.5854 8.90651H15.2388C15.5072 8.62554 15.6723 8.24515 15.6723 7.82595C15.6723 6.96152 14.9715 6.26074 14.1071 6.26074C13.5625 6.26074 13.0831 6.53899 12.8028 6.96091C12.5224 6.53899 12.043 6.26074 11.4984 6.26074C10.634 6.26074 9.9332 6.96152 9.9332 7.82595C9.9332 8.24515 10.0983 8.62559 10.3667 8.90651H6.02017C6.02017 10.0591 7.02409 10.9934 8.17661 10.9934H8.10705C8.10705 12.1461 9.04141 13.0804 10.1941 13.0804C10.1941 13.4538 10.2925 13.8037 10.4642 14.1067L8.73311 15.8379L10.0613 17.1659L11.9453 15.282C12.019 15.309 12.0954 15.3307 12.1742 15.3455L11.0358 17.9159L12.8028 19.8259L14.5697 17.9158L13.4313 15.3454C13.5101 15.3306 13.5865 15.309 13.6602 15.2819L15.5442 17.1658L16.8724 15.8377L15.1413 14.1066C15.313 13.8036 15.4114 13.4536 15.4114 13.0803C16.564 13.0803 17.4984 12.146 17.4984 10.9933H17.4289C18.5814 10.9934 19.5854 10.0591 19.5854 8.90651V8.90651Z" fill="black"/>
</g>
<defs>
<clipPath id="clip0_6422_7775">
<rect width="24" height="24" fill="white" transform="translate(0.802734)"/>
</clipPath>
</defs>
</svg>
