<?xml version="1.0" encoding="UTF-8"?>
<svg width="9px" height="15px" viewBox="0 0 9 15" version="1.1" xmlns="http://www.w3.org/2000/svg" xmlns:xlink="http://www.w3.org/1999/xlink">
    <title>Icons/Tips</title>
    <g id="Video" stroke="none" stroke-width="1" fill="none" fill-rule="evenodd">
        <g id="Watch-Page-UI" transform="translate(-96.000000, -426.000000)" fill="#FF9000" fill-rule="nonzero">
            <g id="Icons/Tips" transform="translate(96.000000, 426.000000)">
                <path d="M7.28235509,7.41532599 C6.76485198,7.006151 6.10217267,6.75699301 5.49122281,6.4621726 C4.87818709,6.16616099 4.23532349,5.92534136 3.6279196,5.62019727 C3.2710281,5.44072411 3.01676116,5.13736681 3.10311597,4.71429456 C3.1861334,4.30730342 3.49943032,4.08713114 3.90825986,4.00831383 C4.18714001,3.95451159 4.48458436,3.88919447 4.75866702,3.92711414 C5.60239942,4.04345404 6.4386227,4.20724316 7.32219511,4.36031153 C7.4675799,3.81534047 7.63549204,3.18559613 7.83281487,2.44646052 C7.07105697,2.27671544 6.34267291,2.11431604 5.56297657,1.94060031 L5.56297657,0.416666667 L3.03240515,0.416666667 L3.03240515,2.17943463 C2.96607464,2.20544235 2.88931481,2.22708237 2.80066554,2.24475174 C2.03306722,2.39603333 1.41439966,2.82764246 0.915877926,3.40060657 C-0.0673988366,4.53104928 0.0900839712,6.39129658 1.33534538,7.24855889 C2.02013486,7.71987448 2.84759751,8.00437121 3.61457007,8.3655014 C4.04968151,8.57038669 4.50544301,8.73814646 4.92866502,8.96228938 C5.37128557,9.19675598 5.58237511,9.58091591 5.48037631,10.0669229 C5.38421794,10.5267236 5.02023449,10.7361751 4.57427656,10.8396105 C3.81731615,11.0157086 3.06035574,10.9744139 2.3192479,10.7778669 C1.78630939,10.636909 1.26964063,10.4395679 0.715426299,10.2573153 C0.553771762,10.8479488 0.381062139,11.4223026 0.252364269,12.0055904 C0.230045513,12.1064448 0.370424228,12.3244332 0.476177583,12.3530219 C1.28632755,12.5725986 2.10148359,12.7820501 2.92623462,12.9416701 C2.96565747,12.9494128 3.00007424,12.9575526 3.03240515,12.9660895 L3.03240515,14.5833333 L3.2772857,14.5833333 L5.08051599,14.5833333 L5.56297657,14.5833333 L5.56297657,12.713755 C5.94093531,12.6134962 6.31910263,12.4818693 6.65930721,12.2996167 C8.60145612,11.2593077 8.94124353,8.72683012 7.28235509,7.41532599" id="Tips"></path>
            </g>
        </g>
    </g>
</svg>