<svg width="24" height="25" viewBox="0 0 24 25" fill="none" xmlns="http://www.w3.org/2000/svg">
<g clip-path="url(#clip0_6672_6971)">
<path d="M12 24.7256C18.6274 24.7256 24 19.353 24 12.7256C24 6.09817 18.6274 0.725586 12 0.725586C5.37258 0.725586 0 6.09817 0 12.7256C0 19.353 5.37258 24.7256 12 24.7256Z" fill="#0052B4"/>
<path d="M12 5.72559C8.136 5.72559 5 8.86159 5 12.7256C5 16.5896 8.136 19.7256 12 19.7256C15.864 19.7256 19 16.5896 19 12.7256C19 8.86159 15.864 5.72559 12 5.72559ZM11.3 18.2766C8.535 17.9336 6.4 15.5816 6.4 12.7256C6.4 12.2916 6.456 11.8786 6.547 11.4726L9.9 14.8256V15.5256C9.9 16.2956 10.53 16.9256 11.3 16.9256V18.2766ZM16.13 16.4986C15.948 15.9316 15.43 15.5256 14.8 15.5256H14.1V13.4256C14.1 13.0406 13.785 12.7256 13.4 12.7256H9.2V11.3256H10.6C10.985 11.3256 11.3 11.0106 11.3 10.6256V9.22559H12.7C13.47 9.22559 14.1 8.59559 14.1 7.82559V7.53859C16.151 8.37159 17.6 10.3806 17.6 12.7256C17.6 14.1816 17.04 15.5046 16.13 16.4986Z" fill="white"/>
</g>
<defs>
<clipPath id="clip0_6672_6971">
<rect width="24" height="24" fill="white" transform="translate(0 0.725586)"/>
</clipPath>
</defs>
</svg>
