<?xml version="1.0" encoding="UTF-8"?>
<svg width="38px" height="23px" viewBox="0 0 38 23" version="1.1" xmlns="http://www.w3.org/2000/svg" xmlns:xlink="http://www.w3.org/1999/xlink">
    <title>Group 3</title>
    <defs>
        <filter id="filter-1">
            <feColorMatrix in="SourceGraphic" type="matrix" values="0 0 0 0 1.000000 0 0 0 0 1.000000 0 0 0 0 1.000000 0 0 0 1.000000 0"></feColorMatrix>
        </filter>
        <polygon id="path-2" points="0 0.9 38 0.9 38 22.9 0 22.9"></polygon>
    </defs>
    <g id="Video" stroke="none" stroke-width="1" fill="none" fill-rule="evenodd">
        <g id="Watchpage_01_Mobile_VR_Open" transform="translate(-16.000000, -806.000000)">
            <g filter="url(#filter-1)" id="Group-3">
                <g transform="translate(16.000000, 806.000000)">
                    <mask id="mask-3" fill="white">
                        <use xlink:href="#path-2"></use>
                    </mask>
                    <g id="Clip-2"></g>
                    <path d="M27.1874759,16.6292011 C29.5202562,16.6240785 31.3580109,14.8150617 31.3688575,12.5141811 C31.3798539,10.1865292 29.477552,8.30206569 27.1263647,8.3117632 C24.8674579,8.32104905 22.9590203,10.2332575 22.9614722,12.4837591 C22.9644197,14.7975386 24.837025,16.6345437 27.1874759,16.6292011 M10.9127443,16.6277556 C13.2781663,16.6194543 15.0980048,14.7987554 15.0870106,12.45139 C15.0759164,10.1746038 13.2001206,8.31472127 10.9132351,8.31326016 C8.59149906,8.31180075 6.69925963,10.1855557 6.70244615,12.4832723 C6.7053953,14.8179822 8.5522308,16.6357605 10.9127443,16.6277556 M19.0292488,0.901719356 C24.3859308,0.901719356 29.7423673,0.89806871 35.0990492,0.90415312 C36.5912432,0.905856755 37.5226374,1.53790528 37.8944587,2.79032026 C37.9734861,3.05681742 37.9948382,3.34862573 37.9950837,3.62875197 C38.0007285,9.04217334 38.0014647,14.4553513 37.9975379,19.8685293 C37.9960654,21.7632146 36.9161881,22.8752014 35.0151133,22.8868835 C31.7438216,22.9070837 28.4725298,22.9005126 25.2014835,22.8900474 C23.9880942,22.8861534 23.3553843,22.4049982 22.9629471,21.2866836 C22.4068103,19.7018165 21.8465013,18.1181662 21.2744118,16.5388967 C20.8903191,15.4782624 20.0249447,14.8457271 18.976973,14.8260136 C17.9378365,14.8065435 17.101668,15.3962445 16.6549915,16.4831635 C15.9704966,18.1500485 15.2810931,19.8149865 14.6211409,21.4913632 C14.2787707,22.3604603 13.6804205,22.8715508 12.7394548,22.8756882 C9.3665564,22.8902908 5.99243089,22.9170622 2.6202688,22.8588952 C1.06843612,22.8318804 0.0126106952,21.660023 0.00917472217,20.115313 C-0.00285118342,14.6415343 -0.00383289,9.16726881 0.0108927087,3.69324672 C0.0150649616,2.01029888 1.16807934,0.907803766 2.89809176,0.905126626 C8.27514412,0.896121699 13.6524419,0.901719356 19.0292488,0.901719356" id="Fill-1" fill="#000000" mask="url(#mask-3)"></path>
                </g>
            </g>
        </g>
    </g>
</svg>