<svg width="25" height="24" viewBox="0 0 25 24" fill="none" xmlns="http://www.w3.org/2000/svg">
<g clip-path="url(#clip0_6422_7665)">
<path d="M24.8028 11.9999C24.8028 10.5321 24.5388 9.12599 24.0564 7.82606L12.8028 7.30429L1.54919 7.82601C1.06684 9.12599 0.802795 10.5321 0.802795 11.9999C0.802795 13.4678 1.06684 14.8739 1.54919 16.1738L12.8028 16.6956L24.0564 16.1739C24.5388 14.8739 24.8028 13.4678 24.8028 11.9999Z" fill="#0052B4"/>
<path d="M12.8025 23.9999C17.9621 23.9999 22.3606 20.7434 24.0561 16.1738H1.54893C3.24444 20.7434 7.64296 23.9999 12.8025 23.9999Z" fill="#FF9811"/>
<path d="M1.54893 7.82602H24.0562C22.3606 3.25641 17.9621 -9.15527e-05 12.8025 -9.15527e-05C7.64296 -9.15527e-05 3.24444 3.25641 1.54893 7.82602V7.82602Z" fill="#D80027"/>
</g>
<defs>
<clipPath id="clip0_6422_7665">
<rect width="24" height="24" fill="white" transform="translate(0.802734)"/>
</clipPath>
</defs>
</svg>
