<svg width="25" height="25" viewBox="0 0 25 25" fill="none" xmlns="http://www.w3.org/2000/svg">
<g clip-path="url(#clip0_6422_7903)">
<path d="M12.8027 24.0301C19.4301 24.0301 24.8027 18.6575 24.8027 12.0301C24.8027 5.40271 19.4301 0.0301285 12.8027 0.0301285C6.17526 0.0301285 0.802673 5.40271 0.802673 12.0301C0.802673 18.6575 6.17526 24.0301 12.8027 24.0301Z" fill="#496E2D"/>
<path d="M17.4981 12.0293H12.8024V24.0293C14.2051 24.0293 15.5512 23.7878 16.8024 23.3455L17.4981 12.0293Z" fill="#D80027"/>
<path d="M20.8024 20.9727C23.2572 18.7755 24.8025 15.583 24.8025 12.0293H20.1068L20.8024 20.9727Z" fill="#FF9811"/>
<path d="M16.8026 12.0293V23.3455C18.2931 22.8186 19.6484 22.0059 20.8026 20.9727V12.0293H16.8026Z" fill="black"/>
<path d="M22.9764 7.85543H19.846C19.846 7.27915 19.3788 6.81194 18.8025 6.81194C18.2262 6.81194 17.759 7.27915 17.759 7.85543H14.6285C14.6285 8.43176 15.1305 8.89891 15.7068 8.89891H15.672C15.672 9.47524 16.1391 9.9424 16.7155 9.9424C16.7155 10.5187 17.1826 10.9859 17.759 10.9859H19.846C20.4222 10.9859 20.8894 10.5187 20.8894 9.9424C21.4657 9.9424 21.9329 9.47524 21.9329 8.89891H21.8982C22.4745 8.89886 22.9764 8.43171 22.9764 7.85543V7.85543Z" fill="#FF9811"/>
</g>
<defs>
<clipPath id="clip0_6422_7903">
<rect width="24" height="24" fill="white" transform="translate(0.802734 0.0302734)"/>
</clipPath>
</defs>
</svg>
