<svg width="25" height="25" viewBox="0 0 25 25" fill="none" xmlns="http://www.w3.org/2000/svg">
<g clip-path="url(#clip0_6422_7712)">
<path d="M12.8027 24.2821C19.4301 24.2821 24.8027 18.9095 24.8027 12.2821C24.8027 5.65467 19.4301 0.282085 12.8027 0.282085C6.17525 0.282085 0.802666 5.65467 0.802666 12.2821C0.802666 18.9095 6.17525 24.2821 12.8027 24.2821Z" fill="#F0F0F0"/>
<path d="M1.21592 15.4121C2.32395 19.5232 5.561 22.7603 9.67212 23.8683V15.4121H1.21592Z" fill="#D80027"/>
<path d="M9.67208 0.694706C5.561 1.80269 2.3239 5.03978 1.21592 9.15086H9.67212V0.694706H9.67208Z" fill="#0052B4"/>
<path d="M24.3895 9.15086C23.2815 5.03978 20.0444 1.80269 15.9333 0.694706V9.15091H24.3895V9.15086Z" fill="#D80027"/>
<path d="M15.9333 23.8683C20.0444 22.7603 23.2815 19.5232 24.3895 15.4121H15.9333V23.8683Z" fill="#0052B4"/>
<path d="M15.9331 12.2814C15.9331 14.0103 14.5316 15.4119 12.8026 15.4119C11.0737 15.4119 9.67216 14.0103 9.67216 12.2814C9.67216 10.5525 12.8026 9.15095 12.8026 9.15095C12.8026 9.15095 15.9331 10.5525 15.9331 12.2814Z" fill="#496E2D"/>
<path d="M9.67216 12.2814C9.67216 10.5525 11.0737 9.15095 12.8026 9.15095C14.5316 9.15095 15.9331 10.5525 15.9331 12.2814" fill="#0052B4"/>
<path d="M11.0417 10.7161V12.6726C11.0417 13.6451 11.83 14.4335 12.8025 14.4335C13.775 14.4335 14.5634 13.6451 14.5634 12.6726V10.7161H11.0417Z" fill="#D80027"/>
</g>
<defs>
<clipPath id="clip0_6422_7712">
<rect width="24" height="24" fill="white" transform="translate(0.802734 0.282227)"/>
</clipPath>
</defs>
</svg>
