<svg width="25" height="24" viewBox="0 0 25 24" fill="none" xmlns="http://www.w3.org/2000/svg">
<g clip-path="url(#clip0_6422_7661)">
<path d="M0.802643 11.9997C0.802643 13.4675 1.06669 14.8736 1.54903 16.1736L12.8026 17.217L24.0563 16.1736C24.5386 14.8736 24.8026 13.4675 24.8026 11.9997C24.8026 10.5318 24.5386 9.12576 24.0563 7.82577L12.8026 6.78229L1.54903 7.82577C1.06669 9.12576 0.802643 10.5318 0.802643 11.9997H0.802643Z" fill="#FFDA44"/>
<path d="M24.0564 7.82574C22.3609 3.25618 17.9624 -0.000366211 12.8028 -0.000366211C7.64324 -0.000366211 3.24473 3.25618 1.54921 7.82574H24.0564Z" fill="#D80027"/>
<path d="M1.54921 16.1735C3.24473 20.7431 7.64324 23.9996 12.8028 23.9996C17.9624 23.9996 22.3609 20.7431 24.0564 16.1735H1.54921Z" fill="#D80027"/>
</g>
<defs>
<clipPath id="clip0_6422_7661">
<rect width="24" height="24" fill="white" transform="translate(0.802734)"/>
</clipPath>
</defs>
</svg>
