<svg width="25" height="25" viewBox="0 0 25 25" fill="none" xmlns="http://www.w3.org/2000/svg">
<g clip-path="url(#clip0_6422_7724)">
<path d="M12.8028 24.7791C19.4302 24.7791 24.8028 19.4066 24.8028 12.7791C24.8028 6.15173 19.4302 0.779144 12.8028 0.779144C6.17535 0.779144 0.802765 6.15173 0.802765 12.7791C0.802765 19.4066 6.17535 24.7791 12.8028 24.7791Z" fill="#F0F0F0"/>
<path d="M24.281 12.7793L24.701 11.2141C24.6312 10.6806 24.5266 10.1581 24.3894 9.6489H11.7593V0.824966C11.2268 0.87081 10.7043 0.951857 10.1941 1.06501L8.10709 2.34451L7.06361 2.23918C6.51446 2.53881 5.99129 2.88006 5.4984 3.25876V9.64886H1.21614C1.07893 10.158 0.974307 10.6806 0.904557 11.2141L1.32446 12.7793L0.90451 14.3445C0.974261 14.878 1.07889 15.4006 1.21609 15.9097H5.49835V22.2998C5.99125 22.6786 6.51446 23.0198 7.06356 23.3194L8.62876 23.2141L10.194 24.4936C10.7043 24.6067 11.2267 24.6877 11.7592 24.7336V15.9098H24.3893C24.5265 15.4006 24.6311 14.878 24.7008 14.3446L24.281 12.7793Z" fill="#0052B4"/>
<path d="M24.7012 11.2138H10.1941H10.1941V1.06425C9.08511 1.31016 8.03375 1.70874 7.06362 2.2381V11.2138H0.904343C0.83764 11.7262 0.802765 12.2485 0.802765 12.779C0.802765 13.3095 0.83764 13.8319 0.904343 14.3442H7.06358H7.06362V23.3199C8.03375 23.8492 9.08511 24.2479 10.1941 24.4937V14.3444V14.3443H24.7012C24.7679 13.8319 24.8028 13.3095 24.8028 12.779C24.8028 12.2485 24.7679 11.7262 24.7012 11.2138V11.2138Z" fill="#D80027"/>
</g>
<defs>
<clipPath id="clip0_6422_7724">
<rect width="24" height="24" fill="white" transform="translate(0.802734 0.779297)"/>
</clipPath>
</defs>
</svg>
