<svg width="25" height="24" viewBox="0 0 25 24" fill="none" xmlns="http://www.w3.org/2000/svg">
<g clip-path="url(#clip0_6422_7798)">
<path d="M2.26213 6.26077L12.8031 7.30425L23.344 6.26077C21.3087 2.53064 17.3516 -9.15527e-05 12.8031 -9.15527e-05C8.25454 -9.15527e-05 4.2974 2.53064 2.26213 6.26077V6.26077Z" fill="#D80027"/>
<path d="M2.2619 17.7391L12.8028 18.7826L23.3437 17.7391C24.2739 16.0342 24.8028 14.0789 24.8028 12L12.8028 10.9565L0.802826 12C0.802826 14.0789 1.33172 16.0342 2.2619 17.7391Z" fill="#FFDA44"/>
<path d="M2.2619 6.26108C1.33172 7.96597 0.802826 9.92131 0.802826 12.0002H24.8028C24.8028 9.92131 24.2739 7.96597 23.3437 6.26108H12.8028H2.2619Z" fill="#0052B4"/>
<path d="M12.8031 23.9998C17.3516 23.9998 21.3087 21.4691 23.344 17.739H2.26213C4.2974 21.4691 8.25454 23.9998 12.8031 23.9998Z" fill="#6DA544"/>
</g>
<defs>
<clipPath id="clip0_6422_7798">
<rect width="24" height="24" fill="white" transform="translate(0.802734)"/>
</clipPath>
</defs>
</svg>
