<svg width="25" height="24" viewBox="0 0 25 24" fill="none" xmlns="http://www.w3.org/2000/svg">
<g clip-path="url(#clip0_6422_7694)">
<path d="M12.8027 23.9998C19.4301 23.9998 24.8027 18.6273 24.8027 11.9998C24.8027 5.37243 19.4301 -0.000152588 12.8027 -0.000152588C6.17527 -0.000152588 0.802689 5.37243 0.802689 11.9998C0.802689 18.6273 6.17527 23.9998 12.8027 23.9998Z" fill="#F0F0F0"/>
<path d="M12.8026 23.9994C16.4397 23.9994 19.6986 22.381 21.8992 19.8255H3.70601C5.90665 22.381 9.16554 23.9994 12.8026 23.9994Z" fill="#0052B4"/>
<path d="M24.8025 11.9995C24.8025 5.37209 19.4299 -0.000534058 12.8025 -0.000534058C6.17513 -0.000534058 0.802505 5.37209 0.802505 11.9995C0.802505 13.0826 0.946881 14.1318 1.2159 15.1299H24.3892C24.6581 14.1318 24.8025 13.0826 24.8025 11.9995Z" fill="#0052B4"/>
<path d="M1.75632 16.695C1.98765 17.2385 2.25807 17.7613 2.56383 18.2602H23.0413C23.3469 17.7612 23.6174 17.2385 23.8488 16.695H1.75632Z" fill="#D80027"/>
<path d="M9.38049 12.7821L9.57474 13.3799H10.2034L9.69484 13.7494L9.88909 14.3473L9.38049 13.9777L8.8719 14.3473L9.06619 13.7494L8.55765 13.3799H9.18629L9.38049 12.7821Z" fill="#FFDA44"/>
<path d="M9.38049 20.6077L9.57474 21.2056H10.2034L9.69484 21.5751L9.88909 22.1729L9.38049 21.8035L8.8719 22.1729L9.06619 21.5751L8.55765 21.2056H9.18629L9.38049 20.6077Z" fill="#FFDA44"/>
<path d="M5.73741 17.9611L5.93166 18.5589H6.5603L6.05175 18.9283L6.246 19.5263L5.73741 19.1567L5.22882 19.5263L5.42316 18.9283L4.91457 18.5589H5.54316L5.73741 17.9611Z" fill="#FFDA44"/>
<path d="M7.12892 13.5646L7.32317 14.1625H7.95176L7.44326 14.532L7.63751 15.1299L7.12892 14.7604L6.62033 15.1299L6.81467 14.532L6.30603 14.1625H6.93467L7.12892 13.5646Z" fill="#FFDA44"/>
<path d="M4.91457 16.0266L5.54307 16.0267L5.73736 15.4287L5.93166 16.0266L6.5603 16.0266L6.05171 16.3961L6.246 16.994L5.73736 16.6245L5.22882 16.9939L5.42307 16.3961L4.91457 16.0266Z" fill="#FFDA44"/>
<path d="M6.62042 21.2766L6.81467 20.6788L6.30603 20.3094H6.93467L7.12897 19.7115L7.32326 20.3093H7.95186L7.44326 20.6788L7.63751 21.2767L7.12892 20.9072L6.62042 21.2766Z" fill="#FFDA44"/>
<path d="M13.022 17.9611L12.8278 18.5589H12.1992L12.7077 18.9283L12.5134 19.5263L13.022 19.1567L13.5306 19.5263L13.3363 18.9283L13.8449 18.5589H13.2163L13.022 17.9611Z" fill="#FFDA44"/>
<path d="M11.6305 13.5646L11.4363 14.1625H10.8077L11.3162 14.532L11.1219 15.1299L11.6305 14.7604L12.1391 15.1299L11.9448 14.532L12.4534 14.1625H11.8248L11.6305 13.5646Z" fill="#FFDA44"/>
<path d="M13.8449 16.0266L13.2163 16.0267L13.022 15.4287L12.8278 16.0266L12.1992 16.0266L12.7077 16.3961L12.5134 16.994L13.022 16.6245L13.5306 16.9939L13.3363 16.3961L13.8449 16.0266Z" fill="#FFDA44"/>
<path d="M12.1391 21.2766L11.9449 20.6788L12.4535 20.3094H11.8249L11.6306 19.7115L11.4363 20.3093H10.8077L11.3163 20.6788L11.122 21.2767L11.6306 20.9072L12.1391 21.2766Z" fill="#FFDA44"/>
</g>
<defs>
<clipPath id="clip0_6422_7694">
<rect width="24" height="24" fill="white" transform="translate(0.802734)"/>
</clipPath>
</defs>
</svg>
