<svg width="25" height="24" viewBox="0 0 25 24" fill="none" xmlns="http://www.w3.org/2000/svg">
<g clip-path="url(#clip0_6422_7653)">
<path d="M24.8029 12.0001C24.8029 10.5323 24.5388 9.12615 24.0565 7.82621L12.8029 7.30444L1.54925 7.82616C1.0669 9.12615 0.802856 10.5323 0.802856 12.0001C0.802856 13.4679 1.0669 14.8741 1.54925 16.174L12.8029 16.6958L24.0565 16.174C24.5388 14.8741 24.8029 13.4679 24.8029 12.0001Z" fill="#F0F0F0"/>
<path d="M12.8029 24.0001C17.9625 24.0001 22.361 20.7436 24.0565 16.174H1.54932C3.24483 20.7436 7.64335 24.0001 12.8029 24.0001Z" fill="#0052B4"/>
<path d="M1.54932 7.82617H24.0566C22.361 3.25656 17.9625 6.10352e-05 12.8029 6.10352e-05C7.64335 6.10352e-05 3.24483 3.25656 1.54932 7.82617V7.82617Z" fill="#D80027"/>
<path d="M15.9329 8.34808H13.8459L14.1938 5.73935L15.585 4.69586L16.9763 5.73935V7.82632L15.9329 8.34808Z" fill="#338AF3"/>
<path d="M9.67204 8.34808H11.759L11.4111 5.73935L10.0199 4.69586L8.6286 5.73935V7.82632L9.67204 8.34808Z" fill="#338AF3"/>
<path d="M14.1942 8.34765H11.4115V5.73892L12.8028 4.69543L14.1942 5.73892V8.34765Z" fill="#0052B4"/>
<path d="M8.62885 7.82635V13.5654C8.62885 14.932 9.28894 16.1473 10.3071 16.9091L11.0375 16.7264L11.9593 17.6537C12.2318 17.7098 12.5139 17.7394 12.8028 17.7394C13.0901 17.7394 13.3708 17.7102 13.6419 17.6546L14.6941 16.7785L15.2984 16.9074C16.3161 16.1456 16.9767 14.9316 16.9767 13.5654V7.82635H8.62885Z" fill="#F0F0F0"/>
<path d="M8.62894 7.82593H10.2985V9.49548H8.62894V7.82593Z" fill="#D80027"/>
<path d="M11.9677 7.82593H13.6373V9.49548H11.9677V7.82593Z" fill="#D80027"/>
<path d="M15.3071 7.82593H16.9767V9.49548H15.3071V7.82593Z" fill="#D80027"/>
<path d="M10.2983 9.4953H11.9679V11.1648H10.2983V9.4953Z" fill="#D80027"/>
<path d="M13.6374 9.4953H15.307V11.1648H13.6374V9.4953Z" fill="#D80027"/>
<path d="M8.62894 11.1641H10.2985V12.8336H8.62894V11.1641Z" fill="#D80027"/>
<path d="M10.2983 12.8341H11.9679V14.5037H10.2983V12.8341Z" fill="#D80027"/>
<path d="M11.9677 11.1641H13.6373V12.8336H11.9677V11.1641Z" fill="#D80027"/>
<path d="M15.3071 11.1641H16.9767V12.8336H15.3071V11.1641Z" fill="#D80027"/>
<path d="M13.6374 12.8341H15.307V14.5037H13.6374V12.8341Z" fill="#D80027"/>
<path d="M11.9677 14.5035H13.6373V16.173H11.9677V14.5035Z" fill="#D80027"/>
<path d="M10.2985 14.5042H8.73666C8.87991 15.1248 9.16154 15.6927 9.54769 16.1737H10.2985V14.5042Z" fill="#D80027"/>
<path d="M15.3071 16.1737H16.0579C16.4441 15.6927 16.7257 15.1247 16.8689 14.5042H15.3071V16.1737Z" fill="#D80027"/>
<path d="M10.2983 16.1735V16.902C10.7839 17.2674 11.3514 17.5294 11.9679 17.6551V16.1735H10.2983Z" fill="#D80027"/>
<path d="M13.6374 16.1735V17.6551C14.254 17.5295 14.8214 17.2674 15.307 16.902V16.1735H13.6374Z" fill="#D80027"/>
</g>
<defs>
<clipPath id="clip0_6422_7653">
<rect width="24" height="24" fill="white" transform="translate(0.802734)"/>
</clipPath>
</defs>
</svg>
