<svg width="25" height="25" viewBox="0 0 25 25" fill="none" xmlns="http://www.w3.org/2000/svg">
<g clip-path="url(#clip0_6422_7856)">
<path d="M11.7592 13.8226C11.7592 13.8226 4.32438 4.29216 4.31735 4.29385C6.48888 2.12227 9.48893 0.779114 12.8027 0.779114C19.43 0.779114 24.8027 6.15174 24.8027 12.7791L11.7592 13.8226Z" fill="#D80027"/>
<path d="M11.7592 12.7789C11.7592 12.7789 4.32438 21.2659 4.31735 21.2642C6.48888 23.4357 9.48893 24.7789 12.8027 24.7789C19.43 24.7789 24.8027 19.4063 24.8027 12.7789H11.7592Z" fill="#0052B4"/>
<path d="M4.31743 4.29376C-0.368851 8.98004 -0.368851 16.5781 4.31743 21.2644C6.25398 19.3278 8.11646 17.4654 12.8027 12.7791L4.31743 4.29376Z" fill="#F0F0F0"/>
<path d="M2.1179 12.7795C2.11134 12.8656 2.10689 12.9524 2.10689 13.0403C2.10689 14.9132 3.62526 16.4316 5.4982 16.4316C7.37114 16.4316 8.88951 14.9132 8.88951 13.0403C8.88951 12.9524 8.88506 12.8656 8.8785 12.7795H2.1179Z" fill="#FFDA44"/>
<path d="M5.49839 11.2136C6.0747 11.2136 6.54188 10.7464 6.54188 10.1701C6.54188 9.59385 6.0747 9.12666 5.49839 9.12666C4.92209 9.12666 4.45491 9.59385 4.45491 10.1701C4.45491 10.7464 4.92209 11.2136 5.49839 11.2136Z" fill="#FFDA44"/>
<path d="M3.15042 9.90991V13.3012C3.15042 15.0984 5.49825 15.6491 5.49825 15.6491C5.49825 15.6491 7.84608 15.0984 7.84608 13.3012V9.90991H3.15042Z" fill="#D80027"/>
<path d="M5.49945 14.5567C5.06389 14.4 4.19394 13.9994 4.19394 13.301V10.9531H6.80267V13.301C6.80267 14.0017 5.93281 14.4013 5.49945 14.5567V14.5567Z" fill="#338AF3"/>
<path d="M6.02021 12.2577V11.7359L5.49849 11.475L4.97673 11.7359V12.2577L4.71587 12.5185V13.562H6.28112V12.5185L6.02021 12.2577Z" fill="#F3F3F3"/>
</g>
<defs>
<clipPath id="clip0_6422_7856">
<rect width="24" height="24" fill="white" transform="translate(0.802734 0.779297)"/>
</clipPath>
</defs>
</svg>
