<svg width="25" height="24" viewBox="0 0 25 24" fill="none" xmlns="http://www.w3.org/2000/svg">
<g clip-path="url(#clip0_6422_7654)">
<path d="M1.54886 16.1739C3.24437 20.7435 7.64289 24 12.8025 24C17.962 24 22.3606 20.7435 24.0561 16.1739L12.8025 15.1305L1.54886 16.1739Z" fill="#FFDA44"/>
<path d="M12.8025 -0.000183105C7.64289 -0.000183105 3.24437 3.25632 1.54886 7.82593L12.8025 8.86936L24.0561 7.82588C22.3606 3.25632 17.962 -0.000183105 12.8025 -0.000183105Z" fill="black"/>
<path d="M1.54913 7.82611C1.06678 9.1261 0.802734 10.5322 0.802734 12C0.802734 13.4678 1.06678 14.8739 1.54913 16.1739H24.0564C24.5387 14.8739 24.8027 13.4678 24.8027 12C24.8027 10.5322 24.5387 9.1261 24.0563 7.82611H1.54913Z" fill="#D80027"/>
</g>
<defs>
<clipPath id="clip0_6422_7654">
<rect width="24" height="24" fill="white" transform="translate(0.802734)"/>
</clipPath>
</defs>
</svg>
