<svg width="25" height="24" viewBox="0 0 25 24" fill="none" xmlns="http://www.w3.org/2000/svg">
<g clip-path="url(#clip0_6422_7692)">
<path d="M18.02 1.19051C16.4424 0.427661 14.6725 -0.000213623 12.8026 -0.000213623C10.9328 -0.000213623 9.16286 0.427661 7.58523 1.19051L6.54175 11.9998L7.58523 22.8091C9.16286 23.5719 10.9328 23.9998 12.8026 23.9998C14.6725 23.9998 16.4424 23.5719 18.02 22.8091L19.0635 11.9998L18.02 1.19051Z" fill="#D80027"/>
<path d="M12.8026 7.82545L13.8386 11.0138H17.1914L14.4791 12.9847L15.515 16.1732L12.8026 14.2026L10.0902 16.1732L11.1264 12.9847L8.414 11.0138H11.7666L12.8026 7.82545Z" fill="#FFDA44"/>
<path d="M7.58545 1.19058C3.57154 3.13149 0.802826 7.24191 0.802826 11.9994C0.802826 16.757 3.57154 20.8674 7.58545 22.8083V1.19058Z" fill="#496E2D"/>
<path d="M18.0199 1.19058V22.8083C22.0338 20.8674 24.8026 16.7569 24.8026 11.9994C24.8026 7.24196 22.0338 3.13149 18.0199 1.19058Z" fill="#FFDA44"/>
</g>
<defs>
<clipPath id="clip0_6422_7692">
<rect width="24" height="24" fill="white" transform="translate(0.802734)"/>
</clipPath>
</defs>
</svg>
