<svg width="25" height="25" viewBox="0 0 25 25" fill="none" xmlns="http://www.w3.org/2000/svg">
<g clip-path="url(#clip0_6422_7844)">
<path d="M24.8026 12.0301C24.8026 18.6575 19.43 24.0301 12.8026 24.0301C6.17525 24.0301 0.802628 18.6575 0.802628 12.0301C4.92435 7.90841 8.42 4.41275 12.8026 0.0301285C19.43 0.0301285 24.8026 5.40275 24.8026 12.0301Z" fill="#D80027"/>
<path d="M12.8026 12.0301C12.8026 5.40275 12.8026 4.62144 12.8026 0.0301285C6.17525 0.0301285 0.802628 5.40275 0.802628 12.0301H12.8026Z" fill="#0052B4"/>
<path d="M10.4144 7.85489L10.6086 8.45278H11.2372L10.7286 8.8222L10.9229 9.42009L10.4144 9.05058L9.90576 9.42009L10.1001 8.8222L9.59146 8.45278H10.2201L10.4144 7.85489Z" fill="#F0F0F0"/>
<path d="M7.25704 3.15948L7.58081 4.156H8.62856L7.78087 4.7717L8.10473 5.76817L7.25704 5.15228L6.4094 5.76817L6.73322 4.7717L5.88557 4.156H6.93323L7.25704 3.15948Z" fill="#F0F0F0"/>
<path d="M10.3876 4.2027L10.7114 5.19926H11.7591L10.9115 5.81496L11.2352 6.81143L10.3876 6.19554L9.53999 6.81143L9.8638 5.81496L9.01616 5.19926H10.0638L10.3876 4.2027Z" fill="#F0F0F0"/>
<path d="M7.91306 8.37681L8.23688 9.37332H9.28453L8.43689 9.98903L8.7607 10.9855L7.91306 10.3697L7.06542 10.9855L7.38924 9.98903L6.5416 9.37332H7.5893L7.91306 8.37681Z" fill="#F0F0F0"/>
<path d="M5.16994 5.76783L5.49376 6.76435H6.54146L5.69377 7.38005L6.01759 8.37652L5.16994 7.76067L4.32235 8.37652L4.64612 7.38005L3.79852 6.76435H4.84618L5.16994 5.76783Z" fill="#F0F0F0"/>
</g>
<defs>
<clipPath id="clip0_6422_7844">
<rect width="24" height="24" fill="white" transform="translate(0.802734 0.0302734)"/>
</clipPath>
</defs>
</svg>
