<svg width="25" height="25" viewBox="0 0 25 25" fill="none" xmlns="http://www.w3.org/2000/svg">
<g clip-path="url(#clip0_6422_7839)">
<path d="M16.9768 1.02841C15.6767 0.546113 14.2707 0.282066 12.8029 0.282066C11.335 0.282019 9.92898 0.546113 8.62899 1.02841L7.58551 12.282L8.62899 23.5356C9.92893 24.0181 11.335 24.2821 12.8029 24.2821C14.2707 24.2821 15.6768 24.0181 16.9768 23.5356L18.0202 12.2821L16.9768 1.02841Z" fill="#FFDA44"/>
<path d="M24.8027 12.2818C24.8027 7.12228 21.5462 2.72367 16.9766 1.02821V23.5355C21.5462 21.8399 24.8027 17.4414 24.8027 12.2818Z" fill="#D80027"/>
<path d="M0.802734 12.2817C0.802734 17.4414 4.05923 21.8398 8.62875 23.5354L8.6288 1.02821C4.05923 2.72367 0.802734 7.12214 0.802734 12.2817H0.802734Z" fill="#0052B4"/>
</g>
<defs>
<clipPath id="clip0_6422_7839">
<rect width="24" height="24" fill="white" transform="translate(0.802734 0.282227)"/>
</clipPath>
</defs>
</svg>
