<svg width="25" height="25" viewBox="0 0 25 25" fill="none" xmlns="http://www.w3.org/2000/svg">
<g clip-path="url(#clip0_6422_7832)">
<path d="M12.8027 24.8028C19.4301 24.8028 24.8027 19.4302 24.8027 12.8028C24.8027 6.17536 19.4301 0.802774 12.8027 0.802774C6.1753 0.802774 0.802719 6.17536 0.802719 12.8028C0.802719 19.4302 6.1753 24.8028 12.8027 24.8028Z" fill="#F0F0F0"/>
<path d="M12.8027 0.802778V12.8028L4.31737 21.2881C6.48895 23.4596 9.48895 24.8028 12.8027 24.8028C19.4301 24.8028 24.8027 19.4302 24.8027 12.8028C24.8027 6.1754 12.8027 0.802778 12.8027 0.802778Z" fill="#D80027"/>
<path d="M12.8027 0.802778C9.48895 0.802778 6.48895 2.14593 4.31737 4.31747C7.26159 7.26168 8.30676 8.3069 12.8027 12.8028H24.8027C24.8027 6.1754 19.4301 0.802778 12.8027 0.802778Z" fill="#0052B4"/>
<path d="M9.01926 12.8032L7.55376 12.1139L8.33418 10.6946L6.74277 10.999L6.54112 9.39135L5.43262 10.5737L4.32416 9.39135L4.12246 10.999L2.5311 10.6945L3.31152 12.1139L1.84598 12.8032L3.31152 13.4926L2.5311 14.9119L4.1226 14.6075L4.32412 16.2151L5.43262 15.0328L6.54112 16.2151L6.74277 14.6075L8.33409 14.912L7.55371 13.4926L9.01926 12.8032Z" fill="#FFDA44"/>
<path d="M4.00288 5.49861L4.49057 6.18031L5.28956 5.92724L4.79184 6.60167L5.27952 7.28338L4.48424 7.01849L3.98657 7.69288L3.99281 6.85475L3.19757 6.58981L3.9967 6.33674L4.00288 5.49861Z" fill="#FFDA44"/>
<path d="M4.00288 17.9129L4.49057 18.5946L5.28956 18.3415L4.79184 19.016L5.27952 19.6977L4.48424 19.4328L3.98657 20.1072L3.99281 19.2691L3.19757 19.0041L3.9967 18.751L4.00288 17.9129Z" fill="#FFDA44"/>
<path d="M10.9586 11.7058L10.471 12.3875L9.67197 12.1343L10.1697 12.8088L9.682 13.4905L10.4773 13.2256L10.975 13.9L10.9687 13.0619L11.764 12.797L10.9649 12.5439L10.9586 11.7058Z" fill="#FFDA44"/>
</g>
<defs>
<clipPath id="clip0_6422_7832">
<rect width="24" height="24" fill="white" transform="translate(0.802734 0.802734)"/>
</clipPath>
</defs>
</svg>
