<svg width="25" height="25" viewBox="0 0 25 25" fill="none" xmlns="http://www.w3.org/2000/svg">
<g clip-path="url(#clip0_6422_7744)">
<path d="M24.8027 12.7255C24.8027 19.3529 19.4301 24.7255 12.8027 24.7255C6.17534 24.7255 0.802719 19.3529 0.802719 12.7255C0.802719 6.09812 12.8027 0.725494 12.8027 0.725494C12.8027 0.725494 24.8027 6.09812 24.8027 12.7255Z" fill="#A2001D"/>
<path d="M0.802719 12.7255C0.802719 6.09812 6.17534 0.725494 12.8027 0.725494C19.4301 0.725494 24.8027 6.09812 24.8027 12.7255" fill="#0052B4"/>
<path d="M16.9765 15.8553L12.8027 15.3335L8.62877 15.8553V9.59436H16.9765V15.8553Z" fill="#F0F0F0"/>
<path d="M12.8028 15.3341C13.9554 15.3341 14.8898 14.3997 14.8898 13.2471C14.8898 12.0945 13.9554 11.1601 12.8028 11.1601C11.6502 11.1601 10.7158 12.0945 10.7158 13.2471C10.7158 14.3997 11.6502 15.3341 12.8028 15.3341Z" fill="#0052B4"/>
<path d="M12.8028 14.2903C13.3791 14.2903 13.8463 13.8231 13.8463 13.2468C13.8463 12.6705 13.3791 12.2033 12.8028 12.2033C12.2265 12.2033 11.7594 12.6705 11.7594 13.2468C11.7594 13.8231 12.2265 14.2903 12.8028 14.2903Z" fill="#A2001D"/>
<path d="M11.2377 10.6382H14.3682L12.803 12.2034L11.2377 10.6382Z" fill="#6DA544"/>
<path d="M12.281 11.6814H13.3244V14.8118H12.281V11.6814Z" fill="#FFDA44"/>
<path d="M14.4722 14.4995H11.133L8.62877 15.8561H16.9765L14.4722 14.4995Z" fill="#6DA544"/>
</g>
<defs>
<clipPath id="clip0_6422_7744">
<rect width="24" height="24" fill="white" transform="translate(0.802734 0.725586)"/>
</clipPath>
</defs>
</svg>
