<svg width="25" height="25" viewBox="0 0 25 25" fill="none" xmlns="http://www.w3.org/2000/svg">
<g clip-path="url(#clip0_6422_7850)">
<path d="M18.0202 1.97012C16.4426 1.20728 14.6727 0.779404 12.8029 0.779404C10.933 0.779404 9.16311 1.20728 7.58549 1.97012L6.542 12.7794L7.58549 23.5887C9.16311 24.3515 10.933 24.7794 12.8029 24.7794C14.6727 24.7794 16.4426 24.3515 18.0202 23.5887L19.0637 12.7794L18.0202 1.97012Z" fill="#FFDA44"/>
<path d="M12.803 8.60577L13.8389 11.7942H17.1918L14.4794 13.765L15.5154 16.9536L12.803 14.9829L10.0905 16.9536L11.1267 13.765L8.41433 11.7942H11.767L12.803 8.60577Z" fill="#496E2D"/>
<path d="M7.5857 1.97084C3.57179 3.91179 0.803076 8.02222 0.803076 12.7797C0.803076 17.5372 3.57179 21.6476 7.5857 23.5886V1.97084Z" fill="#496E2D"/>
<path d="M18.0202 1.97021V23.5879C22.0341 21.647 24.8028 17.5366 24.8028 12.7791C24.8028 8.02159 22.0341 3.91117 18.0202 1.97021Z" fill="#D80027"/>
</g>
<defs>
<clipPath id="clip0_6422_7850">
<rect width="24" height="24" fill="white" transform="translate(0.802734 0.779297)"/>
</clipPath>
</defs>
</svg>
