<svg width="25" height="25" viewBox="0 0 25 25" fill="none" xmlns="http://www.w3.org/2000/svg">
<g clip-path="url(#clip0_6422_7715)">
<path d="M12.8027 24.0304C19.4301 24.0304 24.8027 18.6578 24.8027 12.0304C24.8027 5.40298 19.4301 0.0303955 12.8027 0.0303955C6.17531 0.0303955 0.802723 5.40298 0.802723 12.0304C0.802723 18.6578 6.17531 24.0304 12.8027 24.0304Z" fill="#F0F0F0"/>
<path d="M12.8025 0.0303802C7.64296 0.0303802 3.24445 3.28688 1.54893 7.85649H24.0562C22.3606 3.28688 17.9621 0.0303802 12.8025 0.0303802V0.0303802Z" fill="#D80027"/>
<path d="M12.8025 24.0298C17.9621 24.0298 22.3606 20.7733 24.0561 16.2036H1.54893C3.24445 20.7733 7.64296 24.0298 12.8025 24.0298Z" fill="black"/>
<path d="M16.9767 10.7253H13.8462C13.8462 10.149 13.379 9.68183 12.8027 9.68183C12.2264 9.68183 11.7592 10.149 11.7592 10.7253H8.62878C8.62878 11.3016 9.13076 11.7688 9.70704 11.7688H9.67226C9.67226 12.3451 10.1394 12.8123 10.7157 12.8123C10.7157 13.3886 11.1829 13.8558 11.7592 13.8558H13.8462C14.4225 13.8558 14.8897 13.3886 14.8897 12.8123C15.466 12.8123 15.9332 12.3451 15.9332 11.7688H15.8984C16.4747 11.7688 16.9767 11.3016 16.9767 10.7253V10.7253Z" fill="#FF9811"/>
</g>
<defs>
<clipPath id="clip0_6422_7715">
<rect width="24" height="24" fill="white" transform="translate(0.802734 0.0302734)"/>
</clipPath>
</defs>
</svg>
