<svg width="25" height="25" viewBox="0 0 25 25" fill="none" xmlns="http://www.w3.org/2000/svg">
<g clip-path="url(#clip0_6422_7862)">
<path d="M12.8028 24.41C19.4302 24.41 24.8028 19.0374 24.8028 12.41C24.8028 5.78259 19.4302 0.410004 12.8028 0.410004C6.17539 0.410004 0.802811 5.78259 0.802811 12.41C0.802811 19.0374 6.17539 24.41 12.8028 24.41Z" fill="#F0F0F0"/>
<path d="M4.31754 20.8952C-0.368744 16.2089 -0.368744 8.61095 4.31754 3.92462C4.31721 3.92514 11.2376 12.4099 11.2376 12.4099L4.31754 20.8952Z" fill="black"/>
<path d="M11.2378 12.4097L2.39451 6.43375C2.12034 6.91032 1.87856 7.40776 1.67081 7.92264L6.14779 12.4097L1.67095 16.8971C1.87851 17.4116 2.12006 17.9087 2.39404 18.3849L11.2378 12.4097Z" fill="#FFDA44"/>
<path d="M24.7014 10.8452H11.2374L4.31754 3.92526C3.57186 4.67095 2.924 5.51428 2.3945 6.43448L8.35883 12.4104L2.39403 18.3855C2.92353 19.306 3.57167 20.1496 4.31754 20.8955L11.2374 13.9756H24.7014C24.7681 13.4632 24.803 12.9409 24.803 12.4104C24.803 11.8799 24.7681 11.3575 24.7014 10.8452V10.8452Z" fill="#6DA544"/>
<path d="M5.49696 21.9294C7.52051 23.4848 10.0535 24.4102 12.803 24.4102C18.3473 24.4102 23.0126 20.6498 24.3896 15.5406H11.8858L5.49696 21.9294Z" fill="#0052B4"/>
<path d="M24.3896 9.27952C23.0126 4.17033 18.3473 0.409973 12.803 0.409973C10.0535 0.409973 7.52051 1.33533 5.49696 2.89074L11.8857 9.27952H24.3896Z" fill="#D80027"/>
</g>
<defs>
<clipPath id="clip0_6422_7862">
<rect width="24" height="24" fill="white" transform="translate(0.802734 0.410156)"/>
</clipPath>
</defs>
</svg>
