<svg width="25" height="25" viewBox="0 0 25 25" fill="none" xmlns="http://www.w3.org/2000/svg">
<g clip-path="url(#clip0_6422_7743)">
<path d="M12.8028 24.7255C19.4302 24.7255 24.8028 19.3529 24.8028 12.7255C24.8028 6.09808 19.4302 0.725494 12.8028 0.725494C6.17536 0.725494 0.80278 6.09808 0.80278 12.7255C0.80278 19.3529 6.17536 24.7255 12.8028 24.7255Z" fill="#F0F0F0"/>
<path d="M12.8028 0.725464C10.6812 0.725464 8.68866 1.27681 6.95935 2.2429V23.208C8.68871 24.1741 10.6812 24.7255 12.8028 24.7255C19.4302 24.7255 24.8028 19.3528 24.8028 12.7255C24.8028 6.09809 19.4302 0.725464 12.8028 0.725464Z" fill="#6DA544"/>
<path d="M6.99471 2.22339C6.23979 2.64175 5.53489 3.139 4.89087 3.70431C4.95598 3.64722 5.02175 3.59078 5.08803 3.53509L14.2786 12.7257L5.08798 21.9163C5.02165 21.8606 4.95593 21.8042 4.89082 21.7471C5.53484 22.3124 6.23979 22.8096 6.99467 23.228L24.8029 12.7257L6.99471 2.22339Z" fill="#F0F0F0"/>
<path d="M5.98121 2.85272C5.61526 3.10613 5.26379 3.3788 4.92886 3.67022L12.8029 12.7254L4.92882 21.7807C5.26374 22.0721 5.61521 22.3448 5.98116 22.5982L22.7488 12.7254L5.98121 2.85272Z" fill="#FFDA44"/>
<path d="M5.08779 3.53479C4.82102 3.75895 4.56359 3.99393 4.3174 4.24007L11.7592 12.7254L4.3174 21.2107C4.56359 21.4569 4.82098 21.6919 5.08779 21.916L14.2784 12.7254L5.08779 3.53479Z" fill="black"/>
<path d="M4.31748 4.24011C-0.368805 8.92639 -0.368805 16.5244 4.31748 21.2107C6.25402 19.2742 8.11651 17.4117 12.8028 12.7254L4.31748 4.24011Z" fill="#D80027"/>
</g>
<defs>
<clipPath id="clip0_6422_7743">
<rect width="24" height="24" fill="white" transform="translate(0.802734 0.725586)"/>
</clipPath>
</defs>
</svg>
