<svg width="25" height="24" viewBox="0 0 25 24" fill="none" xmlns="http://www.w3.org/2000/svg">
<g clip-path="url(#clip0_6422_7827)">
<path d="M12.8026 23.9998C19.43 23.9998 24.8026 18.6272 24.8026 11.9998C24.8026 5.37238 19.43 -0.000198364 12.8026 -0.000198364C6.17521 -0.000198364 0.802628 5.37238 0.802628 11.9998C0.802628 18.6272 6.17521 23.9998 12.8026 23.9998Z" fill="#F0F0F0"/>
<path d="M8.1068 7.82589H24.056C22.3605 3.25628 17.962 -0.000221252 12.8025 -0.000221252C9.48867 -0.000221252 6.489 1.34317 4.31757 3.51489L8.1068 7.82589Z" fill="black"/>
<path d="M8.1068 16.173H24.056C22.3605 20.7426 17.962 23.9991 12.8025 23.9991C9.48867 23.9991 6.489 22.6558 4.31757 20.484L8.1068 16.173Z" fill="#6DA544"/>
<path d="M4.31732 3.51442C-0.368958 8.2007 -0.368958 15.7987 4.31732 20.485C6.25387 18.5485 8.11635 16.686 12.8026 11.9997L4.31732 3.51442Z" fill="#D80027"/>
</g>
<defs>
<clipPath id="clip0_6422_7827">
<rect width="24" height="24" fill="white" transform="translate(0.802734)"/>
</clipPath>
</defs>
</svg>
