<svg width="25" height="25" viewBox="0 0 25 25" fill="none" xmlns="http://www.w3.org/2000/svg">
<g clip-path="url(#clip0_6422_7882)">
<path d="M12.8027 24.7255C19.4301 24.7255 24.8027 19.3529 24.8027 12.7255C24.8027 6.09808 19.4301 0.725494 12.8027 0.725494C6.17523 0.725494 0.80265 6.09808 0.80265 12.7255C0.80265 19.3529 6.17523 24.7255 12.8027 24.7255Z" fill="#F0F0F0"/>
<path d="M8.62859 6.98668V5.42148H7.06334V6.98668H5.49814V8.55193H7.06334V10.1171H8.62859V8.55193H10.1938V6.98668H8.62859Z" fill="#D80027"/>
<path d="M12.8025 0.726013V12.726C6.17508 12.7261 3.54113 12.726 0.80246 12.7261C0.80246 19.3534 6.17508 24.726 12.8025 24.726C19.4298 24.726 24.8025 19.3534 24.8025 12.726C24.8025 6.09864 19.4298 0.726013 12.8025 0.726013Z" fill="#D80027"/>
</g>
<defs>
<clipPath id="clip0_6422_7882">
<rect width="24" height="24" fill="white" transform="translate(0.802734 0.725586)"/>
</clipPath>
</defs>
</svg>
