<svg width="25" height="25" viewBox="0 0 25 25" fill="none" xmlns="http://www.w3.org/2000/svg">
<g clip-path="url(#clip0_6422_7728)">
<path d="M12.8028 24.7791C19.4303 24.7791 24.8028 19.4066 24.8028 12.7791C24.8028 6.15173 19.4303 0.779144 12.8028 0.779144C6.17542 0.779144 0.802834 6.15173 0.802834 12.7791C0.802834 19.4066 6.17542 24.7791 12.8028 24.7791Z" fill="#F0F0F0"/>
<path d="M2.26189 7.0398H23.3437C21.3085 3.30968 17.3513 0.778946 12.8028 0.778946C8.25429 0.778946 4.29715 3.30968 2.26189 7.0398V7.0398Z" fill="#D80027"/>
<path d="M12.8028 24.7788C17.3513 24.7788 21.3085 22.2481 23.3437 18.518H2.26189C4.29715 22.2481 8.25429 24.7788 12.8028 24.7788Z" fill="#D80027"/>
<path d="M16.9769 12.7793C16.9769 15.0845 15.1082 16.4315 12.803 16.4315C10.4979 16.4315 8.62914 15.0845 8.62914 12.7793C8.62914 10.4741 10.4979 8.60542 12.803 8.60542C15.1082 8.60542 16.9769 10.4741 16.9769 12.7793Z" fill="#FFDA44"/>
<path d="M16.9769 12.7789C16.9769 15.0841 15.1082 16.9528 12.803 16.9528C10.4979 16.9528 8.62914 15.0841 8.62914 12.7789" fill="#0052B4"/>
<path d="M10.1944 11.7348H11.2379V13.8218H10.1944V11.7348Z" fill="#D80027"/>
<path d="M14.3682 11.7348H15.4117V13.8218H14.3682V11.7348Z" fill="#D80027"/>
<path d="M12.2811 10.1696H13.3246V13.8218H12.2811V10.1696Z" fill="#D80027"/>
</g>
<defs>
<clipPath id="clip0_6422_7728">
<rect width="24" height="24" fill="white" transform="translate(0.802734 0.779297)"/>
</clipPath>
</defs>
</svg>
