<svg width="25" height="24" viewBox="0 0 25 24" fill="none" xmlns="http://www.w3.org/2000/svg">
<g clip-path="url(#clip0_6422_7785)">
<path d="M24.0564 16.1739C24.5388 14.874 24.8028 13.4679 24.8028 12C24.8028 10.5322 24.5388 9.12608 24.0564 7.82614L12.8028 6.78265L1.54916 7.82614C1.06676 9.12608 0.802765 10.5322 0.802765 12C0.802765 13.4679 1.06676 14.874 1.54916 16.1739L12.8028 17.2174L24.0564 16.1739Z" fill="#6DA544"/>
<path d="M24.0564 7.82632C22.3609 3.25671 17.9624 0.000213623 12.8028 0.000213623C7.64326 0.000213623 3.24474 3.25671 1.54922 7.82632H24.0564Z" fill="#FFDA44"/>
<path d="M12.8028 24.0002C17.9624 24.0002 22.3609 20.7437 24.0564 16.1741H1.54922C3.24474 20.7437 7.64326 24.0002 12.8028 24.0002Z" fill="#D80027"/>
</g>
<defs>
<clipPath id="clip0_6422_7785">
<rect width="24" height="24" fill="white" transform="translate(0.802734)"/>
</clipPath>
</defs>
</svg>
