<svg width="25" height="25" viewBox="0 0 25 25" fill="none" xmlns="http://www.w3.org/2000/svg">
<g clip-path="url(#clip0_6422_7733)">
<path d="M0.802761 12.4097C0.802761 13.8776 1.06681 15.2836 1.54915 16.5836L12.8028 17.1054L24.0564 16.5837C24.5388 15.2836 24.8028 13.8776 24.8028 12.4097C24.8028 10.9419 24.5388 9.53583 24.0564 8.23585L12.8028 7.71408L1.54915 8.2358C1.06681 9.53583 0.802761 10.9419 0.802761 12.4097H0.802761Z" fill="#FFDA44"/>
<path d="M12.8028 0.410339C7.64325 0.410339 3.24473 3.66684 1.54921 8.23645H24.0565C22.3609 3.66684 17.9624 0.410339 12.8028 0.410339V0.410339Z" fill="#D80027"/>
<path d="M24.0564 16.5836H1.54921C3.24473 21.1531 7.64324 24.4097 12.8028 24.4097C17.9624 24.4097 22.3609 21.1531 24.0564 16.5836Z" fill="#496E2D"/>
<path d="M12.8026 8.23599L13.8385 11.4244H17.1914L14.4791 13.3952L15.515 16.5838L12.8026 14.6131L10.0901 16.5838L11.1263 13.3952L8.41395 11.4244H11.7666L12.8026 8.23599Z" fill="black"/>
</g>
<defs>
<clipPath id="clip0_6422_7733">
<rect width="24" height="24" fill="white" transform="translate(0.802734 0.410156)"/>
</clipPath>
</defs>
</svg>
