<svg width="25" height="24" viewBox="0 0 25 24" fill="none" xmlns="http://www.w3.org/2000/svg">
<g clip-path="url(#clip0_6422_7813)">
<path d="M12.8027 24C19.4301 24 24.8027 18.6274 24.8027 12C24.8027 5.37257 19.4301 -1.52588e-05 12.8027 -1.52588e-05C6.17531 -1.52588e-05 0.802723 5.37257 0.802723 12C0.802723 18.6274 6.17531 24 12.8027 24Z" fill="#F0F0F0"/>
<path d="M12.8027 -3.05176e-05C8.04515 -3.05176e-05 3.9344 2.76864 1.9934 6.78259H23.6119C21.671 2.76864 17.5602 -3.05176e-05 12.8027 -3.05176e-05V-3.05176e-05Z" fill="#338AF3"/>
<path d="M12.8027 23.9997C17.5602 23.9997 21.671 21.231 23.612 17.2171H1.9934C3.9344 21.231 8.04515 23.9997 12.8027 23.9997Z" fill="#338AF3"/>
<path d="M12.8028 8.34756C10.7858 8.34756 9.15063 9.98271 9.15063 11.9997C9.15063 14.0168 10.7858 15.6519 12.8028 15.6519C14.8198 15.6519 16.455 14.0168 16.455 11.9997C16.455 9.98271 14.8198 8.34756 12.8028 8.34756ZM12.8028 14.0867C11.6502 14.0867 10.7158 13.1524 10.7158 11.9997C10.7158 10.8471 11.6502 9.91277 12.8028 9.91277C13.9554 9.91277 14.8898 10.8471 14.8898 11.9997C14.8898 13.1524 13.9554 14.0867 12.8028 14.0867Z" fill="#FFDA44"/>
<path d="M14.6102 12.5215L12.8028 11.9998L10.9954 12.5215L10.3929 13.565H15.2126L14.6102 12.5215Z" fill="#0052B4"/>
<path d="M12.8028 9.39142L11.5979 11.4784L12.8028 12.0001L14.0077 11.4784L12.8028 9.39142Z" fill="#338AF3"/>
<path d="M10.9952 12.5219H14.6101L14.0076 11.4785H11.5977L10.9952 12.5219Z" fill="#6DA544"/>
</g>
<defs>
<clipPath id="clip0_6422_7813">
<rect width="24" height="24" fill="white" transform="translate(0.802734)"/>
</clipPath>
</defs>
</svg>
