<svg width="25" height="25" viewBox="0 0 25 25" fill="none" xmlns="http://www.w3.org/2000/svg">
<g clip-path="url(#clip0_6422_7786)">
<path d="M12.8028 24.7258C19.4302 24.7258 24.8028 19.3532 24.8028 12.7258C24.8028 6.09835 19.4302 0.725769 12.8028 0.725769C6.17535 0.725769 0.802765 6.09835 0.802765 12.7258C0.802765 19.3532 6.17535 24.7258 12.8028 24.7258Z" fill="#F0F0F0"/>
<path d="M12.8028 0.725769C7.64326 0.725769 3.24474 3.98227 1.54922 8.55188H24.0565C22.3609 3.98227 17.9624 0.725769 12.8028 0.725769V0.725769Z" fill="#D80027"/>
<path d="M12.8028 24.7258C17.9624 24.7258 22.3609 21.4693 24.0564 16.8997H1.54922C3.24474 21.4693 7.64326 24.7258 12.8028 24.7258Z" fill="#338AF3"/>
</g>
<defs>
<clipPath id="clip0_6422_7786">
<rect width="24" height="24" fill="white" transform="translate(0.802734 0.725586)"/>
</clipPath>
</defs>
</svg>
