<svg width="25" height="25" viewBox="0 0 25 25" fill="none" xmlns="http://www.w3.org/2000/svg">
<g clip-path="url(#clip0_6422_7727)">
<path d="M12.8028 24.7791C19.4303 24.7791 24.8028 19.4066 24.8028 12.7791C24.8028 6.15173 19.4303 0.779144 12.8028 0.779144C6.17542 0.779144 0.802841 6.15173 0.802841 12.7791C0.802841 19.4066 6.17542 24.7791 12.8028 24.7791Z" fill="#F0F0F0"/>
<path d="M24.8025 12.7789C24.8025 7.61928 21.546 3.22077 16.9764 1.52525V24.0325C21.546 22.337 24.8025 17.9384 24.8025 12.7789V12.7789Z" fill="#D80027"/>
<path d="M0.802856 12.7789C0.802856 17.9384 4.0594 22.337 8.62897 24.0325V1.52525C4.0594 3.22077 0.802856 7.61928 0.802856 12.7789Z" fill="#0052B4"/>
</g>
<defs>
<clipPath id="clip0_6422_7727">
<rect width="24" height="24" fill="white" transform="translate(0.802734 0.779297)"/>
</clipPath>
</defs>
</svg>
