<svg width="25" height="24" viewBox="0 0 25 24" fill="none" xmlns="http://www.w3.org/2000/svg">
<g clip-path="url(#clip0_6422_7776)">
<path d="M12.8027 0.000213623C19.4301 0.000213623 24.8027 5.37284 24.8027 12.0002C24.8027 18.6276 19.4301 24.0002 12.8027 24.0002C12.8027 23.4785 11.2375 12.0002 11.2375 12.0002L12.8027 0.000213623Z" fill="#F0F0F0"/>
<path d="M12.8028 24.0002C6.17546 24.0002 0.802834 18.6276 0.802834 12.0002C0.802834 5.37281 6.17546 0.000183105 12.8028 0.000183105" fill="#496E2D"/>
<path d="M15.3812 9.6987L14.3966 11.0555L12.8021 10.5384L13.7882 11.894L12.8038 13.2508L14.3977 12.7318L15.3839 14.0874L15.3828 12.4111L16.9768 11.8921L15.3823 11.3751L15.3812 9.6987Z" fill="#D80027"/>
<path d="M13.7984 15.3918C11.9254 15.3918 10.4071 13.8734 10.4071 12.0004C10.4071 10.1275 11.9254 8.60913 13.7984 8.60913C14.3823 8.60913 14.9319 8.75679 15.4116 9.01676C14.659 8.28077 13.6298 7.82651 12.494 7.82651C10.1888 7.82651 8.32014 9.69523 8.32014 12.0004C8.32014 14.3056 10.1889 16.1743 12.494 16.1743C13.6298 16.1743 14.659 15.72 15.4116 14.984C14.9319 15.2441 14.3823 15.3918 13.7984 15.3918Z" fill="#D80027"/>
</g>
<defs>
<clipPath id="clip0_6422_7776">
<rect width="24" height="24" fill="white" transform="translate(0.802734)"/>
</clipPath>
</defs>
</svg>
