<svg width="25" height="25" viewBox="0 0 25 25" fill="none" xmlns="http://www.w3.org/2000/svg">
<g clip-path="url(#clip0_6422_7897)">
<path d="M12.8029 0.725464C19.4303 0.725464 24.8029 6.09809 24.8029 12.7255C24.8029 19.3528 19.4303 24.7255 12.8029 24.7255C12.8029 24.2037 11.2377 12.7255 11.2377 12.7255L12.8029 0.725464Z" fill="#F0F0F0"/>
<path d="M12.8028 24.7255C6.17538 24.7255 0.802757 19.3528 0.802757 12.7255C0.802757 6.09809 6.17538 0.725464 12.8028 0.725464" fill="#FFDA44"/>
<path d="M17.3982 11.1675L19.6534 14.1509C19.2981 14.6889 19.3 15.4138 19.7109 15.9574C20.2322 16.647 21.2138 16.7835 21.9034 16.2622C22.593 15.7409 22.7295 14.7593 22.2081 14.0698C21.7973 13.5261 21.1003 13.3266 20.4858 13.5217L16.9711 8.87207L16.1387 9.50132L14.8899 10.4451L16.1484 12.1099L17.3982 11.1675ZM20.6449 14.5973C20.8748 14.4235 21.202 14.4691 21.3758 14.6989C21.5495 14.9287 21.5041 15.256 21.2742 15.4298C21.0444 15.6035 20.7171 15.5581 20.5434 15.3282C20.3695 15.0983 20.4151 14.7711 20.6449 14.5973V14.5973Z" fill="#ACABB1"/>
<path d="M21.2663 12.11L22.5248 10.4452L21.2761 9.50132L20.4437 8.87207L16.929 13.5217C16.3145 13.3266 15.6175 13.5262 15.2066 14.0698C14.6853 14.7594 14.8218 15.7409 15.5114 16.2622C16.201 16.7834 17.1826 16.647 17.7038 15.9574C18.1147 15.4138 18.1166 14.6889 17.7613 14.1509L20.0165 11.1675L21.2663 12.11ZM16.8714 15.3283C16.6977 15.5582 16.3705 15.6036 16.1406 15.4299C15.9107 15.2561 15.8653 14.9288 16.039 14.699C16.2128 14.4692 16.54 14.4236 16.7699 14.5974C16.9997 14.7712 17.0452 15.0984 16.8714 15.3283V15.3283Z" fill="#FFDA44"/>
</g>
<defs>
<clipPath id="clip0_6422_7897">
<rect width="24" height="24" fill="white" transform="translate(0.802734 0.725586)"/>
</clipPath>
</defs>
</svg>
