<?xml version="1.0" encoding="UTF-8"?>
<svg width="20px" height="18px" viewBox="0 0 20 18" version="1.1" xmlns="http://www.w3.org/2000/svg" xmlns:xlink="http://www.w3.org/1999/xlink">
    <title>Icons/favorite</title>
    <g id="Page-1" stroke="none" stroke-width="1" fill="none" fill-rule="evenodd">
        <g id="Watch-Page-UI" transform="translate(-383.000000, -362.000000)" fill="#969696" fill-rule="nonzero">
            <g id="Icons/favorite" transform="translate(383.000000, 362.000000)">
                <path d="M10.0006232,17.6470588 C9.81754725,17.6470588 9.64771506,17.5784407 9.49252894,17.4444186 L2.539225,10.5144749 C2.46163195,10.4619266 2.35723968,10.3679182 2.22635983,10.2329319 C2.09547997,10.0990704 1.89464172,9.85095254 1.62072888,9.4871321 C1.34775089,9.12540074 1.09378165,8.74920655 0.859756003,8.36015652 C0.624483882,7.9699816 0.422710771,7.50074323 0.253969243,6.94938814 C0.0853835247,6.39899724 0,5.8693364 0,5.35895932 C0,3.66568373 0.475997569,2.35004861 1.42549976,1.40948279 C2.37609261,0.470041862 3.68395631,0 5.35142799,0 C5.79392655,0 6.25668033,0.0800276401 6.73813122,0.242493391 C7.22067278,0.402548671 7.66878048,0.624633408 8.08588211,0.906015732 C8.50298375,1.18868364 8.86025459,1.4507822 9.15972017,1.69199 C9.45918574,1.93351921 9.73870772,2.18967193 10.0006232,2.45755562 C10.2602016,2.18967193 10.5395678,1.93351921 10.8391892,1.69199 C11.1388106,1.4507822 11.4970163,1.18868364 11.9141179,0.906015732 C12.3301289,0.624633408 12.7805737,0.402548671 13.2620246,0.242493391 C13.7433197,0.0800276401 14.2049828,0 14.6487278,0 C16.3147972,0 17.6239074,0.470041862 18.5734096,1.40948279 C19.5252489,2.35004861 20,3.66568373 20,5.35895932 C20,7.05014583 19.1536436,8.78231036 17.460775,10.5556136 L10.5074711,17.4444186 C10.3511943,17.5784407 10.1824528,17.6470588 10.0006232,17.6470588" id="Favorite"></path>
            </g>
        </g>
    </g>
</svg>