<svg width="25" height="25" viewBox="0 0 25 25" fill="none" xmlns="http://www.w3.org/2000/svg">
<g clip-path="url(#clip0_6422_7750)">
<path d="M12.8026 24.7254C19.4301 24.7254 24.8026 19.3528 24.8026 12.7254C24.8026 6.09799 19.4301 0.725403 12.8026 0.725403C6.17523 0.725403 0.802643 6.09799 0.802643 12.7254C0.802643 19.3528 6.17523 24.7254 12.8026 24.7254Z" fill="#F0F0F0"/>
<path d="M12.8027 0.725403C8.04519 0.725403 3.93444 3.49407 1.99344 7.50803H23.612C21.671 3.49407 17.5602 0.725403 12.8027 0.725403V0.725403Z" fill="#FF9811"/>
<path d="M12.8027 24.7257C17.5602 24.7257 21.671 21.9571 23.612 17.9431H1.99344C3.93444 21.9571 8.04519 24.7257 12.8027 24.7257Z" fill="#6DA544"/>
<path d="M12.8028 16.8995C15.108 16.8995 16.9767 15.0308 16.9767 12.7256C16.9767 10.4204 15.108 8.5517 12.8028 8.5517C10.4976 8.5517 8.62892 10.4204 8.62892 12.7256C8.62892 15.0308 10.4976 16.8995 12.8028 16.8995Z" fill="#0052B4"/>
<path d="M12.8027 15.3342C14.2435 15.3342 15.4114 14.1662 15.4114 12.7255C15.4114 11.2848 14.2435 10.1168 12.8027 10.1168C11.362 10.1168 10.1941 11.2848 10.1941 12.7255C10.1941 14.1662 11.362 15.3342 12.8027 15.3342Z" fill="#F0F0F0"/>
<path d="M12.8029 9.50635L13.6077 11.3316L15.5907 11.1159L14.4124 12.7254L15.5907 14.335L13.6077 14.1193L12.8029 15.9445L11.9981 14.1193L10.0151 14.3349L11.1933 12.7254L10.0151 11.1159L11.9981 11.3316L12.8029 9.50635Z" fill="#0052B4"/>
</g>
<defs>
<clipPath id="clip0_6422_7750">
<rect width="24" height="24" fill="white" transform="translate(0.802734 0.725586)"/>
</clipPath>
</defs>
</svg>
