<svg fill="none" xmlns="http://www.w3.org/2000/svg" viewBox="0 0 40 16"><rect width="40" height="16" rx="8" fill="#FF9000"/><path d="M5.806 4.126h3.147c.623 0 1.087.027 1.391.08.308.05.582.158.822.323a2 2 0 0 1 .607.66c.161.273.242.579.242.919 0 .369-.1.707-.301 1.015a1.83 1.83 0 0 1-.806.693c.48.14.849.378 1.107.714.258.337.386.733.386 1.187 0 .358-.084.707-.252 1.048a2.1 2.1 0 0 1-.682.81c-.287.201-.641.325-1.064.371-.265.029-.904.047-1.917.054h-2.68V4.126Zm1.59 1.31v1.821h1.042c.619 0 1.004-.009 1.154-.027.272-.032.486-.125.64-.279a.835.835 0 0 0 .236-.617c0-.244-.068-.44-.204-.591-.133-.154-.332-.247-.597-.28-.157-.018-.61-.026-1.358-.026h-.913Zm0 3.132v2.105h1.471c.573 0 .937-.016 1.09-.048a.98.98 0 0 0 .575-.312c.15-.168.226-.392.226-.67 0-.237-.057-.438-.172-.602a.97.97 0 0 0-.5-.36c-.214-.076-.683-.113-1.407-.113H7.396ZM13.749 12V4.126h5.839v1.332h-4.249v1.746h3.954V8.53h-3.954v2.143h4.4V12h-5.99Zm9.11 0V5.458h-2.337V4.126h6.258v1.332h-2.331V12h-1.59Zm11.236 0h-1.73l-.687-1.789h-3.147L27.88 12h-1.687l3.067-7.874h1.681L34.095 12Zm-2.927-3.115-1.085-2.922-1.063 2.922h2.148Z" fill="#000"/></svg>