<svg width="25" height="24" viewBox="0 0 25 24" fill="none" xmlns="http://www.w3.org/2000/svg">
<g clip-path="url(#clip0_6422_7673)">
<path d="M18.02 1.19099C16.4423 0.42815 14.6724 0.000274658 12.8026 0.000274658C10.9327 0.000274658 9.16283 0.42815 7.5852 1.19099L6.54172 12.0003L7.5852 22.8096C9.16283 23.5724 10.9327 24.0003 12.8026 24.0003C14.6724 24.0003 16.4423 23.5724 18.02 22.8096L19.0634 12.0003L18.02 1.19099Z" fill="#FFDA44"/>
<path d="M7.58548 1.19122C3.57158 3.13213 0.802856 7.24255 0.802856 12.0001C0.802856 16.7576 3.57158 20.868 7.58548 22.8089V1.19122Z" fill="#0052B4"/>
<path d="M18.0203 1.19122V22.8089C22.0342 20.868 24.8029 16.7576 24.8029 12.0001C24.8029 7.2426 22.0342 3.13213 18.0203 1.19122Z" fill="#0052B4"/>
<path d="M16.455 7.30429L17.155 7.65426L16.455 7.30429L15.755 6.95432C15.7128 7.03874 14.7988 8.89841 14.6495 11.7391H13.5855V7.30429L12.8029 6.2608L12.0202 7.30429V11.7391H10.9562C10.8069 8.89841 9.89292 7.03874 9.85068 6.95432L8.45071 7.6543C8.46037 7.67352 9.4116 9.60969 9.4116 12.5217V13.3043H12.0203V17.7391H13.5855V13.3043H16.1942V12.5217C16.1942 11.0161 16.4547 9.77469 16.6732 8.99835C16.9115 8.15179 17.1535 7.6574 17.1559 7.65247L16.455 7.30429Z" fill="black"/>
</g>
<defs>
<clipPath id="clip0_6422_7673">
<rect width="24" height="24" fill="white" transform="translate(0.802734)"/>
</clipPath>
</defs>
</svg>
