<svg width="25" height="24" viewBox="0 0 25 24" fill="none" xmlns="http://www.w3.org/2000/svg">
<g clip-path="url(#clip0_6422_7700)">
<path d="M12.8027 24C19.4301 24 24.8027 18.6275 24.8027 12C24.8027 5.37262 19.4301 3.8147e-05 12.8027 3.8147e-05C6.17529 3.8147e-05 0.802704 5.37262 0.802704 12C0.802704 18.6275 6.17529 24 12.8027 24Z" fill="#F0F0F0"/>
<path d="M24.8023 11.9653H11.794C9.21134 14.548 7.64956 16.5419 6.05487 18.1366L12.8375 18.7479L23.3625 17.7044C24.281 16.0077 24.8027 14.0648 24.8027 12C24.8027 11.9884 24.8023 11.9769 24.8023 11.9653V11.9653Z" fill="#D80027"/>
<path d="M6.05506 6.22617H23.3244C21.2835 2.51517 17.3371 4.57764e-05 12.8029 4.57764e-05C9.49793 4.57764e-05 6.50562 1.3365 4.33554 3.49805L6.05506 6.22617Z" fill="#FFDA44"/>
<path d="M6.57657 17.7045C5.49779 18.7833 5.08088 19.6871 4.30037 20.4676C6.47326 22.6495 9.48006 24.0002 12.8027 24.0002C17.3653 24.0002 21.333 21.4537 23.3625 17.7045H6.57657Z" fill="#0052B4"/>
<path d="M4.3174 3.48014C-0.368882 8.16642 -0.368882 15.7644 4.3174 20.4508C6.25395 18.5142 8.11643 16.6517 12.8027 11.9655L4.3174 3.48014Z" fill="#6DA544"/>
<path d="M3.96791 11.9661C3.96791 10.2178 5.19665 8.75722 6.83746 8.39891C6.58527 8.34383 6.32362 8.31397 6.05483 8.31397C4.03776 8.31397 2.40266 9.94907 2.40266 11.9661C2.40266 13.9832 4.03776 15.6183 6.05483 15.6183C6.32357 15.6183 6.58523 15.5885 6.83746 15.5334C5.19665 15.175 3.96791 13.7145 3.96791 11.9661V11.9661Z" fill="#F0F0F0"/>
<path d="M6.79735 8.83527L6.99164 9.43311H7.62024L7.11164 9.80263L7.30594 10.4005L6.79735 10.031L6.28875 10.4005L6.48305 9.80263L5.97446 9.43311H6.60305L6.79735 8.83527Z" fill="#F0F0F0"/>
<path d="M6.79735 10.401L6.99164 10.9989H7.62024L7.11164 11.3684L7.30594 11.9663L6.79735 11.5968L6.28875 11.9663L6.48305 11.3684L5.97446 10.9989H6.60305L6.79735 10.401Z" fill="#F0F0F0"/>
<path d="M6.79735 11.9662L6.99164 12.564H7.62024L7.11164 12.9335L7.30594 13.5314L6.79735 13.1619L6.28875 13.5314L6.48305 12.9335L5.97446 12.564H6.60305L6.79735 11.9662Z" fill="#F0F0F0"/>
<path d="M6.79735 13.5313L6.99164 14.1291H7.62024L7.11164 14.4987L7.30594 15.0965L6.79735 14.727L6.28875 15.0965L6.48305 14.4987L5.97446 14.1291H6.60305L6.79735 13.5313Z" fill="#F0F0F0"/>
</g>
<defs>
<clipPath id="clip0_6422_7700">
<rect width="24" height="24" fill="white" transform="translate(0.802734)"/>
</clipPath>
</defs>
</svg>
