<svg width="25" height="25" viewBox="0 0 25 25" fill="none" xmlns="http://www.w3.org/2000/svg">
<g clip-path="url(#clip0_6422_7734)">
<path d="M12.8028 24.4103C19.4302 24.4103 24.8028 19.0377 24.8028 12.4103C24.8028 5.78289 19.4302 0.410309 12.8028 0.410309C6.17537 0.410309 0.802788 5.78289 0.802788 12.4103C0.802788 19.0377 6.17537 24.4103 12.8028 24.4103Z" fill="#F9F9F9"/>
<path d="M12.8025 24.4101C17.9621 24.4101 22.3606 21.1536 24.0561 16.584H1.54888C3.24444 21.1536 7.64291 24.4101 12.8025 24.4101Z" fill="#D80027"/>
<path d="M17.4984 10.3229V8.75772H18.0201V7.71424H16.9766V8.236H15.9332V7.71424H14.8897V8.75772H15.4114V10.3229H14.3679V6.67085H14.8897V5.62741H13.8462V6.14904H13.3245V5.62741H12.281V6.14904H11.7592V5.62741H10.7158V6.67085H11.2375V10.3229H10.194V8.75772H10.7158V7.71424H9.67228V8.236H8.62884V7.71424H7.58536V8.75772H8.10708V10.3229H7.06359V14.4969H18.5419V10.3229H17.4984Z" fill="#D80027"/>
<path d="M12.8028 13.9753C11.9383 13.9753 11.2375 14.676 11.2375 15.5405C11.2375 16.2218 11.6732 16.8014 12.281 17.0163V19.1927H10.7158V21.2796H13.3245V17.0163C13.9323 16.8014 14.368 16.2219 14.368 15.5405C14.368 14.6761 13.6672 13.9753 12.8028 13.9753V13.9753ZM12.8028 16.0622C12.5146 16.0622 12.281 15.8286 12.281 15.5405C12.281 15.2524 12.5146 15.0188 12.8028 15.0188C13.0909 15.0188 13.3245 15.2524 13.3245 15.5405C13.3245 15.8286 13.0909 16.0622 12.8028 16.0622Z" fill="#FFDA44"/>
</g>
<defs>
<clipPath id="clip0_6422_7734">
<rect width="24" height="24" fill="white" transform="translate(0.802734 0.410156)"/>
</clipPath>
</defs>
</svg>
