<svg width="25" height="25" viewBox="0 0 25 25" fill="none" xmlns="http://www.w3.org/2000/svg">
<g clip-path="url(#clip0_6422_7723)">
<path d="M24.8027 12.7794C24.8027 19.4068 19.4301 24.7794 12.8027 24.7794C6.17533 24.7794 0.802704 19.4068 0.802704 12.7794C0.802704 12.7823 12.8027 0.780731 12.8027 0.779419C19.4301 0.779419 24.8027 6.15204 24.8027 12.7794Z" fill="#0052B4"/>
<path d="M12.7701 12.7812H12.8034C12.8034 12.77 12.8034 12.7592 12.8034 12.748C12.7923 12.7591 12.7812 12.7701 12.7701 12.7812Z" fill="#F0F0F0"/>
<path d="M12.8024 7.04107C12.8024 4.92959 12.8024 3.54607 12.8024 0.780212H12.8004C6.17387 0.781337 0.802368 6.15345 0.802368 12.7802H7.06323V9.2547L10.5888 12.7802H12.7703L12.8024 12.7481C12.8024 11.9397 12.8024 11.2183 12.8024 10.5667L9.27681 7.04107H12.8024Z" fill="#F0F0F0"/>
<path d="M6.87367 2.34517C4.99684 3.41387 3.43656 4.97415 2.36786 6.85098V12.78H5.49831V5.47572V5.47562H12.8027C12.8027 4.48829 12.8027 3.5477 12.8027 2.34517H6.87367Z" fill="#D80027"/>
<path d="M12.8026 11.3039L8.53921 7.04047H7.06354V7.04056L12.8025 12.7796H12.8026C12.8026 12.7796 12.8026 11.762 12.8026 11.3039Z" fill="#D80027"/>
<path d="M20.1068 14.8662V15.388H15.9329V14.8662H14.3676V16.9532H15.4111V17.4749H20.6286V16.9532H21.672V14.8662H20.1068Z" fill="#FFDA44"/>
<path d="M14.3676 7.03993V12.7791C14.3676 15.5747 18.0198 16.4312 18.0198 16.4312C18.0198 16.4312 21.672 15.5747 21.672 12.7791V7.03993H14.3676Z" fill="#338AF3"/>
<path d="M18.0196 11.3217C17.1066 11.3217 17.1066 12.1565 16.1936 12.1565C15.2806 12.1565 15.2806 11.3217 14.3676 11.3217V12.7825C15.2806 12.7825 15.2806 13.6173 16.1936 13.6173C17.1066 13.6173 17.1066 12.7825 18.0196 12.7825C18.9327 12.7825 18.9327 13.6173 19.8458 13.6173C20.7589 13.6173 20.7589 12.7825 21.672 12.7825V11.3217C20.7589 11.3217 20.7589 12.1565 19.8458 12.1565C18.9327 12.1565 18.9327 11.3217 18.0196 11.3217V11.3217Z" fill="#F3F3F3"/>
<path d="M18.0196 8.3974C17.1066 8.3974 17.1066 9.2322 16.1936 9.2322C15.2806 9.2322 15.2806 8.3974 14.3676 8.3974V9.85826C15.2806 9.85826 15.2806 10.6931 16.1936 10.6931C17.1066 10.6931 17.1066 9.85826 18.0196 9.85826C18.9327 9.85826 18.9327 10.6931 19.8458 10.6931C20.7589 10.6931 20.7589 9.85826 21.672 9.85826V8.3974C20.7589 8.3974 20.7589 9.2322 19.8458 9.2322C18.9327 9.2322 18.9327 8.3974 18.0196 8.3974Z" fill="#F3F3F3"/>
</g>
<defs>
<clipPath id="clip0_6422_7723">
<rect width="24" height="24" fill="white" transform="translate(0.802734 0.779297)"/>
</clipPath>
</defs>
</svg>
