<svg width="25" height="25" viewBox="0 0 25 25" fill="none" xmlns="http://www.w3.org/2000/svg">
<g clip-path="url(#clip0_6422_7771)">
<path d="M0.802734 12.7258C0.802734 14.5956 1.23056 16.3655 1.99345 17.9431L12.8027 18.4649L23.612 17.9432C24.3749 16.3655 24.8027 14.5956 24.8027 12.7258C24.8027 10.8559 24.3749 9.08602 23.612 7.5084L12.8027 6.98663L1.99345 7.50835C1.23056 9.08602 0.802734 10.8559 0.802734 12.7258H0.802734Z" fill="#F0F0F0"/>
<path d="M12.8025 24.7258C17.56 24.7258 21.6708 21.9571 23.6118 17.9432H1.99323C3.93422 21.9571 8.04497 24.7258 12.8025 24.7258Z" fill="#6DA544"/>
<path d="M12.8025 0.725464C8.04498 0.725464 3.93423 3.49414 1.99323 7.50809H23.6117C21.6708 3.49414 17.56 0.725464 12.8025 0.725464V0.725464Z" fill="#0052B4"/>
<path d="M13.5851 12.4651V9.59558H12.0199V12.4651L10.1295 14.3556C10.6793 15.2556 11.6707 15.8564 12.8025 15.8564C13.9344 15.8564 14.9258 15.2556 15.4756 14.3556L13.5851 12.4651Z" fill="black"/>
</g>
<defs>
<clipPath id="clip0_6422_7771">
<rect width="24" height="24" fill="white" transform="translate(0.802734 0.725586)"/>
</clipPath>
</defs>
</svg>
