<?xml version="1.0" encoding="UTF-8"?>
<svg version="1.1" viewBox="0 0 15 22" xmlns="http://www.w3.org/2000/svg">
<title>Group 19 Copy</title>
<desc>Created with Sketch.</desc>
<g fill="none" fill-rule="evenodd">
<g transform="translate(-52 -91)" fill="#fff" fill-rule="nonzero">
<g transform="translate(42 70)">
<g transform="translate(10 21)">
<path d="m12.246 10.87c-0.8828-0.6258-2.0133-1.0069-3.0555-1.4578-1.0458-0.45272-2.1424-0.82104-3.1786-1.2877-0.60881-0.27449-1.0426-0.73845-0.89525-1.3855 0.14162-0.62246 0.67607-0.95919 1.3735-1.0797 0.47574-0.082286 0.98314-0.18218 1.4507-0.12419 1.4393 0.17793 2.8658 0.42843 4.3731 0.66254 0.24801-0.83349 0.53445-1.7966 0.87106-2.9271-1.2995-0.25961-2.542-0.50799-3.8721-0.77367v-2.3307h-4.3169v2.696c-0.11315 0.039777-0.2441 0.072873-0.39532 0.099897-1.3094 0.23137-2.3648 0.89148-3.2152 1.7678-1.6774 1.7289-1.4087 4.574 0.71556 5.8851 1.1682 0.72084 2.5797 1.1559 3.8881 1.7083 0.74225 0.31335 1.5197 0.56993 2.2417 0.91273 0.75506 0.3586 1.1152 0.94613 0.94115 1.6894-0.16403 0.70322-0.78495 1.0236-1.5457 1.1818-1.2913 0.26933-2.5826 0.20617-3.8468-0.094431-0.90913-0.21558-1.7905-0.5174-2.7359-0.79614-0.27576 0.90332-0.57039 1.7817-0.78993 2.6738-0.038073 0.15425 0.2014 0.48764 0.3818 0.53137 1.382 0.33582 2.7726 0.65616 4.1795 0.90029 0.067251 0.011842 0.12596 0.024291 0.18111 0.037347v2.4734h0.41774 3.0761 0.82302v-2.8594c0.64475-0.15334 1.2899-0.35465 1.8702-0.63339 3.3131-1.5911 3.8927-5.4643 1.0628-7.4701"/>
</g>
</g>
</g>
</g>
</svg>