<svg width="25" height="25" viewBox="0 0 25 25" fill="none" xmlns="http://www.w3.org/2000/svg">
<g clip-path="url(#clip0_6422_7886)">
<path d="M12.8027 24.7255C19.4302 24.7255 24.8027 19.3529 24.8027 12.7255C24.8027 6.09805 19.4302 0.725464 12.8027 0.725464C6.17533 0.725464 0.80275 6.09805 0.80275 12.7255C0.80275 19.3529 6.17533 24.7255 12.8027 24.7255Z" fill="#D80027"/>
<path d="M12.311 10.5316L13.2956 11.8884L14.8901 11.3713L13.904 12.7269L14.8885 14.0837L13.2945 13.5647L12.3084 14.9203L12.3094 13.244L10.7154 12.725L12.31 12.208L12.311 10.5316Z" fill="#F0F0F0"/>
<path d="M9.62405 16.1171C7.75111 16.1171 6.23274 14.5988 6.23274 12.7258C6.23274 10.8529 7.75111 9.3345 9.62405 9.3345C10.208 9.3345 10.7575 9.48221 11.2372 9.74213C10.4846 9.0061 9.45539 8.55188 8.3197 8.55188C6.01448 8.55188 4.14581 10.4206 4.14581 12.7258C4.14581 15.0309 6.01453 16.8997 8.3197 16.8997C9.45548 16.8997 10.4847 16.4454 11.2372 15.7094C10.7575 15.9694 10.208 16.1171 9.62405 16.1171V16.1171Z" fill="#F0F0F0"/>
</g>
<defs>
<clipPath id="clip0_6422_7886">
<rect width="24" height="24" fill="white" transform="translate(0.802734 0.725586)"/>
</clipPath>
</defs>
</svg>
