<svg width="25" height="24" viewBox="0 0 25 24" fill="none" xmlns="http://www.w3.org/2000/svg">
<g clip-path="url(#clip0_6422_7678)">
<path d="M24.8026 12.0002C24.8026 18.6276 19.43 24.0002 12.8026 24.0002C6.17526 24.0002 0.802635 18.6276 0.802635 12.0002C0.802635 12.0031 12.8026 0.00155664 12.8026 0.000244141C19.43 0.000244141 24.8026 5.37287 24.8026 12.0002Z" fill="#D80027"/>
<path d="M12.8028 5.73917V9.78649L8.6289 5.73917H12.8028Z" fill="#0052B4"/>
<path d="M7.06356 11.9999H10.5891L7.06356 7.30429L6.54184 10.9565L7.06356 11.9999Z" fill="#0052B4"/>
<path d="M12.7706 12.0015H12.8039C12.8039 11.9904 12.8039 11.9795 12.8039 11.9683C12.7928 11.9794 12.7817 11.9905 12.7706 12.0015Z" fill="#F0F0F0"/>
<path d="M12.8029 6.26135C12.8029 4.14986 12.8029 2.76635 12.8029 0.000488281H12.8008C6.17431 0.00161328 0.802853 5.37372 0.802853 12.0005H7.06371V8.47497L10.5892 12.0005H12.7708C12.7815 11.9898 12.7922 11.9791 12.8029 11.9684C12.8029 11.1599 12.8029 10.4386 12.8029 9.78696L9.27729 6.26135H12.8029Z" fill="#F0F0F0"/>
<path d="M6.87389 1.56476C4.99706 2.63346 3.43673 4.19374 2.36807 6.07057V12.5213H5.49853V4.69531V4.69521H13.3246C13.3246 3.70788 13.3246 2.76729 13.3246 1.56476H6.87389Z" fill="#D80027"/>
<path d="M13.2799 11.0011L8.53933 6.26068H7.0637V6.26077L13.2797 12.4768H13.2798C13.2799 12.4769 13.2799 11.4594 13.2799 11.0011V11.0011Z" fill="#D80027"/>
<path d="M14.3678 6.2608V11.9999C14.3678 14.7955 21.6722 14.7955 21.6722 11.9999V6.2608H14.3678Z" fill="#F3F3F3"/>
<path d="M14.3678 12.0001V12C14.3678 14.7957 18.02 15.6522 18.02 15.6522C18.02 15.6522 21.6722 14.7957 21.6722 12V12.0001H14.3678Z" fill="#6DA544"/>
<path d="M18.0202 9.70447L16.3246 10.4349V12.0001L18.0202 13.0436L19.7159 12.0001V10.4349L18.0202 9.70447Z" fill="#A2001D"/>
<path d="M16.3246 8.86978H19.7159V10.435H16.3246V8.86978Z" fill="#338AF3"/>
</g>
<defs>
<clipPath id="clip0_6422_7678">
<rect width="24" height="24" fill="white" transform="translate(0.802734)"/>
</clipPath>
</defs>
</svg>
