<svg width="25" height="25" viewBox="0 0 25 25" fill="none" xmlns="http://www.w3.org/2000/svg">
<g clip-path="url(#clip0_6422_7852)">
<path d="M12.8028 24.7794C19.4302 24.7794 24.8028 19.4068 24.8028 12.7794C24.8028 6.15197 19.4302 0.779388 12.8028 0.779388C6.17539 0.779388 0.802811 6.15197 0.802811 12.7794C0.802811 19.4068 6.17539 24.7794 12.8028 24.7794Z" fill="#F0F0F0"/>
<path d="M20.9035 3.92645C18.7688 1.97214 15.9253 0.779404 12.8031 0.779404C12.2919 0.779404 11.7883 0.811607 11.2939 0.873622L5.49872 7.56203L1.1828 15.7855C1.46161 16.8665 1.88789 17.8881 2.43788 18.8285L12.8031 12.7794L20.9035 3.92645Z" fill="#FFDA44"/>
<path d="M22.7936 19.4279L6.00444 22.6679C7.93705 23.9992 10.2788 24.7792 12.8031 24.7792C16.9712 24.7792 20.6424 22.6537 22.7936 19.4279V19.4279Z" fill="#6DA544"/>
<path d="M20.905 3.92789L2.44458 18.84C2.92744 19.6635 3.50555 20.4243 4.164 21.1072L24.8029 12.7792C24.8029 9.27492 23.3005 6.12173 20.905 3.92789V3.92789Z" fill="#D80027"/>
<path d="M0.802826 12.7794C0.802826 13.8175 0.934732 14.8248 1.18256 15.7855L11.2937 0.873611C5.37867 1.61583 0.802826 6.66314 0.802826 12.7794Z" fill="#0052B4"/>
</g>
<defs>
<clipPath id="clip0_6422_7852">
<rect width="24" height="24" fill="white" transform="translate(0.802734 0.779297)"/>
</clipPath>
</defs>
</svg>
