<svg width="88" height="75" viewBox="0 0 88 75" fill="none" xmlns="http://www.w3.org/2000/svg">
<path d="M56.0669 37.85L44.3516 31.1308L44.4323 30.9921C48.9168 22.2156 51.2927 12.8626 51.6781 3.52774L62.3906 0.692665L60.4554 -6.61961L34.8624 0.153602L32.9272 -7.15868L25.6149 -5.22347L27.5502 2.08881L1.95718 8.86202L3.88271 16.1377L44.7218 5.32962C44.1396 13.0343 42.0348 20.7507 38.3182 27.9938C33.9213 25.1279 30.0127 21.7415 26.631 17.9809L19.3187 19.9161C23.5649 25.1693 28.7112 29.8321 34.6263 33.7047L20.8739 56.9836L27.4396 60.8013L40.8823 37.6826L55.2621 46.044L56.0669 37.85ZM71.7452 13.8658L64.433 15.801L59.5916 64.0289L66.9038 62.0937L68.0959 50.0416L85.4626 45.4455L92.4968 55.3205L99.8091 53.3853L71.7452 13.8658ZM68.9394 41.9939L70.6726 24.5953L80.7853 38.8589L68.9394 41.9939Z" fill="#2D2D2D"/>
</svg>
