<svg width="25" height="25" viewBox="0 0 25 25" fill="none" xmlns="http://www.w3.org/2000/svg">
<g clip-path="url(#clip0_6422_7868)">
<path d="M18.5418 2.18485C16.8369 1.25466 14.8816 0.725769 12.8027 0.725769C10.7238 0.725769 8.76843 1.25466 7.06353 2.18485L6.02005 12.7258L7.06353 23.2667C8.76843 24.1969 10.7238 24.7258 12.8027 24.7258C14.8816 24.7258 16.8369 24.1969 18.5418 23.2667L19.5853 12.7258L18.5418 2.18485Z" fill="#FFDA44"/>
<path d="M7.06359 23.2666V2.18475C3.33346 4.22007 0.802727 8.17721 0.802727 12.7257C0.802727 17.2742 3.33346 21.2314 7.06359 23.2666Z" fill="#338AF3"/>
<path d="M24.8026 12.7258C24.8026 8.1773 22.2719 4.22016 18.5418 2.18484V23.2666C22.2719 21.2315 24.8026 17.2743 24.8026 12.7258V12.7258Z" fill="#6DA544"/>
<path d="M10.1938 15.8563L8.10681 12.7258L10.1938 9.59537L12.2808 12.7258L10.1938 15.8563Z" fill="#6DA544"/>
<path d="M15.4111 15.8563L13.3241 12.7258L15.4111 9.59537L17.4981 12.7258L15.4111 15.8563Z" fill="#6DA544"/>
<path d="M12.8024 20.0303L10.7155 16.8999L12.8024 13.7695L14.8894 16.8999L12.8024 20.0303Z" fill="#6DA544"/>
</g>
<defs>
<clipPath id="clip0_6422_7868">
<rect width="24" height="24" fill="white" transform="translate(0.802734 0.725586)"/>
</clipPath>
</defs>
</svg>
