<svg width="25" height="24" viewBox="0 0 25 24" fill="none" xmlns="http://www.w3.org/2000/svg">
<g clip-path="url(#clip0_6422_7669)">
<path d="M12.8026 23.9999C19.4301 23.9999 24.8026 18.6274 24.8026 11.9999C24.8026 5.37252 19.4301 -6.10352e-05 12.8026 -6.10352e-05C6.17523 -6.10352e-05 0.802643 5.37252 0.802643 11.9999C0.802643 18.6274 6.17523 23.9999 12.8026 23.9999Z" fill="#FFDA44"/>
<path d="M8.10714 7.82602H24.0564C22.3609 3.25641 17.9623 -9.15527e-05 12.8028 -9.15527e-05C9.48901 -9.15527e-05 6.48934 1.3433 4.3179 3.51502L8.10714 7.82602Z" fill="#338AF3"/>
<path d="M8.10708 16.1737H24.0563C22.3608 20.7433 17.9623 23.9998 12.8027 23.9998C9.48895 23.9998 6.48928 22.6564 4.31784 20.4847L8.10708 16.1737Z" fill="#338AF3"/>
<path d="M4.31732 3.51456C-0.368958 8.20084 -0.368958 15.7989 4.31732 20.4852C6.25387 18.5486 8.11635 16.6862 12.8026 11.9999L4.31732 3.51456Z" fill="black"/>
</g>
<defs>
<clipPath id="clip0_6422_7669">
<rect width="24" height="24" fill="white" transform="translate(0.802734)"/>
</clipPath>
</defs>
</svg>
