<svg width="25" height="25" viewBox="0 0 25 25" fill="none" xmlns="http://www.w3.org/2000/svg">
<g clip-path="url(#clip0_6422_7710)">
<path d="M11.7597 13.3256C11.7597 13.3256 4.32486 3.79511 4.31783 3.7968C6.48936 1.62522 9.4894 0.282066 12.8031 0.282066C19.4305 0.282066 24.8031 5.65469 24.8031 12.2821L11.7597 13.3256Z" fill="#338AF3"/>
<path d="M11.7597 12.2812C11.7597 12.2812 4.32486 20.7682 4.31783 20.7665C6.48936 22.9381 9.4894 24.2812 12.8031 24.2812C19.4305 24.2812 24.8031 18.9086 24.8031 12.2812H11.7597Z" fill="#6DA544"/>
<path d="M4.31758 3.79608C-0.368699 8.48236 -0.368699 16.0804 4.31758 20.7667C6.25413 18.8302 8.11661 16.9677 12.8029 12.2814L4.31758 3.79608Z" fill="#F0F0F0"/>
<path d="M5.65983 9.15095L6.43679 11.5423H8.95144L6.91716 13.0204L7.69407 15.4119L5.65983 13.9338L3.6255 15.4119L4.4026 13.0204L2.36832 11.5423H4.88279L5.65983 9.15095Z" fill="#D80027"/>
</g>
<defs>
<clipPath id="clip0_6422_7710">
<rect width="24" height="24" fill="white" transform="translate(0.802734 0.282227)"/>
</clipPath>
</defs>
</svg>
