<svg width="25" height="25" viewBox="0 0 25 25" fill="none" xmlns="http://www.w3.org/2000/svg">
<g clip-path="url(#clip0_6422_7889)">
<path d="M24.8028 12.7257C24.8028 19.3531 19.4301 24.7257 12.8028 24.7257C6.17539 24.7257 0.802765 19.3531 0.802765 12.7257C0.802765 12.7286 12.8028 0.727021 12.8028 0.725708C19.4301 0.725708 24.8028 6.09833 24.8028 12.7257Z" fill="#338AF3"/>
<path d="M6.54221 12.7255H10.5895L7.06392 8.55157L6.54221 10.1168V12.7255Z" fill="#0052B4"/>
<path d="M12.8029 10.5119L8.62894 6.46454H12.8028L12.8029 10.5119Z" fill="#0052B4"/>
<path d="M12.7712 12.7262H12.8045C12.8045 12.715 12.8045 12.7041 12.8045 12.6929C12.7934 12.704 12.7823 12.7151 12.7712 12.7262Z" fill="#F0F0F0"/>
<path d="M12.8031 6.98602C12.8031 4.87453 12.8031 3.49097 12.8031 0.725159H12.8011C6.17454 0.726284 0.80304 6.09839 0.80304 12.7252H7.06395V9.19964L10.5895 12.7252H12.771C12.7817 12.7145 12.7924 12.7038 12.8031 12.693C12.8031 11.8846 12.8031 11.1632 12.8031 10.5116L9.27748 6.98602H12.8031Z" fill="#F0F0F0"/>
<path d="M6.87407 2.29004C4.99724 3.35874 3.43696 4.91902 2.36826 6.79585V12.7248H5.49871V5.42059V5.42049H12.8031C12.8031 4.43316 12.8031 3.49257 12.8031 2.29004H6.87407Z" fill="#D80027"/>
<path d="M12.8031 11.2488L8.53959 6.98541H7.06396V6.98551L12.803 12.7245H12.8031C12.8031 12.7245 12.8031 11.707 12.8031 11.2488V11.2488Z" fill="#D80027"/>
<path d="M13.9004 20.5526L14.1595 21.3497H14.9976L14.3196 21.8424L14.5786 22.6395L13.9004 22.1469L13.2224 22.6395L13.4814 21.8424L12.8033 21.3497H13.6414L13.9004 20.5526Z" fill="#FFDA44"/>
<path d="M20.5755 15.3346L20.8345 16.1318H21.6727L20.9946 16.6245L21.2537 17.4216L20.5755 16.929L19.8975 17.4216L20.1565 16.6245L19.4783 16.1318H20.3165L20.5755 15.3346Z" fill="#FFDA44"/>
<path d="M22.248 7.50891L22.5071 8.30607H23.3452L22.6672 8.79872L22.9262 9.59583L22.248 9.10322L21.57 9.59583L21.829 8.79872L21.1509 8.30607H21.989L22.248 7.50891Z" fill="#FFDA44"/>
<path d="M22.6626 13.2482L22.9216 14.0454H23.7598L23.0817 14.538L23.3407 15.3351L22.6626 14.8425L21.9846 15.3351L22.2436 14.538L21.5654 14.0454H22.4036L22.6626 13.2482Z" fill="#FFDA44"/>
<path d="M15.1021 18.6775L15.849 19.0581L16.4417 18.4655L16.3106 19.2932L17.0574 19.6738L16.2295 19.8049L16.0984 20.6328L15.7179 19.8859L14.89 20.0171L15.4827 19.4245L15.1021 18.6775Z" fill="#FFDA44"/>
<path d="M15.1021 15.5467L15.849 15.9272L16.4417 15.3346L16.3106 16.1624L17.0574 16.5429L16.2295 16.674L16.0984 17.5019L15.7179 16.7551L14.89 16.8862L15.4827 16.2936L15.1021 15.5467Z" fill="#FFDA44"/>
<path d="M17.7107 17.5533L18.4577 17.9339L19.0503 17.3412L18.9193 18.169L19.666 18.5495L18.8381 18.6807L18.707 19.5086L18.3266 18.7617L17.4987 18.8929L18.0913 18.3003L17.7107 17.5533Z" fill="#FFDA44"/>
<path d="M17.7107 10.8513L18.4577 11.2318L19.0503 10.6392L18.9193 11.467L19.666 11.8475L18.8381 11.9786L18.707 12.8065L18.3266 12.0597L17.4987 12.1908L18.0913 11.5982L17.7107 10.8513Z" fill="#FFDA44"/>
<path d="M20.239 10.7709L20.986 11.1514L21.5786 10.5588L21.4475 11.3866L22.1943 11.7671L21.3664 11.8982L21.2353 12.7261L20.8549 11.9793L20.0269 12.1104L20.6196 11.5178L20.239 10.7709Z" fill="#FFDA44"/>
</g>
<defs>
<clipPath id="clip0_6422_7889">
<rect width="24" height="24" fill="white" transform="translate(0.802734 0.725586)"/>
</clipPath>
</defs>
</svg>
