<svg width="25" height="25" viewBox="0 0 25 25" fill="none" xmlns="http://www.w3.org/2000/svg">
<g clip-path="url(#clip0_6422_7764)">
<path d="M0.802813 12.7255C0.802813 6.09809 6.17544 0.725464 12.8028 0.725464C19.4302 0.725464 24.8028 6.09809 24.8028 12.7255" fill="#D80027"/>
<path d="M16.9766 11.886L15.2711 12.6881L16.1793 14.34L14.3274 13.9856L14.0927 15.8565L12.8027 14.4805L11.5127 15.8565L11.2781 13.9856L9.42615 14.3399L10.3344 12.6881L8.62886 11.886L10.3344 11.0836L9.42615 9.432L11.2781 9.78619L11.5128 7.91541L12.8027 9.29133L14.0927 7.91541L14.3274 9.78619L16.1794 9.432L15.2712 11.0838L16.9766 11.886Z" fill="#FFDA44"/>
<path d="M15.9333 4.63889H13.5855C13.5855 4.20675 13.235 3.85626 12.8028 3.85626C12.3706 3.85626 12.0202 4.2067 12.0202 4.63889H9.67238C9.67238 5.07107 10.0489 5.42151 10.4811 5.42151H10.455C10.455 5.8537 10.8053 6.20414 11.2376 6.20414C11.2376 6.63633 11.5879 6.98676 12.0202 6.98676H13.5854C14.0176 6.98676 14.368 6.63637 14.368 6.20414C14.8002 6.20414 15.1507 5.85375 15.1507 5.42151H15.1246C15.5568 5.42151 15.9333 5.07112 15.9333 4.63889V4.63889Z" fill="#FFDA44"/>
<path d="M24.8028 12.7258C24.8028 19.3532 19.4302 24.7258 12.8028 24.7258C6.17545 24.7258 0.802822 19.3532 0.802822 12.7258H24.8028Z" fill="#F0F0F0"/>
<path d="M12.8029 24.7261C16.5539 24.7261 19.9024 23.0047 22.103 20.3092C21.7072 20.0393 21.4935 19.6031 20.8027 19.6031C19.8028 19.6031 19.8028 20.5174 18.8028 20.5174C17.8029 20.5174 17.8028 19.6031 16.8029 19.6031C15.8029 19.6031 15.8029 20.5174 14.8029 20.5174C13.8028 20.5174 13.8028 19.6031 12.8027 19.6031C11.8027 19.6031 11.8027 20.5174 10.8028 20.5174C9.80296 20.5174 9.80296 19.6031 8.80297 19.6031C7.80289 19.6031 7.80289 20.5174 6.80282 20.5174C5.80274 20.5174 5.80274 19.6031 4.80266 19.6031C4.112 19.6031 3.8983 20.0392 3.50268 20.3091C5.70318 23.0047 9.05183 24.7261 12.8029 24.7261V24.7261Z" fill="#0052B4"/>
<path d="M22.8026 14.2569C21.8026 14.2569 21.8026 13.3425 20.8026 13.3425C19.8026 13.3425 19.8026 14.2569 18.8026 14.2569C17.8027 14.2569 17.8026 13.3425 16.8027 13.3425C15.8027 13.3425 15.8027 14.2569 14.8027 14.2569C13.8027 14.2569 13.8026 13.3425 12.8025 13.3425C11.8026 13.3425 11.8026 14.2569 10.8026 14.2569C9.80277 14.2569 9.80277 13.3425 8.80279 13.3425C7.80271 13.3425 7.80271 14.2569 6.80263 14.2569C5.80255 14.2569 5.80255 13.3425 4.80247 13.3425C3.80263 13.3425 3.80263 14.2569 2.80265 14.2569C1.80805 14.2569 1.80229 13.3526 0.818333 13.343C0.846036 13.8919 0.911567 14.4307 1.01066 14.9577C1.80772 15.0748 1.87752 15.8569 2.80269 15.8569C3.80268 15.8569 3.80268 14.9426 4.80252 14.9426C5.8026 14.9426 5.8026 15.8569 6.80268 15.8569C7.80276 15.8569 7.80276 14.9426 8.80283 14.9426C9.80282 14.9426 9.80282 15.8569 10.8027 15.8569C11.8026 15.8569 11.8026 14.9426 12.8026 14.9426C13.8027 14.9426 13.8027 15.8569 14.8027 15.8569C15.8028 15.8569 15.8028 14.9426 16.8028 14.9426C17.8027 14.9426 17.8027 15.8569 18.8027 15.8569C19.8026 15.8569 19.8027 14.9426 20.8026 14.9426C21.8027 14.9426 21.8027 15.8569 22.8026 15.8569C23.7279 15.8569 23.7977 15.0749 24.5948 14.9577C24.6939 14.4307 24.7594 13.8919 24.7872 13.343C23.8031 13.3527 23.7972 14.2569 22.8026 14.2569V14.2569Z" fill="#0052B4"/>
<path d="M20.8027 16.4728C19.8027 16.4728 19.8027 17.3871 18.8028 17.3871C17.8029 17.3871 17.8028 16.4728 16.8029 16.4728C15.8029 16.4728 15.8029 17.3871 14.8029 17.3871C13.8028 17.3871 13.8028 16.4728 12.8027 16.4728C11.8027 16.4728 11.8027 17.3871 10.8028 17.3871C9.80294 17.3871 9.80294 16.4728 8.80295 16.4728C7.80287 16.4728 7.80287 17.3871 6.8028 17.3871C5.80272 17.3871 5.80272 16.4728 4.80264 16.4728C3.8028 16.4728 3.8028 17.3871 2.80281 17.3871C2.0883 17.3871 1.8842 16.9204 1.46115 16.6538C1.74278 17.4675 2.10915 18.2416 2.55039 18.9651C2.62712 18.9793 2.71066 18.9871 2.80281 18.9871C3.8028 18.9871 3.8028 18.0729 4.80264 18.0729C5.80272 18.0729 5.80272 18.9871 6.8028 18.9871C7.80287 18.9871 7.80287 18.0729 8.80295 18.0729C9.80294 18.0729 9.80294 18.9871 10.8028 18.9871C11.8028 18.9871 11.8028 18.0729 12.8027 18.0729C13.8028 18.0729 13.8028 18.9871 14.8029 18.9871C15.8029 18.9871 15.8029 18.0729 16.8029 18.0729C17.8029 18.0729 17.8029 18.9871 18.8028 18.9871C19.8027 18.9871 19.8028 18.0729 20.8027 18.0729C21.8028 18.0729 21.8028 18.9871 22.8027 18.9871C22.895 18.9871 22.9785 18.9793 23.0552 18.9651C23.4965 18.2416 23.8628 17.4675 24.1446 16.6539C23.7215 16.9203 23.5173 17.3871 22.8027 17.3871C21.8028 17.3871 21.8028 16.4728 20.8027 16.4728Z" fill="#0052B4"/>
<path d="M24.7656 11.7779C23.8033 11.8006 23.79 12.6912 22.8027 12.6912C21.8027 12.6912 21.8027 11.7769 20.8026 11.7769C19.8027 11.7769 19.8027 12.6912 18.8027 12.6912C17.8028 12.6912 17.8027 11.7769 16.8028 11.7769C15.8028 11.7769 15.8028 12.6912 14.8028 12.6912C13.8028 12.6912 13.8027 11.7769 12.8026 11.7769C11.8027 11.7769 11.8026 12.6912 10.8027 12.6912C9.80287 12.6912 9.80287 11.7769 8.80288 11.7769C7.80281 11.7769 7.80281 12.6912 6.80273 12.6912C5.80265 12.6912 5.80265 11.7769 4.80257 11.7769C3.80273 11.7769 3.80273 12.6912 2.80274 12.6912C1.8156 12.6912 1.80224 11.8007 0.839994 11.7779C0.815572 12.0907 0.802822 12.4069 0.802822 12.7259C0.802822 12.9445 0.80901 13.1617 0.820681 13.3774C1.80238 13.3884 1.8089 14.2911 2.80279 14.2911C3.80278 14.2911 3.80278 13.3769 4.80262 13.3769C5.8027 13.3769 5.8027 14.2911 6.80278 14.2911C7.80285 14.2911 7.80285 13.3769 8.80293 13.3769C9.80292 13.3769 9.80292 14.2911 10.8028 14.2911C11.8027 14.2911 11.8027 13.3769 12.8027 13.3769C13.8028 13.3769 13.8028 14.2911 14.8028 14.2911C15.8029 14.2911 15.8029 13.3769 16.8029 13.3769C17.8028 13.3769 17.8028 14.2911 18.8028 14.2911C19.8027 14.2911 19.8028 13.3769 20.8027 13.3769C21.8028 13.3769 21.8028 14.2911 22.8027 14.2911C23.7967 14.2911 23.8032 13.3884 24.7851 13.3774C24.7966 13.1616 24.8028 12.9445 24.8028 12.7259C24.8028 12.4069 24.7901 12.0907 24.7656 11.7779V11.7779Z" fill="#F0F0F0"/>
</g>
<defs>
<clipPath id="clip0_6422_7764">
<rect width="24" height="24" fill="white" transform="translate(0.802734 0.725586)"/>
</clipPath>
</defs>
</svg>
