<?xml version="1.0" encoding="UTF-8"?>
<svg width="19px" height="19px" viewBox="0 0 19 19" version="1.1" xmlns="http://www.w3.org/2000/svg" xmlns:xlink="http://www.w3.org/1999/xlink">
    <title>Thumbs Up</title>
    <defs>
        <polygon id="path-1" points="0 18.8099993 18.8099993 18.8099993 18.8099993 0 0 0"></polygon>
    </defs>
    <g id="Video" stroke="none" stroke-width="1" fill="none" fill-rule="evenodd">
        <g id="Watch-Page-UI" transform="translate(-92.000000, -362.000000)">
            <g id="Thumbs-Up" transform="translate(92.000000, 362.000000)">
                <path d="M18.8061071,12.2148857 C18.8121414,11.5623352 18.4621521,10.9978722 17.9463705,10.7027181 C18.272826,10.5106385 18.4690916,10.2855262 18.5771055,10.0526144 C18.6971881,9.83790132 18.7798579,9.5958138 18.80309,9.33155149 C18.8795747,8.4500654 18.3128033,7.67563003 17.5123536,7.50297253 L17.5327194,7.49899636 C16.9762062,7.38062887 15.7266539,7.12860093 12.2629668,7.38062887 C12.4305694,6.91052335 13.8447072,5.01618468 13.8478752,2.89933347 C13.8478752,2.89658074 13.8447072,2.71046544 13.8430477,2.67376234 C13.7947734,1.48366437 13.4147634,0.185445189 11.9662302,0.00881152767 C11.2725876,-0.0757585286 11.1399839,0.455060034 10.9592566,1.31559477 C10.8888062,1.65127519 10.7672151,2.15793088 10.6439646,2.65556372 C10.4252213,3.53735566 7.90484576,6.29727575 6.15505015,7.99693507 C5.37421196,8.73007946 4.78028616,9.31992884 4.47857125,9.5958138 L4.47857125,18.095028 C5.38371598,18.2430638 8.36284899,18.6073421 11.0825072,18.7432965 C11.6571232,18.7830582 12.1715472,18.7994216 12.6346795,18.7978923 C12.6375458,18.7978923 12.6370933,18.7983511 12.6402613,18.7983511 C12.7731667,18.7975865 14.8213583,18.9043313 16.2486207,18.4860689 C16.8245945,18.3141761 17.2616285,17.8128729 17.3157864,17.1928964 C17.3388675,16.9318456 17.2836537,16.6798177 17.1800146,16.4556229 C17.1792604,16.4450708 17.1806181,16.4311542 17.1791095,16.4201433 C17.8483132,16.2569674 18.3737497,15.6729293 18.4381658,14.9269389 C18.4810093,14.440164 18.3159713,13.9868807 18.0237604,13.6507415 C18.4870436,13.3506937 18.7994694,12.8226279 18.8061071,12.2148857" id="Fill-1" fill="#848484"></path>
                <mask id="mask-2" fill="white">
                    <use xlink:href="#path-1"></use>
                </mask>
                <g id="Clip-4"></g>
                <polygon id="Fill-3" fill="#848484" mask="url(#mask-2)" points="0 18.8099993 3.582857 18.8099993 3.582857 8.95714251 0 8.95714251"></polygon>
            </g>
        </g>
    </g>
</svg>