<svg width="25" height="25" viewBox="0 0 25 25" fill="none" xmlns="http://www.w3.org/2000/svg">
<g clip-path="url(#clip0_6422_7851)">
<path d="M12.8028 24.7794C19.4302 24.7794 24.8028 19.4068 24.8028 12.7794C24.8028 6.152 19.4302 0.779419 12.8028 0.779419C6.17535 0.779419 0.802765 6.152 0.802765 12.7794C0.802765 19.4068 6.17535 24.7794 12.8028 24.7794Z" fill="#F0F0F0"/>
<path d="M12.8028 0.779419C6.17539 0.779419 0.802765 6.15204 0.802765 12.7794C0.802765 14.2473 1.06681 15.6534 1.54916 16.9533H24.0564C24.5388 15.6534 24.8028 14.2473 24.8028 12.7794C24.8028 6.15204 19.4301 0.779419 12.8028 0.779419Z" fill="#0052B4"/>
<path d="M12.8026 0.778778C7.643 0.778778 3.24449 4.03528 1.54897 8.60489H24.0562C22.3607 4.03528 17.9622 0.778778 12.8026 0.778778V0.778778Z" fill="#D80027"/>
<path d="M3.90546 7.56126V13.5475C3.90546 16.9527 8.35394 17.9961 8.35394 17.9961C8.35394 17.9961 12.8024 16.9527 12.8024 13.5475V7.56126H3.90546Z" fill="#D80027"/>
<path d="M5.74558 8.60505H10.963V6.51808L9.91952 7.0398L8.35432 5.47459L6.78907 7.0398L5.74558 6.51808V8.60505Z" fill="#FFDA44"/>
<path d="M11.7591 14.3816L8.36783 10.9902L4.97652 14.3816L6.08328 15.4883L8.36783 13.2038L10.6524 15.4883L11.7591 14.3816Z" fill="#FFDA44"/>
<path d="M11.7592 11.2134H10.1769C10.2659 11.0598 10.3177 10.882 10.3177 10.6918C10.3177 10.1154 9.85045 9.64828 9.27417 9.64828C8.87597 9.64828 8.53017 9.87132 8.35425 10.1992C8.17833 9.87136 7.83253 9.64828 7.43433 9.64828C6.85805 9.64828 6.39084 10.1154 6.39084 10.6918C6.39084 10.882 6.44259 11.0599 6.53156 11.2134H4.97662C4.97662 11.7897 5.47861 12.2569 6.05484 12.2569H6.02011C6.02011 12.8332 6.48726 13.3004 7.06359 13.3004C7.06359 13.8106 7.43006 14.2346 7.91405 14.3253L7.09186 16.1817C7.48589 16.3418 7.91648 16.4308 8.36798 16.4308C8.81948 16.4308 9.25008 16.3418 9.64411 16.1817L8.82192 14.3253C9.3059 14.2347 9.67237 13.8107 9.67237 13.3004C10.2487 13.3004 10.7159 12.8332 10.7159 12.2569H10.6811C11.2573 12.2569 11.7592 11.7897 11.7592 11.2134V11.2134Z" fill="#F0F0F0"/>
</g>
<defs>
<clipPath id="clip0_6422_7851">
<rect width="24" height="24" fill="white" transform="translate(0.802734 0.779297)"/>
</clipPath>
</defs>
</svg>
