<svg width="25" height="25" viewBox="0 0 25 25" fill="none" xmlns="http://www.w3.org/2000/svg">
<g clip-path="url(#clip0_6422_7755)">
<path d="M12.8028 24.7257C19.4302 24.7257 24.8028 19.3531 24.8028 12.7257C24.8028 6.09829 19.4302 0.725708 12.8028 0.725708C6.17541 0.725708 0.802826 6.09829 0.802826 12.7257C0.802826 19.3531 6.17541 24.7257 12.8028 24.7257Z" fill="#D80027"/>
<path d="M17.2459 8.77018L16.3977 11.7969L13.8529 11.327L12.2148 7.95038L7.78948 9.52074L7.4405 8.5373L6.28268 8.39466L7.15508 10.8532L10.2005 10.0744L11.0659 12.5132L8.9607 15.6202L12.5334 18.6674L11.8562 19.4613L12.3116 20.5354L14.0046 18.5505L11.8074 16.3025L13.4868 14.3336L17.2301 14.6033L18.0827 9.98569L19.1089 10.1752L19.8115 9.2438L17.2459 8.77018Z" fill="#F0F0F0"/>
</g>
<defs>
<clipPath id="clip0_6422_7755">
<rect width="24" height="24" fill="white" transform="translate(0.802734 0.725586)"/>
</clipPath>
</defs>
</svg>
