<svg width="25" height="25" viewBox="0 0 25 25" fill="none" xmlns="http://www.w3.org/2000/svg">
<g clip-path="url(#clip0_6422_7838)">
<path d="M7.30754 22.9522L16.1231 15.6018L23.4734 6.78627C22.3306 4.57153 20.5185 2.75845 18.3047 1.61419L9.48216 8.96094L2.1355 17.7834C3.27967 19.9973 5.09274 21.8094 7.30754 22.9522V22.9522Z" fill="#FFDA44"/>
<path d="M21.288 20.7673C25.0739 16.9814 25.8007 11.2956 23.4698 6.77937L7.30005 22.9492C11.8163 25.28 17.5021 24.5532 21.288 20.7673Z" fill="#D80027"/>
<path d="M4.31711 3.79644C0.531213 7.58234 -0.195536 13.2682 2.13523 17.7844L18.3051 1.6146C13.7888 -0.71625 8.10301 0.0105924 4.31711 3.79644V3.79644Z" fill="#6DA544"/>
</g>
<defs>
<clipPath id="clip0_6422_7838">
<rect width="24" height="24" fill="white" transform="translate(0.802734 0.282227)"/>
</clipPath>
</defs>
</svg>
