<?xml version="1.0" encoding="utf-8"?>
<!-- Generator: Adobe Illustrator 19.2.1, SVG Export Plug-In . SVG Version: 6.00 Build 0)  -->
<svg version="1.1" id="Layer_1" xmlns="http://www.w3.org/2000/svg" xmlns:xlink="http://www.w3.org/1999/xlink" x="0px" y="0px"
	 viewBox="0 0 228.9 228.9" style="enable-background:new 0 0 228.9 228.9;" xml:space="preserve">
<style type="text/css">
	.st0{fill:#FFFFFF;}
</style>
<g>
	<path class="st0" d="M114.4,228.9C51.3,228.9,0,177.5,0,114.4S51.3,0,114.4,0s114.4,51.3,114.4,114.4
		C228.9,177.5,177.5,228.9,114.4,228.9 M114.4,22C63.5,22,22,63.5,22,114.4c0,51,41.5,92.4,92.4,92.4s92.4-41.5,92.4-92.4
		C206.9,63.5,165.4,22,114.4,22"/>
	<path class="st0" d="M140.4,113.7c-4.5-3.7-10.3-6-15.6-8.7c-5.3-2.7-10.9-4.9-16.2-7.7c-3.1-1.6-5.3-4.4-4.6-8.3
		c0.7-3.7,3.4-5.7,7-6.4c2.4-0.5,5-1.1,7.4-0.7c7.3,1.1,14.6,2.6,22.3,4c1.3-5,2.7-10.7,4.4-17.5c-6.6-1.6-13-3-19.7-4.6V49.7h-22
		v16.1c-0.6,0.2-1.2,0.4-2,0.6c-6.6,1.4-12,5.4-16.4,10.6c-8.6,10.3-7.2,27.3,3.6,35.1c6,4.3,13.1,6.9,19.8,10.2
		c3.8,1.9,7.7,3.4,11.4,5.5c3.8,2.1,5.7,5.7,4.8,10.1c-0.8,4.2-4,6.1-7.9,7.1c-6.6,1.6-13.2,1.2-19.6-0.6c-4.6-1.3-9.1-3.1-13.9-4.8
		c-1.4,5.4-2.9,10.6-4,16c-0.2,0.9,1,2.9,1.9,3.2c7,2,14.1,3.9,21.3,5.4c0.3,0.1,0.6,0.1,0.9,0.2v14.8h2.1h15.7h4.2v-17.1
		c3.3-0.9,6.6-2.1,9.5-3.8C151.9,148.8,154.8,125.6,140.4,113.7"/>
</g>
</svg>
