<svg width="25" height="25" viewBox="0 0 25 25" fill="none" xmlns="http://www.w3.org/2000/svg">
<g clip-path="url(#clip0_6422_7830)">
<path d="M12.8026 24.8028C19.43 24.8028 24.8026 19.4302 24.8026 12.8028C24.8026 6.17536 19.43 0.802774 12.8026 0.802774C6.17519 0.802774 0.802612 6.17536 0.802612 12.8028C0.802612 19.4302 6.17519 24.8028 12.8026 24.8028Z" fill="#F0F0F0"/>
<path d="M12.8027 0.802778C8.04516 0.802778 3.93441 3.57145 1.99341 7.5854H23.6119C21.671 3.57145 17.5602 0.802778 12.8027 0.802778V0.802778Z" fill="#D80027"/>
<path d="M12.8027 24.8025C17.5602 24.8025 21.671 22.0338 23.612 18.0199H1.99341C3.93441 22.0338 8.04516 24.8025 12.8027 24.8025Z" fill="#0052B4"/>
<path d="M15.7541 9.32937L14.6474 10.4361C15.1195 10.9082 15.4115 11.5604 15.4115 12.2808C15.4115 13.7215 14.2435 14.8894 12.8028 14.8894C11.3621 14.8894 10.1941 13.7215 10.1941 12.2808C10.1941 11.5604 10.4861 10.9082 10.9582 10.4361L9.85145 9.32937C9.09606 10.0846 8.62891 11.1281 8.62891 12.2808C8.62891 14.586 10.4976 16.4546 12.8028 16.4546C15.108 16.4546 16.9767 14.5859 16.9767 12.2808C16.9766 11.1281 16.5095 10.0846 15.7541 9.32937V9.32937Z" fill="#6DA544"/>
<path d="M12.8026 10.7155L13.1912 11.9113H14.4484L13.4313 12.6502L13.8198 13.846L12.8026 13.107L11.7855 13.846L12.174 12.6502L11.1569 11.9113H12.4141L12.8026 10.7155Z" fill="#FFDA44"/>
</g>
<defs>
<clipPath id="clip0_6422_7830">
<rect width="24" height="24" fill="white" transform="translate(0.802734 0.802734)"/>
</clipPath>
</defs>
</svg>
