<svg width="25" height="24" viewBox="0 0 25 24" fill="none" xmlns="http://www.w3.org/2000/svg">
<g clip-path="url(#clip0_6422_7828)">
<path d="M12.8027 23.9998C19.4302 23.9998 24.8027 18.6273 24.8027 11.9998C24.8027 5.37243 19.4302 -0.000152588 12.8027 -0.000152588C6.17532 -0.000152588 0.802738 5.37243 0.802738 11.9998C0.802738 18.6273 6.17532 23.9998 12.8027 23.9998Z" fill="#F0F0F0"/>
<path d="M0.802643 11.9996C0.802643 18.6269 6.17527 23.9996 12.8026 23.9996C12.8026 19.436 12.8026 11.9996 12.8026 11.9996C12.8026 11.9996 4.97653 11.9996 0.802643 11.9996Z" fill="#0052B4"/>
<path d="M12.8024 -0.000221252C19.4298 -0.000221252 24.8024 5.3724 24.8024 11.9998C20.2389 11.9998 12.8024 11.9998 12.8024 11.9998C12.8024 11.9998 12.8024 4.17367 12.8024 -0.000221252Z" fill="#D80027"/>
<path d="M7.9458 4.17326L8.72285 6.56473H11.2374L9.20308 8.0427L9.98008 10.4342L7.9458 8.95615L5.91152 10.4342L6.68852 8.0427L4.65424 6.56473H7.16876L7.9458 4.17326Z" fill="#0052B4"/>
<path d="M17.6594 13.5647L18.4365 15.9562H20.951L18.9167 17.4341L19.6937 19.8256L17.6594 18.3476L15.6251 19.8256L16.4021 17.4341L14.3679 15.9562H16.8824L17.6594 13.5647Z" fill="#D80027"/>
</g>
<defs>
<clipPath id="clip0_6422_7828">
<rect width="24" height="24" fill="white" transform="translate(0.802734)"/>
</clipPath>
</defs>
</svg>
