<svg width="25" height="24" viewBox="0 0 25 24" fill="none" xmlns="http://www.w3.org/2000/svg">
<g clip-path="url(#clip0_6422_7656)">
<path d="M12.8026 23.9999C19.43 23.9999 24.8026 18.6274 24.8026 11.9999C24.8026 5.37252 19.43 -6.10352e-05 12.8026 -6.10352e-05C6.17521 -6.10352e-05 0.802626 5.37252 0.802626 11.9999C0.802626 18.6274 6.17521 23.9999 12.8026 23.9999Z" fill="#F0F0F0"/>
<path d="M24.8027 12C24.8027 7.24248 22.034 3.13174 18.02 1.19073V22.8093C22.034 20.8683 24.8027 16.7575 24.8027 12V12Z" fill="#D80027"/>
<path d="M0.802488 11.9998C0.802488 16.7574 3.57116 20.8681 7.58511 22.8091V1.19055C3.57116 3.13155 0.802488 7.2423 0.802488 11.9998Z" fill="#6DA544"/>
<path d="M9.672 11.9998C9.672 13.7287 11.0736 15.1302 12.8025 15.1302C14.5313 15.1302 15.9329 13.7287 15.9329 11.9998V10.9563H9.672V11.9998Z" fill="#6DA544"/>
<path d="M16.9765 9.91293H13.846C13.846 9.33665 13.3788 8.86945 12.8025 8.86945C12.2262 8.86945 11.759 9.33665 11.759 9.91293H8.62859C8.62859 10.4893 9.13058 10.9564 9.70681 10.9564H9.67208C9.67208 11.5327 10.1392 11.9999 10.7156 11.9999C10.7156 12.5762 11.1827 13.0434 11.759 13.0434H13.846C14.4223 13.0434 14.8895 12.5762 14.8895 11.9999C15.4658 11.9999 15.933 11.5327 15.933 10.9564H15.8982C16.4745 10.9564 16.9765 10.4893 16.9765 9.91293Z" fill="#FF9811"/>
</g>
<defs>
<clipPath id="clip0_6422_7656">
<rect width="24" height="24" fill="white" transform="translate(0.802734)"/>
</clipPath>
</defs>
</svg>
