<svg width="25" height="24" viewBox="0 0 25 24" fill="none" xmlns="http://www.w3.org/2000/svg">
<g clip-path="url(#clip0_6422_7662)">
<path d="M12.8026 24.0001C19.43 24.0001 24.8026 18.6275 24.8026 12.0001C24.8026 5.3727 19.43 0.00012207 12.8026 0.00012207C6.17521 0.00012207 0.802624 5.3727 0.802624 12.0001C0.802624 18.6275 6.17521 24.0001 12.8026 24.0001Z" fill="#F0F0F0"/>
<path d="M3.2831 4.69501C2.34049 5.9214 1.62973 7.33491 1.21587 8.87049H7.45859L3.2831 4.69501Z" fill="#0052B4"/>
<path d="M24.3892 8.87045C23.9753 7.33491 23.2645 5.9214 22.322 4.69501L18.1466 8.87045H24.3892Z" fill="#0052B4"/>
<path d="M1.21587 15.1309C1.62978 16.6665 2.34054 18.08 3.2831 19.3063L7.45845 15.1309H1.21587Z" fill="#0052B4"/>
<path d="M20.1084 2.48141C18.882 1.5388 17.4685 0.82803 15.933 0.414124V6.6568L20.1084 2.48141Z" fill="#0052B4"/>
<path d="M5.49643 21.5196C6.72282 22.4622 8.13634 23.173 9.67187 23.5869V17.3442L5.49643 21.5196Z" fill="#0052B4"/>
<path d="M9.67182 0.414124C8.13629 0.82803 6.72278 1.5388 5.49643 2.48136L9.67182 6.65675V0.414124Z" fill="#0052B4"/>
<path d="M15.933 23.5869C17.4685 23.173 18.882 22.4622 20.1084 21.5196L15.933 17.3442V23.5869Z" fill="#0052B4"/>
<path d="M18.1466 15.1309L22.322 19.3064C23.2645 18.08 23.9753 16.6665 24.3892 15.1309H18.1466Z" fill="#0052B4"/>
<path d="M24.7009 10.4344H14.3678H14.3678V0.101212C13.8554 0.0345088 13.333 -0.000366211 12.8025 -0.000366211C12.2719 -0.000366211 11.7497 0.0345088 11.2373 0.101212V10.4343V10.4344H0.904095C0.837392 10.9468 0.802517 11.4692 0.802517 11.9996C0.802517 12.5302 0.837392 13.0525 0.904095 13.5648H11.2372H11.2373V23.8981C11.7497 23.9648 12.2719 23.9996 12.8025 23.9996C13.333 23.9996 13.8554 23.9648 14.3677 23.8981V13.5649V13.5649H24.7009C24.7676 13.0525 24.8025 12.5302 24.8025 11.9996C24.8025 11.4692 24.7676 10.9468 24.7009 10.4344V10.4344Z" fill="#D80027"/>
<path d="M15.9332 15.1303L21.288 20.4851C21.5343 20.2389 21.7692 19.9815 21.9934 19.7147L17.4089 15.1302H15.9332V15.1303Z" fill="#D80027"/>
<path d="M9.67199 15.1302H9.6719L4.31713 20.485C4.56332 20.7313 4.82071 20.9662 5.08752 21.1904L9.67199 16.6058V15.1302Z" fill="#D80027"/>
<path d="M9.672 8.86917V8.86908L4.31719 3.51422C4.07091 3.76041 3.83597 4.0178 3.61182 4.28461L8.19633 8.86913H9.672V8.86917Z" fill="#D80027"/>
<path d="M15.9332 8.86913L21.288 3.51423C21.0418 3.26795 20.7844 3.03301 20.5176 2.8089L15.9332 7.39341V8.86913Z" fill="#D80027"/>
</g>
<defs>
<clipPath id="clip0_6422_7662">
<rect width="24" height="24" fill="white" transform="translate(0.802734)"/>
</clipPath>
</defs>
</svg>
