<svg width="25" height="25" viewBox="0 0 25 25" fill="none" xmlns="http://www.w3.org/2000/svg">
<g clip-path="url(#clip0_6422_7858)">
<path d="M12.8027 24.7791C19.4302 24.7791 24.8027 19.4066 24.8027 12.7791C24.8027 6.15173 19.4302 0.779144 12.8027 0.779144C6.17532 0.779144 0.802734 6.15173 0.802734 12.7791C0.802734 19.4066 6.17532 24.7791 12.8027 24.7791Z" fill="#F0F0F0"/>
<path d="M24.0563 8.60497H11.2375V5.47452H4.97662V8.60497H1.54912C1.06678 9.90491 0.802734 11.311 0.802734 12.7789C0.802734 14.2467 1.06678 15.6528 1.54912 16.9528L12.8027 17.9962L24.0563 16.9528C24.5387 15.6528 24.8027 14.2467 24.8027 12.7789C24.8027 11.311 24.5387 9.90491 24.0563 8.60497Z" fill="#0052B4"/>
<path d="M12.8028 24.7791C17.9624 24.7791 22.3609 21.5226 24.0564 16.953H1.54919C3.24471 21.5226 7.64322 24.7791 12.8028 24.7791Z" fill="#D80027"/>
<path d="M4.97653 8.60522V9.64865C4.97653 12.0449 8.10699 12.7792 8.10699 12.7792C8.10699 12.7792 11.2374 12.0449 11.2374 9.64865V8.60522L10.194 9.6487L8.10699 8.0835L6.02002 9.6487L4.97653 8.60522Z" fill="#F0F0F0"/>
</g>
<defs>
<clipPath id="clip0_6422_7858">
<rect width="24" height="24" fill="white" transform="translate(0.802734 0.779297)"/>
</clipPath>
</defs>
</svg>
