<svg width="25" height="25" viewBox="0 0 25 25" fill="none" xmlns="http://www.w3.org/2000/svg">
<g clip-path="url(#clip0_6422_7881)">
<path d="M12.8028 24.7255C19.4302 24.7255 24.8028 19.3529 24.8028 12.7255C24.8028 6.09808 19.4302 0.725494 12.8028 0.725494C6.1754 0.725494 0.802814 6.09808 0.802814 12.7255C0.802814 19.3529 6.1754 24.7255 12.8028 24.7255Z" fill="#FFDA44"/>
<path d="M20.1072 6.46463C19.9995 6.9819 19.9506 7.53282 19.9506 8.08201C19.9506 11.2477 21.8378 13.9876 24.5422 15.221C24.7125 14.4159 24.8028 13.5812 24.8028 12.7255C24.8028 6.09812 19.4302 0.725494 12.8028 0.725494C6.17544 0.725494 0.802814 6.09812 0.802814 12.7255C0.802814 19.3529 6.17544 24.7255 12.8028 24.7255C16.9129 24.7255 20.5399 22.6587 22.7026 19.5081H7.58544V17.9429H23.6121C23.7761 17.6037 23.9243 17.2555 24.0565 16.8994H7.58544L20.1072 6.46463Z" fill="#0052B4"/>
<path d="M9.61901 6.98563L9.87804 7.78278H10.7162L10.0381 8.27549L10.2971 9.0726L9.61901 8.57999L8.94096 9.0726L9.19995 8.27549L8.5218 7.78278H9.35998L9.61901 6.98563Z" fill="#F0F0F0"/>
<path d="M6.21435 12.7249L6.53816 13.7214H7.58582L6.73818 14.3371L7.06199 15.3336L6.21435 14.7177L5.36675 15.3336L5.69052 14.3371L4.84293 13.7214H5.89058L6.21435 12.7249Z" fill="#F0F0F0"/>
<path d="M6.21435 4.37729L6.53816 5.3738H7.58582L6.73818 5.98951L7.06199 6.98598L6.21435 6.37013L5.36675 6.98598L5.69052 5.98951L4.84293 5.3738H5.89058L6.21435 4.37729Z" fill="#F0F0F0"/>
<path d="M3.60569 9.07269L3.9295 10.0692H4.97711L4.12951 10.6849L4.45333 11.6814L3.60569 11.0655L2.75809 11.6814L3.08186 10.6849L2.23426 10.0692H3.28187L3.60569 9.07269Z" fill="#F0F0F0"/>
</g>
<defs>
<clipPath id="clip0_6422_7881">
<rect width="24" height="24" fill="white" transform="translate(0.802734 0.725586)"/>
</clipPath>
</defs>
</svg>
