<svg width="25" height="25" viewBox="0 0 25 25" fill="none" xmlns="http://www.w3.org/2000/svg">
<g clip-path="url(#clip0_6422_7835)">
<path d="M12.8027 24.8028C19.4301 24.8028 24.8027 19.4302 24.8027 12.8028C24.8027 6.17536 19.4301 0.802774 12.8027 0.802774C6.17529 0.802774 0.80271 6.17536 0.80271 12.8028C0.80271 19.4302 6.17529 24.8028 12.8027 24.8028Z" fill="#F0F0F0"/>
<path d="M24.8028 12.8028C24.8028 6.1754 19.4301 0.802778 12.8028 0.802778C10.4553 0.802778 8.26555 1.47754 6.41595 2.64267L9.04625 3.76022L5.49842 5.26762L9.04625 6.77498L5.49842 8.28229L9.04625 9.78956L5.49842 11.2966L9.04625 12.8036L5.49842 14.3109L9.04625 15.8182L5.49842 17.3252L9.04625 18.8325L5.49842 20.3398L9.04625 21.8468L6.41712 22.9638C8.26648 24.1283 10.4557 24.8028 12.8028 24.8028C19.4301 24.8028 24.8028 19.4302 24.8028 12.8028Z" fill="#751A46"/>
</g>
<defs>
<clipPath id="clip0_6422_7835">
<rect width="24" height="24" fill="white" transform="translate(0.802734 0.802734)"/>
</clipPath>
</defs>
</svg>
