<svg width="25" height="25" viewBox="0 0 25 25" fill="none" xmlns="http://www.w3.org/2000/svg">
<g clip-path="url(#clip0_6422_7898)">
<path d="M23.6121 17.943C24.375 16.3653 24.8028 14.5955 24.8028 12.7256C24.8028 10.8557 24.375 9.08583 23.6121 7.50821L12.8028 6.46472L1.99355 7.50821C1.23066 9.08583 0.802832 10.8557 0.802832 12.7256C0.802832 14.5955 1.23066 16.3653 1.99355 17.943L12.8028 18.9864L23.6121 17.943Z" fill="#0052B4"/>
<path d="M12.8026 24.7258C17.5601 24.7258 21.6709 21.9571 23.6119 17.9432H1.99333C3.93433 21.9571 8.04508 24.7258 12.8026 24.7258Z" fill="#D80027"/>
<path d="M21.5856 15.081L20.9518 15.5763L21.2269 16.3319L20.56 15.8823L19.9262 16.3775L20.1478 15.6043L19.481 15.1544L20.2849 15.1264L20.5067 14.3532L20.7818 15.109L21.5856 15.081Z" fill="#F0F0F0"/>
<path d="M19.9626 12.2702L19.5364 12.9524L20.0535 13.5684L19.273 13.3741L18.8467 14.0561L18.7905 13.2537L18.0101 13.059L18.7559 12.7577L18.6999 11.9553L19.2169 12.5715L19.9626 12.2702Z" fill="#F0F0F0"/>
<path d="M17.4757 10.1835L17.3086 10.9703L18.0051 11.3725L17.2052 11.4568L17.038 12.2434L16.7108 11.5087L15.9108 11.5926L16.5086 11.0544L16.1815 10.3197L16.878 10.7218L17.4757 10.1835Z" fill="#F0F0F0"/>
<path d="M14.4257 9.07373L14.5377 9.87028L15.3298 10.0099L14.6069 10.3627L14.7189 11.1592L14.1601 10.5805L13.437 10.9331L13.8147 10.2228L13.2559 9.64429L14.0481 9.78393L14.4257 9.07373Z" fill="#F0F0F0"/>
<path d="M11.1799 9.07373L11.5575 9.78393L12.3495 9.6442L11.7909 10.223L12.1684 10.9332L11.4455 10.5805L10.8867 11.159L10.9987 10.3627L10.2758 10.0101L11.0679 9.87028L11.1799 9.07373Z" fill="#F0F0F0"/>
<path d="M8.1295 10.1835L8.72734 10.7218L9.42376 10.3197L9.09672 11.0547L9.69442 11.5928L8.8945 11.5087L8.56722 12.2434L8.4002 11.4567L7.60023 11.3727L8.2968 10.9704L8.1295 10.1835Z" fill="#F0F0F0"/>
<path d="M5.64282 12.2701L6.38874 12.5714L6.90559 11.9553L6.84967 12.7578L7.59535 13.0592L6.81493 13.2537L6.75873 14.0559L6.33263 13.3739L5.55212 13.5684L6.06915 12.9522L5.64282 12.2701Z" fill="#F0F0F0"/>
<path d="M4.01996 15.0809L4.82396 15.1089L5.09893 14.3532L5.32088 15.1265L6.12465 15.1545L5.4578 15.6044L5.67943 16.3775L5.04568 15.8823L4.37879 16.332L4.6539 15.5762L4.01996 15.0809Z" fill="#F0F0F0"/>
<path d="M23.6119 7.50809C21.6709 3.49414 17.5601 0.725464 12.8026 0.725464C8.04508 0.725464 3.93433 3.49414 1.99333 7.50809H23.6119Z" fill="#FFDA44"/>
</g>
<defs>
<clipPath id="clip0_6422_7898">
<rect width="24" height="24" fill="white" transform="translate(0.802734 0.725586)"/>
</clipPath>
</defs>
</svg>
