<svg width="25" height="25" viewBox="0 0 25 25" fill="none" xmlns="http://www.w3.org/2000/svg">
<g clip-path="url(#clip0_6422_7731)">
<path d="M12.8026 24.7791C19.4301 24.7791 24.8026 19.4065 24.8026 12.7791C24.8026 6.15165 19.4301 0.779068 12.8026 0.779068C6.17522 0.779068 0.802635 6.15165 0.802635 12.7791C0.802635 19.4065 6.17522 24.7791 12.8026 24.7791Z" fill="#F0F0F0"/>
<path d="M12.8028 0.779037C7.84183 0.779037 3.58426 3.78963 1.75665 8.08338H23.8491C22.0215 3.78963 17.7639 0.779037 12.8028 0.779037Z" fill="#A2001D"/>
<path d="M12.8028 24.7792C17.7639 24.7792 22.0215 21.7686 23.849 17.4749H1.75665C3.58426 21.7686 7.84182 24.7792 12.8028 24.7792Z" fill="#496E2D"/>
<path d="M24.3892 9.64919H1.21602C0.947003 10.6473 0.802628 11.6965 0.802628 12.7796C0.802628 13.8628 0.947003 14.912 1.21602 15.9101H24.3893C24.6583 14.912 24.8026 13.8628 24.8026 12.7796C24.8026 11.6965 24.6583 10.6473 24.3892 9.64919V9.64919Z" fill="#0052B4"/>
</g>
<defs>
<clipPath id="clip0_6422_7731">
<rect width="24" height="24" fill="white" transform="translate(0.802734 0.779297)"/>
</clipPath>
</defs>
</svg>
