<svg width="25" height="25" viewBox="0 0 25 25" fill="none" xmlns="http://www.w3.org/2000/svg">
<g clip-path="url(#clip0_6422_7900)">
<path d="M12.8026 24.7255C19.43 24.7255 24.8026 19.3529 24.8026 12.7255C24.8026 6.09805 19.43 0.725464 12.8026 0.725464C6.17521 0.725464 0.802628 6.09805 0.802628 12.7255C0.802628 19.3529 6.17521 24.7255 12.8026 24.7255Z" fill="#FCFCFC"/>
<path d="M14.8407 9.10895C14.8407 7.98339 13.9282 7.07092 12.8026 7.07092C11.677 7.07092 10.7646 7.98339 10.7646 9.10895H6.28091C6.28091 10.2171 7.24626 11.1156 8.35443 11.1156H8.28768C8.28768 12.2238 9.18599 13.1223 10.2944 13.1223C10.2944 14.1036 10.9991 14.9189 11.9298 15.0932L11.9246 15.1049H13.6807L13.6755 15.0932C14.6063 14.9188 15.311 14.1035 15.311 13.1223C16.4193 13.1223 17.3176 12.2238 17.3176 11.1156H17.2508C18.359 11.1156 19.3244 10.2171 19.3244 9.10895H14.8407Z" fill="#FFDA44"/>
<path d="M11.9068 14.8966L10.6431 17.7496C11.3099 18.0206 12.0386 18.1712 12.8028 18.1712C13.5669 18.1712 14.2956 18.0206 14.9623 17.7496L13.6987 14.8966H11.9068Z" fill="#FFDA44"/>
<path d="M10.1937 10.1112V13.6217C10.1937 15.6185 12.8024 16.2304 12.8024 16.2304C12.8024 16.2304 15.4111 15.6185 15.4111 13.6217V10.1112H10.1937Z" fill="#F0F0F0"/>
<path d="M3.71205 12.8102L5.12294 16.7564L6.51915 12.8102H7.58472L5.54912 18.0276H4.6967L2.64653 12.8102H3.71205Z" fill="#338AF3"/>
<path d="M20.1064 18.0276V12.8102H21.1204V18.0276H20.1064Z" fill="#338AF3"/>
<path d="M11.2373 11.2449V15.499C11.5959 15.7629 11.9818 15.9445 12.2807 16.0607V11.2449H11.2373Z" fill="#D80027"/>
<path d="M14.3674 11.2449V15.499C14.0088 15.7629 13.6229 15.9445 13.3239 16.0607V11.2449H14.3674Z" fill="#D80027"/>
<path d="M10.1937 10.1112H15.4111V11.7666H10.1937V10.1112Z" fill="#0052B4"/>
</g>
<defs>
<clipPath id="clip0_6422_7900">
<rect width="24" height="24" fill="white" transform="translate(0.802734 0.725586)"/>
</clipPath>
</defs>
</svg>
