<svg width="25" height="25" viewBox="0 0 25 25" fill="none" xmlns="http://www.w3.org/2000/svg">
<g clip-path="url(#clip0_6422_7763)">
<path d="M12.8028 24.7255C19.4302 24.7255 24.8028 19.3529 24.8028 12.7255C24.8028 6.09805 19.4302 0.725464 12.8028 0.725464C6.17537 0.725464 0.802784 6.09805 0.802784 12.7255C0.802784 19.3529 6.17537 24.7255 12.8028 24.7255Z" fill="#F0F0F0"/>
<path d="M12.8026 0.725464C8.04504 0.725464 3.93429 3.49414 1.99329 7.50809H23.6118C21.6708 3.49414 17.5601 0.725464 12.8026 0.725464V0.725464Z" fill="black"/>
<path d="M12.8026 24.7258C8.04504 24.7258 3.93429 21.9571 1.99329 17.9432H23.6118C21.6708 21.9571 17.5601 24.7258 12.8026 24.7258V24.7258Z" fill="#496E2D"/>
<path d="M24.2361 9.07367H1.36946C1.00187 10.2253 0.802792 11.4523 0.802792 12.7258C0.802792 13.9994 1.00187 15.2263 1.36946 16.378H24.2361C24.6037 15.2263 24.8028 13.9994 24.8028 12.7258C24.8028 11.4523 24.6037 10.2253 24.2361 9.07367Z" fill="#A2001D"/>
<path d="M16.5395 6.27085L15.1184 5.61493L12.8029 10.8579L10.4873 5.61493L9.06622 6.27085L11.941 12.7255L9.06622 19.1801L10.4873 19.8361L12.8029 14.593L15.1184 19.8361L16.5395 19.1801L13.6648 12.7255L16.5395 6.27085Z" fill="#F0F0F0"/>
<path d="M13.7679 6.88904C13.2177 6.28825 12.8027 5.94287 12.8027 5.94287C12.8027 5.94287 12.3876 6.2882 11.8375 6.88904V18.5619C12.3876 19.1627 12.8027 19.5081 12.8027 19.5081C12.8027 19.5081 13.2177 19.1628 13.7679 18.5619V6.88904Z" fill="#F0F0F0"/>
<path d="M10.1939 9.12809V16.324C10.7753 17.354 11.4868 18.1984 12.02 18.7581V6.69397C11.4868 7.2537 10.7752 8.09806 10.1939 9.12809V9.12809Z" fill="#A2001D"/>
<path d="M15.4113 9.12809C14.8299 8.09802 14.1184 7.2537 13.5851 6.69397V18.7581C14.1183 18.1984 14.8299 17.354 15.4113 16.324V9.12809Z" fill="#A2001D"/>
<path d="M15.4115 9.12769V16.3236C16.0001 15.2806 16.455 14.0474 16.455 12.7257C16.455 11.4039 16.0001 10.1707 15.4115 9.12769Z" fill="black"/>
<path d="M10.1942 9.12769V16.3236C9.60566 15.2806 9.1507 14.0474 9.1507 12.7257C9.1507 11.4039 9.60566 10.1707 10.1942 9.12769Z" fill="black"/>
</g>
<defs>
<clipPath id="clip0_6422_7763">
<rect width="24" height="24" fill="white" transform="translate(0.802734 0.725586)"/>
</clipPath>
</defs>
</svg>
