<svg width="25" height="24" viewBox="0 0 25 24" fill="none" xmlns="http://www.w3.org/2000/svg">
<g clip-path="url(#clip0_6422_7699)">
<path d="M12.8027 24C19.4301 24 24.8027 18.6275 24.8027 12C24.8027 5.37262 19.4301 3.8147e-05 12.8027 3.8147e-05C6.17526 3.8147e-05 0.802681 5.37262 0.802681 12C0.802681 18.6275 6.17526 24 12.8027 24Z" fill="#6DA544"/>
<path d="M19.2233 17.2178L19.5526 17.9063L20.2962 17.7345L19.9632 18.4213L20.5612 18.8955L19.8166 19.0633L19.8188 19.8265L19.2233 19.349L18.6279 19.8265L18.63 19.0633L17.8854 18.8955L18.4834 18.4213L18.1504 17.7345L18.894 17.9063L19.2233 17.2178Z" fill="#FFDA44"/>
<path d="M16.1602 9.91342L16.4896 10.602L17.2332 10.4301L16.9002 11.1169L17.4981 11.5911L16.7536 11.7589L16.7557 12.5221L16.1602 12.0446L15.5648 12.5221L15.5668 11.7589L14.8224 11.5911L15.4204 11.1169L15.0873 10.4301L15.831 10.602L16.1602 9.91342Z" fill="#FFDA44"/>
<path d="M19.2236 5.73994L19.5529 6.42849L20.2965 6.25655L19.9635 6.94337L20.5615 7.4176L19.8169 7.58537L19.8189 8.34863L19.2236 7.87112L18.6282 8.34863L18.6302 7.58537L17.8858 7.4176L18.4837 6.94337L18.1507 6.25655L18.8943 6.42849L19.2236 5.73994Z" fill="#FFDA44"/>
<path d="M21.8995 8.87021L22.2288 9.55876L22.9725 9.38687L22.6394 10.0737L23.2374 10.5479L22.4929 10.7157L22.4949 11.4789L21.8995 11.0014L21.3041 11.4789L21.3061 10.7157L20.5616 10.5479L21.1596 10.0737L20.8266 9.38687L21.5702 9.55876L21.8995 8.87021Z" fill="#FFDA44"/>
<path d="M19.9859 12.5224L20.245 13.3196H21.0832L20.405 13.8123L20.6641 14.6094L19.9859 14.1168L19.3079 14.6094L19.5669 13.8123L18.8888 13.3196H19.727L19.9859 12.5224Z" fill="#FFDA44"/>
<path d="M14.1067 15.3916C12.2337 15.3916 10.7153 13.8732 10.7153 12.0003C10.7153 10.1274 12.2337 8.609 14.1067 8.609C14.6907 8.609 15.2402 8.7567 15.7199 9.01662C14.9673 8.28059 13.9382 7.82637 12.8023 7.82637C10.4971 7.82637 8.62842 9.69509 8.62842 12.0003C8.62842 14.3054 10.4971 16.1742 12.8023 16.1742C13.9381 16.1742 14.9673 15.7199 15.7199 14.9839C15.2402 15.2439 14.6907 15.3916 14.1067 15.3916V15.3916Z" fill="#FFDA44"/>
<path d="M8.34858 4.69637C7.98765 4.07274 7.31382 3.65289 6.54151 3.65289C5.76919 3.65289 5.09537 4.07274 4.73443 4.69637H8.34858Z" fill="#FFDA44"/>
<path d="M8.35557 4.70866L6.54155 6.52268L4.72753 4.70866C4.55414 5.01293 4.45463 5.36482 4.45463 5.7401C4.45463 6.89271 5.38899 7.82707 6.5416 7.82707C7.69421 7.82707 8.62856 6.89276 8.62856 5.7401C8.62852 5.36482 8.52896 5.01293 8.35557 4.70866V4.70866Z" fill="#FFDA44"/>
<path d="M6.02 5.99993V7.76028C6.18673 7.80317 6.36157 7.82599 6.54171 7.82599C6.72186 7.82599 6.8967 7.80312 7.06343 7.76028V5.99993H6.02Z" fill="#A2001D"/>
</g>
<defs>
<clipPath id="clip0_6422_7699">
<rect width="24" height="24" fill="white" transform="translate(0.802734)"/>
</clipPath>
</defs>
</svg>
