<svg width="25" height="24" viewBox="0 0 25 24" fill="none" xmlns="http://www.w3.org/2000/svg">
<g clip-path="url(#clip0_6422_7696)">
<path d="M12.8026 24.0002C19.4301 24.0002 24.8026 18.6276 24.8026 12.0002C24.8026 5.37274 19.4301 0.000152588 12.8026 0.000152588C6.17522 0.000152588 0.802635 5.37274 0.802635 12.0002C0.802635 18.6276 6.17522 24.0002 12.8026 24.0002Z" fill="#F0F0F0"/>
<path d="M23.3437 6.26228C21.793 3.42029 19.1267 1.27487 15.9332 0.414154L15.4115 6.26228H23.3437Z" fill="#0052B4"/>
<path d="M2.26162 6.26219H10.1938L9.67209 0.414062C6.47863 1.27478 3.81229 3.42025 2.26162 6.26219V6.26219Z" fill="#0052B4"/>
<path d="M15.4113 12.0001V17.7393H23.3435C24.2737 16.0344 24.8026 14.079 24.8026 12.0001H15.4113Z" fill="#6DA544"/>
<path d="M10.1938 12.0001H0.802513C0.802513 14.079 1.3314 16.0344 2.26159 17.7393H10.1938V12.0001H10.1938Z" fill="#6DA544"/>
<path d="M2.26172 17.7389C3.81239 20.5809 6.47873 22.7263 9.67219 23.587L10.1939 18.4726L2.26172 17.7389Z" fill="#FFDA44"/>
<path d="M15.9332 23.587C19.1267 22.7263 21.793 20.5809 23.3437 17.7389L15.4115 18.4725L15.9332 23.587Z" fill="#FFDA44"/>
<path d="M15.4115 18.4725L23.3437 17.7389H15.4115V18.4725Z" fill="#FFDA44"/>
<path d="M10.194 17.7389H2.26172L10.194 18.4725V17.7389Z" fill="#FFDA44"/>
<path d="M12.8026 0.000167847C11.7194 0.000167847 10.6703 0.144543 9.67213 0.413558V23.5868C10.6703 23.8558 11.7194 24.0002 12.8026 24.0002C13.8857 24.0002 14.9349 23.8558 15.933 23.5868V0.413558C14.9349 0.144543 13.8857 0.000167847 12.8026 0.000167847V0.000167847Z" fill="#D80027"/>
<path d="M7.25723 2.60977L7.58095 3.60619H8.62875L7.78115 4.22204L8.10492 5.21846L7.25723 4.60266L6.40959 5.21846L6.73345 4.22204L5.88586 3.60619H6.93356L7.25723 2.60977Z" fill="#FFDA44"/>
</g>
<defs>
<clipPath id="clip0_6422_7696">
<rect width="24" height="24" fill="white" transform="translate(0.802734)"/>
</clipPath>
</defs>
</svg>
