<svg width="25" height="24" viewBox="0 0 25 24" fill="none" xmlns="http://www.w3.org/2000/svg">
<g clip-path="url(#clip0_6422_7815)">
<path d="M12.8028 24C19.4302 24 24.8028 18.6274 24.8028 12C24.8028 5.37257 19.4302 -1.52588e-05 12.8028 -1.52588e-05C6.17536 -1.52588e-05 0.80278 5.37257 0.80278 12C0.80278 18.6274 6.17536 24 12.8028 24Z" fill="#F0F0F0"/>
<path d="M0.802483 11.9996C0.802483 17.1592 4.05898 21.5577 8.62859 23.2532V0.746002C4.05898 2.44147 0.802483 6.84003 0.802483 11.9996V11.9996Z" fill="#6DA544"/>
<path d="M24.8025 11.9996C24.8025 6.84003 21.546 2.44147 16.9764 0.746002V23.2533C21.546 21.5577 24.8025 17.1592 24.8025 11.9996V11.9996Z" fill="#6DA544"/>
</g>
<defs>
<clipPath id="clip0_6422_7815">
<rect width="24" height="24" fill="white" transform="translate(0.802734)"/>
</clipPath>
</defs>
</svg>
