<svg width="25" height="25" viewBox="0 0 25 25" fill="none" xmlns="http://www.w3.org/2000/svg">
<g clip-path="url(#clip0_6422_7887)">
<path d="M12.803 0.725159C11.907 0.725159 11.0342 0.824206 10.1943 1.01039L9.67261 12.7251L10.1943 24.4399C11.0343 24.6261 11.907 24.7252 12.803 24.7252C19.4304 24.7252 24.803 19.3525 24.803 12.7251C24.8029 6.09774 19.4304 0.725159 12.803 0.725159V0.725159Z" fill="#496E2D"/>
<path d="M3.93351 4.64307C1.98894 6.77569 0.803101 9.6121 0.803101 12.7256C0.803101 15.8392 1.98899 18.6756 3.93355 20.8083L4.45527 12.7256L3.93351 4.64307Z" fill="#496E2D"/>
<path d="M18.3541 9.77672C18.9445 8.13112 18.2812 6.34139 16.8578 5.45001C17.1138 5.48334 17.3701 5.54362 17.6231 5.63432C19.5216 6.31551 20.5085 8.4067 19.8273 10.3052C19.1462 12.2039 17.055 13.1907 15.1564 12.5095C14.9034 12.4188 14.6672 12.3023 14.4484 12.1653C16.1139 12.3822 17.7637 11.4223 18.3541 9.77672V9.77672Z" fill="#F0F0F0"/>
<path d="M15.0792 4.99908L14.5662 5.66199L13.7773 5.37891L14.2492 6.07163L13.7362 6.73444L14.5408 6.49979L15.0128 7.19241L15.0381 6.35466L15.8427 6.11996L15.0539 5.83697L15.0792 4.99908Z" fill="#F0F0F0"/>
<path d="M16.4648 7.15894L15.9518 7.8218L15.1628 7.53872L15.6347 8.23144L15.1217 8.89425L15.9263 8.6595L16.3983 9.35226L16.4237 8.51447L17.2283 8.27972L16.4394 7.99669L16.4648 7.15894Z" fill="#F0F0F0"/>
<path d="M12.637 5.7854L12.124 6.44821L11.3351 6.16523L11.807 6.8579L11.294 7.52076L12.0986 7.28606L12.5705 7.97873L12.5959 7.14098L13.4005 6.90628L12.6117 6.6232L12.637 5.7854Z" fill="#F0F0F0"/>
<path d="M12.5809 8.25995L12.0679 8.92281L11.2789 8.63978L11.7509 9.3325L11.2378 9.99531L12.0425 9.76065L12.5144 10.4533L12.5397 9.61553L13.3444 9.38082L12.5554 9.09775L12.5809 8.25995Z" fill="#F0F0F0"/>
<path d="M14.9351 9.10468L14.4221 9.76749L13.6332 9.48446L14.1052 10.1772L13.5921 10.8399L14.3968 10.6053L14.8687 11.298L14.894 10.4602L15.6987 10.2255L14.9097 9.94247L14.9351 9.10468Z" fill="#F0F0F0"/>
<path d="M3.93332 4.64302V20.8082C5.56832 22.6014 7.74004 23.8963 10.1942 24.4403V1.01086C7.73999 1.5549 5.56837 2.84982 3.93332 4.64302V4.64302Z" fill="#D80027"/>
<path d="M6.3224 7.0438L5.27423 6.26296V5.15873L6.3224 4.37793H7.80483L8.853 5.15873V6.26296L7.80483 7.0438H6.3224Z" fill="#F0F0F0"/>
<path d="M7.06364 4.37732H6.3224L5.27423 5.15812V5.69798H7.06364V4.37732Z" fill="#FF9811"/>
<path d="M7.06363 7.04287H7.80482L8.85299 6.26203V5.69873H7.06363V7.04287Z" fill="#FF9811"/>
<path d="M6.3224 21.0735L5.27423 20.2926V19.1884L6.3224 18.4076H7.80483L8.853 19.1884V20.2926L7.80483 21.0735H6.3224Z" fill="#F0F0F0"/>
<path d="M7.06403 18.4084H6.3228L5.27463 19.1893V19.7291H7.06403V18.4084Z" fill="#FF9811"/>
<path d="M7.06398 21.074H7.80517L8.85334 20.2932V19.7299H7.06398V21.074Z" fill="#FF9811"/>
<path d="M6.3228 14.0581L5.27463 13.2772V12.1731L6.3228 11.3922H7.80522L8.85339 12.1731V13.2772L7.80522 14.0581H6.3228Z" fill="#496E2D"/>
<path d="M8.89001 15.7761H8.43345V15.3196H7.63118L7.0639 14.7523L6.49667 15.3196H5.6944V15.7761H5.23788V16.6891H5.6944V17.1457H6.49662L7.06395 17.713L7.63118 17.1457H8.43345V16.6891H8.89001V15.7761Z" fill="#496E2D"/>
<path d="M8.88993 8.76127H8.43337V8.30471H7.63111L7.06382 7.73743L6.49659 8.30471H5.69432V8.76127H5.23781V9.6743H5.69432V10.1308H6.49654L7.06387 10.6982L7.63111 10.1308H8.43337V9.6743H8.88993V8.76127Z" fill="#496E2D"/>
<path d="M6.54172 12.203H7.5852V13.2465H6.54172V12.203Z" fill="#D80027"/>
<path d="M7.06339 9.7393C7.35153 9.7393 7.58511 9.50572 7.58511 9.21758C7.58511 8.92944 7.35153 8.69586 7.06339 8.69586C6.77525 8.69586 6.54167 8.92944 6.54167 9.21758C6.54167 9.50572 6.77525 9.7393 7.06339 9.7393Z" fill="#D80027"/>
<path d="M7.06344 16.7548C7.35157 16.7548 7.58516 16.5212 7.58516 16.2331C7.58516 15.9449 7.35157 15.7114 7.06344 15.7114C6.7753 15.7114 6.54172 15.9449 6.54172 16.2331C6.54172 16.5212 6.7753 16.7548 7.06344 16.7548Z" fill="#D80027"/>
</g>
<defs>
<clipPath id="clip0_6422_7887">
<rect width="24" height="24" fill="white" transform="translate(0.802734 0.725586)"/>
</clipPath>
</defs>
</svg>
