<svg width="25" height="25" viewBox="0 0 25 25" fill="none" xmlns="http://www.w3.org/2000/svg">
<g clip-path="url(#clip0_6422_7890)">
<path d="M21.7462 20.7255C23.6467 18.6025 24.8028 15.7993 24.8028 12.7256C24.8028 9.65188 23.6467 6.84861 21.7462 4.72555L12.8028 3.85602L3.85945 4.72555C1.959 6.84861 0.802826 9.65188 0.802826 12.7256C0.802826 15.7993 1.95895 18.6025 3.8594 20.7255L12.8028 21.5951L21.7462 20.7255Z" fill="#FFDA44"/>
<path d="M3.85931 4.72569H21.7461C19.5488 2.27099 16.3564 0.725708 12.8027 0.725708C9.24895 0.725708 6.05653 2.27099 3.85931 4.72569Z" fill="black"/>
<path d="M0.802826 12.7254L12.8028 13.7689L24.8028 12.7254C24.8028 11.3227 24.5614 9.97659 24.119 8.7254H1.48664C1.04428 9.97659 0.802826 11.3227 0.802826 12.7254H0.802826Z" fill="#D80027"/>
<path d="M1.48664 16.7261H24.1191C24.5614 15.4749 24.8028 14.1288 24.8028 12.7261H0.802826C0.802826 14.1288 1.04428 15.4749 1.48664 16.7261V16.7261Z" fill="black"/>
<path d="M21.7462 20.7258H3.85931C6.05653 23.1805 9.24895 24.7258 12.8027 24.7258C16.3565 24.7258 19.5489 23.1805 21.7462 20.7258Z" fill="#D80027"/>
<path d="M16.8071 12.726C16.8071 14.9377 15.0144 16.7303 12.8027 16.7303C10.591 16.7303 8.7984 14.9377 8.7984 12.726C8.7984 10.5143 10.591 8.72162 12.8027 8.72162C15.0144 8.72162 16.8071 10.5143 16.8071 12.726Z" fill="#F0F0F0"/>
<path d="M14.2697 12.9298L12.8027 12.2941C12.8027 12.2941 13.1459 11.1549 13.1642 11.0769C13.1776 11.02 13.1847 10.9606 13.1847 10.8996C13.1847 10.6834 13.0971 10.4878 12.9554 10.3462L13.3243 9.97731C13.0883 9.74129 12.7622 9.59528 12.402 9.59528C12.0418 9.59528 11.7157 9.74124 11.4797 9.97731L11.8486 10.3462C11.707 10.4878 11.6194 10.6835 11.6194 10.8996C11.6194 10.9786 11.6313 11.0548 11.6531 11.1267L11.0977 11.6821H12.1072C12.1072 11.6821 11.6898 12.309 11.462 12.8238C11.2341 13.3386 11.4651 13.9671 11.9917 14.2012L12.2962 14.3365L12.8027 14.8126V15.3343L12.281 15.856H13.3245V14.8125L13.8006 14.3364H14.7853C14.7901 14.3266 14.795 14.317 14.7995 14.307C15.0335 13.7805 14.7963 13.1638 14.2697 12.9298Z" fill="black"/>
</g>
<defs>
<clipPath id="clip0_6422_7890">
<rect width="24" height="24" fill="white" transform="translate(0.802734 0.725586)"/>
</clipPath>
</defs>
</svg>
