<svg width="25" height="25" viewBox="0 0 25 25" fill="none" xmlns="http://www.w3.org/2000/svg">
<g clip-path="url(#clip0_6422_7725)">
<path d="M24.8028 12.7791C24.8028 19.4065 19.4302 24.7791 12.8028 24.7791C6.17542 24.7791 0.802795 19.4065 0.802795 12.7791C0.802795 12.782 12.8028 0.780457 12.8028 0.779144C19.4302 0.779144 24.8028 6.15177 24.8028 12.7791Z" fill="#338AF3"/>
<path d="M12.8028 6.51756V10.5649L8.62891 6.51756H12.8028Z" fill="#0052B4"/>
<path d="M7.06356 12.779H10.5891L7.06356 8.08333L6.54184 11.7355L7.06356 12.779Z" fill="#0052B4"/>
<path d="M12.7706 12.7799H12.8038C12.8038 12.7688 12.8038 12.7579 12.8038 12.7467C12.7928 12.7578 12.7817 12.7689 12.7706 12.7799Z" fill="#F0F0F0"/>
<path d="M12.8028 7.03984C12.8028 4.92835 12.8028 3.54484 12.8028 0.778976H12.8008C6.17433 0.780101 0.802826 6.15221 0.802826 12.779H7.06369V9.25346L10.5892 12.779H12.7708C12.7815 12.7683 12.7922 12.7576 12.8029 12.7469C12.8029 11.9384 12.8029 11.2171 12.8029 10.5654L9.27726 7.03984H12.8028Z" fill="#F0F0F0"/>
<path d="M6.87343 2.34363C4.9966 3.41233 3.43632 4.97261 2.36761 6.84944V12.7784H5.49807V5.47417V5.47408H12.8024C12.8024 4.48675 12.8024 3.54616 12.8024 2.34363H6.87343Z" fill="#D80027"/>
<path d="M12.8024 11.3025L8.539 7.03903H7.06332V7.03913L12.8023 12.7781H12.8024C12.8024 12.7781 12.8024 11.7606 12.8024 11.3025Z" fill="#D80027"/>
<path d="M14.368 8.60505V12.7789C14.368 15.5745 18.0202 16.4311 18.0202 16.4311C18.0202 16.4311 21.6724 15.5745 21.6724 12.7789V8.60505L18.0202 7.56157L14.368 8.60505Z" fill="#F3F3F3"/>
<path d="M21.6724 8.60549V7.04028H14.368V8.60549H17.4984V11.736H14.368V12.7794V12.7795L17.4984 12.7795V16.2716C17.8133 16.3829 18.0202 16.4316 18.0202 16.4316C18.0202 16.4316 18.227 16.383 18.5419 16.2716V12.7795H21.6724V12.7794V11.7359H18.5419V8.60544H21.6724V8.60549Z" fill="#D80027"/>
</g>
<defs>
<clipPath id="clip0_6422_7725">
<rect width="24" height="24" fill="white" transform="translate(0.802734 0.779297)"/>
</clipPath>
</defs>
</svg>
