<svg width="25" height="24" viewBox="0 0 25 24" fill="none" xmlns="http://www.w3.org/2000/svg">
<g clip-path="url(#clip0_6422_7808)">
<path d="M24.0562 16.174C24.5386 14.874 24.8026 13.4679 24.8026 12.0001C24.8026 10.5322 24.5386 9.12614 24.0562 7.8262L12.8026 6.78271L1.54902 7.8262C1.06667 9.12614 0.802628 10.5322 0.802628 12.0001C0.802628 13.4679 1.06667 14.874 1.54902 16.174L12.8026 17.2175L24.0562 16.174Z" fill="#6DA544"/>
<path d="M24.056 7.82638C22.3605 3.25677 17.962 0.000274658 12.8024 0.000274658C7.6428 0.000274658 3.24428 3.25677 1.54877 7.82638H24.056Z" fill="#FFDA44"/>
<path d="M12.8024 24.0003C17.962 24.0003 22.3605 20.7438 24.056 16.1741H1.54877C3.24428 20.7438 7.6428 24.0003 12.8024 24.0003Z" fill="#D80027"/>
<path d="M21.0315 10.1523H14.7453L12.8027 4.17375L10.8601 10.1523H4.57382L9.65953 13.8473L7.71693 19.826L12.8027 16.1738L17.8884 19.8259L15.9459 13.8473L21.0315 10.1523Z" fill="#F0F0F0"/>
</g>
<defs>
<clipPath id="clip0_6422_7808">
<rect width="24" height="24" fill="white" transform="translate(0.802734)"/>
</clipPath>
</defs>
</svg>
