<svg width="25" height="25" viewBox="0 0 25 25" fill="none" xmlns="http://www.w3.org/2000/svg">
<g clip-path="url(#clip0_6422_7739)">
<path d="M12.8029 24.7257C19.4303 24.7257 24.8029 19.3532 24.8029 12.7257C24.8029 6.09832 19.4303 0.725739 12.8029 0.725739C6.17544 0.725739 0.802856 6.09832 0.802856 12.7257C0.802856 19.3532 6.17544 24.7257 12.8029 24.7257Z" fill="#F0F0F0"/>
<path d="M24.803 12.7252C24.803 7.96764 22.0344 3.85689 18.0204 1.91589V23.5344C22.0344 21.5935 24.803 17.4827 24.803 12.7252V12.7252Z" fill="#338AF3"/>
<path d="M0.803009 12.7252C0.803009 17.4827 3.57168 21.5935 7.58563 23.5345V1.91589C3.57168 3.85689 0.803009 7.96764 0.803009 12.7252Z" fill="#338AF3"/>
<path d="M15.9391 14.7546L13.9101 12.7256L15.8415 10.7941L15.7539 9.77398L15.201 9.22095L12.8032 11.6187L10.4055 9.22095L9.85256 9.77398L9.76505 10.7941L11.6964 12.7256L9.66736 14.7546L10.7742 15.8613L12.8032 13.8323L14.8323 15.8613L15.9391 14.7546Z" fill="#ACABB1"/>
<path d="M15.7544 9.77426L14.6477 10.881C15.1197 11.3531 15.4118 12.0053 15.4118 12.7257C15.4118 14.1664 14.2438 15.3343 12.8031 15.3343C11.3624 15.3343 10.1944 14.1664 10.1944 12.7257C10.1944 12.0053 10.4864 11.3531 10.9585 10.881L9.8517 9.77426C9.09631 10.5295 8.62915 11.573 8.62915 12.7257C8.62915 15.0309 10.4979 16.8995 12.803 16.8995C15.1082 16.8995 16.9769 15.0308 16.9769 12.7257C16.9769 11.573 16.5098 10.5296 15.7544 9.77426V9.77426Z" fill="#6DA544"/>
</g>
<defs>
<clipPath id="clip0_6422_7739">
<rect width="24" height="24" fill="white" transform="translate(0.802734 0.725586)"/>
</clipPath>
</defs>
</svg>
