<svg width="25" height="24" viewBox="0 0 25 24" fill="none" xmlns="http://www.w3.org/2000/svg">
<g clip-path="url(#clip0_6422_7783)">
<path d="M1.99345 6.78293C1.23061 8.36055 0.802734 10.1304 0.802734 12.0003C0.802734 13.8702 1.23061 15.64 1.99345 17.2177L12.8027 18.2612L23.612 17.2177C24.3749 15.64 24.8027 13.8702 24.8027 12.0003C24.8027 10.1304 24.3749 8.36055 23.612 6.78293L12.8027 5.73944L1.99345 6.78293Z" fill="black"/>
<path d="M1.99387 17.2173C3.93477 21.2313 8.04519 23.9999 12.8027 23.9999C17.5602 23.9999 21.6707 21.2313 23.6116 17.2173H1.99387Z" fill="#496E2D"/>
<path d="M1.99387 6.78284H23.6116C21.6707 2.76889 17.5602 0.000213623 12.8027 0.000213623C8.04519 0.000213623 3.93477 2.76889 1.99387 6.78284Z" fill="#D80027"/>
<path d="M15.5955 9.80609L16.5801 11.1629L18.1746 10.6459L17.1885 12.0015L18.1729 13.3582L16.579 12.8392L15.5928 14.1949L15.5939 12.5186L13.9998 11.9996L15.5944 11.4825L15.5955 9.80609Z" fill="#F0F0F0"/>
<path d="M12.9083 15.3918C11.0354 15.3918 9.51701 13.8734 9.51701 12.0004C9.51701 10.1275 11.0354 8.60913 12.9083 8.60913C13.4923 8.60913 14.0418 8.75679 14.5215 9.01676C13.7689 8.28077 12.7397 7.82651 11.604 7.82651C9.29876 7.82651 7.43008 9.69523 7.43008 12.0004C7.43008 14.3056 9.2988 16.1743 11.604 16.1743C12.7398 16.1743 13.7689 15.72 14.5215 14.984C14.0418 15.2441 13.4923 15.3918 12.9083 15.3918Z" fill="#F0F0F0"/>
</g>
<defs>
<clipPath id="clip0_6422_7783">
<rect width="24" height="24" fill="white" transform="translate(0.802734)"/>
</clipPath>
</defs>
</svg>
