<svg width="25" height="25" viewBox="0 0 25 25" fill="none" xmlns="http://www.w3.org/2000/svg">
<g clip-path="url(#clip0_6422_7865)">
<path d="M0.802761 2.81281H0.802719V22.6389H0.802761V12.7259V2.81281Z" fill="#FF9811"/>
<path d="M12.8027 24.7257C19.4301 24.7257 24.8027 19.3531 24.8027 12.7257C24.8027 6.09831 19.4301 0.725739 12.8027 0.725739C6.17529 0.725739 0.802719 6.09831 0.802719 12.7257C0.802719 19.3531 6.17529 24.7257 12.8027 24.7257Z" fill="#FFDA44"/>
<path d="M10.1941 2.81281H6.03929C5.85516 2.93866 5.67498 3.06968 5.4984 3.20529L4.45491 12.7258L5.4984 22.2463C5.67498 22.382 5.85516 22.513 6.03929 22.6388H10.1941V2.81281Z" fill="#FF9811"/>
<path d="M0.802719 12.7253C0.802719 16.604 2.64341 20.0522 5.49838 22.2458V3.20471C2.64341 5.39837 0.802719 8.8466 0.802719 12.7253V12.7253Z" fill="#6DA544"/>
<path d="M20.1069 8.04083V8.34036L20.118 8.34204L20.1069 8.04083Z" fill="#FFDA44"/>
<path d="M23.8463 15.8563H21.5854L20.6289 16.8998V18.9867H18.5419V17.9432H19.5854V15.8563H14.8897V17.1606H13.8462V14.6748C13.5261 14.3882 13.3245 13.9719 13.3245 13.5084V6.72584C13.3245 5.86142 14.0253 5.16064 14.8897 5.16064V14.8128H16.9767L17.6927 14.2161C17.5677 13.9182 17.4984 13.591 17.4984 13.2476V11.6824H15.9332V8.552H19.0636C19.0636 8.03028 19.8462 7.50852 19.8462 7.50852C19.8462 7.50852 20.6289 8.03024 20.6289 8.552V9.33463V11.6825C21.2093 11.6894 22.1315 11.6743 23.1279 11.6825C22.8661 11.225 22.7158 10.6821 22.7158 10.1173C22.7158 9.19658 23.1133 8.36886 23.746 7.79605C22.834 5.77503 21.3787 4.05181 19.5662 2.81281H11.7593V22.6389H19.5663C21.7703 21.1323 23.446 18.9099 24.259 16.3066L23.8463 15.8563Z" fill="#A2001D"/>
</g>
<defs>
<clipPath id="clip0_6422_7865">
<rect width="24" height="24" fill="white" transform="translate(0.802734 0.725586)"/>
</clipPath>
</defs>
</svg>
