<svg width="25" height="25" viewBox="0 0 25 25" fill="none" xmlns="http://www.w3.org/2000/svg">
<g clip-path="url(#clip0_6422_7711)">
<path d="M12.8026 24.2824C19.4301 24.2824 24.8026 18.9098 24.8026 12.2824C24.8026 5.65501 19.4301 0.282433 12.8026 0.282433C6.17523 0.282433 0.802643 5.65501 0.802643 12.2824C0.802643 18.9098 6.17523 24.2824 12.8026 24.2824Z" fill="#F0F0F0"/>
<path d="M15.1508 24.0517C19.8947 23.1106 23.6316 19.3737 24.5727 14.6298H15.1508V24.0517Z" fill="#496E2D"/>
<path d="M1.03322 14.6298C1.97423 19.3737 5.7112 23.1106 10.4551 24.0517V14.6298H1.03322Z" fill="#496E2D"/>
<path d="M24.5727 9.93472C23.6316 5.19088 19.8947 1.45391 15.1508 0.512848V9.93472H24.5727Z" fill="#496E2D"/>
<path d="M10.455 0.512959C5.71111 1.45402 1.97414 5.19099 1.03313 9.93483H10.455V0.512959Z" fill="#496E2D"/>
<path d="M12.0203 14.6303H10.4551V24.0522C10.9659 24.1535 11.4884 24.2221 12.0203 24.2564V14.6303Z" fill="#FFDA44"/>
<path d="M12.0203 9.93464V0.308578C11.4884 0.342797 10.9659 0.411469 10.4551 0.512766V9.93464H12.0203Z" fill="#FFDA44"/>
<path d="M13.5854 0.308565C13.3265 0.29183 13.0658 0.282455 12.8028 0.282455C12.5398 0.282455 12.279 0.29183 12.0201 0.308565V9.93467H13.5853V0.308565H13.5854Z" fill="black"/>
<path d="M12.0201 24.2566C12.279 24.2734 12.5398 24.2827 12.8028 24.2827C13.0658 24.2827 13.3265 24.2734 13.5854 24.2566V14.6306H12.0202V24.2566H12.0201Z" fill="black"/>
<path d="M10.455 11.4996V9.9344H1.03314C0.931793 10.4452 0.863168 10.9677 0.828949 11.4996H10.455Z" fill="#FFDA44"/>
<path d="M15.1507 11.4996H24.7768C24.7426 10.9677 24.6739 10.4452 24.5726 9.9344H15.1507V11.4996H15.1507Z" fill="#FFDA44"/>
<path d="M15.1507 13.0655H24.7768C24.7935 12.8068 24.8029 12.5459 24.8029 12.2829C24.8029 12.0199 24.7935 11.7591 24.7768 11.5003H15.1507V13.0655Z" fill="black"/>
<path d="M0.828737 11.5003C0.812049 11.7591 0.802628 12.0199 0.802628 12.2829C0.802628 12.5459 0.812049 12.8068 0.828737 13.0655H10.4548V11.5003H0.828737V11.5003Z" fill="black"/>
<path d="M12.8029 18.0219C15.9726 18.0219 18.5421 15.4524 18.5421 12.2828C18.5421 9.11312 15.9726 6.54362 12.8029 6.54362C9.63328 6.54362 7.06378 9.11312 7.06378 12.2828C7.06378 15.4524 9.63328 18.0219 12.8029 18.0219Z" fill="#D80027"/>
<path d="M14.1105 12.9234C13.6836 12.0696 13.1287 11.2043 13.1287 11.2043C13.1287 11.2043 13.1425 10.8103 13.1425 10.5756C13.1425 10.222 12.8558 9.93527 12.5022 9.93527C12.1672 9.93527 11.8927 10.1927 11.8647 10.5204C11.6013 10.5376 11.3928 10.7561 11.3928 11.0239C11.3928 11.2185 11.5031 11.3872 11.6645 11.4716C11.7448 11.2839 11.9019 11.1373 12.0963 11.0705C12.1279 11.0965 12.162 11.1196 12.1983 11.1393L12.2803 11.1785C12.2803 11.1785 11.9762 12.0359 11.9762 12.4965C11.9762 13.7914 12.8299 14.1907 12.8299 14.1907V14.2041L12.4031 14.6309H13.2568V13.7771L13.6837 14.204C13.6874 14.196 14.4923 13.687 14.1105 12.9234V12.9234Z" fill="#496E2D"/>
<path d="M12.8029 7.58757L12.9971 8.18541H13.6257L13.1172 8.55493L13.3115 9.15277L12.8029 8.7833L12.2943 9.15277L12.4886 8.55493L11.98 8.18541H12.6086L12.8029 7.58757Z" fill="#496E2D"/>
<path d="M10.0428 8.48386L10.5513 8.85338L11.0599 8.48382L10.8656 9.08175L11.3742 9.45118L10.7456 9.45122L10.5513 10.0491L10.357 9.45122L9.72844 9.45118L10.237 9.08166L10.0428 8.48386Z" fill="#496E2D"/>
<path d="M8.33696 10.8321H8.96551L9.1598 10.2342L9.35405 10.8321L9.98269 10.832L9.47415 11.2016L9.66844 11.7994L9.1598 11.4299L8.65126 11.7994L8.84546 11.2015L8.33696 10.8321Z" fill="#496E2D"/>
<path d="M8.33696 13.7339L8.84546 13.3645L8.65121 12.7666L9.1598 13.1361L9.6684 12.7666L9.47415 13.3644L9.98274 13.7339L9.35405 13.734L9.1598 14.3318L8.96551 13.7339H8.33696Z" fill="#496E2D"/>
<path d="M10.0428 16.0821L10.237 15.4844L9.72844 15.1149H10.3571L10.5514 14.517L10.7456 15.1148H11.3743L10.8657 15.4844L11.0599 16.0822L10.5513 15.7127L10.0428 16.0821Z" fill="#496E2D"/>
<path d="M12.8029 16.9791L12.6086 16.3813H11.98L12.4886 16.0118L12.2943 15.4139L12.8029 15.7833L13.3114 15.4139L13.1172 16.0118L13.6257 16.3813L12.9971 16.3813L12.8029 16.9791Z" fill="#496E2D"/>
<path d="M15.5628 16.0821L15.0543 15.7127L14.5457 16.0822L14.7399 15.4844L14.2313 15.1149L14.86 15.1148L15.0542 14.517L15.2485 15.1149H15.8771L15.3686 15.4844L15.5628 16.0821Z" fill="#496E2D"/>
<path d="M17.2686 13.7345H16.64L16.4457 14.3324L16.2515 13.7346H15.6228L16.1314 13.365L15.9371 12.7672L16.4457 13.1367L16.9542 12.7672L16.7601 13.3651L17.2686 13.7345Z" fill="#496E2D"/>
<path d="M17.2686 10.832L16.7601 11.2015L16.9543 11.7993L16.4457 11.4299L15.9371 11.7994L16.1314 11.2015L15.6228 10.8321L16.2515 10.832L16.4457 10.2342L16.64 10.832H17.2686Z" fill="#496E2D"/>
<path d="M15.5628 8.48382L15.3686 9.08161L15.8771 9.45113H15.2485L15.0543 10.049L14.86 9.45118L14.2313 9.45122L14.7399 9.08161L14.5457 8.48387L15.0543 8.85329L15.5628 8.48382Z" fill="#496E2D"/>
</g>
<defs>
<clipPath id="clip0_6422_7711">
<rect width="24" height="24" fill="white" transform="translate(0.802734 0.282227)"/>
</clipPath>
</defs>
</svg>
