<svg width="25" height="24" viewBox="0 0 25 24" fill="none" xmlns="http://www.w3.org/2000/svg">
<g clip-path="url(#clip0_6422_7820)">
<path d="M12.8028 23.9998C19.4302 23.9998 24.8028 18.6273 24.8028 11.9998C24.8028 5.37243 19.4302 -0.000152588 12.8028 -0.000152588C6.17538 -0.000152588 0.802795 5.37243 0.802795 11.9998C0.802795 18.6273 6.17538 23.9998 12.8028 23.9998Z" fill="#338AF3"/>
<path d="M12.4243 19.5552C12.1008 19.5396 11.8331 19.3294 11.7283 19.0439C11.5431 19.2855 11.2248 19.4071 10.9112 19.3262C10.5971 19.2454 10.3775 18.9855 10.3321 18.6839C10.1015 18.8832 9.76547 18.9374 9.4749 18.7951C9.18375 18.6521 9.021 18.3531 9.03769 18.0489C8.77215 18.1981 8.43197 18.1835 8.1758 17.9853C7.92015 17.787 7.82049 17.4619 7.89769 17.1672C7.60758 17.26 7.27786 17.1776 7.06655 16.9318C6.85524 16.6866 6.82285 16.348 6.95752 16.0752C6.65489 16.1074 6.34814 15.9604 6.19055 15.6776C6.03244 15.3948 6.069 15.0562 6.25627 14.8156C5.95313 14.7864 5.68182 14.5803 5.58479 14.2714C5.48724 13.9626 5.59158 13.6381 5.82375 13.4403C5.53261 13.3505 5.3093 13.0938 5.27644 12.772C5.24358 12.4501 5.41055 12.1542 5.67713 12.0071C5.4105 11.861 5.2425 11.5652 5.27433 11.2438H5.27485C5.30668 10.9213 5.52999 10.6642 5.82057 10.5733C5.58839 10.3761 5.48302 10.0521 5.57954 9.74323C5.67605 9.43385 5.9468 9.22723 6.24999 9.19695C6.06268 8.95695 6.02513 8.61828 6.18216 8.33506C6.33919 8.05226 6.64599 7.9046 6.94913 7.93643C6.81347 7.66357 6.8453 7.32495 7.0561 7.07871C7.26638 6.83299 7.5961 6.75003 7.88672 6.84185C7.80844 6.54757 7.90758 6.22203 8.16324 6.02328C8.41838 5.82443 8.75855 5.80929 9.0241 5.95746C9.0069 5.65334 9.16913 5.35432 9.45975 5.21084C9.74986 5.06787 10.0864 5.12112 10.3175 5.32039C10.3618 5.01889 10.5815 4.75803 10.895 4.67656C11.2081 4.59518 11.5263 4.7157 11.7121 4.95673C11.8169 4.67135 12.0841 4.46056 12.4075 4.44439C12.7305 4.42774 13.0174 4.60924 13.151 4.8822C13.3107 4.6234 13.6143 4.47003 13.9342 4.51854C14.2545 4.56654 14.5003 4.80232 14.5764 5.09717C14.7851 4.87484 15.1138 4.78671 15.4175 4.89832C15.7216 5.01049 15.9147 5.29118 15.9293 5.59587C16.1782 5.4206 16.5183 5.40021 16.7933 5.57135C17.0683 5.74198 17.2003 6.05553 17.1533 6.35656C17.4324 6.23501 17.7695 6.28353 18.0043 6.50576C18.2391 6.72856 18.3058 7.06193 18.1994 7.34731C18.4973 7.28417 18.8177 7.39896 19.0034 7.66451C19.1891 7.92954 19.1876 8.26971 19.0264 8.52799C19.3306 8.52589 19.6212 8.70331 19.75 9.00017C19.8784 9.29754 19.8079 9.63096 19.5977 9.85165C19.8967 9.91113 20.1455 10.1433 20.2112 10.4605C20.2764 10.7777 20.1403 11.0892 19.8904 11.263C20.17 11.3815 20.3672 11.6584 20.3678 11.9819V11.9924V11.9992C20.3678 12.3226 20.1716 12.6002 19.8919 12.7197C20.1424 12.8924 20.2796 13.2039 20.2144 13.5211C20.1497 13.8383 19.9014 14.071 19.6024 14.1315C19.8132 14.3517 19.8847 14.6846 19.7568 14.9825C19.629 15.2799 19.3384 15.4578 19.0337 15.4562C19.1954 15.7145 19.198 16.0547 19.0128 16.3202C18.8276 16.5859 18.5078 16.7016 18.2099 16.639C18.3168 16.9239 18.2506 17.2578 18.0163 17.4811C17.7815 17.704 17.445 17.7529 17.1659 17.6324C17.2134 17.9329 17.0819 18.2471 16.8074 18.4187C16.533 18.5904 16.1928 18.5705 15.9434 18.3957C15.9293 18.7004 15.7373 18.9817 15.4337 19.0944C15.1301 19.2071 15.4337 19.0944 15.4332 19.0944C15.1295 19.2065 14.8008 19.1189 14.5916 18.8972C14.5165 19.1925 14.2713 19.4288 13.9509 19.4779C13.6311 19.5264 13.3269 19.3741 13.1668 19.1153C13.0395 19.3777 12.7703 19.5561 12.4635 19.5561C12.4504 19.5563 12.4373 19.5558 12.4243 19.5552V19.5552Z" fill="#F3F3F3"/>
<path d="M12.8026 17.217C15.6841 17.217 18.02 14.8811 18.02 11.9996C18.02 9.11814 15.6841 6.78224 12.8026 6.78224C9.9211 6.78224 7.58521 9.11814 7.58521 11.9996C7.58521 14.8811 9.9211 17.217 12.8026 17.217Z" fill="#338AF3"/>
<path d="M13.9447 10.2284C14.201 10.0382 14.3679 9.73435 14.3679 9.39066V8.86894C14.3679 8.29261 13.9008 7.82545 13.3244 7.82545H12.281C11.7047 7.82545 11.2375 8.29261 11.2375 8.86894V9.39066C11.2375 9.73435 11.4044 10.0382 11.6607 10.2284L10.7158 19.8254C10.7158 19.8254 11.2375 20.3472 12.8028 20.3472C14.368 20.3472 14.8897 19.8254 14.8897 19.8254L13.9447 10.2284Z" fill="#BDBCC1"/>
<path d="M12.8026 7.82545L13.7091 10.6154H16.6428L14.2695 12.3398L15.1759 15.1298L12.8026 13.4055L10.4293 15.1298L11.3359 12.3398L8.96254 10.6154H11.8961L12.8026 7.82545Z" fill="#F0F0F0"/>
</g>
<defs>
<clipPath id="clip0_6422_7820">
<rect width="24" height="24" fill="white" transform="translate(0.802734)"/>
</clipPath>
</defs>
</svg>
