<svg width="25" height="25" viewBox="0 0 25 25" fill="none" xmlns="http://www.w3.org/2000/svg">
<g clip-path="url(#clip0_6422_7857)">
<path d="M12.8027 24.7791C19.4302 24.7791 24.8027 19.4066 24.8027 12.7791C24.8027 6.15173 19.4302 0.779144 12.8027 0.779144C6.17532 0.779144 0.802734 6.15173 0.802734 12.7791C0.802734 19.4066 6.17532 24.7791 12.8027 24.7791Z" fill="#F0F0F0"/>
<path d="M12.8027 24.7793C19.4301 24.7793 24.8027 19.4067 24.8027 12.7793C24.8027 11.3115 24.5387 9.90536 24.0563 8.60542H1.54913C1.06678 9.90536 0.802734 11.3115 0.802734 12.7793C0.802734 19.4067 6.17536 24.7793 12.8027 24.7793Z" fill="#0052B4"/>
<path d="M12.8025 24.7791C17.9621 24.7791 22.3606 21.5226 24.0561 16.953H1.54889C3.2444 21.5226 7.64292 24.7791 12.8025 24.7791Z" fill="#D80027"/>
<path d="M3.9057 7.56157V13.5478C3.9057 16.953 8.35418 17.9964 8.35418 17.9964C8.35418 17.9964 12.8026 16.953 12.8026 13.5478V7.56157H3.9057Z" fill="#F0F0F0"/>
<path d="M4.94922 7.56157V13.5478C4.94922 13.9475 5.038 14.3251 5.21388 14.679H11.4945C11.6704 14.3251 11.7592 13.9475 11.7592 13.5478V7.56157H4.94922Z" fill="#D80027"/>
<path d="M10.4411 11.7358H8.87595V10.6923H9.91943V9.64886H8.87595V8.60542H7.83246V9.64886H6.78902V10.6923H7.83246V11.7358H6.26721V12.7793H7.83246V13.8228H8.87595V12.7793H10.4411V11.7358Z" fill="#F0F0F0"/>
<path d="M6.63689 16.1358C7.30931 16.5583 8.00015 16.8037 8.35383 16.9128C8.7075 16.8037 9.39834 16.5583 10.0708 16.1358C10.7489 15.7096 11.2242 15.2222 11.4941 14.6791C11.1964 14.4685 10.8332 14.3443 10.4408 14.3443C10.2979 14.3443 10.1591 14.3612 10.0257 14.3923C9.74287 13.7497 9.10092 13.3008 8.35387 13.3008C7.60683 13.3008 6.96483 13.7497 6.68208 14.3923C6.54862 14.3612 6.40978 14.3443 6.26695 14.3443C5.87456 14.3443 5.51133 14.4685 5.21362 14.6791C5.48339 15.2221 5.95875 15.7095 6.63689 16.1358Z" fill="#0052B4"/>
</g>
<defs>
<clipPath id="clip0_6422_7857">
<rect width="24" height="24" fill="white" transform="translate(0.802734 0.779297)"/>
</clipPath>
</defs>
</svg>
