<svg width="25" height="24" viewBox="0 0 25 24" fill="none" xmlns="http://www.w3.org/2000/svg">
<g clip-path="url(#clip0_6422_7782)">
<path d="M12.8027 24.0004C19.4301 24.0004 24.8027 18.6278 24.8027 12.0004C24.8027 5.37295 19.4301 0.000366211 12.8027 0.000366211C6.17529 0.000366211 0.802704 5.37295 0.802704 12.0004C0.802704 18.6278 6.17529 24.0004 12.8027 24.0004Z" fill="#F0F0F0"/>
<path d="M3.54578 4.36411H22.0599C21.3761 3.53606 20.583 2.80177 19.7032 2.18231H5.90251C5.02271 2.80167 4.22964 3.53602 3.54578 4.36411V4.36411Z" fill="#F0F0F0"/>
<path d="M0.802704 12.0001C0.802704 12.3679 0.820188 12.7316 0.852579 13.091H24.7528C24.7852 12.7316 24.8027 12.3679 24.8027 12.0001C24.8027 11.6323 24.7852 11.2686 24.7528 10.9092H0.852579C0.820188 11.2686 0.802704 11.6323 0.802704 12.0001H0.802704Z" fill="#F0F0F0"/>
<path d="M2.11127 17.4548H23.4941C23.8475 16.7636 24.1357 16.0337 24.3508 15.273H1.25458C1.46969 16.0337 1.75797 16.7636 2.11127 17.4548V17.4548Z" fill="#F0F0F0"/>
<path d="M5.90251 21.8186H19.7031C20.5829 21.1992 21.376 20.4649 22.0599 19.6368H3.54578C4.22964 20.4648 5.02271 21.1992 5.90251 21.8186V21.8186Z" fill="#F0F0F0"/>
<path d="M1.25458 8.72788H24.3509C24.1358 7.96719 23.8475 7.23725 23.4942 6.54608H2.11131C1.75802 7.23725 1.46973 7.96719 1.25458 8.72788V8.72788Z" fill="#F0F0F0"/>
<path d="M6.54166 2.1821H19.7028C17.751 0.807821 15.3711 0.000305176 12.8025 0.000305176C11.2373 0.000305176 8.49353 0.807821 6.54166 2.1821Z" fill="#D80027"/>
<path d="M12.2809 6.54587H23.4941C23.095 5.76526 22.6131 5.03406 22.0597 4.36407H12.2809V6.54587Z" fill="#D80027"/>
<path d="M12.2809 10.9097H24.7528C24.6853 10.1605 24.5496 9.43095 24.3508 8.72787H12.2809V10.9097Z" fill="#D80027"/>
<path d="M1.25436 15.2728H24.3506C24.5494 14.5698 24.6851 13.8402 24.7526 13.091H0.852356C0.919856 13.8402 1.05551 14.5698 1.25436 15.2728V15.2728Z" fill="#D80027"/>
<path d="M3.54537 19.6366H22.0595C22.6128 18.9665 23.0948 18.2354 23.4939 17.4548H2.11099C2.51004 18.2354 2.99201 18.9666 3.54537 19.6366V19.6366Z" fill="#D80027"/>
<path d="M12.8026 23.9998C15.3713 23.9998 17.7511 23.1922 19.703 21.818H5.90231C7.85419 23.1922 10.234 23.9998 12.8026 23.9998Z" fill="#D80027"/>
<path d="M1.25464 8.72737C1.0558 9.4305 0.920192 10.16 0.852692 10.9092H12.8028V9.15527e-05C7.31001 9.15527e-05 2.67927 3.69065 1.25464 8.72737V8.72737Z" fill="#0052B4"/>
<path d="M7.94584 3.13046L8.7228 5.52179H11.2375L9.20317 6.99985L9.98008 9.39132L7.94584 7.91335L5.91151 9.39132L6.68861 6.99985L4.65433 5.52179H7.16884L7.94584 3.13046Z" fill="#F0F0F0"/>
</g>
<defs>
<clipPath id="clip0_6422_7782">
<rect width="24" height="24" fill="white" transform="translate(0.802734)"/>
</clipPath>
</defs>
</svg>
