<svg width="25" height="25" viewBox="0 0 25 25" fill="none" xmlns="http://www.w3.org/2000/svg">
<g clip-path="url(#clip0_6422_7719)">
<path d="M11.7591 10.9863C11.7591 10.9863 4.32428 20.5168 4.31725 20.5151C6.48878 22.6866 9.48882 24.0298 12.8026 24.0298C19.4299 24.0298 24.8026 18.6572 24.8026 12.0298L11.7591 10.9863Z" fill="#338AF3"/>
<path d="M11.7591 12.0304C11.7591 12.0304 4.32428 3.54343 4.31725 3.54511C6.48878 1.37354 9.48882 0.0303802 12.8026 0.0303802C19.4299 0.0303802 24.8026 5.40301 24.8026 12.0304H11.7591Z" fill="#6DA544"/>
<path d="M4.31731 3.54502C-0.368973 8.2313 -0.368973 15.8293 4.31731 20.5156C4.31698 20.5176 24.8026 12.0303 24.8026 12.0303L4.31731 3.54502Z" fill="#D80027"/>
<path d="M7.06354 7.07349C4.76202 7.07349 2.88965 8.94591 2.88965 11.2474V12.8126C2.88965 15.1141 4.76207 16.9865 7.06354 16.9865C9.36501 16.9865 11.2374 15.114 11.2374 12.8126V11.2474C11.2375 8.94591 9.36505 7.07349 7.06354 7.07349ZM9.67223 12.8126C9.67223 13.9785 8.90338 14.968 7.84612 15.3012V13.5953L8.95349 12.4879L7.84673 11.3811L7.84612 10.9872V10.4648H6.28096V12.03L5.17434 13.1366L6.28096 14.2432V15.3013C5.2237 14.968 4.45485 13.9785 4.45485 12.8127V11.2475C4.45485 9.80902 5.62513 8.63878 7.06354 8.63878C8.50194 8.63878 9.67223 9.80906 9.67223 11.2475V12.8126Z" fill="#FFDA44"/>
</g>
<defs>
<clipPath id="clip0_6422_7719">
<rect width="24" height="24" fill="white" transform="translate(0.802734 0.0302734)"/>
</clipPath>
</defs>
</svg>
