<svg width="25" height="25" viewBox="0 0 25 25" fill="none" xmlns="http://www.w3.org/2000/svg">
<g clip-path="url(#clip0_6422_7870)">
<path d="M12.8028 24.7257C19.4302 24.7257 24.8028 19.3532 24.8028 12.7257C24.8028 6.09832 19.4302 0.725739 12.8028 0.725739C6.17536 0.725739 0.80278 6.09832 0.80278 12.7257C0.80278 19.3532 6.17536 24.7257 12.8028 24.7257Z" fill="#F0F0F0"/>
<path d="M24.0563 8.55142H1.54912C1.06683 9.85145 0.80278 11.2575 0.80278 12.7253C0.80278 14.1932 1.06683 15.5993 1.54912 16.8992H24.0564C24.5388 15.5993 24.8028 14.1932 24.8028 12.7253C24.8028 11.2575 24.5388 9.85145 24.0563 8.55142Z" fill="#A2001D"/>
<path d="M12.837 24.7255C16.9471 24.7255 20.5741 22.6586 22.7368 19.5081H2.93721C5.09993 22.6586 8.72683 24.7255 12.837 24.7255Z" fill="#6DA544"/>
<path d="M12.837 0.725128C16.9471 0.725128 20.5741 2.79194 22.7368 5.9425H2.93726C5.09997 2.79194 8.72688 0.725128 12.837 0.725128V0.725128Z" fill="#6DA544"/>
<path d="M12.8027 8.55142L13.8387 11.7399H17.1914L14.479 13.7107L15.5151 16.8992L12.8027 14.9286L10.0903 16.8992L11.1264 13.7107L8.41397 11.7399H11.7667L12.8027 8.55142Z" fill="#FFDA44"/>
</g>
<defs>
<clipPath id="clip0_6422_7870">
<rect width="24" height="24" fill="white" transform="translate(0.802734 0.725586)"/>
</clipPath>
</defs>
</svg>
