<svg width="25" height="24" viewBox="0 0 25 24" fill="none" xmlns="http://www.w3.org/2000/svg">
<g clip-path="url(#clip0_6422_7645)">
<path d="M24.8028 12C24.8028 18.6274 19.4302 24 12.8028 24C6.17547 24 0.802841 18.6274 0.802841 12C0.802841 12.0028 12.8028 0.00135938 12.8028 0C19.4302 0 24.8028 5.37263 24.8028 12Z" fill="#0052B4"/>
<path d="M12.7707 12.0016H12.8039C12.8039 11.9903 12.8039 11.9795 12.8039 11.9683C12.7929 11.9794 12.7818 11.9905 12.7707 12.0016Z" fill="#F0F0F0"/>
<path d="M12.8026 6.26086C12.8026 4.14937 12.8026 2.76577 12.8026 0H12.8006C6.17407 0.00107813 0.802567 5.37319 0.802567 12H7.06343V8.47439L10.589 12H12.7705C12.7812 11.9893 12.7919 11.9786 12.8026 11.9678C12.8026 11.1594 12.8026 10.438 12.8026 9.78647L9.277 6.26086H12.8026Z" fill="#F0F0F0"/>
<path d="M6.87355 1.56525C4.99672 2.63395 3.43644 4.19423 2.36774 6.07106V12H5.49819V4.69575V4.6957H12.8025C12.8025 3.70837 12.8025 2.76778 12.8025 1.56525H6.87355Z" fill="#D80027"/>
<path d="M12.8025 10.5247L8.53912 6.26131H7.06345C7.06345 6.26127 7.06345 6.26131 7.06345 6.26131L12.8025 12.0004H12.8025C12.8025 12.0004 12.8025 10.9829 12.8025 10.5247Z" fill="#D80027"/>
<path d="M8.03998 14.0868L8.69857 15.4639L10.1858 15.1202L9.51977 16.4937L10.7157 17.4421L9.22666 17.7777L9.23084 19.3042L8.03998 18.3492L6.84916 19.3042L6.85334 17.7777L5.36421 17.4421L6.56023 16.4937L5.89413 15.1202L7.38143 15.4639L8.03998 14.0868Z" fill="#F0F0F0"/>
<path d="M18.769 16.6958L19.0983 17.3843L19.842 17.2125L19.5089 17.8992L20.1069 18.3735L19.3624 18.5413L19.3644 19.3045L18.769 18.827L18.1736 19.3045L18.1757 18.5413L17.4312 18.3735L18.0292 17.8992L17.6962 17.2125L18.4397 17.3843L18.769 16.6958Z" fill="#F0F0F0"/>
<path d="M15.7057 9.39081L16.035 10.0794L16.7786 9.90746L16.4456 10.5942L17.0436 11.0685L16.2991 11.2363L16.3011 11.9995L15.7057 11.522L15.1103 11.9995L15.1123 11.2363L14.3678 11.0685L14.9658 10.5942L14.6328 9.90746L15.3764 10.0794L15.7057 9.39081Z" fill="#F0F0F0"/>
<path d="M18.769 5.21729L19.0983 5.90588L19.842 5.73399L19.509 6.42075L20.1069 6.89494L19.3624 7.0628L19.3644 7.82602L18.769 7.3485L18.1736 7.82602L18.1757 7.0628L17.4312 6.89494L18.0291 6.42075L17.6962 5.73399L18.4397 5.90588L18.769 5.21729Z" fill="#F0F0F0"/>
<path d="M21.445 8.3476L21.7742 9.03619L22.5178 8.86425L22.1848 9.55102L22.7828 10.0253L22.0383 10.1931L22.0403 10.9563L21.445 10.4788L20.8496 10.9563L20.8516 10.1931L20.1071 10.0253L20.705 9.55102L20.372 8.86425L21.1156 9.03619L21.445 8.3476Z" fill="#F0F0F0"/>
<path d="M19.5317 11.9998L19.7907 12.7969H20.6289L19.9508 13.2896L20.2099 14.0867L19.5317 13.5941L18.8536 14.0867L19.1126 13.2896L18.4345 12.7969H19.2727L19.5317 11.9998Z" fill="#F0F0F0"/>
</g>
<defs>
<clipPath id="clip0_6422_7645">
<rect width="24" height="24" fill="white" transform="translate(0.802734)"/>
</clipPath>
</defs>
</svg>
