<svg width="25" height="24" viewBox="0 0 25 24" fill="none" xmlns="http://www.w3.org/2000/svg">
<g clip-path="url(#clip0_6422_7800)">
<path d="M12.8027 24C19.4302 24 24.8027 18.6274 24.8027 12C24.8027 5.37258 19.4302 0 12.8027 0C6.17532 0 0.802734 5.37258 0.802734 12C0.802734 18.6274 6.17532 24 12.8027 24Z" fill="#338AF3"/>
<path d="M12.8027 5.21735L13.3207 6.81166H14.9971L13.6409 7.79702L14.1589 9.39128L12.8027 8.40597L11.4465 9.39128L11.9646 7.79702L10.6083 6.81166H12.2847L12.8027 5.21735Z" fill="#F0F0F0"/>
<path d="M6.02002 11.9998L7.61433 11.4818V9.80533L8.59969 11.1616L10.194 10.6436L9.20864 11.9998L10.194 13.3559L8.59969 12.8379L7.61433 14.1941V12.5178L6.02002 11.9998Z" fill="#F0F0F0"/>
<path d="M12.8028 18.7827L12.2848 17.1884H10.6083L11.9646 16.203L11.4466 14.6088L12.8028 15.5941L14.1589 14.6088L13.6409 16.203L14.9971 17.1884H13.3208L12.8028 18.7827Z" fill="#F0F0F0"/>
<path d="M19.5854 11.9997L17.9911 12.5177V14.1941L17.0057 12.8379L15.4115 13.3559L16.3968 11.9997L15.4115 10.6435L17.0057 11.1616L17.9911 9.80533V11.4817L19.5854 11.9997Z" fill="#F0F0F0"/>
</g>
<defs>
<clipPath id="clip0_6422_7800">
<rect width="24" height="24" fill="white" transform="translate(0.802734)"/>
</clipPath>
</defs>
</svg>
