<svg width="25" height="24" viewBox="0 0 25 24" fill="none" xmlns="http://www.w3.org/2000/svg">
<g clip-path="url(#clip0_6422_7803)">
<path d="M12.8028 24.0003C14.2706 24.0003 15.6767 23.7363 16.9767 23.2539L17.4984 12.0003L16.9767 0.746665C15.6767 0.264322 14.2706 0.000274658 12.8028 0.000274658C11.3349 0.000274658 9.92882 0.264322 8.62888 0.746665L8.10712 12.0003L8.62883 23.2539C9.92882 23.7363 11.3349 24.0003 12.8028 24.0003Z" fill="#0052B4"/>
<path d="M0.803101 12.0002C0.803101 17.1597 4.0596 21.5583 8.62921 23.2538V0.746552C4.0596 2.44207 0.803101 6.84058 0.803101 12.0002Z" fill="#A2001D"/>
<path d="M16.977 0.746552V23.2538C21.5466 21.5583 24.8031 17.1597 24.8031 12.0002C24.8031 6.84058 21.5466 2.44207 16.977 0.746552V0.746552Z" fill="#A2001D"/>
<path d="M6.54202 12.0004H7.58551V16.1743H6.54202V12.0004Z" fill="#FFDA44"/>
<path d="M2.36823 12.0004H3.41171V16.1743H2.36823V12.0004Z" fill="#FFDA44"/>
<path d="M4.97683 14.6087C5.55313 14.6087 6.02032 14.1415 6.02032 13.5652C6.02032 12.9889 5.55313 12.5217 4.97683 12.5217C4.40053 12.5217 3.93335 12.9889 3.93335 13.5652C3.93335 14.1415 4.40053 14.6087 4.97683 14.6087Z" fill="#FFDA44"/>
<path d="M4.97667 10.4349C5.26481 10.4349 5.49839 10.2013 5.49839 9.91317C5.49839 9.62503 5.26481 9.39145 4.97667 9.39145C4.68854 9.39145 4.45496 9.62503 4.45496 9.91317C4.45496 10.2013 4.68854 10.4349 4.97667 10.4349Z" fill="#FFDA44"/>
<path d="M3.93335 15.1307H6.02032V16.1742H3.93335V15.1307Z" fill="#FFDA44"/>
<path d="M3.93335 10.9566H6.02032V12.0001H3.93335V10.9566Z" fill="#FFDA44"/>
<path d="M4.97695 6.26117L5.34651 7.39836H6.5422L5.57493 8.1012L5.94421 9.23839L4.97695 8.53554L4.00973 9.23839L4.37901 8.1012L3.41174 7.39836H4.60743L4.97695 6.26117Z" fill="#FFDA44"/>
</g>
<defs>
<clipPath id="clip0_6422_7803">
<rect width="24" height="24" fill="white" transform="translate(0.802734)"/>
</clipPath>
</defs>
</svg>
