<svg width="25" height="25" viewBox="0 0 25 25" fill="none" xmlns="http://www.w3.org/2000/svg">
<g clip-path="url(#clip0_6422_7762)">
<path d="M12.8028 24.7255C19.4302 24.7255 24.8028 19.3529 24.8028 12.7255C24.8028 6.09805 19.4302 0.725464 12.8028 0.725464C6.17534 0.725464 0.802757 6.09805 0.802757 12.7255C0.802757 19.3529 6.17534 24.7255 12.8028 24.7255Z" fill="#338AF3"/>
<path d="M19.5853 12.8565H6.02008C6.02008 13.793 6.83575 14.5522 7.77217 14.5522H7.71574C7.71574 15.4887 8.47488 16.2478 9.41139 16.2478C9.41139 17.1843 10.1705 17.9435 11.107 17.9435H14.4984C15.4349 17.9435 16.194 17.1843 16.194 16.2478C17.1305 16.2478 17.8897 15.4887 17.8897 14.5522H17.8332C18.7696 14.5522 19.5853 13.793 19.5853 12.8565V12.8565Z" fill="#FFDA44"/>
<path d="M17.4985 10.6388C17.4985 13.2321 15.3961 15.3345 12.8028 15.3345C10.2094 15.3345 8.10714 13.2321 8.10714 10.6388" fill="#338AF3"/>
<path d="M16.3893 10.6391L14.9237 11.3285L15.7041 12.7478L14.1127 12.4434L13.9111 14.051L12.8026 12.8686L11.6941 14.051L11.4925 12.4434L9.90111 12.7477L10.6815 11.3284L9.21598 10.6391L10.6815 9.94972L9.90111 8.53039L11.4925 8.8348L11.6942 7.22717L12.8026 8.4096L13.9111 7.22717L14.1127 8.8348L15.7042 8.53039L14.9238 9.94977L16.3893 10.6391Z" fill="#FFDA44"/>
</g>
<defs>
<clipPath id="clip0_6422_7762">
<rect width="24" height="24" fill="white" transform="translate(0.802734 0.725586)"/>
</clipPath>
</defs>
</svg>
