<svg width="25" height="25" viewBox="0 0 25 25" fill="none" xmlns="http://www.w3.org/2000/svg">
<g clip-path="url(#clip0_6422_7853)">
<path d="M24.0562 16.9525C24.5386 15.6525 24.8026 14.2465 24.8026 12.7786C24.8026 11.3108 24.5386 9.9047 24.0562 8.60472L12.8026 7.56123L1.54902 8.60472C1.06663 9.9047 0.802628 11.3108 0.802628 12.7786C0.802628 14.2465 1.06663 15.6525 1.54902 16.9525L12.8026 17.996L24.0562 16.9525Z" fill="#F0F0F0"/>
<path d="M12.8024 24.7788C17.962 24.7788 22.3605 21.5223 24.056 16.9527H1.54877C3.24433 21.5223 7.6428 24.7788 12.8024 24.7788Z" fill="#338AF3"/>
<path d="M12.8024 0.779404C7.6428 0.779404 3.24433 4.0359 1.54877 8.60551H24.056C22.3605 4.0359 17.962 0.779404 12.8024 0.779404Z" fill="#6DA544"/>
</g>
<defs>
<clipPath id="clip0_6422_7853">
<rect width="24" height="24" fill="white" transform="translate(0.802734 0.779297)"/>
</clipPath>
</defs>
</svg>
