<svg width="25" height="25" viewBox="0 0 25 25" fill="none" xmlns="http://www.w3.org/2000/svg">
<g clip-path="url(#clip0_6422_7747)">
<path d="M12.8028 24.7255C19.4302 24.7255 24.8028 19.3529 24.8028 12.7255C24.8028 6.09808 19.4302 0.725494 12.8028 0.725494C6.17534 0.725494 0.802753 6.09808 0.802753 12.7255C0.802753 19.3529 6.17534 24.7255 12.8028 24.7255Z" fill="#D80027"/>
<path d="M14.0421 9.80313C13.7694 10.9375 13.2849 10.7211 13.0471 11.7104C11.6463 11.3736 10.7836 9.96499 11.1204 8.56413C11.4571 7.16337 12.8658 6.30068 14.2666 6.63748C13.791 8.61593 14.2861 8.78862 14.0421 9.80313Z" fill="#F0F0F0"/>
<path d="M10.4073 10.6441C11.4019 11.254 11.0464 11.648 11.9136 12.1799C11.1605 13.4081 9.55428 13.7932 8.32606 13.04C7.09789 12.2869 6.71272 10.6806 7.4659 9.45245C9.20056 10.5161 9.51767 10.0986 10.4073 10.6441V10.6441Z" fill="#F0F0F0"/>
<path d="M10.0835 14.3604C10.9709 13.603 11.2357 14.0628 12.0095 13.4023C12.9449 14.4981 12.8148 16.1448 11.719 17.0802C10.6232 18.0155 8.97657 17.8853 8.04132 16.7896C9.58885 15.4685 9.28974 15.0378 10.0835 14.3604Z" fill="#F0F0F0"/>
<path d="M13.5182 15.8171C13.0719 14.7391 13.5911 14.6292 13.2021 13.6892C14.5333 13.1383 16.0592 13.7708 16.6102 15.102C17.1611 16.4332 16.5285 17.9591 15.1973 18.51C14.4193 16.6299 13.9173 16.7813 13.5182 15.8171Z" fill="#F0F0F0"/>
<path d="M15.9651 13.0003C14.802 13.0916 14.8578 12.5638 13.8436 12.6434C13.731 11.2072 14.8042 9.95136 16.2405 9.83863C17.6767 9.72617 18.9325 10.7992 19.0451 12.2356C17.0165 12.3946 17.0053 12.9188 15.9651 13.0003Z" fill="#F0F0F0"/>
</g>
<defs>
<clipPath id="clip0_6422_7747">
<rect width="24" height="24" fill="white" transform="translate(0.802734 0.725586)"/>
</clipPath>
</defs>
</svg>
