<svg width="25" height="25" viewBox="0 0 25 25" fill="none" xmlns="http://www.w3.org/2000/svg">
<g clip-path="url(#clip0_6422_7854)">
<path d="M12.8026 24.7794C19.43 24.7794 24.8026 19.4068 24.8026 12.7794C24.8026 6.15197 19.43 0.779388 12.8026 0.779388C6.17519 0.779388 0.802612 6.15197 0.802612 12.7794C0.802612 19.4068 6.17519 24.7794 12.8026 24.7794Z" fill="#F0F0F0"/>
<path d="M0.802612 12.7794C0.802612 6.15201 6.17524 0.779388 12.8026 0.779388C19.43 0.779388 24.8026 6.15201 24.8026 12.7794" fill="#D80027"/>
<path d="M8.10672 7.04002C8.10672 5.29167 9.33546 3.83114 10.9763 3.47278C10.7241 3.41775 10.4625 3.38789 10.1936 3.38789C8.17657 3.38789 6.54147 5.02299 6.54147 7.04007C6.54147 9.05714 8.17657 10.6922 10.1936 10.6922C10.4624 10.6922 10.724 10.6624 10.9763 10.6073C9.33546 10.2489 8.10672 8.78841 8.10672 7.04002V7.04002Z" fill="#F0F0F0"/>
<path d="M12.8026 3.64854L13.0616 4.44565H13.8998L13.2216 4.93836L13.4807 5.73547L12.8026 5.24286L12.1245 5.73547L12.3835 4.93836L11.7054 4.44565H12.5435L12.8026 3.64854Z" fill="#F0F0F0"/>
<path d="M10.7693 5.21429L11.0283 6.01145H11.8665L11.1884 6.50411L11.4474 7.30122L10.7693 6.80861L10.0911 7.30122L10.3502 6.50411L9.67206 6.01145H10.5102L10.7693 5.21429Z" fill="#F0F0F0"/>
<path d="M14.8356 5.21429L15.0947 6.01145H15.9328L15.2547 6.50411L15.5138 7.30122L14.8356 6.80861L14.1575 7.30122L14.4166 6.50411L13.7385 6.01145H14.5766L14.8356 5.21429Z" fill="#F0F0F0"/>
<path d="M14.053 7.56137L14.3121 8.35853H15.1502L14.4721 8.85118L14.7311 9.64829L14.053 9.15568L13.3749 9.64829L13.634 8.85118L12.9559 8.35853H13.7939L14.053 7.56137Z" fill="#F0F0F0"/>
<path d="M11.5518 7.56137L11.8108 8.35853H12.649L11.9709 8.85118L12.23 9.64829L11.5518 9.15568L10.8737 9.64829L11.1327 8.85118L10.4546 8.35853H11.2928L11.5518 7.56137Z" fill="#F0F0F0"/>
</g>
<defs>
<clipPath id="clip0_6422_7854">
<rect width="24" height="24" fill="white" transform="translate(0.802734 0.779297)"/>
</clipPath>
</defs>
</svg>
