<svg width="25" height="25" viewBox="0 0 25 25" fill="none" xmlns="http://www.w3.org/2000/svg">
<g clip-path="url(#clip0_6422_7859)">
<path d="M21.2884 20.8956C25.7889 16.3951 25.9666 9.20985 21.8234 4.49615L12.8027 12.4099L4.88895 21.4306C9.60264 25.5738 16.7878 25.3961 21.2884 20.8956V20.8956Z" fill="#496E2D"/>
<path d="M4.31714 3.9244C8.81765 -0.576103 16.0029 -0.753806 20.7166 3.38942L12.8027 12.4101L3.78221 20.3238C-0.361068 15.6101 -0.183318 8.42491 4.31714 3.9244V3.9244Z" fill="#0052B4"/>
<path d="M20.7163 3.38889L3.78198 20.3233C3.95317 20.5181 4.13092 20.7091 4.31697 20.8951C4.50297 21.0811 4.69407 21.2588 4.88889 21.4301L21.8232 4.4957C21.652 4.30088 21.4742 4.10982 21.2881 3.92378C21.1022 3.73787 20.9111 3.56007 20.7163 3.38889V3.38889Z" fill="#FFDA44"/>
<path d="M5.85892 4.58359L6.118 5.38079H6.95617L6.27808 5.8734L6.53706 6.6706L5.85892 6.1779L5.18078 6.6706L5.43986 5.8734L4.76172 5.38079H5.59994L5.85892 4.58359Z" fill="#F0F0F0"/>
<path d="M10.1404 4.58359L10.3995 5.38079H11.2376L10.5595 5.8734L10.8186 6.6706L10.1404 6.1779L9.46227 6.6706L9.72135 5.8734L9.04321 5.38079H9.88138L10.1404 4.58359Z" fill="#F0F0F0"/>
<path d="M5.85892 8.75769L6.118 9.55489H6.95617L6.27808 10.0475L6.53706 10.8447L5.85892 10.352L5.18078 10.8447L5.43986 10.0475L4.76172 9.55489H5.59994L5.85892 8.75769Z" fill="#F0F0F0"/>
<path d="M10.1404 8.75769L10.3995 9.55489H11.2376L10.5595 10.0475L10.8186 10.8447L10.1404 10.352L9.46227 10.8447L9.72135 10.0475L9.04321 9.55489H9.88138L10.1404 8.75769Z" fill="#F0F0F0"/>
<path d="M7.99971 6.67062L8.25879 7.46782H9.09692L8.41882 7.96048L8.67785 8.75768L7.99971 8.26498L7.32157 8.75768L7.58061 7.96048L6.90247 7.46782H7.74068L7.99971 6.67062Z" fill="#F0F0F0"/>
</g>
<defs>
<clipPath id="clip0_6422_7859">
<rect width="24" height="24" fill="white" transform="translate(0.802734 0.410156)"/>
</clipPath>
</defs>
</svg>
