<svg width="25" height="25" viewBox="0 0 25 25" fill="none" xmlns="http://www.w3.org/2000/svg">
<g clip-path="url(#clip0_6422_7866)">
<path d="M12.8027 24.7257C19.4302 24.7257 24.8027 19.3532 24.8027 12.7257C24.8027 6.09832 19.4302 0.725739 12.8027 0.725739C6.17533 0.725739 0.802746 6.09832 0.802746 12.7257C0.802746 19.3532 6.17533 24.7257 12.8027 24.7257Z" fill="#F0F0F0"/>
<path d="M22.2287 10.3776H18.2808C18.2808 9.65722 17.6969 9.07324 16.9765 9.07324L15.933 11.1602C15.933 11.1602 17.0461 14.2906 17.0113 14.2906H18.3156C19.036 14.2906 19.6199 13.7067 19.6199 12.9863C20.3403 12.9863 20.9243 12.4024 20.9243 11.682H20.8808C21.6012 11.6819 22.2287 11.098 22.2287 10.3776Z" fill="#ACABB1"/>
<path d="M3.37646 10.3776H7.32428C7.32428 9.65725 7.90826 9.07327 8.62862 9.07327L9.67211 11.1602C9.67211 11.1602 8.55905 14.2907 8.59386 14.2907H7.28952C6.56912 14.2907 5.98518 13.7067 5.98518 12.9863C5.26478 12.9863 4.68085 12.4024 4.68085 11.682H4.72429C4.00389 11.6819 3.37646 11.098 3.37646 10.3776V10.3776Z" fill="#ACABB1"/>
<path d="M16.9765 17.4214V17.9432H8.62862V17.4214H6.54168V19.5084H8.62862V20.0301H16.9765V19.5084H19.0634V17.4214H16.9765Z" fill="#FFDA44"/>
<path d="M8.62856 9.07266V14.29C8.62856 17.485 12.8024 18.4639 12.8024 18.4639C12.8024 18.4639 16.9763 17.485 16.9763 14.29V9.07266L12.8024 8.55093L8.62856 9.07266Z" fill="#0052B4"/>
<path d="M8.62887 11.1602H16.9767V14.2906H8.62887V11.1602Z" fill="#D80027"/>
<path d="M14.8894 6.46473V7.24734L14.3677 7.50823L13.8459 6.98646V5.42123H11.759V6.98646L11.2373 7.50823L10.7155 7.24734V6.46473H8.62856V9.0734H16.9764V6.46473H14.8894Z" fill="#FFDA44"/>
</g>
<defs>
<clipPath id="clip0_6422_7866">
<rect width="24" height="24" fill="white" transform="translate(0.802734 0.725586)"/>
</clipPath>
</defs>
</svg>
