<svg width="25" height="25" viewBox="0 0 25 25" fill="none" xmlns="http://www.w3.org/2000/svg">
<g clip-path="url(#clip0_6422_7770)">
<path d="M12.8027 24.7255C19.4301 24.7255 24.8027 19.3529 24.8027 12.7255C24.8027 6.09805 19.4301 0.725464 12.8027 0.725464C6.17526 0.725464 0.802673 6.09805 0.802673 12.7255C0.802673 19.3529 6.17526 24.7255 12.8027 24.7255Z" fill="#F0F0F0"/>
<path d="M12.8028 0.726074C8.04522 0.726074 3.93447 3.49475 1.99347 7.5087H23.612C21.671 3.49475 17.5602 0.726074 12.8028 0.726074V0.726074Z" fill="#D80027"/>
<path d="M12.8028 24.7257C17.5603 24.7257 21.6711 21.9571 23.6121 17.9431H1.99353C3.93453 21.9571 8.04528 24.7257 12.8028 24.7257Z" fill="#D80027"/>
<path d="M15.9331 14.8128L12.8026 9.07367L9.67218 14.8128H12.02V16.378H13.5853V14.8128H15.9331Z" fill="#6DA544"/>
</g>
<defs>
<clipPath id="clip0_6422_7770">
<rect width="24" height="24" fill="white" transform="translate(0.802734 0.725586)"/>
</clipPath>
</defs>
</svg>
