<svg width="25" height="24" viewBox="0 0 25 24" fill="none" xmlns="http://www.w3.org/2000/svg">
<g clip-path="url(#clip0_6422_7660)">
<path d="M0.802689 12.0004C0.802689 17.16 4.05919 21.5585 8.6287 23.254L9.67224 12.0004L8.6287 0.746826C4.05919 2.44239 0.802689 6.84086 0.802689 12.0004Z" fill="#6DA544"/>
<path d="M24.803 12.0001C24.803 5.37269 19.4303 6.10352e-05 12.803 6.10352e-05C11.3351 6.10352e-05 9.92901 0.264108 8.62898 0.746452V23.2537C9.92901 23.7361 11.3351 24.0001 12.803 24.0001C19.4303 24.0001 24.803 18.6274 24.803 12.0001Z" fill="#D80027"/>
<path d="M8.62908 16.1741C10.9343 16.1741 12.803 14.3054 12.803 12.0002C12.803 9.69507 10.9343 7.82635 8.62908 7.82635C6.32391 7.82635 4.45519 9.69507 4.45519 12.0002C4.45519 14.3054 6.32391 16.1741 8.62908 16.1741Z" fill="#FFDA44"/>
<path d="M6.28129 9.91278V12.5215C6.28129 13.8181 7.33241 14.8693 8.62912 14.8693C9.92582 14.8693 10.9769 13.8182 10.9769 12.5215V9.91278H6.28129Z" fill="#D80027"/>
<path d="M8.62905 13.3046C8.19751 13.3046 7.84642 12.9535 7.84642 12.522V11.4785H9.41162V12.522C9.41162 12.9535 9.06053 13.3046 8.62905 13.3046Z" fill="#F0F0F0"/>
</g>
<defs>
<clipPath id="clip0_6422_7660">
<rect width="24" height="24" fill="white" transform="translate(0.802734)"/>
</clipPath>
</defs>
</svg>
