<svg width="25" height="25" viewBox="0 0 25 25" fill="none" xmlns="http://www.w3.org/2000/svg">
<g clip-path="url(#clip0_6422_7716)">
<path d="M12.8028 24.0304C19.4302 24.0304 24.8028 18.6578 24.8028 12.0304C24.8028 5.40295 19.4302 0.030365 12.8028 0.030365C6.1754 0.030365 0.802813 5.40295 0.802813 12.0304C0.802813 18.6578 6.1754 24.0304 12.8028 24.0304Z" fill="#F0F0F0"/>
<path d="M12.8026 0.0297546C8.04507 0.0297546 3.93432 2.79843 1.99332 6.81238H23.6118C21.6709 2.79843 17.5601 0.0297546 12.8026 0.0297546V0.0297546Z" fill="#0052B4"/>
<path d="M12.8025 24.0295C17.56 24.0295 21.6708 21.2608 23.6118 17.2469H1.99324C3.93424 21.2608 8.04499 24.0295 12.8025 24.0295Z" fill="#0052B4"/>
<path d="M10.3927 12.5519L12.8026 8.37797L15.2124 12.5519H10.3927Z" fill="#FFDA44"/>
<path d="M15.9332 13.9299L12.8028 15.4952L9.67233 13.9299V11.843H15.9332V13.9299Z" fill="#6DA544"/>
<path d="M15.754 8.55697L14.6473 9.66373C15.1194 10.1358 15.4114 10.788 15.4114 11.5084C15.4114 12.9491 14.2434 14.117 12.8027 14.117C11.362 14.117 10.194 12.9491 10.194 11.5084C10.194 10.788 10.486 10.1358 10.9581 9.66373L9.85135 8.55697C9.09596 9.31222 8.62881 10.3557 8.62881 11.5084C8.62881 13.8136 10.4975 15.6822 12.8027 15.6822C15.1079 15.6822 16.9766 13.8135 16.9766 11.5084C16.9765 10.3557 16.5094 9.31222 15.754 8.55697V8.55697Z" fill="#FFDA44"/>
</g>
<defs>
<clipPath id="clip0_6422_7716">
<rect width="24" height="24" fill="white" transform="translate(0.802734 0.0302734)"/>
</clipPath>
</defs>
</svg>
