<svg width="25" height="24" viewBox="0 0 25 24" fill="none" xmlns="http://www.w3.org/2000/svg">
<g clip-path="url(#clip0_6422_7779)">
<path d="M0.802635 12.0002C0.802635 5.37281 6.17526 0.000183105 12.8026 0.000183105C19.43 0.000183105 24.8026 5.37281 24.8026 12.0002C24.2809 12.0002 12.8026 13.5654 12.8026 13.5654L0.802635 12.0002Z" fill="#D80027"/>
<path d="M24.8026 12C24.8026 18.6273 19.43 24 12.8026 24C6.17525 24 0.802628 18.6273 0.802628 12" fill="black"/>
<path d="M11.1575 9.54448L12.1748 10.2828L11.7871 11.4784L12.8037 10.7389L13.821 11.4772L13.4319 10.2819L14.4483 9.54251L13.1914 9.54326L12.8022 8.34799L12.4145 9.54368L11.1575 9.54448Z" fill="#FFDA44"/>
<path d="M15.8027 6.80402C14.8571 6.25807 13.8231 6.00039 12.8027 6.00218V7.56705C13.5569 7.56569 14.3211 7.756 15.0201 8.1596C17.1378 9.38228 17.866 12.0999 16.6432 14.2176C15.4206 16.3353 12.703 17.0636 10.5853 15.8409C9.96829 15.4847 9.47024 15.001 9.10311 14.4429L7.79642 15.3056C8.29316 16.0607 8.96797 16.7144 9.80268 17.1963C12.6679 18.8505 16.3446 17.8653 17.9988 15.0002C19.653 12.135 18.6679 8.45824 15.8027 6.80402V6.80402Z" fill="#FFDA44"/>
<path d="M9.34314 10.957C8.9283 11.7154 9.20683 12.6665 9.96517 13.0813L15.0487 15.8592C14.703 16.4911 14.8866 17.2603 15.5185 17.606L16.8918 18.3571C17.5237 18.7029 18.3164 18.4708 18.6621 17.8388L19.4133 16.4656L9.34314 10.957Z" fill="#FFDA44"/>
</g>
<defs>
<clipPath id="clip0_6422_7779">
<rect width="24" height="24" fill="white" transform="translate(0.802734)"/>
</clipPath>
</defs>
</svg>
