<svg width="25" height="25" viewBox="0 0 25 25" fill="none" xmlns="http://www.w3.org/2000/svg">
<g clip-path="url(#clip0_6422_7706)">
<path d="M12.8028 24.8026C19.4302 24.8026 24.8028 19.43 24.8028 12.8026C24.8028 6.17518 19.4302 0.802593 12.8028 0.802593C6.17541 0.802593 0.802826 6.17518 0.802826 12.8026C0.802826 19.43 6.17541 24.8026 12.8028 24.8026Z" fill="#FCFCFC"/>
<path d="M19.5853 11.2366C19.2201 11.2366 18.7679 11.2366 18.0201 11.2366C18.0201 14.1181 15.6841 16.454 12.8027 16.454C9.92117 16.454 7.58535 14.1181 7.58535 11.2366C7.08097 11.2366 6.52442 11.2366 6.02014 11.2366C6.02014 14.3404 8.10495 16.9573 10.9507 17.7632C10.6387 18.3559 10.6863 19.1021 11.132 19.6583C11.7173 19.1891 12.3234 18.7035 12.8375 18.2915C13.3516 18.7035 13.9577 19.1892 14.543 19.6583C14.9931 19.0966 15.0374 18.3409 14.7151 17.7454C17.5297 16.9197 19.5853 14.3183 19.5853 11.2366V11.2366Z" fill="#6DA544"/>
<path d="M8.62881 10.7153C8.62881 10.7153 8.62881 13.324 11.2375 13.324L11.7592 13.8457H12.8027C12.8027 13.8457 13.3244 12.2805 14.3679 12.2805C14.3679 12.2805 14.3679 11.237 15.4114 11.237C16.4549 11.237 16.9766 11.237 16.9766 11.237C16.9766 11.237 16.4549 9.15003 19.0636 7.58483L18.0201 7.06311C18.0201 7.06311 14.3679 9.6718 11.7592 9.15008V10.1936H10.7157L10.194 9.67184L8.62881 10.7153Z" fill="#FFDA44"/>
</g>
<defs>
<clipPath id="clip0_6422_7706">
<rect width="24" height="24" fill="white" transform="translate(0.802734 0.802734)"/>
</clipPath>
</defs>
</svg>
