<svg width="25" height="25" viewBox="0 0 25 25" fill="none" xmlns="http://www.w3.org/2000/svg">
<g clip-path="url(#clip0_6422_7748)">
<path d="M1.549 8.55142C1.06665 9.85145 0.802605 11.2575 0.802605 12.7253C0.802605 14.1932 1.06665 15.5993 1.549 16.8992L12.8026 17.9427L24.0562 16.8992C24.5386 15.5993 24.8026 14.1932 24.8026 12.7253C24.8026 11.2575 24.5386 9.85145 24.0562 8.55142L12.8026 7.50793L1.549 8.55142Z" fill="#F0F0F0"/>
<path d="M12.8026 0.725464C7.64309 0.725464 3.24453 3.98196 1.54906 8.55157H24.0563C22.3607 3.98196 17.9622 0.725464 12.8026 0.725464V0.725464Z" fill="#D80027"/>
<path d="M12.8026 24.7248C17.9622 24.7248 22.3607 21.4684 24.0563 16.8987H1.54906C3.24453 21.4684 7.64309 24.7248 12.8026 24.7248V24.7248Z" fill="#6DA544"/>
</g>
<defs>
<clipPath id="clip0_6422_7748">
<rect width="24" height="24" fill="white" transform="translate(0.802734 0.725586)"/>
</clipPath>
</defs>
</svg>
