<svg width="25" height="25" viewBox="0 0 25 25" fill="none" xmlns="http://www.w3.org/2000/svg">
<g clip-path="url(#clip0_6422_7721)">
<path d="M0.802612 12.0301C0.802612 13.4981 1.06666 14.9041 1.54905 16.2042L12.8026 17.2475L24.0562 16.2041C24.5386 14.9041 24.8026 13.498 24.8026 12.0301C24.8026 10.5824 24.5462 9.19457 24.0763 7.90959L12.8026 6.81276L1.52889 7.90963C1.05907 9.19457 0.802612 10.5824 0.802612 12.0301H0.802612Z" fill="#FFDA44"/>
<path d="M12.803 24.0303C17.9626 24.0303 22.3611 20.7738 24.0566 16.2042H1.54938C3.24489 20.7738 7.64341 24.0303 12.803 24.0303Z" fill="#D80027"/>
<path d="M12.803 0.030304C7.64341 0.030304 3.24489 3.2868 1.54938 7.85641H24.0566C22.3611 3.2868 17.9626 0.030304 12.803 0.030304V0.030304Z" fill="#6DA544"/>
<path d="M12.8029 17.7691C15.9726 17.7691 18.5421 15.1996 18.5421 12.03C18.5421 8.86033 15.9726 6.29083 12.8029 6.29083C9.63328 6.29083 7.06378 8.86033 7.06378 12.03C7.06378 15.1996 9.63328 17.7691 12.8029 17.7691Z" fill="#0052B4"/>
<path d="M12.8013 7.58653L13.8373 10.7751H17.1953L14.4776 12.7457L15.5218 15.9437L12.8013 13.9637L10.085 15.9401L11.125 12.7457L8.40973 10.7751H11.7653L12.8013 7.58653Z" fill="#FFDA44"/>
<path d="M16.9333 12.8242L13.6466 11.7562L15.6778 8.96053L14.8337 8.34712L12.8024 11.1429L10.7712 8.34717L9.92702 8.96048L11.9582 11.7563L8.67166 12.8241L8.99407 13.8166L12.2808 12.7487V16.2045H13.3242V12.7487L16.6107 13.8166L16.9333 12.8242Z" fill="#FFDA44"/>
</g>
<defs>
<clipPath id="clip0_6422_7721">
<rect width="24" height="24" fill="white" transform="translate(0.802734 0.0302734)"/>
</clipPath>
</defs>
</svg>
