<svg width="25" height="24" viewBox="0 0 25 24" fill="none" xmlns="http://www.w3.org/2000/svg">
<g clip-path="url(#clip0_6422_7688)">
<path d="M24.8029 12C24.8029 10.5322 24.5389 9.12605 24.0565 7.82612L12.8029 7.30435L1.54925 7.82607C1.0669 9.12605 0.802856 10.5322 0.802856 12C0.802856 13.4679 1.0669 14.874 1.54925 16.1739L12.8029 16.6957L24.0565 16.1739C24.5389 14.874 24.8029 13.4679 24.8029 12Z" fill="#496E2D"/>
<path d="M12.8029 24C17.9625 24 22.361 20.7435 24.0565 16.1739H1.54932C3.24483 20.7435 7.64335 24 12.8029 24Z" fill="#D80027"/>
<path d="M1.54932 7.82609H24.0566C22.361 3.25648 17.9625 -1.52588e-05 12.8029 -1.52588e-05C7.64335 -1.52588e-05 3.24483 3.25648 1.54932 7.82609V7.82609Z" fill="#F0F0F0"/>
</g>
<defs>
<clipPath id="clip0_6422_7688">
<rect width="24" height="24" fill="white" transform="translate(0.802734)"/>
</clipPath>
</defs>
</svg>
