<svg width="25" height="24" viewBox="0 0 25 24" fill="none" xmlns="http://www.w3.org/2000/svg">
<g clip-path="url(#clip0_6422_7797)">
<path d="M12.8028 24C19.4302 24 24.8028 18.6274 24.8028 12C24.8028 5.37258 19.4302 0 12.8028 0C6.17535 0 0.802765 5.37258 0.802765 12C0.802765 18.6274 6.17535 24 12.8028 24Z" fill="#496E2D"/>
<path d="M12.8028 13.863C10.8047 13.863 9.13545 12.4587 8.72591 10.5835C8.663 10.8718 8.62888 11.1707 8.62888 11.4779C8.62888 13.7832 10.4975 15.6518 12.8028 15.6518C15.108 15.6518 16.9767 13.7832 16.9767 11.4779C16.9767 11.1707 16.9425 10.8718 16.8796 10.5835C16.4701 12.4588 14.8009 13.863 12.8028 13.863Z" fill="#FFDA44"/>
<path d="M12.8029 8.34756L13.1914 9.5433H14.4487L13.4316 10.2823L13.8201 11.478L12.8029 10.739L11.7857 11.478L12.1743 10.2823L11.1571 9.5433H12.4144L12.8029 8.34756Z" fill="#FFDA44"/>
</g>
<defs>
<clipPath id="clip0_6422_7797">
<rect width="24" height="24" fill="white" transform="translate(0.802734)"/>
</clipPath>
</defs>
</svg>
