<svg width="25" height="25" viewBox="0 0 25 25" fill="none" xmlns="http://www.w3.org/2000/svg">
<g clip-path="url(#clip0_6422_7737)">
<path d="M12.8028 24.4103C19.4302 24.4103 24.8028 19.0377 24.8028 12.4103C24.8028 5.78289 19.4302 0.410309 12.8028 0.410309C6.17541 0.410309 0.802826 5.78289 0.802826 12.4103C0.802826 19.0377 6.17541 24.4103 12.8028 24.4103Z" fill="#FFDA44"/>
<path d="M6.03934 2.49731C7.9652 1.18078 10.2939 0.410339 12.8028 0.410339C15.3117 0.410339 17.6404 1.18078 19.5662 2.49731L12.8028 3.01903L6.03934 2.49731Z" fill="#A2001D"/>
<path d="M12.803 12.4103L12.0372 11.6445L11.8338 12.0088L12.803 12.4103Z" fill="#0052B4"/>
<path d="M4.31723 3.92435C-0.369049 8.61063 -0.369049 16.2086 4.31723 20.895C6.25378 18.9584 8.11626 17.0959 12.8025 12.4097L4.31723 3.92435Z" fill="#496E2D"/>
<path d="M21.288 3.92441C25.9743 8.61069 25.9743 16.2087 21.288 20.895C19.3514 18.9585 17.489 17.096 12.8027 12.4097L21.288 3.92441Z" fill="#496E2D"/>
<path d="M12.803 16.5838C15.1082 16.5838 16.9769 14.7151 16.9769 12.4099C16.9769 10.1047 15.1082 8.23599 12.803 8.23599C10.4979 8.23599 8.62915 10.1047 8.62915 12.4099C8.62915 14.7151 10.4979 16.5838 12.803 16.5838Z" fill="#A2001D"/>
<path d="M12.8027 8.23608L13.7382 11.1156H16.7663L14.3167 12.8956L15.2523 15.7752L12.8027 13.9955L10.353 15.7752L11.2887 12.8956L8.83914 11.1156H11.867L12.8027 8.23608Z" fill="#FFDA44"/>
<path d="M12.8068 0.409698H12.7988C9.48693 0.410777 6.48876 1.75342 4.31812 3.92382H21.2875C19.1168 1.75342 16.1186 0.410777 12.8068 0.409698Z" fill="#A2001D"/>
<path d="M4.31802 20.896C6.48955 23.0672 9.48927 24.41 12.8026 24.41C16.116 24.41 19.1157 23.0672 21.2872 20.896H4.31802Z" fill="#A2001D"/>
<path d="M12.8028 1.71432L12.9971 2.31217H13.6257L13.1172 2.68168L13.3115 3.27953L12.8028 2.91006L12.2943 3.27953L12.4886 2.68168L11.9799 2.31217H12.6085L12.8028 1.71432Z" fill="#FFDA44"/>
<path d="M9.89302 1.71432L10.0873 2.31217H10.7159L10.2074 2.68168L10.4017 3.27953L9.89302 2.91006L9.38452 3.27953L9.57877 2.68168L9.07013 2.31217H9.69872L9.89302 1.71432Z" fill="#FFDA44"/>
<path d="M15.713 1.71432L15.9073 2.31217H16.5359L16.0273 2.68168L16.2216 3.27953L15.713 2.91006L15.2044 3.27953L15.3987 2.68168L14.8901 2.31217H15.5187L15.713 1.71432Z" fill="#FFDA44"/>
<path d="M12.8028 21.5404L12.9971 22.1382H13.6257L13.1172 22.5078L13.3115 23.1056L12.8028 22.7361L12.2943 23.1056L12.4886 22.5078L11.9799 22.1382H12.6085L12.8028 21.5404Z" fill="#FFDA44"/>
<path d="M9.89302 21.5404L10.0873 22.1382H10.7159L10.2074 22.5078L10.4017 23.1056L9.89302 22.7361L9.38452 23.1056L9.57877 22.5078L9.07013 22.1382H9.69872L9.89302 21.5404Z" fill="#FFDA44"/>
<path d="M15.713 21.5404L15.9073 22.1382H16.5359L16.0273 22.5078L16.2216 23.1056L15.713 22.7361L15.2044 23.1056L15.3987 22.5078L14.8901 22.1382H15.5187L15.713 21.5404Z" fill="#FFDA44"/>
<path d="M4.45928 12.2118C4.76748 12.6988 4.62264 13.3433 4.13565 13.6516C3.64872 13.9598 3.00409 13.815 2.69584 13.328C2.13779 12.4464 2.46137 11.0065 2.46137 11.0065C2.46137 11.0065 3.90118 11.3301 4.45928 12.2118V12.2118Z" fill="#FFDA44"/>
<path d="M3.85659 13.7324C4.14473 13.7324 4.37831 13.4988 4.37831 13.2107C4.37831 12.9225 4.14473 12.689 3.85659 12.689C3.56845 12.689 3.33487 12.9225 3.33487 13.2107C3.33487 13.4988 3.56845 13.7324 3.85659 13.7324Z" fill="#A2001D"/>
</g>
<defs>
<clipPath id="clip0_6422_7737">
<rect width="24" height="24" fill="white" transform="translate(0.802734 0.410156)"/>
</clipPath>
</defs>
</svg>
