<svg width="25" height="24" viewBox="0 0 25 24" fill="none" xmlns="http://www.w3.org/2000/svg">
<g clip-path="url(#clip0_6422_7904)">
<path d="M12.8028 24C19.4302 24 24.8028 18.6275 24.8028 12C24.8028 5.37262 19.4302 3.8147e-05 12.8028 3.8147e-05C6.1754 3.8147e-05 0.802813 5.37262 0.802813 12C0.802813 18.6275 6.1754 24 12.8028 24Z" fill="#F0F0F0"/>
<path d="M23.6536 6.87251C23.0439 5.58467 22.2118 4.42297 21.2068 3.43648L12.8022 2.60918L4.39747 3.43653C4.37065 3.46283 4.3445 3.48973 4.31797 3.51631L7.67422 6.87256L12.8022 7.02917L23.6536 6.87251Z" fill="#FFDA44"/>
<path d="M4.31797 20.4847C4.36212 20.5288 4.40619 20.573 4.451 20.6165L12.8023 21.3917L21.1535 20.6165C22.1689 19.6322 23.0111 18.4704 23.6293 17.1805L8.10659 16.696C6.77098 18.0317 5.23048 19.5721 4.31797 20.4847V20.4847Z" fill="#FFDA44"/>
<path d="M24.6835 10.3078L10.7159 9.91277L12.8028 11.9997C12.1847 12.6179 11.2619 13.5407 10.7159 14.0867L24.6762 13.7439C24.7591 13.1744 24.8028 12.5922 24.8028 11.9997C24.8028 11.4253 24.7616 10.8607 24.6835 10.3078V10.3078Z" fill="black"/>
<path d="M12.8025 4.57764e-05C9.52936 4.57764e-05 6.56283 1.31114 4.39786 3.43608H21.2072C19.0423 1.31114 16.0757 4.57764e-05 12.8025 4.57764e-05Z" fill="#6DA544"/>
<path d="M11.1105 10.3081H24.6831C24.5119 9.09507 24.1596 7.94035 23.6539 6.87212H7.67447L11.1105 10.3081Z" fill="#D80027"/>
<path d="M7.62234 17.1804H23.6296C24.1412 16.113 24.4991 14.9581 24.6759 13.7444H11.0584C9.72773 15.075 8.60001 16.2027 7.62234 17.1804Z" fill="#D80027"/>
<path d="M12.8028 24.0001C16.0491 24.0001 18.9938 22.7105 21.154 20.6162H4.45156C6.61174 22.7105 9.55643 24.0001 12.8028 24.0001Z" fill="#6DA544"/>
<path d="M5.08786 2.80937C4.82109 3.03353 4.5637 3.26851 4.31746 3.51465L12.8028 12L4.31746 20.4853C4.56365 20.7315 4.82109 20.9664 5.08786 21.1906L14.2784 12L5.08786 2.80937Z" fill="black"/>
<path d="M5.62739 8.86955L6.40435 11.2609H8.91896L6.88468 12.739L7.66168 15.1305L5.62739 13.6524L3.59307 15.1305L4.37016 12.739L2.33593 11.2609H4.85039L5.62739 8.86955Z" fill="#D80027"/>
<path d="M7.76465 12.1958L5.73974 11.4784C5.73974 11.4784 5.59012 10.0749 5.58107 10.0273C5.51235 9.66528 5.19421 9.39148 4.81218 9.39148C4.37999 9.39148 4.02955 9.74187 4.02955 10.1741C4.02955 10.2458 4.04001 10.3148 4.05805 10.3808L3.4903 10.9524H4.4998C4.4998 12.0002 3.71793 12.0002 3.71793 13.0437L4.15166 14.0871H6.76035L7.19516 13.0437H7.19498C7.23852 12.9435 7.26496 12.8403 7.27588 12.7371C7.65069 12.5855 7.76465 12.1958 7.76465 12.1958V12.1958Z" fill="#FFDA44"/>
</g>
<defs>
<clipPath id="clip0_6422_7904">
<rect width="24" height="24" fill="white" transform="translate(0.802734)"/>
</clipPath>
</defs>
</svg>
