<svg width="25" height="25" viewBox="0 0 25 25" fill="none" xmlns="http://www.w3.org/2000/svg">
<g clip-path="url(#clip0_6422_7848)">
<path d="M12.8027 24.7794C19.4301 24.7794 24.8027 19.4068 24.8027 12.7794C24.8027 6.152 19.4301 0.779419 12.8027 0.779419C6.17528 0.779419 0.802696 6.152 0.802696 12.7794C0.802696 19.4068 6.17528 24.7794 12.8027 24.7794Z" fill="#6DA544"/>
<path d="M7.58557 15.1275C7.58557 15.9919 8.28635 16.6927 9.15077 16.6927H13.8464C13.8464 17.4131 14.4304 17.997 15.1508 17.997H16.716C17.4364 17.997 18.0203 17.4131 18.0203 16.6927V15.1275H7.58557Z" fill="#F0F0F0"/>
<path d="M18.1508 7.56183V11.214C18.1508 11.7894 17.6827 12.2575 17.1073 12.2575V13.8227C18.5458 13.8227 19.716 12.6524 19.716 11.214V7.56183H18.1508Z" fill="#F0F0F0"/>
<path d="M6.93322 11.214C6.93322 11.7894 6.46513 12.2575 5.88974 12.2575V13.8227C7.32819 13.8227 8.49843 12.6524 8.49843 11.214V7.56186H6.93322V11.214Z" fill="#F0F0F0"/>
<path d="M15.8028 7.56183H17.368V11.214H15.8028V7.56183Z" fill="#F0F0F0"/>
<path d="M13.4552 9.6488C13.4552 9.79266 13.3382 9.90966 13.1944 9.90966C13.0506 9.90966 12.9335 9.79261 12.9335 9.6488V7.56183H11.3683V9.6488C11.3683 9.79266 11.2513 9.90966 11.1075 9.90966C10.9636 9.90966 10.8466 9.79261 10.8466 9.6488V7.56183H9.28134V9.6488C9.28134 10.6557 10.1005 11.4749 11.1075 11.4749C11.4952 11.4749 11.8549 11.353 12.1509 11.146C12.447 11.353 12.8066 11.4749 13.1944 11.4749C13.2725 11.4749 13.3493 11.4694 13.4248 11.4598C13.3139 11.9168 12.9023 12.2575 12.4118 12.2575V13.8227C13.8502 13.8227 15.0205 12.6524 15.0205 11.214V9.6488V7.56183H13.4553V9.6488H13.4552Z" fill="#F0F0F0"/>
<path d="M9.28134 12.2579H11.6292V13.8231H9.28134V12.2579Z" fill="#F0F0F0"/>
</g>
<defs>
<clipPath id="clip0_6422_7848">
<rect width="24" height="24" fill="white" transform="translate(0.802734 0.779297)"/>
</clipPath>
</defs>
</svg>
