<svg width="25" height="25" viewBox="0 0 25 25" fill="none" xmlns="http://www.w3.org/2000/svg">
<g clip-path="url(#clip0_6422_7863)">
<path d="M12.8026 24.41C19.4301 24.41 24.8026 19.0374 24.8026 12.41C24.8026 5.78259 19.4301 0.410004 12.8026 0.410004C6.17522 0.410004 0.802635 5.78259 0.802635 12.41C0.802635 19.0374 6.17522 24.41 12.8026 24.41Z" fill="#F0F0F0"/>
<path d="M16.9764 12.4102C16.9764 13.4536 15.1077 16.0623 12.8025 16.0623C10.4973 16.0623 8.6286 13.4536 8.6286 12.4102C8.6286 10.1049 10.4973 8.23627 12.8025 8.23627C15.1077 8.23627 16.9764 10.1049 16.9764 12.4102Z" fill="#D80027"/>
<path d="M16.9764 12.4098C16.9764 14.715 15.1077 16.5837 12.8025 16.5837C10.4973 16.5837 8.6286 14.715 8.6286 12.4098" fill="#0052B4"/>
<path d="M17.2262 16.0996L18.3328 14.993L19.0705 15.7308L17.9639 16.8374L17.2262 16.0996Z" fill="black"/>
<path d="M15.3815 17.9436L16.4881 16.837L17.2259 17.5748L16.1193 18.6814L15.3815 17.9436Z" fill="black"/>
<path d="M19.4398 18.3129L20.5464 17.2063L21.2841 17.9441L20.1775 19.0507L19.4398 18.3129Z" fill="black"/>
<path d="M17.5948 20.1569L18.7014 19.0503L19.4392 19.7881L18.3326 20.8947L17.5948 20.1569Z" fill="black"/>
<path d="M18.3328 17.2063L19.4394 16.0997L20.1772 16.8374L19.0706 17.944L18.3328 17.2063Z" fill="black"/>
<path d="M16.4885 19.0503L17.5951 17.9437L18.3328 18.6814L17.2262 19.788L16.4885 19.0503Z" fill="black"/>
<path d="M19.4445 8.72241L16.4935 5.77147L17.2313 5.03373L20.1822 7.98467L19.4445 8.72241Z" fill="black"/>
<path d="M16.4929 7.98505L15.3863 6.87845L16.124 6.14074L17.2306 7.24734L16.4929 7.98505Z" fill="black"/>
<path d="M18.3372 9.82968L17.2306 8.72308L17.9683 7.98537L19.0749 9.09197L18.3372 9.82968Z" fill="black"/>
<path d="M18.7062 5.77176L17.5996 4.66516L18.3373 3.92742L19.4439 5.03402L18.7062 5.77176Z" fill="black"/>
<path d="M20.5514 7.617L19.4448 6.51041L20.1826 5.77266L21.2892 6.87926L20.5514 7.617Z" fill="black"/>
<path d="M5.0565 17.2038L8.00744 20.1547L7.26969 20.8925L4.31875 17.9415L5.0565 17.2038Z" fill="black"/>
<path d="M8.00713 17.9411L9.11373 19.0477L8.37602 19.7854L7.26942 18.6788L8.00713 17.9411Z" fill="black"/>
<path d="M6.16283 16.0971L7.26942 17.2037L6.53168 17.9414L5.42508 16.8349L6.16283 16.0971Z" fill="black"/>
<path d="M7.26947 14.9905L10.2204 17.9414L9.48267 18.6792L6.53173 15.7282L7.26947 14.9905Z" fill="black"/>
<path d="M8.00713 4.6626L5.05619 7.61354L4.31845 6.87579L7.26939 3.92485L8.00713 4.6626Z" fill="black"/>
<path d="M9.11378 5.76926L6.16284 8.7202L5.4251 7.98245L8.37604 5.03151L9.11378 5.76926Z" fill="black"/>
<path d="M10.2214 6.87653L7.27043 9.82747L6.53272 9.08976L9.48366 6.13882L10.2214 6.87653Z" fill="black"/>
</g>
<defs>
<clipPath id="clip0_6422_7863">
<rect width="24" height="24" fill="white" transform="translate(0.802734 0.410156)"/>
</clipPath>
</defs>
</svg>
