<svg width="25" height="24" viewBox="0 0 25 24" fill="none" xmlns="http://www.w3.org/2000/svg">
<g clip-path="url(#clip0_6422_7658)">
<path d="M24.8027 12C24.8027 18.6274 19.4301 24 12.8027 24C6.17531 24 0.802689 18.6274 0.802689 12C0.802689 12.0029 12.8027 0.0013125 12.8027 0C19.4301 0 24.8027 5.37262 24.8027 12Z" fill="#0052B4"/>
<path d="M12.7708 12.001H12.804C12.804 11.9898 12.804 11.9789 12.804 11.9677C12.7929 11.9788 12.7819 11.9899 12.7708 12.001Z" fill="#F0F0F0"/>
<path d="M12.803 6.26086C12.803 4.14938 12.803 2.76586 12.803 0H12.801C6.17448 0.001125 0.802979 5.37323 0.802979 12H7.06384V8.47448L10.5894 12H12.7709C12.7816 11.9893 12.7923 11.9786 12.803 11.9679C12.803 11.1594 12.803 10.4381 12.803 9.78647L9.27742 6.26086H12.803Z" fill="#F0F0F0"/>
<path d="M6.87393 1.56537C4.9971 2.63407 3.43682 4.19435 2.36812 6.07118V12.0002H5.49857V4.69592V4.69582H12.8029C12.8029 3.70849 12.8029 2.7679 12.8029 1.56537H6.87393Z" fill="#D80027"/>
<path d="M12.8029 10.5242L8.5395 6.26074C8.5395 6.26074 7.06383 6.26084 7.06383 6.26074V6.26084L12.8029 11.9998H12.8029C12.8029 11.9998 12.8029 10.9823 12.8029 10.5242Z" fill="#D80027"/>
<path d="M21.584 8.9043L21.843 9.70145H22.6812L22.0031 10.1941L22.2621 10.9912L21.584 10.4986L20.9059 10.9912L21.1649 10.1941L20.4868 9.70145H21.325L21.584 8.9043Z" fill="#D80027"/>
<path d="M18.5878 14.6436L18.9763 15.8393H20.2336L19.2164 16.5783L19.605 17.774L18.5878 17.035L17.5706 17.774L17.9592 16.5783L16.942 15.8393H18.1993L18.5878 14.6436Z" fill="#D80027"/>
<path d="M18.701 5.25208L19.0248 6.24859H20.0725L19.2248 6.86429L19.5486 7.86076L18.701 7.24487L17.8534 7.86076L18.1771 6.86429L17.3295 6.24859H18.3772L18.701 5.25208Z" fill="#D80027"/>
<path d="M15.818 8.86975L16.2065 10.0655H17.4638L16.4466 10.8045L16.8352 12.0002L15.818 11.2612L14.8009 12.0002L15.1894 10.8045L14.1723 10.0655H15.4295L15.818 8.86975Z" fill="#D80027"/>
</g>
<defs>
<clipPath id="clip0_6422_7658">
<rect width="24" height="24" fill="white" transform="translate(0.802734)"/>
</clipPath>
</defs>
</svg>
