<svg width="25" height="25" viewBox="0 0 25 25" fill="none" xmlns="http://www.w3.org/2000/svg">
<g clip-path="url(#clip0_6422_7740)">
<path d="M12.8026 24.7256C19.4301 24.7256 24.8026 19.353 24.8026 12.7256C24.8026 6.09817 19.4301 0.725586 12.8026 0.725586C6.17523 0.725586 0.802643 6.09817 0.802643 12.7256C0.802643 19.353 6.17523 24.7256 12.8026 24.7256Z" fill="#F0F0F0"/>
<path d="M24.7011 11.1604H14.3679H14.3679V0.827164C13.8555 0.760461 13.3331 0.725586 12.8026 0.725586C12.2722 0.725586 11.7498 0.760461 11.2374 0.827164V11.1604H0.904221C0.837518 11.6727 0.802643 12.1951 0.802643 12.7256C0.802643 13.2561 0.837518 13.7784 0.904221 14.2908H11.2373H11.2374V24.624C11.7498 24.6907 12.2722 24.7256 12.8026 24.7256C13.3331 24.7256 13.8555 24.6908 14.3678 24.624V14.2909V14.2908H24.7011C24.7678 13.7784 24.8026 13.2561 24.8026 12.7256C24.8026 12.1951 24.7678 11.6727 24.7011 11.1604V11.1604Z" fill="#D80027"/>
<path d="M16.1941 13.2475L16.9767 13.7693V11.6823L16.1941 12.2041H13.3245V9.33446L13.8463 8.55188H11.7593L12.2811 9.33446V12.2041H9.41148L8.62891 11.6823V13.7693L9.41148 13.2475H12.2811V16.1171L11.7593 16.8997H13.8463L13.3245 16.1171V13.2475H16.1941Z" fill="#FFDA44"/>
</g>
<defs>
<clipPath id="clip0_6422_7740">
<rect width="24" height="24" fill="white" transform="translate(0.802734 0.725586)"/>
</clipPath>
</defs>
</svg>
