<svg width="25" height="25" viewBox="0 0 25 25" fill="none" xmlns="http://www.w3.org/2000/svg">
<g clip-path="url(#clip0_6422_7769)">
<path d="M12.8026 24.7255C19.4301 24.7255 24.8026 19.3529 24.8026 12.7255C24.8026 6.09805 19.4301 0.725464 12.8026 0.725464C6.17523 0.725464 0.802643 6.09805 0.802643 12.7255C0.802643 19.3529 6.17523 24.7255 12.8026 24.7255Z" fill="#F0F0F0"/>
<path d="M12.8029 0.725342C7.25853 0.725342 2.59325 4.4857 1.21625 9.59489H24.3895C23.0125 4.4857 18.3472 0.725342 12.8029 0.725342Z" fill="#A2001D"/>
<path d="M12.8029 24.7256C18.3472 24.7256 23.0125 20.9652 24.3895 15.856H1.21625C2.59325 20.9652 7.25853 24.7256 12.8029 24.7256Z" fill="#A2001D"/>
</g>
<defs>
<clipPath id="clip0_6422_7769">
<rect width="24" height="24" fill="white" transform="translate(0.802734 0.725586)"/>
</clipPath>
</defs>
</svg>
