<?xml version="1.0" encoding="UTF-8"?>
<svg width="52px" height="52px" viewBox="0 0 52 52" version="1.1" xmlns="http://www.w3.org/2000/svg" xmlns:xlink="http://www.w3.org/1999/xlink">
    <!-- Generator: Sketch 61.2 (89653) - https://sketch.com -->
    <title>Group 2</title>
    <desc>Created with Sketch.</desc>
    <g id="Page-1" stroke="none" stroke-width="1" fill="none" fill-rule="evenodd">
        <g id="Artboard" transform="translate(-122.000000, -95.000000)">
            <g id="Group-2" transform="translate(125.000000, 98.000000)">
                <circle id="Oval" stroke="#FF9000" stroke-width="2.646" fill="#FFFFFF" cx="22.932" cy="22.932" r="24.255"></circle>
                <g id="Icons/Fanclub" transform="translate(6.874000, 7.938000)" fill="#FF9000" fill-rule="nonzero">
                    <path d="M23.11575,4.07925 L9.6134325,4.07925 L2.7195,12.2514848 L16.317,29.7634167 L29.9145,12.3483842 L23.11575,4.07925 Z M19.2778556,13.418947 L16.317,22.5706825 L13.3561444,13.418947 L19.2778556,13.418947 L19.2778556,13.418947 Z M14.0790781,11.0840227 L16.3102012,8.26810409 L18.5084637,11.0840227 L14.0790781,11.0840227 Z M20.4381756,9.83133587 L17.7707994,6.41417424 L21.5441056,6.41417424 L20.4381756,9.83133587 L20.4381756,9.83133587 Z M12.1822269,9.78813977 L11.0898944,6.41417424 L14.8541356,6.41417424 L12.1822269,9.78813977 Z M10.2128556,11.0840227 L6.70696687,11.0840227 L9.24063437,8.08014269 L10.2128556,11.0840227 Z M10.9675169,13.418947 L14.1402669,23.2221264 L6.52793312,13.418947 L10.9675169,13.418947 L10.9675169,13.418947 Z M21.6664831,13.418947 L26.170655,13.418947 L18.4801356,23.2688249 L21.6664831,13.418947 L21.6664831,13.418947 Z M22.4211444,11.0840227 L23.4046969,8.04395136 L25.9043706,11.0840227 L22.4211444,11.0840227 Z" id="Shape"></path>
                </g>
            </g>
        </g>
    </g>
</svg>