<svg width="25" height="24" viewBox="0 0 25 24" fill="none" xmlns="http://www.w3.org/2000/svg">
<g clip-path="url(#clip0_6422_7667)">
<path d="M24.8026 11.9999C24.8026 10.5321 24.5386 9.12599 24.0562 7.82606L12.8026 7.30429L1.54899 7.82601C1.06664 9.12599 0.802597 10.5321 0.802597 11.9999C0.802597 13.4678 1.06664 14.8739 1.54899 16.1738L12.8026 16.6956L24.0562 16.1739C24.5386 14.8739 24.8026 13.4678 24.8026 11.9999Z" fill="#D80027"/>
<path d="M12.8027 23.9999C17.9622 23.9999 22.3608 20.7434 24.0563 16.1738H1.54906C3.24457 20.7434 7.64309 23.9999 12.8027 23.9999Z" fill="#6DA544"/>
<path d="M1.54906 7.82602H24.0563C22.3608 3.25641 17.9622 -9.15527e-05 12.8027 -9.15527e-05C7.64309 -9.15527e-05 3.24457 3.25641 1.54906 7.82602V7.82602Z" fill="#338AF3"/>
<path d="M13.0633 15.3917C11.1904 15.3917 9.67199 13.8733 9.67199 12.0004C9.67199 10.1274 11.1904 8.60904 13.0633 8.60904C13.6473 8.60904 14.1968 8.7567 14.6765 9.01667C13.9239 8.28068 12.8947 7.82642 11.759 7.82642C9.45374 7.82642 7.58507 9.69513 7.58507 12.0003C7.58507 14.3055 9.45379 16.1742 11.759 16.1742C12.8947 16.1742 13.9239 15.7199 14.6765 14.9839C14.1968 15.244 13.6473 15.3917 13.0633 15.3917Z" fill="#F0F0F0"/>
<path d="M15.6721 9.65283L16.1213 10.9162L17.3323 10.3404L16.7566 11.5514L18.02 12.0007L16.7566 12.4499L17.3323 13.6609L16.1213 13.0852L15.6721 14.3485L15.223 13.0852L14.012 13.6609L14.5877 12.4499L13.3243 12.0007L14.5877 11.5514L14.012 10.3404L15.223 10.9162L15.6721 9.65283Z" fill="#F0F0F0"/>
</g>
<defs>
<clipPath id="clip0_6422_7667">
<rect width="24" height="24" fill="white" transform="translate(0.802734)"/>
</clipPath>
</defs>
</svg>
