<svg width="25" height="25" viewBox="0 0 25 25" fill="none" xmlns="http://www.w3.org/2000/svg">
<g clip-path="url(#clip0_6422_7742)">
<path d="M16.9764 1.47221C15.6763 0.989816 14.2702 0.725769 12.8023 0.725769C11.3345 0.725769 9.92848 0.989816 8.62855 1.47211L8.10678 12.7258L8.6285 23.9794C9.92848 24.4618 11.3345 24.7258 12.8023 24.7258C14.2703 24.7258 15.6763 24.4618 16.9764 23.9793L17.4981 12.7258L16.9764 1.47221Z" fill="#FFDA44"/>
<path d="M0.802719 12.7256C0.802719 17.8851 4.05922 22.2836 8.62883 23.9791V1.47189C4.05922 3.16746 0.802719 7.56593 0.802719 12.7256Z" fill="#D80027"/>
<path d="M24.8024 12.7256C24.8024 7.56593 21.5459 3.16746 16.9763 1.47189V23.9792C21.5459 22.2836 24.8024 17.8851 24.8024 12.7256Z" fill="#6DA544"/>
</g>
<defs>
<clipPath id="clip0_6422_7742">
<rect width="24" height="24" fill="white" transform="translate(0.802734 0.725586)"/>
</clipPath>
</defs>
</svg>
