<svg width="25" height="24" viewBox="0 0 25 24" fill="none" xmlns="http://www.w3.org/2000/svg">
<g clip-path="url(#clip0_6422_7652)">
<path d="M0.802834 12.0001C0.802834 5.37269 6.17546 6.10352e-05 12.8028 6.10352e-05C19.4302 6.10352e-05 24.8028 5.37269 24.8028 12.0001L12.8028 13.0435L0.802834 12.0001Z" fill="#FFDA44"/>
<path d="M2.40849 17.9998C4.48341 21.5865 8.3611 23.9998 12.8027 23.9998C17.2444 23.9998 21.1221 21.5865 23.197 17.9998L12.8027 17.2172L2.40849 17.9998Z" fill="#D80027"/>
<path d="M23.1971 17.9998C24.2181 16.2348 24.8028 14.1856 24.8028 11.9998H0.802845C0.802845 14.1856 1.38756 16.2348 2.40859 17.9998H23.1971Z" fill="#0052B4"/>
</g>
<defs>
<clipPath id="clip0_6422_7652">
<rect width="24" height="24" fill="white" transform="translate(0.802734)"/>
</clipPath>
</defs>
</svg>
