<svg width="25" height="25" viewBox="0 0 25 25" fill="none" xmlns="http://www.w3.org/2000/svg">
<g clip-path="url(#clip0_6422_7726)">
<path d="M12.8028 24.7791C19.4302 24.7791 24.8028 19.4066 24.8028 12.7791C24.8028 6.15173 19.4302 0.779144 12.8028 0.779144C6.17539 0.779144 0.802811 6.15173 0.802811 12.7791C0.802811 19.4066 6.17539 24.7791 12.8028 24.7791Z" fill="#F0F0F0"/>
<path d="M24.7012 11.2138H10.1942H10.1941V1.06425C9.08517 1.31016 8.03381 1.70874 7.06369 2.2381V11.2137V11.2138H0.904404C0.837607 11.7262 0.802826 12.2485 0.802826 12.779C0.802826 13.3095 0.837607 13.8319 0.904404 14.3442H7.06364H7.06369V23.3199C8.03381 23.8492 9.08517 24.2479 10.1941 24.4937V14.3444V14.3443H24.7012C24.768 13.8319 24.8028 13.3095 24.8028 12.779C24.8028 12.2485 24.768 11.7262 24.7012 11.2138V11.2138Z" fill="#0052B4"/>
</g>
<defs>
<clipPath id="clip0_6422_7726">
<rect width="24" height="24" fill="white" transform="translate(0.802734 0.779297)"/>
</clipPath>
</defs>
</svg>
