<svg width="25" height="24" viewBox="0 0 25 24" fill="none" xmlns="http://www.w3.org/2000/svg">
<g clip-path="url(#clip0_6422_7689)">
<path d="M0.802628 12C0.802628 5.37261 6.17525 -1.52588e-05 12.8026 -1.52588e-05C19.43 -1.52588e-05 24.8026 5.37261 24.8026 12C24.2809 12 12.8026 13.5652 12.8026 13.5652L0.802628 12Z" fill="#D80027"/>
<path d="M24.8026 11.9998C24.8026 18.6271 19.43 23.9998 12.8026 23.9998C6.17524 23.9998 0.802612 18.6271 0.802612 11.9998" fill="#6DA544"/>
<path d="M12.8025 7.82628L13.709 10.6162H16.6427L14.2694 12.3405L15.1758 15.1306L12.8025 13.4063L10.4292 15.1306L11.3358 12.3405L8.9624 10.6162H11.896L12.8025 7.82628Z" fill="#FFDA44"/>
</g>
<defs>
<clipPath id="clip0_6422_7689">
<rect width="24" height="24" fill="white" transform="translate(0.802734)"/>
</clipPath>
</defs>
</svg>
