<svg width="25" height="25" viewBox="0 0 25 25" fill="none" xmlns="http://www.w3.org/2000/svg">
<g clip-path="url(#clip0_6422_7736)">
<path d="M0.802841 12.4103C0.802841 5.78293 6.17547 0.410309 12.8028 0.410309C19.4302 0.410309 24.8028 5.78293 24.8028 12.4103C24.2811 12.4103 12.8028 13.9755 12.8028 13.9755L0.802841 12.4103Z" fill="#F0F0F0"/>
<path d="M24.8029 12.4101C24.8029 19.0375 19.4302 24.4101 12.8029 24.4101C6.17548 24.4101 0.802856 19.0375 0.802856 12.4101" fill="#D80027"/>
<path d="M9.15034 18.1492C12.32 18.1492 14.8895 15.5796 14.8895 12.41C14.8895 9.24037 12.32 6.67087 9.15034 6.67087C5.9807 6.67087 3.41119 9.24037 3.41119 12.41C3.41119 15.5796 5.9807 18.1492 9.15034 18.1492Z" fill="#F0F0F0"/>
<path d="M3.41119 12.41C3.41119 9.24046 5.98069 6.67087 9.15034 6.67087C12.32 6.67087 14.8895 9.24042 14.8895 12.41" fill="#D80027"/>
</g>
<defs>
<clipPath id="clip0_6422_7736">
<rect width="24" height="24" fill="white" transform="translate(0.802734 0.410156)"/>
</clipPath>
</defs>
</svg>
