<svg width="25" height="25" viewBox="0 0 25 25" fill="none" xmlns="http://www.w3.org/2000/svg">
<g clip-path="url(#clip0_6422_7714)">
<path d="M0.80278 12.0304C0.80278 5.40302 6.17541 0.0303955 12.8028 0.0303955C19.4302 0.0303955 24.8028 5.40302 24.8028 12.0304L12.8028 13.0739L0.80278 12.0304Z" fill="#FFDA44"/>
<path d="M2.4084 18.0301C4.48332 21.6168 8.36101 24.0301 12.8027 24.0301C17.2443 24.0301 21.122 21.6168 23.1969 18.0301L12.8027 17.2475L2.4084 18.0301Z" fill="#D80027"/>
<path d="M23.197 18.0302C24.218 16.2651 24.8028 14.216 24.8028 12.0302H0.802757C0.802757 14.216 1.38748 16.2651 2.40851 18.0302H23.197Z" fill="#0052B4"/>
<path d="M12.8029 16.2045C15.1081 16.2045 16.9768 14.3357 16.9768 12.0306C16.9768 9.72539 15.1081 7.85667 12.8029 7.85667C10.4978 7.85667 8.62906 9.72539 8.62906 12.0306C8.62906 14.3357 10.4978 16.2045 12.8029 16.2045Z" fill="#FFDA44"/>
<path d="M12.8029 14.6393C11.3644 14.6393 10.1942 13.469 10.1942 12.0306V10.4654C10.1942 9.02691 11.3645 7.85667 12.8029 7.85667C14.2413 7.85667 15.4116 9.02695 15.4116 10.4654V12.0306C15.4116 13.469 14.2413 14.6393 12.8029 14.6393Z" fill="#338AF3"/>
<path d="M16.9766 5.76927H13.8462C13.8462 5.19299 13.379 4.72578 12.8027 4.72578C12.2264 4.72578 11.7592 5.19299 11.7592 5.76927H8.62875C8.62875 6.3456 9.13073 6.81275 9.70696 6.81275H9.67223C9.67223 7.38908 10.1394 7.85624 10.7157 7.85624C10.7157 8.43257 11.1829 8.89972 11.7592 8.89972H13.8462C14.4225 8.89972 14.8897 8.43257 14.8897 7.85624C15.466 7.85624 15.9331 7.38908 15.9331 6.81275H15.8984C16.4747 6.81275 16.9766 6.34555 16.9766 5.76927V5.76927Z" fill="black"/>
</g>
<defs>
<clipPath id="clip0_6422_7714">
<rect width="24" height="24" fill="white" transform="translate(0.802734 0.0302734)"/>
</clipPath>
</defs>
</svg>
