<svg width="25" height="24" viewBox="0 0 25 24" fill="none" xmlns="http://www.w3.org/2000/svg">
<g clip-path="url(#clip0_6422_7683)">
<path d="M1.36945 8.348C1.00186 9.49967 0.802779 10.7265 0.802826 12.0002C0.802779 13.2737 1.00186 14.5006 1.3695 15.6523L12.8028 16.1742L24.2361 15.6523C24.6037 14.5006 24.8028 13.2737 24.8028 12.0002C24.8028 10.7266 24.6037 9.49967 24.2361 8.348L12.8028 7.82628L1.36945 8.348Z" fill="#F0F0F0"/>
<path d="M24.8028 11.9997C24.8028 11.2878 24.7405 10.5905 24.6216 9.9127H0.984138C0.86517 10.5905 0.802826 11.2877 0.802826 11.9997C0.802826 12.7116 0.865217 13.4088 0.984138 14.0866H24.6216C24.7404 13.4088 24.8028 12.7116 24.8028 11.9997Z" fill="black"/>
<path d="M12.8026 23.9998C18.1565 23.9998 22.6907 20.4934 24.2359 15.6519H1.36926C2.9145 20.4934 7.44876 23.9997 12.8026 23.9998V23.9998Z" fill="#338AF3"/>
<path d="M12.8027 -3.05157e-05C7.44889 -3.05157e-05 2.91467 3.50636 1.36934 8.3477L24.2359 8.34775C22.6908 3.50636 18.1565 -0.000124266 12.8027 -3.05157e-05V-3.05157e-05Z" fill="#338AF3"/>
</g>
<defs>
<clipPath id="clip0_6422_7683">
<rect width="24" height="24" fill="white" transform="translate(0.802734)"/>
</clipPath>
</defs>
</svg>
