<svg width="25" height="24" viewBox="0 0 25 24" fill="none" xmlns="http://www.w3.org/2000/svg">
<g clip-path="url(#clip0_6422_7818)">
<path d="M12.8028 24C19.4302 24 24.8028 18.6274 24.8028 12C24.8028 5.37257 19.4302 -1.52588e-05 12.8028 -1.52588e-05C6.17541 -1.52588e-05 0.802826 5.37257 0.802826 12C0.802826 18.6274 6.17541 24 12.8028 24Z" fill="#F0F0F0"/>
<path d="M12.8027 -1.52588e-05C9.16559 -1.52588e-05 5.9067 1.6183 3.70605 4.17388H21.8992C19.6986 1.6183 16.4397 -1.52588e-05 12.8027 -1.52588e-05V-1.52588e-05Z" fill="#0052B4"/>
<path d="M21.8993 19.826H3.70609C5.90673 22.3816 9.16562 23.9999 12.8027 23.9999C16.4398 23.9999 19.6987 22.3816 21.8993 19.826Z" fill="#0052B4"/>
<path d="M23.0415 5.73923H2.56411C1.44712 7.56196 0.802826 9.7057 0.802826 12.0001C0.802826 14.2945 1.44712 16.4383 2.56411 18.2609H23.0415C24.1585 16.4383 24.8028 14.2945 24.8028 12.0001C24.8028 9.7057 24.1585 7.56196 23.0415 5.73923Z" fill="#D80027"/>
<path d="M8.18525 16.6176C10.7354 16.6176 12.8026 14.5504 12.8026 12.0002C12.8026 9.45014 10.7354 7.38287 8.18525 7.38287C5.63514 7.38287 3.56787 9.45014 3.56787 12.0002C3.56787 14.5504 5.63514 16.6176 8.18525 16.6176Z" fill="#F0F0F0"/>
<path d="M8.18525 7.38287L9.22123 10.5714H12.5793L9.86159 12.5421L10.9057 15.7401L8.18525 13.76L5.46894 15.7364L6.50891 12.5421L3.79367 10.5714H7.14922L8.18525 7.38287Z" fill="#D80027"/>
</g>
<defs>
<clipPath id="clip0_6422_7818">
<rect width="24" height="24" fill="white" transform="translate(0.802734)"/>
</clipPath>
</defs>
</svg>
