<svg width="25" height="25" viewBox="0 0 25 25" fill="none" xmlns="http://www.w3.org/2000/svg">
<g clip-path="url(#clip0_6422_7720)">
<path d="M0.802856 12.0304C0.802856 13.4983 1.0669 14.9043 1.54925 16.2043L12.8029 16.7261L24.0565 16.2043C24.5389 14.9043 24.8029 13.4983 24.8029 12.0304C24.8029 10.5626 24.5389 9.1565 24.0565 7.85652L12.8029 7.33475L1.54925 7.85647C1.0669 9.1565 0.802856 10.5626 0.802856 12.0304H0.802856Z" fill="black"/>
<path d="M12.8032 0.0303802C7.64365 0.0303802 3.24514 3.28688 1.54962 7.85649H24.0569C22.3613 3.28688 17.9628 0.0303802 12.8032 0.0303802V0.0303802Z" fill="#0052B4"/>
<path d="M24.0568 16.2036H1.54962C3.24514 20.7732 7.64365 24.0298 12.8032 24.0298C17.9628 24.0298 22.3613 20.7732 24.0568 16.2036Z" fill="#F0F0F0"/>
</g>
<defs>
<clipPath id="clip0_6422_7720">
<rect width="24" height="24" fill="white" transform="translate(0.802734 0.0302734)"/>
</clipPath>
</defs>
</svg>
