<svg width="25" height="25" viewBox="0 0 25 25" fill="none" xmlns="http://www.w3.org/2000/svg">
<g clip-path="url(#clip0_6422_7872)">
<path d="M12.8028 24.7257C19.4302 24.7257 24.8028 19.3532 24.8028 12.7257C24.8028 6.09832 19.4302 0.725739 12.8028 0.725739C6.17538 0.725739 0.802795 6.09832 0.802795 12.7257C0.802795 19.3532 6.17538 24.7257 12.8028 24.7257Z" fill="#FFDA44"/>
<path d="M10.194 11.16H24.7011C23.9341 5.27219 18.8996 0.72522 12.8027 0.72522C11.9067 0.72522 11.034 0.824267 10.194 1.01045V11.16H10.194Z" fill="#0052B4"/>
<path d="M7.06358 11.1593V2.18359C3.76855 3.98144 1.40975 7.27914 0.904297 11.1593H7.06358V11.1593Z" fill="#0052B4"/>
<path d="M7.06353 14.2901H0.904297C1.40975 18.1703 3.76855 21.468 7.06358 23.2658L7.06353 14.2901Z" fill="#0052B4"/>
<path d="M10.194 14.2902V24.4397C11.034 24.6259 11.9067 24.7249 12.8027 24.7249C18.8996 24.7249 23.9341 20.178 24.7011 14.2901H10.194V14.2902Z" fill="#0052B4"/>
</g>
<defs>
<clipPath id="clip0_6422_7872">
<rect width="24" height="24" fill="white" transform="translate(0.802734 0.725586)"/>
</clipPath>
</defs>
</svg>
