<svg width="25" height="25" viewBox="0 0 25 25" fill="none" xmlns="http://www.w3.org/2000/svg">
<g clip-path="url(#clip0_6422_7829)">
<path d="M21.2881 21.2882C16.6018 25.9745 9.00388 25.9745 4.3175 21.2882C-0.368781 16.6019 -0.368781 9.0039 4.31755 4.31757C9.00383 -0.368712 15.8639 0.369148 20.5502 5.05547C25.2365 9.74176 25.9744 16.6019 21.2881 21.2882V21.2882Z" fill="black"/>
<path d="M4.31775 4.31745C9.00403 -0.368833 16.602 -0.36874 21.2883 4.3175C25.9746 9.00378 25.9746 16.6017 21.2883 21.2881" fill="#A2001D"/>
<path d="M9.97368 16.9765L10.1679 17.5744H10.7966L10.288 17.9438L10.4823 18.5417L9.97368 18.1722L9.46508 18.5417L9.65933 17.9438L9.15079 17.5744H9.77938L9.97368 16.9765Z" fill="#F0F0F0"/>
<path d="M8.36833 11.2372L8.69219 12.2337H9.73984L8.8922 12.8495L9.21597 13.846L8.36833 13.2301L7.52073 13.846L7.84454 12.8495L6.99686 12.2337H8.04461L8.36833 11.2372Z" fill="#F0F0F0"/>
<path d="M8.36833 18.5422L8.69209 19.5387H9.73984L8.89211 20.1545L9.21597 21.1509L8.36833 20.535L7.52073 21.1509L7.84445 20.1545L6.99686 19.5387H8.04447L8.36833 18.5422Z" fill="#F0F0F0"/>
<path d="M11.4313 13.8462L11.7552 14.8427H12.8028L11.9552 15.4584L12.279 16.4549L11.4313 15.839L10.5837 16.4549L10.9075 15.4584L10.0599 14.8427H11.1076L11.4313 13.8462Z" fill="#F0F0F0"/>
<path d="M5.30494 13.8462L5.6288 14.8427H6.67641L5.82882 15.4584L6.15253 16.4549L5.30494 15.839L4.4573 16.4549L4.78116 15.4584L3.93347 14.8427H4.98118L5.30494 13.8462Z" fill="#F0F0F0"/>
<path d="M20.8909 9.68837C20.3546 9.15208 19.6578 8.83525 18.909 8.78083L21.1505 7.0374C20.2578 6.14467 19.0612 5.7415 17.8937 5.82676C17.7539 5.32445 17.4874 4.84998 17.0924 4.45497L16.207 6.22581C16.1489 6.11997 16.0754 6.02036 15.9856 5.93069C15.4762 5.4213 14.6504 5.4213 14.141 5.93069C13.6317 6.44008 13.6316 7.26592 14.141 7.77531C14.2307 7.86498 14.3303 7.93853 14.4362 7.99665L12.6653 8.88208C13.0605 9.27723 13.5353 9.5439 14.0378 9.68359C13.9523 10.8512 14.355 12.0475 15.2478 12.9403L17.2063 10.4222C17.3536 10.2772 17.5482 10.1971 17.7552 10.1971C17.9642 10.1971 18.1607 10.2784 18.3085 10.4263C18.4564 10.5741 18.5378 10.7707 18.5378 10.9797C18.5378 11.1887 18.4564 11.3852 18.3085 11.5331L19.0464 12.271C19.3913 11.9261 19.5813 11.4675 19.5813 10.9797C19.5813 10.5806 19.454 10.2012 19.2189 9.88754C19.5614 9.979 19.8851 10.1582 20.1532 10.4263C20.967 11.24 20.967 12.5641 20.1532 13.3777L20.8911 14.1156C21.4823 13.5243 21.808 12.7382 21.808 11.902C21.8078 11.0657 21.4822 10.2797 20.8909 9.68837V9.68837Z" fill="#FFDA44"/>
</g>
<defs>
<clipPath id="clip0_6422_7829">
<rect width="24" height="24" fill="white" transform="translate(0.802734 0.802734)"/>
</clipPath>
</defs>
</svg>
