<svg width="25" height="25" viewBox="0 0 25 25" fill="none" xmlns="http://www.w3.org/2000/svg">
<g clip-path="url(#clip0_6422_7841)">
<path d="M0.802765 12.2815C0.802765 14.3604 1.33166 16.3157 2.26184 18.0206L12.8028 19.0641L23.3437 18.0206C24.2739 16.3157 24.8028 14.3604 24.8028 12.2815L12.8028 11.238L0.802765 12.2815Z" fill="#FFDA44"/>
<path d="M23.3437 6.54294C21.3084 2.81282 17.3513 0.282085 12.8028 0.282085C8.25425 0.282085 4.29711 2.81282 2.26184 6.54294C1.33166 8.24784 0.802765 10.2032 0.802765 12.2821H24.8028C24.8028 10.2032 24.2739 8.24784 23.3437 6.54294Z" fill="#338AF3"/>
<path d="M12.803 24.2813C17.3515 24.2813 21.3086 21.7506 23.3439 18.0205H2.26205C4.29732 21.7506 8.25446 24.2813 12.803 24.2813Z" fill="#496E2D"/>
<path d="M14.368 7.30465L15.8336 7.99404L15.0532 9.41341L16.6446 9.10901L16.8462 10.7166L17.9546 9.53421L19.0631 10.7166L19.2647 9.10901L20.8561 9.41332L20.0758 7.99399L21.5413 7.30465L20.0757 6.61535L20.8561 5.19597L19.2648 5.50038L19.0631 3.8928L17.9546 5.07518L16.8462 3.8928L16.6446 5.50038L15.0531 5.19597L15.8335 6.6154L14.368 7.30465Z" fill="#FFDA44"/>
</g>
<defs>
<clipPath id="clip0_6422_7841">
<rect width="24" height="24" fill="white" transform="translate(0.802734 0.282227)"/>
</clipPath>
</defs>
</svg>
