<svg width="25" height="24" viewBox="0 0 25 24" fill="none" xmlns="http://www.w3.org/2000/svg">
<g clip-path="url(#clip0_6422_7821)">
<path d="M12.8027 23.9998C19.4301 23.9998 24.8027 18.6273 24.8027 11.9998C24.8027 5.37243 19.4301 -0.000152588 12.8027 -0.000152588C6.17529 -0.000152588 0.802704 5.37243 0.802704 11.9998C0.802704 18.6273 6.17529 23.9998 12.8027 23.9998Z" fill="#F0F0F0"/>
<path d="M1.21622 15.1301C1.91053 17.7063 3.44076 19.9391 5.49848 21.5202V15.1301H1.21622Z" fill="#D80027"/>
<path d="M11.7595 23.954C12.1035 23.9836 12.4513 23.9996 12.803 23.9996C18.3473 23.9996 23.0126 20.2393 24.3896 15.1301H11.7595V23.954Z" fill="#D80027"/>
<path d="M24.3896 8.86895C23.0126 3.75976 18.3473 -0.000595093 12.803 -0.000595093C12.4513 -0.000595093 12.1035 0.0154362 11.7595 0.0450612V8.86895H24.3896Z" fill="#D80027"/>
<path d="M5.49848 2.479C3.44076 4.0601 1.91053 6.29289 1.21622 8.8691H5.49848V2.479Z" fill="#D80027"/>
<path d="M24.7012 10.4345H10.1941H10.194V0.284927C9.08508 0.530834 8.03372 0.929412 7.06359 1.45877V10.4344V10.4344H0.904312C0.837516 10.9468 0.802734 11.4692 0.802734 11.9997C0.802734 12.5302 0.837516 13.0526 0.904312 13.5649H7.06355H7.06359V22.5406C8.03372 23.0699 9.08508 23.4686 10.194 23.7144V13.565V13.5649H24.7012C24.7679 13.0526 24.8027 12.5302 24.8027 11.9997C24.8027 11.4692 24.7679 10.9468 24.7012 10.4345V10.4345Z" fill="#0052B4"/>
</g>
<defs>
<clipPath id="clip0_6422_7821">
<rect width="24" height="24" fill="white" transform="translate(0.802734)"/>
</clipPath>
</defs>
</svg>
