<svg width="25" height="25" viewBox="0 0 25 25" fill="none" xmlns="http://www.w3.org/2000/svg">
<g clip-path="url(#clip0_6422_7845)">
<path d="M24.8026 12.0293C24.8026 18.6567 19.43 24.0293 12.8026 24.0293C6.17527 24.0293 0.802643 18.6567 0.802643 12.0293C1.32436 12.0293 12.8026 10.4641 12.8026 10.4641L24.8026 12.0293Z" fill="#338AF3"/>
<path d="M0.802658 12.0301C0.802658 5.40275 6.17528 0.0301285 12.8027 0.0301285C19.43 0.0301285 24.8027 5.40275 24.8027 12.0301" fill="#F0F0F0"/>
<path d="M17.5658 8.30988L12.8026 13.0732L8.03934 8.30988C7.42335 9.22427 7.06349 10.3248 7.06349 11.5079V13.0731C7.06349 15.5864 8.68748 17.7273 10.9411 18.5022C10.6403 19.0917 10.691 19.8274 11.1318 20.3775C11.7171 19.9083 12.3232 19.4226 12.8373 19.0107C13.3514 19.4227 13.9575 19.9083 14.5429 20.3775C14.9888 19.821 15.0359 19.0743 14.7232 18.4813C16.946 17.6896 18.5417 15.5643 18.5417 13.0731V11.508C18.5417 10.3248 18.1818 9.22431 17.5658 8.30988V8.30988Z" fill="#6DA544"/>
<path d="M12.8025 17.2468C10.501 17.2468 8.62863 15.3744 8.62863 13.073V11.5078C8.62863 9.20624 10.5011 7.33386 12.8025 7.33386C15.104 7.33386 16.9764 9.20628 16.9764 11.5078V13.073C16.9764 15.3744 15.104 17.2468 12.8025 17.2468Z" fill="#FFDA44"/>
<path d="M15.4111 13.0729V11.5077C15.4111 10.0692 14.2409 8.89899 12.8024 8.89899C11.364 8.89899 10.1938 10.0693 10.1938 11.5077V13.0729L12.8024 13.5946L15.4111 13.0729Z" fill="#338AF3"/>
<path d="M10.1938 13.0731C10.1938 14.5116 11.364 15.6818 12.8024 15.6818C14.2409 15.6818 15.4111 14.5115 15.4111 13.0731H10.1938Z" fill="#6DA544"/>
<path d="M15.933 7.33448C15.933 6.47005 15.2322 5.76927 14.3678 5.76927C13.9668 5.76927 13.6013 5.92021 13.3243 6.16813V5.24751H13.846V4.20402H13.3243V3.6823H12.2808V4.20402H11.7591V5.24751H12.2808V6.16813C12.0039 5.92021 11.6383 5.76927 11.2374 5.76927C10.3729 5.76927 9.67215 6.47005 9.67215 7.33448C9.67215 7.79793 9.87376 8.21418 10.1939 8.50082V9.42145H15.4112V8.50082C15.7314 8.21418 15.933 7.79793 15.933 7.33448V7.33448Z" fill="#FFDA44"/>
</g>
<defs>
<clipPath id="clip0_6422_7845">
<rect width="24" height="24" fill="white" transform="translate(0.802734 0.0302734)"/>
</clipPath>
</defs>
</svg>
