<svg width="25" height="25" viewBox="0 0 25 25" fill="none" xmlns="http://www.w3.org/2000/svg">
<g clip-path="url(#clip0_6422_7888)">
<path d="M24.8028 12.7257C24.8028 19.3531 19.4301 24.7257 12.8028 24.7257C6.17539 24.7257 0.802765 19.3531 0.802765 12.7257C0.802765 12.7286 12.8028 0.727021 12.8028 0.725708C19.4301 0.725708 24.8028 6.09833 24.8028 12.7257Z" fill="#0052B4"/>
<path d="M12.7708 12.7276H12.8041C12.8041 12.7165 12.8041 12.7056 12.8041 12.6944C12.793 12.7055 12.782 12.7166 12.7708 12.7276Z" fill="#F0F0F0"/>
<path d="M12.8028 6.98748C12.8028 4.876 12.8028 3.49248 12.8028 0.726624H12.8008C6.17425 0.727749 0.802795 6.09986 0.802795 12.7266H7.06365V9.20111L10.5892 12.7266H12.7707C12.7814 12.7159 12.7921 12.7052 12.8028 12.6945C12.8028 11.8861 12.8028 11.1647 12.8028 10.5131L9.27723 6.98748H12.8028Z" fill="#F0F0F0"/>
<path d="M6.87404 2.2915C4.99721 3.36021 3.43688 4.92049 2.36823 6.79732V12.7263H5.49868V5.42205V5.42196H12.803C12.803 4.43463 12.803 3.49404 12.803 2.2915H6.87404Z" fill="#D80027"/>
<path d="M12.8031 11.2502L8.53962 6.98682H7.064V6.98691L12.803 12.7259H12.8031C12.8031 12.7259 12.8031 11.7084 12.8031 11.2502V11.2502Z" fill="#D80027"/>
<path d="M14.368 6.98688V12.726C14.368 15.5216 18.0202 16.3782 18.0202 16.3782C18.0202 16.3782 21.6723 15.5216 21.6723 12.726V6.98688H14.368Z" fill="#FFDA44"/>
<path d="M17.4985 9.07357C17.4985 9.6499 17.0313 11.1605 16.455 11.1605C15.8787 11.1605 15.4115 9.6499 15.4115 9.07357C15.4115 8.49725 16.455 8.03009 16.455 8.03009C16.455 8.03009 17.4985 8.49725 17.4985 9.07357Z" fill="#FF9811"/>
<path d="M20.2674 10.2101C20.4358 9.7992 20.5668 9.19864 20.5668 8.89967C20.5668 8.41939 19.9407 8.03009 19.9407 8.03009C19.9407 8.03009 19.3145 8.41943 19.3145 8.89967C19.3145 9.19864 19.4455 9.7992 19.6139 10.2101L19.2524 11.0262C19.4649 11.1125 19.6971 11.1605 19.9406 11.1605C20.1841 11.1605 20.4163 11.1125 20.6288 11.0262L20.2674 10.2101Z" fill="#A2001D"/>
<path d="M17.2377 12.7259C17.2377 12.7259 16.716 13.7694 16.716 14.8129H19.3247C19.3246 13.7694 18.8029 12.7259 18.8029 12.7259L18.0203 12.2042L17.2377 12.7259Z" fill="#6DA544"/>
<path d="M18.8029 12.7258V12.4649C18.8029 12.0327 18.4525 11.6823 18.0202 11.6823C17.588 11.6823 17.2376 12.0327 17.2376 12.4649V12.7258H18.8029Z" fill="#D80027"/>
</g>
<defs>
<clipPath id="clip0_6422_7888">
<rect width="24" height="24" fill="white" transform="translate(0.802734 0.725586)"/>
</clipPath>
</defs>
</svg>
