<svg width="25" height="25" viewBox="0 0 25 25" fill="none" xmlns="http://www.w3.org/2000/svg">
<g clip-path="url(#clip0_6422_7877)">
<path d="M12.8027 24.7255C19.4301 24.7255 24.8027 19.3529 24.8027 12.7255C24.8027 6.09808 19.4301 0.725494 12.8027 0.725494C6.17529 0.725494 0.802704 6.09808 0.802704 12.7255C0.802704 19.3529 6.17529 24.7255 12.8027 24.7255Z" fill="#FFDA44"/>
<path d="M4.31765 21.2104C4.82104 21.7138 5.35814 22.1627 5.92153 22.558L22.6357 5.84369C22.2406 5.2803 21.7916 4.74321 21.2882 4.23982C20.7848 3.73643 20.2477 3.28755 19.6844 2.8923L2.97018 19.6066C3.36534 20.1698 3.81431 20.707 4.31765 21.2104V21.2104Z" fill="black"/>
<path d="M4.31752 4.24021C0.531804 8.02602 -0.194993 13.7115 2.13577 18.2276L18.3049 2.05851C13.7889 -0.272258 8.10329 0.454585 4.31752 4.24021V4.24021Z" fill="#6DA544"/>
<path d="M21.2881 21.2108C25.0738 17.4251 25.8005 11.7395 23.4698 7.22342L7.30069 23.3926C11.8167 25.7233 17.5023 24.9965 21.2881 21.2108Z" fill="#338AF3"/>
</g>
<defs>
<clipPath id="clip0_6422_7877">
<rect width="24" height="24" fill="white" transform="translate(0.802734 0.725586)"/>
</clipPath>
</defs>
</svg>
