<svg width="25" height="25" viewBox="0 0 25 25" fill="none" xmlns="http://www.w3.org/2000/svg">
<g clip-path="url(#clip0_6422_7902)">
<path d="M12.8026 24.7255C19.4301 24.7255 24.8026 19.3529 24.8026 12.7255C24.8026 6.09805 19.4301 0.725464 12.8026 0.725464C6.17523 0.725464 0.802643 6.09805 0.802643 12.7255C0.802643 19.3529 6.17523 24.7255 12.8026 24.7255Z" fill="#F0F0F0"/>
<path d="M12.8027 24.7255C17.9623 24.7255 22.3608 21.469 24.0563 16.8994H1.5491C3.24462 21.469 7.64313 24.7255 12.8027 24.7255Z" fill="black"/>
<path d="M12.8027 0.725464C7.64313 0.725464 3.24462 3.98196 1.5491 8.55157H24.0564C22.3608 3.98196 17.9623 0.725464 12.8027 0.725464V0.725464Z" fill="#D80027"/>
</g>
<defs>
<clipPath id="clip0_6422_7902">
<rect width="24" height="24" fill="white" transform="translate(0.802734 0.725586)"/>
</clipPath>
</defs>
</svg>
