<svg width="25" height="25" viewBox="0 0 25 25" fill="none" xmlns="http://www.w3.org/2000/svg">
<g clip-path="url(#clip0_6422_7894)">
<path d="M12.8028 24.7256C19.4302 24.7256 24.8028 19.3531 24.8028 12.7256C24.8028 6.09823 19.4302 0.725647 12.8028 0.725647C6.17541 0.725647 0.802826 6.09823 0.802826 12.7256C0.802826 19.3531 6.17541 24.7256 12.8028 24.7256Z" fill="#F0F0F0"/>
<path d="M12.8025 9.59542H24.3891C24.0882 8.47914 23.6309 7.42722 23.0412 6.46497H12.8025V9.59542Z" fill="#338AF3"/>
<path d="M5.33263 22.1173H20.2723C21.3674 21.245 22.3066 20.1856 23.0412 18.9868H2.56377C3.29834 20.1855 4.23753 21.245 5.33263 22.1173V22.1173Z" fill="#338AF3"/>
<path d="M12.8025 0.725891V3.33458H20.2723C18.2225 1.70202 15.6266 0.725891 12.8025 0.725891V0.725891Z" fill="#338AF3"/>
<path d="M12.8026 9.59566H24.3892C24.0883 8.47938 23.631 7.42746 23.0413 6.46521H12.8026V9.59566Z" fill="#338AF3"/>
<path d="M0.80275 12.7255C0.80275 13.8087 0.947125 14.8578 1.21614 15.856H24.3894C24.6584 14.8578 24.8027 13.8087 24.8027 12.7255H0.80275Z" fill="#338AF3"/>
<path d="M11.2372 7.74894L9.77165 8.43833L10.5521 9.85771L8.96067 9.5533L8.75901 11.1609L7.6506 9.9785L6.54211 11.1609L6.3405 9.5533L4.74909 9.85761L5.52946 8.43828L4.06396 7.74894L5.52951 7.05964L4.74909 5.64027L6.34045 5.94468L6.54215 4.3371L7.6506 5.51947L8.75906 4.3371L8.96067 5.94468L10.5521 5.64027L9.7717 7.05969L11.2372 7.74894Z" fill="#FFDA44"/>
</g>
<defs>
<clipPath id="clip0_6422_7894">
<rect width="24" height="24" fill="white" transform="translate(0.802734 0.725586)"/>
</clipPath>
</defs>
</svg>
