<svg width="25" height="24" viewBox="0 0 25 24" fill="none" xmlns="http://www.w3.org/2000/svg">
<g clip-path="url(#clip0_6422_7787)">
<path d="M12.8028 24.0001C19.4302 24.0001 24.8028 18.6275 24.8028 12.0001C24.8028 5.37267 19.4302 9.15527e-05 12.8028 9.15527e-05C6.17535 9.15527e-05 0.802765 5.37267 0.802765 12.0001C0.802765 18.6275 6.17535 24.0001 12.8028 24.0001Z" fill="#496E2D"/>
<path d="M14.8897 11.4998C14.5952 11.4998 14.3155 11.5585 14.0558 11.652C14.1981 11.3349 14.2935 10.9821 14.2935 10.6054C14.2935 9.11472 12.8028 7.9967 12.8028 7.9967C12.8028 7.9967 11.3121 9.11472 11.3121 10.6054C11.3121 10.9821 11.4075 11.3349 11.5498 11.652C11.2901 11.5586 11.0104 11.4998 10.7159 11.4998C9.22522 11.4998 8.10721 12.9904 8.10721 12.9904C8.10721 12.9904 9.22522 14.4812 10.7159 14.4812C11.5899 14.4812 12.3353 13.9689 12.8029 13.5449C13.2704 13.9689 14.0158 14.4812 14.8898 14.4812C16.3805 14.4812 17.4985 12.9904 17.4985 12.9904C17.4985 12.9904 16.3804 11.4998 14.8897 11.4998V11.4998Z" fill="#F0F0F0"/>
<path d="M12.8031 4.6955L13.111 5.64312H14.1074L13.3014 6.22887L13.6091 7.1765L12.8031 6.59075L11.997 7.1765L12.3047 6.22887L11.4987 5.64312H12.4951L12.8031 4.6955Z" fill="#FFDA44"/>
<path d="M9.01394 6.35297L9.60635 6.88631L10.2967 6.48778L9.97249 7.21598L10.5648 7.74942L9.7721 7.66608L9.44791 8.39428L9.28207 7.61461L8.48936 7.53126L9.17965 7.13264L9.01394 6.35297Z" fill="#FFDA44"/>
<path d="M6.24026 9.12668L7.01998 9.29238L7.41856 8.60205L7.50191 9.39475L8.28153 9.5606L7.55337 9.88483L7.63672 10.6775L7.10323 10.0852L6.37508 10.4094L6.77366 9.71903L6.24026 9.12668Z" fill="#FFDA44"/>
<path d="M16.5922 6.35297L15.9998 6.88631L15.3095 6.48778L15.6336 7.21598L15.0413 7.74942L15.8341 7.66608L16.1583 8.39428L16.3241 7.61461L17.1168 7.53126L16.4265 7.13264L16.5922 6.35297Z" fill="#FFDA44"/>
<path d="M19.3659 9.12668L18.5862 9.29238L18.1877 8.60205L18.1043 9.39475L17.3246 9.5606L18.0528 9.88483L17.9695 10.6775L18.5029 10.0852L19.2311 10.4094L18.8325 9.71903L19.3659 9.12668Z" fill="#FFDA44"/>
<path d="M12.8027 18.655C13.9868 18.655 15.0783 18.26 15.9538 17.5952H9.65167C10.5272 18.2599 11.6186 18.655 12.8027 18.655Z" fill="#F0F0F0"/>
<path d="M8.01996 15.5245C8.18557 15.9035 8.39557 16.2585 8.64222 16.5843H16.9634C17.21 16.2586 17.42 15.9035 17.5856 15.5245H8.01996Z" fill="#F0F0F0"/>
</g>
<defs>
<clipPath id="clip0_6422_7787">
<rect width="24" height="24" fill="white" transform="translate(0.802734)"/>
</clipPath>
</defs>
</svg>
