<svg width="25" height="24" viewBox="0 0 25 24" fill="none" xmlns="http://www.w3.org/2000/svg">
<g clip-path="url(#clip0_6422_7680)">
<path d="M24.8027 12.0003C24.8027 10.5324 24.5387 9.12633 24.0563 7.82639L12.8027 7.30463L1.54912 7.82634C1.06673 9.12633 0.802727 10.5324 0.802727 12.0003C0.802727 13.4681 1.06673 14.8742 1.54912 16.1742L12.8027 16.6959L24.0563 16.1742C24.5387 14.8742 24.8027 13.4681 24.8027 12.0003Z" fill="#FFDA44"/>
<path d="M12.8025 24.0003C17.9621 24.0003 22.3606 20.7438 24.0561 16.1742H1.54887C3.24438 20.7438 7.6429 24.0003 12.8025 24.0003Z" fill="#6DA544"/>
<path d="M1.54887 7.82638H24.0561C22.3606 3.25677 17.9621 0.000274658 12.8025 0.000274658C7.6429 0.000274658 3.24438 3.25677 1.54887 7.82638V7.82638Z" fill="#D80027"/>
</g>
<defs>
<clipPath id="clip0_6422_7680">
<rect width="24" height="24" fill="white" transform="translate(0.802734)"/>
</clipPath>
</defs>
</svg>
