<svg width="25" height="25" viewBox="0 0 25 25" fill="none" xmlns="http://www.w3.org/2000/svg">
<g clip-path="url(#clip0_6422_7869)">
<path d="M1.99347 7.50784C1.23062 9.08546 0.80275 10.8553 0.80275 12.7252C0.80275 14.5951 1.23062 16.365 1.99347 17.9426L12.8027 18.9861L23.612 17.9426C24.3749 16.365 24.8027 14.5951 24.8027 12.7252C24.8027 10.8553 24.3749 9.08546 23.612 7.50784L12.8027 6.46436L1.99347 7.50784Z" fill="#F0F0F0"/>
<path d="M1.99388 17.9428C3.93479 21.9568 8.04521 24.7255 12.8027 24.7255C17.5603 24.7255 21.6707 21.9568 23.6116 17.9428H1.99388Z" fill="black"/>
<path d="M1.99388 7.50839H23.6116C21.6707 3.49444 17.5603 0.725769 12.8027 0.725769C8.04521 0.725769 3.93479 3.49444 1.99388 7.50839Z" fill="#D80027"/>
<path d="M4.31746 4.24039C-0.368821 8.92667 -0.368821 16.5247 4.31746 21.211C6.25401 19.2745 8.11649 17.412 12.8028 12.7257L4.31746 4.24039Z" fill="#496E2D"/>
</g>
<defs>
<clipPath id="clip0_6422_7869">
<rect width="24" height="24" fill="white" transform="translate(0.802734 0.725586)"/>
</clipPath>
</defs>
</svg>
