<svg width="25" height="25" viewBox="0 0 25 25" fill="none" xmlns="http://www.w3.org/2000/svg">
<g clip-path="url(#clip0_6422_7874)">
<path d="M12.8028 24.7257C19.4302 24.7257 24.8028 19.3532 24.8028 12.7257C24.8028 6.09832 19.4302 0.725739 12.8028 0.725739C6.17541 0.725739 0.802826 6.09832 0.802826 12.7257C0.802826 19.3532 6.17541 24.7257 12.8028 24.7257Z" fill="#F0F0F0"/>
<path d="M12.8032 0.725769C7.64362 0.725769 3.24511 3.98227 1.54959 8.55188H24.0569C22.3613 3.98227 17.9628 0.725769 12.8032 0.725769V0.725769Z" fill="#D80027"/>
<path d="M12.8032 24.7251C17.9628 24.7251 22.3613 21.4686 24.0568 16.899H1.54959C3.24511 21.4686 7.64362 24.7251 12.8032 24.7251Z" fill="black"/>
<path d="M7.97298 9.85507L8.62046 11.8478H10.7159L9.02068 13.0796L9.66821 15.0724L7.97298 13.8408L6.27774 15.0724L6.92528 13.0796L5.23004 11.8478H7.3255L7.97298 9.85507Z" fill="#6DA544"/>
<path d="M17.6329 9.85507L18.2804 11.8478H20.3759L18.6806 13.0796L19.3281 15.0724L17.6329 13.8408L15.9377 15.0724L16.5852 13.0796L14.89 11.8478H16.9854L17.6329 9.85507Z" fill="#6DA544"/>
</g>
<defs>
<clipPath id="clip0_6422_7874">
<rect width="24" height="24" fill="white" transform="translate(0.802734 0.725586)"/>
</clipPath>
</defs>
</svg>
