<?xml version="1.0" encoding="UTF-8"?>
<svg width="24px" height="24px" viewBox="0 0 24 24" version="1.1" xmlns="http://www.w3.org/2000/svg" xmlns:xlink="http://www.w3.org/1999/xlink">
    <title>Download</title>
    <g id="Video" stroke="none" stroke-width="1" fill="none" fill-rule="evenodd">
        <g id="Watch-Page-UI" transform="translate(-255.000000, -360.000000)">
            <g id="Download" transform="translate(255.000000, 360.000000)">
                <path d="M13.8189877,12.4183612 L13.8199988,13.8149995 L18.9499986,13.8149995 L9.54499898,23.2199991 L0.139999352,13.8149995 L5.26999915,13.8149995 L5.26999915,9.53999966 L10.4780631,9.53989077 C11.218183,10.8487033 12.3990019,11.8753708 13.8189877,12.4183612 Z M9.63999906,6.34499984 C9.63999906,6.85600303 9.69896614,7.35323373 9.81046701,7.83025862 L5.26999915,7.82999973 L5.26999915,6.11999979 L9.64382588,6.11983687 C9.64128154,6.1945779 9.63999906,6.2696391 9.63999906,6.34499984 Z M9.93300567,4.40959437 L5.26999915,4.40999986 L5.26999915,2.69999993 L10.757984,2.69914076 C10.4043111,3.2202161 10.1243268,3.79535877 9.93300567,4.40959437 Z" id="Combined-Shape" fill="#C9C9C9" fill-rule="nonzero"></path>
                <g id="monetization_on-24px-(2)" transform="translate(10.039999, 0.045000)"></g>
                <path d="M16.3399994,0.944999986 C13.3591994,0.944999986 10.9399994,3.36420002 10.9399994,6.34500006 C10.9399994,9.3258001 13.3591994,11.7450001 16.3399994,11.7450001 C19.3207995,11.7450001 21.7399995,9.3258001 21.7399995,6.34500006 C21.7399995,3.36420002 19.3207995,0.944999986 16.3399994,0.944999986 Z M17.1013994,9.6336001 L17.1013994,10.6650001 L15.6595994,10.6650001 L15.6595994,9.6228001 C14.7361994,9.4284001 13.9531994,8.83440009 13.8937994,7.78680008 L14.9521994,7.78680008 C15.0061994,8.35380008 15.3949994,8.79660009 16.3831994,8.79660009 C17.4415995,8.79660009 17.6791995,8.26740008 17.6791995,7.93800008 C17.6791995,7.48980007 17.4415995,7.06860007 16.2373994,6.78240006 C14.8981994,6.45840006 13.9801994,5.90760005 13.9801994,4.80060004 C13.9801994,3.87180002 14.7307994,3.26700002 15.6595994,3.06720001 L15.6595994,2.025 L17.1013994,2.025 L17.1013994,3.07800001 C18.1057995,3.32100002 18.6079995,4.08240003 18.6403995,4.90860004 L17.5819995,4.90860004 C17.5549995,4.30920003 17.2363994,3.89880002 16.3831994,3.89880002 C15.5731994,3.89880002 15.0871994,4.26600003 15.0871994,4.78440004 C15.0871994,5.23800004 15.4381994,5.53500005 16.5289994,5.81580005 C17.6197995,6.09660005 18.7861995,6.56640006 18.7861995,7.92720008 C18.7807995,8.91540009 18.0409995,9.4554001 17.1013994,9.6336001 Z" id="Shape" fill="#C9C9C9" fill-rule="nonzero"></path>
            </g>
        </g>
    </g>
</svg>