<svg width="25" height="25" viewBox="0 0 25 25" fill="none" xmlns="http://www.w3.org/2000/svg">
<g clip-path="url(#clip0_6422_7767)">
<path d="M12.8026 24.7255C19.43 24.7255 24.8026 19.3529 24.8026 12.7255C24.8026 6.09805 19.43 0.725464 12.8026 0.725464C6.17519 0.725464 0.802612 6.09805 0.802612 12.7255C0.802612 19.3529 6.17519 24.7255 12.8026 24.7255Z" fill="#D80027"/>
<path d="M18.6713 12.7256L16.2734 13.8535L17.5503 16.1761L14.9463 15.6778L14.6165 18.3083L12.8026 16.3737L10.9889 18.3083L10.659 15.6778L8.05518 16.176L9.33205 13.8534L6.93407 12.7256L9.33205 11.5978L8.05518 9.27521L10.6589 9.77349L10.989 7.14301L12.8026 9.07758L14.6166 7.14301L14.9463 9.77349L17.5504 9.27521L16.2734 11.5979L18.6713 12.7256Z" fill="#FFDA44"/>
<path d="M12.8027 16.378C14.8197 16.378 16.4549 14.7429 16.4549 12.7258C16.4549 10.7088 14.8197 9.07367 12.8027 9.07367C10.7856 9.07367 9.15051 10.7088 9.15051 12.7258C9.15051 14.7429 10.7856 16.378 12.8027 16.378Z" fill="#D80027"/>
<path d="M10.9766 12.7255C10.8886 12.7255 10.8018 12.73 10.716 12.7385C10.7192 13.2443 10.9022 13.7073 11.2044 14.067C11.3657 13.6331 11.6064 13.2374 11.91 12.8988C11.62 12.7872 11.3055 12.7255 10.9766 12.7255Z" fill="#FFDA44"/>
<path d="M12.1006 14.691C12.32 14.7694 12.5562 14.8124 12.8025 14.8124C13.0489 14.8124 13.2851 14.7694 13.5045 14.691C13.3849 14.2217 13.138 13.8028 12.8025 13.4735C12.4671 13.8027 12.2202 14.2217 12.1006 14.691Z" fill="#FFDA44"/>
<path d="M14.61 11.6822C14.2492 11.0585 13.5753 10.6384 12.8028 10.6384C12.0303 10.6384 11.3564 11.0585 10.9955 11.6822C11.6534 11.6856 12.2702 11.8644 12.8028 12.1733C13.3353 11.8644 13.9521 11.6856 14.61 11.6822Z" fill="#FFDA44"/>
<path d="M13.6952 12.8988C13.9988 13.2373 14.2396 13.633 14.4008 14.067C14.7031 13.7073 14.8861 13.2443 14.8892 12.7385C14.8035 12.7299 14.7166 12.7255 14.6287 12.7255C14.2999 12.7254 13.9853 12.7872 13.6952 12.8988V12.8988Z" fill="#FFDA44"/>
</g>
<defs>
<clipPath id="clip0_6422_7767">
<rect width="24" height="24" fill="white" transform="translate(0.802734 0.725586)"/>
</clipPath>
</defs>
</svg>
