<svg xmlns="http://www.w3.org/2000/svg" viewBox="0 0 34 15">
    <path fill="#FF9000" d="M7.5,0h19C30.6,0,34,3.4,34,7.5l0,0c0,4.1-3.4,7.5-7.5,7.5h-19C3.4,15,0,11.6,0,7.5l0,0C0,3.4,3.4,0,7.5,0z"/>
    <path d="M5.2,11.5V4.3h1.4l2.9,4.8V4.3h1.3v7.2H9.5L6.6,6.8v4.7H5.2z M15.7,9.8l1.4,0.2c-0.2,0.5-0.5,0.9-0.8,1.1  c-0.4,0.3-0.9,0.4-1.4,0.4c-0.9,0-1.6-0.3-2-0.9c-0.3-0.5-0.5-1.1-0.5-1.8c0-0.9,0.2-1.5,0.7-2c0.4-0.5,1-0.7,1.7-0.7  c0.8,0,1.4,0.3,1.8,0.8s0.7,1.3,0.6,2.3h-3.4c0,0.4,0.1,0.7,0.3,0.9s0.5,0.3,0.8,0.3c0.2,0,0.4-0.1,0.5-0.2S15.6,10.1,15.7,9.8z   M15.8,8.4c0-0.4-0.1-0.7-0.3-0.9c-0.2-0.2-0.4-0.3-0.7-0.3s-0.5,0.1-0.7,0.3S13.8,8,13.8,8.4H15.8z M19.5,11.5l-1.6-5.2h1.3l1,3.4  L21,6.3h1.3l0.9,3.4l1-3.4h1.4l-1.7,5.2h-1.3l-0.9-3.3l-0.9,3.3H19.5z M27.1,9.6L26.7,6V4.3h1.5V6l-0.4,3.6H27.1z M26.8,11.5v-1.4  h1.4v1.4H26.8z"/>
</svg>
