<svg width="25" height="24" viewBox="0 0 25 24" fill="none" xmlns="http://www.w3.org/2000/svg">
<g clip-path="url(#clip0_6422_7795)">
<path d="M12.8028 23.9999C19.4301 23.9999 24.8028 18.6273 24.8028 11.9999C24.8028 9.98605 24.3059 8.08841 23.4292 6.42181L12.7887 12.014L18.3809 1.37347C16.7143 0.496814 14.8167 -6.10352e-05 12.8028 -6.10352e-05C6.17539 -6.10352e-05 0.802765 5.37256 0.802765 11.9999C0.802765 15.3137 2.14592 18.3137 4.31745 20.4853C6.48903 22.6568 9.48903 23.9999 12.8028 23.9999Z" fill="#0052B4"/>
<path d="M23.4164 6.43472C22.8671 5.38922 22.153 4.40761 21.2739 3.52852C20.3948 2.64942 19.4133 1.93528 18.3677 1.38605L4.30328 20.4991L23.4164 6.43472Z" fill="#F0F0F0"/>
<path d="M4.30328 20.4996L23.4164 6.43523C22.8671 5.38973 22.153 4.40812 21.2739 3.52902L4.30328 20.4996Z" fill="#FF9811"/>
<path d="M11.2235 7.03703L9.75795 7.72637L10.5384 9.14575L8.94697 8.8413L8.74531 10.4489L7.63681 9.2665L6.52831 10.4489L6.32675 8.8413L4.73534 9.14565L5.51567 7.72633L4.05017 7.03703L5.51572 6.34764L4.73534 4.92836L6.32666 5.23272L6.52836 3.62509L7.63681 4.80751L8.74531 3.62509L8.94697 5.23272L10.5384 4.92836L9.758 6.34769L11.2235 7.03703Z" fill="#F0F0F0"/>
</g>
<defs>
<clipPath id="clip0_6422_7795">
<rect width="24" height="24" fill="white" transform="translate(0.802734)"/>
</clipPath>
</defs>
</svg>
