<svg width="25" height="24" viewBox="0 0 25 24" fill="none" xmlns="http://www.w3.org/2000/svg">
<g clip-path="url(#clip0_6422_7675)">
<path d="M12.8026 24.0002C19.43 24.0002 24.8026 18.6277 24.8026 12.0002C24.8026 5.37283 19.43 0.000244141 12.8026 0.000244141C6.17515 0.000244141 0.802567 5.37283 0.802567 12.0002C0.802567 18.6277 6.17515 24.0002 12.8026 24.0002Z" fill="#FCFCFC"/>
<path d="M5.75896 11.1305L4.45462 8.76408L5.75896 6.43481L7.06331 8.76408L5.75896 11.1305Z" fill="#A2001D"/>
<path d="M3.15031 11.1305L1.84596 8.76408L3.15031 6.43481L4.45465 8.76408L3.15031 11.1305Z" fill="#A2001D"/>
<path d="M5.75896 17.565L4.45462 15.1986L5.75896 12.8693L7.06331 15.1986L5.75896 17.565Z" fill="#A2001D"/>
<path d="M3.15031 17.565L1.84596 15.1986L3.15031 12.8693L4.45465 15.1986L3.15031 17.565Z" fill="#A2001D"/>
<path d="M7.06331 2.32915L6.69403 1.66971C6.03168 2.06215 5.41045 2.51651 4.83806 3.02482L5.75896 4.69549L7.06331 2.32915Z" fill="#A2001D"/>
<path d="M5.75898 19.3038L4.82832 20.9658C5.4002 21.4748 6.02101 21.9299 6.68307 22.3231L7.06337 21.6331L5.75898 19.3038Z" fill="#A2001D"/>
<path d="M8.10692 15.131V23.0464C9.54921 23.6603 11.1361 24.0005 12.8026 24.0005C17.9622 24.0005 22.3607 20.744 24.0562 16.1744L8.10692 15.131Z" fill="#6DA544"/>
<path d="M24.0562 16.1742C24.5386 14.8742 24.8026 13.4681 24.8026 12.0003C24.8026 5.3729 19.43 0.000274658 12.8026 0.000274658C11.1362 0.000274658 9.54922 0.340259 8.10692 0.954087V16.1742H24.0562V16.1742Z" fill="#A2001D"/>
</g>
<defs>
<clipPath id="clip0_6422_7675">
<rect width="24" height="24" fill="white" transform="translate(0.802734)"/>
</clipPath>
</defs>
</svg>
