<svg fill="none" xmlns="http://www.w3.org/2000/svg" viewBox="0 0 40 16"><path fill-rule="evenodd" clip-rule="evenodd" d="M8 0a8 8 0 1 0 0 16h24a8 8 0 1 0 0-16H8Zm.953 4H5.806v7.874h2.68c1.013-.007 1.652-.025 1.917-.054.423-.046.777-.17 1.064-.37a2.1 2.1 0 0 0 .682-.811c.168-.34.252-.69.252-1.048 0-.454-.128-.85-.386-1.187-.258-.336-.627-.574-1.107-.714a1.83 1.83 0 0 0 .806-.693c.2-.308.3-.646.3-1.015 0-.34-.08-.646-.241-.919a2 2 0 0 0-.607-.66 1.999 1.999 0 0 0-.822-.322C10.04 4.027 9.576 4 8.954 4ZM7.396 7.131v-1.82h.913c.748 0 1.2.008 1.358.026.265.033.464.126.597.28.136.15.204.347.204.59 0 .255-.079.46-.237.618-.153.154-.367.247-.639.28-.15.017-.535.026-1.155.026H7.396Zm0 3.416V8.442h1.283c.724 0 1.193.037 1.407.113a.97.97 0 0 1 .5.36c.114.164.172.365.172.601 0 .28-.075.503-.226.671a.979.979 0 0 1-.574.312c-.154.032-.518.048-1.09.048H7.395ZM13.749 4v7.874h5.99v-1.327h-4.4V8.404h3.954V7.078h-3.954V5.332h4.249V4h-5.839Zm9.11 7.874V5.332h-2.337V4h6.258v1.332h-2.331v6.542h-1.59Zm9.507 0h1.73L30.941 4h-1.68l-3.068 7.874h1.687l.65-1.789h3.147l.688 1.789Zm-2.283-6.037 1.085 2.922H29.02l1.063-2.922Z" fill="#fff"/></svg>