<svg width="25" height="25" viewBox="0 0 25 25" fill="none" xmlns="http://www.w3.org/2000/svg">
<g clip-path="url(#clip0_6422_7880)">
<path d="M12.8028 24.7255C19.4302 24.7255 24.8028 19.3529 24.8028 12.7255C24.8028 6.09808 19.4302 0.725494 12.8028 0.725494C6.17535 0.725494 0.802765 6.09808 0.802765 12.7255C0.802765 19.3529 6.17535 24.7255 12.8028 24.7255Z" fill="#FFDA44"/>
<path d="M12.8027 0.726074C12.7939 0.726168 12.2809 5.52608 12.2809 5.52608H22.4032C20.2139 2.61153 16.7285 0.726074 12.8027 0.726074Z" fill="#496E2D"/>
<path d="M12.8028 24.726C16.7287 24.726 20.2141 22.8405 22.4033 19.926H3.20229C5.39154 22.8405 8.87693 24.726 12.8028 24.726Z" fill="#496E2D"/>
<path d="M24.5624 10.326H12.2809L12.8027 15.126H24.5624C24.7199 14.3506 24.8027 13.548 24.8027 12.726C24.8027 11.9041 24.7198 11.1015 24.5624 10.326V10.326Z" fill="#496E2D"/>
<path d="M12.8028 15.1255C12.8028 12.6212 12.8028 3.54287 12.8028 0.725494C6.17539 0.725494 0.802765 6.09812 0.802765 12.7255C0.802765 13.5474 0.88564 14.35 1.04305 15.1255H12.8028Z" fill="#D80027"/>
<path d="M7.42429 6.46472L8.20129 8.85605H10.7159L8.68167 10.3342L9.45857 12.7256L7.42429 11.2476L5.39001 12.7256L6.16706 10.3342L4.13282 8.85605H6.64734L7.42429 6.46472Z" fill="#F0F0F0"/>
</g>
<defs>
<clipPath id="clip0_6422_7880">
<rect width="24" height="24" fill="white" transform="translate(0.802734 0.725586)"/>
</clipPath>
</defs>
</svg>
