<svg width="25" height="25" viewBox="0 0 25 25" fill="none" xmlns="http://www.w3.org/2000/svg">
<g clip-path="url(#clip0_6422_7718)">
<path d="M12.8027 24.0304C19.4302 24.0304 24.8027 18.6578 24.8027 12.0304C24.8027 5.40298 19.4302 0.0303955 12.8027 0.0303955C6.17533 0.0303955 0.80275 5.40298 0.80275 12.0304C0.80275 18.6578 6.17533 24.0304 12.8027 24.0304Z" fill="#F0F0F0"/>
<path d="M8.10735 7.85649H24.0566C22.3611 3.28688 17.9625 0.0303802 12.803 0.0303802C9.48922 0.0303802 6.48955 1.37377 4.31812 3.54549L8.10735 7.85649Z" fill="#6DA544"/>
<path d="M8.10735 16.2036H24.0566C22.3611 20.7733 17.9625 24.0298 12.803 24.0298C9.48922 24.0298 6.48955 22.6864 4.31812 20.5146L8.10735 16.2036Z" fill="#D80027"/>
<path d="M4.31755 3.54502C-0.368729 8.2313 -0.368729 15.8293 4.31755 20.5156C6.2541 18.5791 8.11658 16.7166 12.8029 12.0303L4.31755 3.54502Z" fill="#0052B4"/>
<path d="M14.89 9.9431V12.5518C14.89 14.1493 16.977 14.6388 16.977 14.6388C16.977 14.6388 19.0639 14.1493 19.0639 12.5518V9.9431H14.89Z" fill="#DEDDE0"/>
<path d="M16.4551 12.0823H17.4986V13.5953H16.4551V12.0823Z" fill="#786145"/>
<path d="M18.0203 11.5085C18.0203 10.9322 17.5531 10.465 16.9768 10.465C16.4005 10.465 15.9333 10.9322 15.9333 11.5085C15.6452 11.5085 15.4116 11.7421 15.4116 12.0302C15.4116 12.3184 15.6452 12.5519 15.9333 12.5519H18.0203C18.3084 12.5519 18.542 12.3184 18.542 12.0302C18.542 11.7421 18.3085 11.5085 18.0203 11.5085V11.5085Z" fill="#6DA544"/>
</g>
<defs>
<clipPath id="clip0_6422_7718">
<rect width="24" height="24" fill="white" transform="translate(0.802734 0.0302734)"/>
</clipPath>
</defs>
</svg>
