<svg width="25" height="25" viewBox="0 0 25 25" fill="none" xmlns="http://www.w3.org/2000/svg">
<g clip-path="url(#clip0_6422_7705)">
<path d="M12.8028 24.8026C19.4302 24.8026 24.8028 19.43 24.8028 12.8026C24.8028 6.17518 19.4302 0.802593 12.8028 0.802593C6.17536 0.802593 0.80278 6.17518 0.80278 12.8026C0.80278 19.43 6.17536 24.8026 12.8028 24.8026Z" fill="#FFDA44"/>
<path d="M12.803 24.8016C16.7405 24.8016 20.235 22.9051 22.4231 19.9759H3.18291C5.37103 22.9051 8.86552 24.8016 12.803 24.8016Z" fill="#0052B4"/>
<path d="M24.8029 12.8017C24.8029 6.17434 19.4302 0.80171 12.8029 0.80171C6.17548 0.80171 0.802856 6.17434 0.802856 12.8017C0.802856 14.2208 1.04984 15.582 1.50204 16.8456H24.1036C24.5559 15.582 24.8029 14.2208 24.8029 12.8017V12.8017Z" fill="#0052B4"/>
<path d="M9.01625 8.49802L9.66374 10.4908H11.7592L10.064 11.7226L10.7115 13.7154L9.01625 12.4837L7.32102 13.7154L7.9686 11.7226L6.27336 10.4908H8.36877L9.01625 8.49802Z" fill="#F0F0F0"/>
<path d="M5.41778 6.41097L5.80628 7.60666H7.06361L6.04647 8.34569L6.43497 9.54142L5.41778 8.80239L4.40064 9.54142L4.78919 8.34569L3.77209 7.60666H5.02938L5.41778 6.41097Z" fill="#F0F0F0"/>
</g>
<defs>
<clipPath id="clip0_6422_7705">
<rect width="24" height="24" fill="white" transform="translate(0.802734 0.802734)"/>
</clipPath>
</defs>
</svg>
