<svg width="25" height="25" viewBox="0 0 25 25" fill="none" xmlns="http://www.w3.org/2000/svg">
<g clip-path="url(#clip0_6422_7741)">
<path d="M12.8025 0.725769C11.7194 0.725769 10.6702 0.870144 9.67207 1.13916L8.62863 12.7258L9.67212 24.3124C10.6702 24.5814 11.7194 24.7258 12.8025 24.7258C19.4299 24.7258 24.8025 19.3531 24.8025 12.7258C24.8025 6.09839 19.4299 0.725769 12.8025 0.725769Z" fill="#FFDA44"/>
<path d="M8.62863 12.7255L9.67212 24.3121C10.6702 24.5811 11.7194 24.7255 12.8025 24.7255C19.4299 24.7255 24.8025 19.3529 24.8025 12.7255H8.62863Z" fill="#6DA544"/>
<path d="M0.802582 12.7257C0.802582 17.2742 3.33336 21.2314 7.06344 23.2666V2.18475C3.33336 4.21997 0.802582 8.17716 0.802582 12.7257Z" fill="#D80027"/>
<path d="M0.802658 12.7256C0.802658 18.2699 4.56302 22.9352 9.6722 24.3122V1.13901C4.56302 2.51601 0.802658 7.18129 0.802658 12.7256Z" fill="#D80027"/>
<path d="M5.33711 9.59464L6.11406 11.986H8.62872L6.59444 13.4641L7.37134 15.8555L5.33711 14.3775L3.30278 15.8555L4.07987 13.4641L2.04559 11.986H4.56011L5.33711 9.59464Z" fill="black"/>
</g>
<defs>
<clipPath id="clip0_6422_7741">
<rect width="24" height="24" fill="white" transform="translate(0.802734 0.725586)"/>
</clipPath>
</defs>
</svg>
