<svg width="25" height="25" viewBox="0 0 25 25" fill="none" xmlns="http://www.w3.org/2000/svg">
<g clip-path="url(#clip0_6422_7846)">
<path d="M12.8027 24.7794C19.4301 24.7794 24.8027 19.4068 24.8027 12.7794C24.8027 6.15197 19.4301 0.779388 12.8027 0.779388C6.1753 0.779388 0.802719 6.15197 0.802719 12.7794C0.802719 19.4068 6.1753 24.7794 12.8027 24.7794Z" fill="#FFDA44"/>
<path d="M8.10691 8.60489H24.0561C22.3607 4.03528 17.9621 0.778778 12.8026 0.778778C9.48878 0.778778 6.48911 2.12217 4.31767 4.29389L8.10691 8.60489Z" fill="#6DA544"/>
<path d="M8.10691 16.9527H24.0561C22.3607 21.5223 17.9621 24.7788 12.8026 24.7788C9.48878 24.7788 6.48911 23.4354 4.31767 21.2637L8.10691 16.9527Z" fill="#6DA544"/>
<path d="M4.31743 4.29405C-0.368851 8.98033 -0.368851 16.5783 4.31743 21.2647C6.25398 19.3281 8.11646 17.4656 12.8027 12.7794L4.31743 4.29405Z" fill="#D80027"/>
<path d="M16.0404 10.6921L16.5584 12.2864H18.2347L16.8786 13.2717L17.3966 14.8661L16.0404 13.8807L14.6842 14.8661L15.2022 13.2717L13.846 12.2864H15.5224L16.0404 10.6921Z" fill="black"/>
<path d="M21.2581 10.6921L21.776 12.2864H23.4524L22.0962 13.2717L22.6142 14.8661L21.2581 13.8807L19.9018 14.8661L20.4198 13.2717L19.0637 12.2864H20.74L21.2581 10.6921Z" fill="black"/>
</g>
<defs>
<clipPath id="clip0_6422_7846">
<rect width="24" height="24" fill="white" transform="translate(0.802734 0.779297)"/>
</clipPath>
</defs>
</svg>
