<svg width="25" height="25" viewBox="0 0 25 25" fill="none" xmlns="http://www.w3.org/2000/svg">
<g clip-path="url(#clip0_6422_7735)">
<path d="M12.8028 24.4103C19.4302 24.4103 24.8028 19.0377 24.8028 12.4103C24.8028 5.78289 19.4302 0.410309 12.8028 0.410309C6.17539 0.410309 0.802811 5.78289 0.802811 12.4103C0.802811 19.0377 6.17539 24.4103 12.8028 24.4103Z" fill="#F0F0F0"/>
<path d="M12.8027 9.2795H24.3893C24.0884 8.16322 23.6311 7.1113 23.0414 6.14905H12.8027V9.2795Z" fill="#338AF3"/>
<path d="M5.33282 21.8012H20.2725C21.3676 20.9289 22.3068 19.8695 23.0414 18.6707H2.56396C3.29854 19.8694 4.23773 20.9289 5.33282 21.8012V21.8012Z" fill="#338AF3"/>
<path d="M4.97657 3.31271C4.03317 4.1251 3.21759 5.08178 2.56396 6.14846H4.97657V3.31271Z" fill="#338AF3"/>
<path d="M12.8026 12.4097C12.8026 11.1874 12.8026 10.1645 12.8026 9.2793H8.10691V12.4097H4.97646V9.2793H1.21596C0.946942 10.2775 0.802567 11.3266 0.802567 12.4097C0.802567 13.4929 0.946942 14.542 1.21596 15.5402H24.3892C24.6582 14.542 24.8026 13.4929 24.8026 12.4097H12.8026Z" fill="#338AF3"/>
<path d="M12.8026 0.40979C11.1362 0.40979 9.54928 0.749774 8.10693 1.3636V6.14893H12.8026C12.8026 5.05618 12.8026 4.12679 12.8026 3.01848H20.2724C18.2226 1.38592 15.6268 0.40979 12.8026 0.40979V0.40979Z" fill="#338AF3"/>
</g>
<defs>
<clipPath id="clip0_6422_7735">
<rect width="24" height="24" fill="white" transform="translate(0.802734 0.410156)"/>
</clipPath>
</defs>
</svg>
