<svg width="25" height="25" viewBox="0 0 25 25" fill="none" xmlns="http://www.w3.org/2000/svg">
<g clip-path="url(#clip0_6422_7834)">
<path d="M12.8027 24.8028C19.4301 24.8028 24.8027 19.4302 24.8027 12.8028C24.8027 6.17536 19.4301 0.802774 12.8027 0.802774C6.17526 0.802774 0.802673 6.17536 0.802673 12.8028C0.802673 19.4302 6.17526 24.8028 12.8027 24.8028Z" fill="#F0F0F0"/>
<path d="M12.8023 0.802824C8.87644 0.802824 5.39105 2.68828 3.2018 5.60282H22.4028C20.2136 2.68828 16.7282 0.802824 12.8023 0.802824Z" fill="#D80027"/>
<path d="M12.8023 24.8027C16.7282 24.8027 20.2136 22.9173 22.4028 20.0027H3.2018C5.39105 22.9173 8.87644 24.8027 12.8023 24.8027Z" fill="#D80027"/>
<path d="M0.802597 12.8028C0.802597 13.6247 0.885472 14.4273 1.04293 15.2028H24.5624C24.7198 14.4273 24.8026 13.6247 24.8026 12.8028C24.8026 11.9808 24.7197 11.1782 24.5623 10.4028H1.04293C0.885472 11.1782 0.802597 11.9808 0.802597 12.8028H0.802597Z" fill="#D80027"/>
<path d="M4.31738 4.31742C-0.368904 9.0037 -0.368904 16.6017 4.31738 21.288C6.25392 19.3515 8.11641 17.489 12.8027 12.8027L4.31738 4.31742Z" fill="#0052B4"/>
<path d="M5.65931 9.67229L6.43627 12.0637H8.95092L6.91664 13.5417L7.69355 15.9332L5.65931 14.4552L3.62499 15.9332L4.40208 13.5417L2.3678 12.0637H4.88227L5.65931 9.67229Z" fill="#F0F0F0"/>
</g>
<defs>
<clipPath id="clip0_6422_7834">
<rect width="24" height="24" fill="white" transform="translate(0.802734 0.802734)"/>
</clipPath>
</defs>
</svg>
