<svg width="25" height="24" viewBox="0 0 25 24" fill="none" xmlns="http://www.w3.org/2000/svg">
<g clip-path="url(#clip0_6422_7691)">
<path d="M0.802795 11.9997C0.802795 14.0786 1.33169 16.034 2.26187 17.7389L12.8028 18.7824L23.3437 17.7389C24.2739 16.034 24.8028 14.0786 24.8028 11.9997C24.8028 9.92082 24.2739 7.96548 23.3437 6.26059L12.8028 5.2171L2.26187 6.26059C1.33169 7.96548 0.802795 9.92082 0.802795 11.9997H0.802795Z" fill="#D80027"/>
<path d="M2.26178 6.26026H23.3436C21.3084 2.53014 17.3512 -0.000595093 12.8027 -0.000595093C8.25419 -0.000595093 4.29705 2.53014 2.26178 6.26026V6.26026Z" fill="#0052B4"/>
<path d="M12.8027 23.9993C17.3512 23.9993 21.3084 21.4685 23.3436 17.7384H2.26178C4.29705 21.4685 8.25418 23.9993 12.8027 23.9993Z" fill="#0052B4"/>
<path d="M16.9765 14.3468V12.7816H15.9331V10.6946L14.8896 9.65115L13.8461 10.6946V8.60766L12.8026 7.56418L11.7591 8.60766V10.6946L10.7156 9.65115L9.67216 10.6946V12.7816H8.62872V14.3468H7.58524V15.912H18.02V14.3468H16.9765Z" fill="#F0F0F0"/>
</g>
<defs>
<clipPath id="clip0_6422_7691">
<rect width="24" height="24" fill="white" transform="translate(0.802734)"/>
</clipPath>
</defs>
</svg>
