<svg width="25" height="24" viewBox="0 0 25 24" fill="none" xmlns="http://www.w3.org/2000/svg">
<g clip-path="url(#clip0_6422_7663)">
<path d="M12.8027 23.9999C19.4301 23.9999 24.8027 18.6273 24.8027 11.9999C24.8027 5.37246 19.4301 -0.00012207 12.8027 -0.00012207C6.17529 -0.00012207 0.802704 5.37246 0.802704 11.9999C0.802704 18.6273 6.17529 23.9999 12.8027 23.9999Z" fill="#F0F0F0"/>
<path d="M12.281 11.9998H24.8027C24.8027 10.9167 24.6583 9.86743 24.3893 8.86932H12.281V11.9998Z" fill="#D80027"/>
<path d="M12.281 5.73928H23.0414C22.3068 4.54059 21.3676 3.48108 20.2725 2.60883H12.281V5.73928Z" fill="#D80027"/>
<path d="M12.8029 24.0004C15.627 24.0004 18.2228 23.0242 20.2727 21.3917H5.33304C7.38288 23.0242 9.97868 24.0004 12.8029 24.0004Z" fill="#D80027"/>
<path d="M2.56396 18.2609H23.0414C23.6311 17.2986 24.0885 16.2468 24.3893 15.1305H1.21606C1.51686 16.2468 1.97422 17.2986 2.56396 18.2609V18.2609Z" fill="#D80027"/>
<path d="M6.36133 1.87385H7.45488L6.43769 2.61283L6.82624 3.80857L5.80909 3.06958L4.79195 3.80857L5.12758 2.77558C4.23199 3.5216 3.44702 4.39563 2.80014 5.3695H3.15053L2.50305 5.83989C2.40217 6.00817 2.30542 6.17913 2.2127 6.35261L2.52189 7.30422L1.94505 6.88511C1.80166 7.18891 1.6705 7.49955 1.55261 7.81666L1.89325 8.86516H3.15053L2.13334 9.60414L2.52189 10.7999L1.50475 10.0609L0.895469 10.5036C0.834485 10.9938 0.802704 11.4931 0.802704 11.9999H12.8027C12.8027 5.3725 12.8027 4.59119 12.8027 -0.00012207C10.4321 -0.00012207 8.22231 0.687534 6.36133 1.87385V1.87385ZM6.82624 10.7999L5.80909 10.0609L4.79195 10.7999L5.1805 9.60414L4.16331 8.86516H5.42059L5.80909 7.66943L6.19759 8.86516H7.45488L6.43769 9.60414L6.82624 10.7999ZM6.43769 6.10849L6.82624 7.30422L5.80909 6.56524L4.79195 7.30422L5.1805 6.10849L4.16331 5.3695H5.42059L5.80909 4.17377L6.19759 5.3695H7.45488L6.43769 6.10849ZM11.1306 10.7999L10.1134 10.0609L9.0963 10.7999L9.48484 9.60414L8.46766 8.86516H9.72494L10.1134 7.66943L10.5019 8.86516H11.7592L10.742 9.60414L11.1306 10.7999ZM10.742 6.10849L11.1306 7.30422L10.1134 6.56524L9.0963 7.30422L9.48484 6.10849L8.46766 5.3695H9.72494L10.1134 4.17377L10.5019 5.3695H11.7592L10.742 6.10849ZM10.742 2.61283L11.1306 3.80857L10.1134 3.06958L9.0963 3.80857L9.48484 2.61283L8.46766 1.87385H9.72494L10.1134 0.678112L10.5019 1.87385H11.7592L10.742 2.61283Z" fill="#0052B4"/>
</g>
<defs>
<clipPath id="clip0_6422_7663">
<rect width="24" height="24" fill="white" transform="translate(0.802734)"/>
</clipPath>
</defs>
</svg>
