<svg width="25" height="24" viewBox="0 0 25 24" fill="none" xmlns="http://www.w3.org/2000/svg">
<g clip-path="url(#clip0_6422_7703)">
<path d="M12.8027 24C19.4301 24 24.8027 18.6275 24.8027 12C24.8027 5.37262 19.4301 3.8147e-05 12.8027 3.8147e-05C6.17529 3.8147e-05 0.802704 5.37262 0.802704 12C0.802704 18.6275 6.17529 24 12.8027 24Z" fill="#F0F0F0"/>
<path d="M24.0563 7.82634H1.54909C1.06675 9.12632 0.802704 10.5324 0.802704 12.0002C0.802704 13.4681 1.06675 14.8741 1.54909 16.1741H24.0564C24.5387 14.8741 24.8027 13.4681 24.8027 12.0002C24.8027 10.5324 24.5387 9.12632 24.0563 7.82634Z" fill="#D80027"/>
<path d="M12.8028 4.57764e-05C9.16577 4.57764e-05 5.90688 1.61836 3.70624 4.17394H21.8994C19.6988 1.61836 16.4399 4.57764e-05 12.8028 4.57764e-05V4.57764e-05Z" fill="#0052B4"/>
<path d="M21.8994 19.8262H3.70618C5.90682 22.3817 9.16571 24.0001 12.8028 24.0001C16.4399 24.0001 19.6988 22.3817 21.8994 19.8262Z" fill="#0052B4"/>
</g>
<defs>
<clipPath id="clip0_6422_7703">
<rect width="24" height="24" fill="white" transform="translate(0.802734)"/>
</clipPath>
</defs>
</svg>
