<svg width="25" height="25" viewBox="0 0 25 25" fill="none" xmlns="http://www.w3.org/2000/svg">
<g clip-path="url(#clip0_6422_7749)">
<path d="M12.8028 24.7255C19.4303 24.7255 24.8028 19.3529 24.8028 12.7255C24.8028 6.09808 19.4303 0.725494 12.8028 0.725494C6.17542 0.725494 0.802841 6.09808 0.802841 12.7255C0.802841 19.3529 6.17542 24.7255 12.8028 24.7255Z" fill="#F0F0F0"/>
<path d="M1.21609 15.8568C1.91041 18.433 3.44064 20.6658 5.49836 22.2468V15.8568H1.21609Z" fill="#0052B4"/>
<path d="M11.7591 24.6806C12.103 24.7103 12.4509 24.7263 12.8026 24.7263C18.3469 24.7263 23.0122 20.9659 24.3892 15.8568H11.7591V24.6806Z" fill="#0052B4"/>
<path d="M24.3892 9.59562C23.0122 4.48643 18.3469 0.726074 12.8026 0.726074C12.4509 0.726074 12.103 0.742105 11.7591 0.77173V9.59562H24.3892Z" fill="#0052B4"/>
<path d="M5.49836 3.20566C3.44064 4.78675 1.91041 7.01955 1.21609 9.59575H5.49836V3.20566Z" fill="#0052B4"/>
<path d="M24.7013 11.1602H10.1942H10.1942V1.01062C9.08522 1.25653 8.03386 1.6551 7.06373 2.18446V11.1601H0.90445C0.837653 11.6725 0.802872 12.1949 0.802872 12.7254C0.802872 13.2559 0.837653 13.7782 0.90445 14.2906H7.06368H7.06373V23.2663C8.03386 23.7956 9.08522 24.1942 10.1942 24.4401V14.2907V14.2906H24.7013C24.768 13.7782 24.8029 13.2559 24.8029 12.7254C24.8029 12.1949 24.768 11.6725 24.7013 11.1602V11.1602Z" fill="#D80027"/>
</g>
<defs>
<clipPath id="clip0_6422_7749">
<rect width="24" height="24" fill="white" transform="translate(0.802734 0.725586)"/>
</clipPath>
</defs>
</svg>
