<svg width="25" height="24" viewBox="0 0 25 24" fill="none" xmlns="http://www.w3.org/2000/svg">
<g clip-path="url(#clip0_6422_7805)">
<path d="M24.8028 12.0002C24.8028 18.6276 19.4301 24.0002 12.8028 24.0002C6.17539 24.0002 0.802765 18.6276 0.802765 12.0002C0.802765 12.0031 12.8028 0.00155664 12.8028 0.000244141C19.4301 0.000244141 24.8028 5.37287 24.8028 12.0002Z" fill="#0052B4"/>
<path d="M12.7709 12.0015H12.8041C12.8041 11.9904 12.8041 11.9795 12.8041 11.9683C12.7931 11.9794 12.782 11.9905 12.7709 12.0015Z" fill="#F0F0F0"/>
<path d="M12.8031 6.26135C12.8031 4.14986 12.8031 2.76635 12.8031 0.000488281H12.8011C6.17455 0.00161328 0.803101 5.37372 0.803101 12.0005H7.06396V8.47497L10.5895 12.0005H12.771C12.7817 11.9898 12.7924 11.9791 12.8031 11.9684C12.8031 11.1599 12.8031 10.4386 12.8031 9.78696L9.27754 6.26135H12.8031Z" fill="#F0F0F0"/>
<path d="M6.87434 1.56476C4.99751 2.63346 3.43719 4.19374 2.36853 6.07057V11.9996H5.49898V4.69531V4.69521H12.8033C12.8033 3.70788 12.8033 2.76729 12.8033 1.56476H6.87434Z" fill="#D80027"/>
<path d="M12.8032 10.5241L8.53965 6.26068H7.06403V6.26077L12.8031 11.9998H12.8032C12.8032 11.9998 12.8032 10.9823 12.8032 10.5241V10.5241Z" fill="#D80027"/>
<path d="M14.368 6.2608V11.9999C14.368 14.7955 18.0202 15.6521 18.0202 15.6521C18.0202 15.6521 21.6723 14.7955 21.6723 11.9999V6.2608H14.368Z" fill="#338AF3"/>
<path d="M14.368 12C14.368 14.7957 18.0202 15.6523 18.0202 15.6523C18.0202 15.6523 21.6723 14.7957 21.6723 12H14.368Z" fill="#A2001D"/>
<path d="M19.5855 8.86946H18.542V7.82593H17.4985V8.86946H16.455V9.9129H17.4985V13.0433H18.542V9.9129H19.5855V8.86946Z" fill="black"/>
</g>
<defs>
<clipPath id="clip0_6422_7805">
<rect width="24" height="24" fill="white" transform="translate(0.802734)"/>
</clipPath>
</defs>
</svg>
