<svg width="25" height="25" viewBox="0 0 25 25" fill="none" xmlns="http://www.w3.org/2000/svg">
<g clip-path="url(#clip0_6422_7760)">
<path d="M12.8027 24.7257C19.4301 24.7257 24.8027 19.3531 24.8027 12.7257C24.8027 6.09829 19.4301 0.725708 12.8027 0.725708C6.17524 0.725708 0.802662 6.09829 0.802662 12.7257C0.802662 19.3531 6.17524 24.7257 12.8027 24.7257Z" fill="#F0F0F0"/>
<path d="M22.323 20.0328L15.0164 12.7262H15.0163L22.323 5.41946C22.0079 5.00996 21.6631 4.61598 21.2881 4.24084C20.913 3.86575 20.519 3.52098 20.1095 3.20593L12.8028 10.5126L12.8028 10.5126L5.49614 3.20593C5.08669 3.52103 4.69266 3.8657 4.31752 4.24084C3.94237 4.61598 3.59766 5.00996 3.28261 5.41946L10.5892 12.7261L10.5893 12.7261L3.28256 20.0328C3.5977 20.4423 3.94242 20.8363 4.31747 21.2115C4.69261 21.5866 5.08655 21.9313 5.49609 22.2464L12.8028 14.9397L12.8028 14.9397L20.1095 22.2463C20.5189 21.9312 20.913 21.5865 21.2881 21.2114C21.6632 20.8363 22.0079 20.4423 22.323 20.0328V20.0328Z" fill="#D80027"/>
<path d="M10.7157 4.37761L12.8027 4.89933L14.8896 4.37761V2.60372L14.0548 3.02109L12.8027 1.76892L11.5505 3.02109L10.7157 2.60372V4.37761Z" fill="#FFDA44"/>
<path d="M10.7157 4.37793V5.68237C10.7157 7.27987 12.8027 7.76934 12.8027 7.76934C12.8027 7.76934 14.8896 7.27982 14.8896 5.68237V4.37793H10.7157Z" fill="#D80027"/>
</g>
<defs>
<clipPath id="clip0_6422_7760">
<rect width="24" height="24" fill="white" transform="translate(0.802734 0.725586)"/>
</clipPath>
</defs>
</svg>
