<svg width="25" height="25" viewBox="0 0 25 25" fill="none" xmlns="http://www.w3.org/2000/svg">
<g clip-path="url(#clip0_6422_7876)">
<path d="M1.99345 7.50784C1.23061 9.08546 0.802734 10.8554 0.802734 12.7252C0.802734 14.5951 1.23061 16.365 1.99345 17.9426L12.8027 18.9861L23.612 17.9426C24.3749 16.365 24.8027 14.5951 24.8027 12.7252C24.8027 10.8554 24.3749 9.08546 23.612 7.50784L12.8027 6.46436L1.99345 7.50784Z" fill="#F0F0F0"/>
<path d="M1.99387 17.9428C3.93482 21.9567 8.04524 24.7255 12.8027 24.7255C17.5602 24.7255 21.6707 21.9567 23.6116 17.9428H1.99387Z" fill="#6DA544"/>
<path d="M1.99387 7.50836H23.6116C21.6707 3.49446 17.5602 0.725739 12.8027 0.725739C8.04524 0.725739 3.93482 3.49446 1.99387 7.50836Z" fill="#D80027"/>
<path d="M10.7159 15.8548H14.8898V14.0808L14.055 14.4982L12.8028 13.246L11.5507 14.4982L10.7159 14.0808V15.8548Z" fill="#FFDA44"/>
<path d="M8.3278 13.7679L8.5221 14.3658H9.15069L8.6421 14.7353L8.8364 15.3331L8.3278 14.9637L7.81921 15.3331L8.01351 14.7353L7.50491 14.3658H8.13351L8.3278 13.7679Z" fill="#FFDA44"/>
<path d="M8.93013 11.6815L9.12443 12.2794H9.75302L9.24443 12.6489L9.43868 13.2467L8.93013 12.8773L8.42154 13.2467L8.61583 12.6489L8.10724 12.2794H8.73583L8.93013 11.6815Z" fill="#FFDA44"/>
<path d="M10.652 10.1158L10.8463 10.7136H11.4748L10.9663 11.0831L11.1605 11.681L10.652 11.3115L10.1434 11.681L10.3377 11.0831L9.82907 10.7136H10.4577L10.652 10.1158Z" fill="#FFDA44"/>
<path d="M17.278 13.7679L17.0837 14.3658H16.4551L16.9637 14.7353L16.7694 15.3331L17.278 14.9637L17.7866 15.3331L17.5923 14.7353L18.1009 14.3658H17.4723L17.278 13.7679Z" fill="#FFDA44"/>
<path d="M16.6757 11.6815L16.4814 12.2794H15.8528L16.3614 12.6489L16.1671 13.2467L16.6757 12.8773L17.1843 13.2467L16.99 12.6489L17.4986 12.2794H16.87L16.6757 11.6815Z" fill="#FFDA44"/>
<path d="M14.9538 10.1158L14.7595 10.7136H14.131L14.6395 11.0831L14.4452 11.681L14.9538 11.3115L15.4624 11.681L15.2681 11.0831L15.7767 10.7136H15.1481L14.9538 10.1158Z" fill="#FFDA44"/>
<path d="M12.8027 9.33319L12.997 9.93103H13.6256L13.117 10.3006L13.3113 10.8984L12.8027 10.5289L12.2942 10.8984L12.4885 10.3006L11.9799 9.93103H12.6085L12.8027 9.33319Z" fill="#FFDA44"/>
</g>
<defs>
<clipPath id="clip0_6422_7876">
<rect width="24" height="24" fill="white" transform="translate(0.802734 0.725586)"/>
</clipPath>
</defs>
</svg>
