<svg width="25" height="24" viewBox="0 0 25 24" fill="none" xmlns="http://www.w3.org/2000/svg">
<g clip-path="url(#clip0_6422_7812)">
<path d="M12.8027 24C19.4301 24 24.8027 18.6274 24.8027 12C24.8027 5.37257 19.4301 -1.52588e-05 12.8027 -1.52588e-05C6.17526 -1.52588e-05 0.802673 5.37257 0.802673 12C0.802673 18.6274 6.17526 24 12.8027 24Z" fill="#F0F0F0"/>
<path d="M24.7326 13.3051L24.7316 13.3038L24.7315 13.3051H24.7326Z" fill="#0052B4"/>
<path d="M24.7315 13.3043C24.7315 13.3042 24.7315 13.3041 24.7315 13.3039L11.5716 0.0623627C10.9779 0.122878 10.397 0.22666 9.83211 0.370519C4.64121 1.69216 0.802246 12 0.802246 12C0.802246 12 17.6022 23.2422 19.5187 21.9452C19.9022 21.6857 20.2699 21.4046 20.62 21.1036L12.8208 13.3043H24.7315Z" fill="#0052B4"/>
<path d="M21.6722 11.9996L10.0017 0.329086C4.72554 1.59082 0.802666 6.33673 0.802666 11.9996C0.802666 18.627 6.17529 23.9996 12.8027 23.9996C15.3165 23.9996 17.6494 23.2261 19.5775 21.9048L9.67221 11.9996H21.6722Z" fill="#D80027"/>
<path d="M12.2152 17.7184L10.7496 17.0291L11.5301 15.6097L9.93864 15.9142L9.73699 14.3065L8.62853 15.4889L7.52008 14.3065L7.31838 15.9142L5.72702 15.6097L6.50744 17.0291L5.04185 17.7184L6.50744 18.4077L5.72702 19.8271L7.31847 19.5227L7.52003 21.1303L8.62853 19.9479L9.73699 21.1303L9.93864 19.5227L11.53 19.8271L10.7496 18.4078L12.2152 17.7184Z" fill="#F0F0F0"/>
<path d="M11.2372 6.65547L10.1712 6.15414L10.7388 5.12181L9.58135 5.34325L9.43468 4.1739L8.62848 5.03392L7.82228 4.1739L7.67556 5.34325L6.51807 5.12181L7.08573 6.15414L6.01974 6.65547L8.62848 7.17728L11.2372 6.65547Z" fill="#F0F0F0"/>
<path d="M11.759 6.65538C11.759 8.38427 10.3575 9.78583 8.62859 9.78583C6.8997 9.78583 5.49814 8.38427 5.49814 6.65538" fill="#F0F0F0"/>
</g>
<defs>
<clipPath id="clip0_6422_7812">
<rect width="24" height="24" fill="white" transform="translate(0.802734)"/>
</clipPath>
</defs>
</svg>
