<svg width="25" height="25" viewBox="0 0 25 25" fill="none" xmlns="http://www.w3.org/2000/svg">
<g clip-path="url(#clip0_6422_7884)">
<path d="M7.3002 2.05823C6.22591 2.61271 5.21749 3.33951 4.31693 4.24007C3.41632 5.14068 2.68952 6.1491 2.13509 7.22338L9.85104 15.6772L18.3049 23.3932C19.3792 22.8387 20.3876 22.1119 21.2882 21.2114C22.1888 20.3108 22.9156 19.3024 23.4701 18.2281L15.7541 9.77418L7.3002 2.05823Z" fill="#F0F0F0"/>
<path d="M21.2883 21.2112C21.7917 20.7078 22.2407 20.1707 22.6359 19.6073L5.921 2.8923C5.35761 3.28751 4.82047 3.73648 4.31708 4.23987C3.81369 4.74326 3.36472 5.2804 2.96947 5.84383L19.6844 22.5587C20.2477 22.1635 20.7849 21.7146 21.2883 21.2112Z" fill="black"/>
<path d="M4.31651 21.2114C8.10246 24.9974 13.7883 25.7241 18.3045 23.3932L2.13471 7.22339C-0.196147 11.7396 0.530744 17.4255 4.31651 21.2114V21.2114Z" fill="#D80027"/>
<path d="M21.2878 4.24044C17.5019 0.454537 11.8161 -0.272213 7.29984 2.05855L23.4696 18.2285C25.8005 13.7122 25.0738 8.02635 21.2878 4.24044V4.24044Z" fill="#D80027"/>
</g>
<defs>
<clipPath id="clip0_6422_7884">
<rect width="24" height="24" fill="white" transform="translate(0.802734 0.725586)"/>
</clipPath>
</defs>
</svg>
