<svg width="25" height="24" viewBox="0 0 25 24" fill="none" xmlns="http://www.w3.org/2000/svg">
<g clip-path="url(#clip0_6422_7791)">
<path d="M12.8027 24.0002C19.4301 24.0002 24.8027 18.6276 24.8027 12.0002C24.8027 5.37277 19.4301 0.000183105 12.8027 0.000183105C6.17523 0.000183105 0.802652 5.37277 0.802652 12.0002C0.802652 18.6276 6.17523 24.0002 12.8027 24.0002Z" fill="#F0F0F0"/>
<path d="M12.2808 11.9998H24.8026C24.8026 10.9166 24.6582 9.86748 24.3892 8.86932H12.2808V11.9998Z" fill="#D80027"/>
<path d="M12.2808 5.73925H23.0413C22.3067 4.54056 21.3676 3.48105 20.2724 2.6088H12.2808V5.73925Z" fill="#D80027"/>
<path d="M12.8027 24.0004C15.6269 24.0004 18.2227 23.0242 20.2726 21.3917H5.33289C7.38278 23.0242 9.97857 24.0004 12.8027 24.0004V24.0004Z" fill="#D80027"/>
<path d="M2.56382 18.2609H23.0413C23.631 17.2987 24.0883 16.2468 24.3892 15.1305H1.21593C1.51673 16.2468 1.97409 17.2987 2.56382 18.2609V18.2609Z" fill="#D80027"/>
<path d="M12.8027 12.0002C12.8027 5.37281 12.8027 4.5915 12.8027 0.000183105C6.17528 0.000183105 0.802652 5.37281 0.802652 12.0002H12.8027Z" fill="#0052B4"/>
<path d="M8.78249 10.272C7.14365 10.272 5.81512 8.94342 5.81512 7.30462C5.81512 5.66582 7.1437 4.33725 8.78249 4.33725C9.29348 4.33725 9.77427 4.46648 10.194 4.69392C9.53554 4.05 8.63498 3.6525 7.64118 3.6525C5.6242 3.6525 3.98901 5.28764 3.98901 7.30467C3.98901 9.3217 5.6242 10.9568 7.64118 10.9568C8.63498 10.9568 9.53554 10.5593 10.194 9.91542C9.77427 10.1428 9.29352 10.272 8.78249 10.272V10.272Z" fill="#FFDA44"/>
<path d="M9.61859 5.21826L10.1454 6.31992L11.3351 6.04504L10.8024 7.14375L11.7592 7.90251L10.5679 8.17106L10.5712 9.3922L9.61859 8.62823L8.6659 9.3922L8.66918 8.17106L7.4779 7.90251L8.43471 7.14375L7.90188 6.04504L9.09171 6.31992L9.61859 5.21826Z" fill="#FFDA44"/>
</g>
<defs>
<clipPath id="clip0_6422_7791">
<rect width="24" height="24" fill="white" transform="translate(0.802734)"/>
</clipPath>
</defs>
</svg>
