<svg width="25" height="24" viewBox="0 0 25 24" fill="none" xmlns="http://www.w3.org/2000/svg">
<g clip-path="url(#clip0_6422_7686)">
<path d="M24.8029 12C24.8029 18.6273 19.4302 24 12.8029 24C6.17548 24 0.802856 18.6273 0.802856 12C0.802856 12.0028 12.8029 0.00128198 12.8029 -3.05176e-05C19.4302 -3.05176e-05 24.8029 5.37259 24.8029 12Z" fill="#0052B4"/>
<path d="M12.7708 12.0009H12.8041C12.8041 11.9898 12.8041 11.9789 12.8041 11.9677C12.793 11.9788 12.7819 11.9899 12.7708 12.0009Z" fill="#F0F0F0"/>
<path d="M12.8031 6.26083C12.8031 4.14934 12.8031 2.76583 12.8031 -3.05176e-05H12.8011C6.17458 0.00109448 0.803131 5.3732 0.803131 12H7.06399V8.47445L10.5895 12H12.7711C12.7818 11.9893 12.7924 11.9786 12.8032 11.9679C12.8032 11.1594 12.8032 10.438 12.8032 9.78644L9.27757 6.26083H12.8031Z" fill="#F0F0F0"/>
<path d="M6.87413 1.56512C4.9973 2.63383 3.43697 4.19411 2.36832 6.07094V11.9999H5.49877V4.69567V4.69558H12.8031C12.8031 3.70825 12.8031 2.76766 12.8031 1.56512H6.87413Z" fill="#D80027"/>
<path d="M18.0204 11.9998L14.777 15.2432C15.3849 16.4156 16.6087 17.2171 18.0204 17.2171C19.4321 17.2171 20.6559 16.4156 21.2638 15.2432L18.0204 11.9998Z" fill="#FFDA44"/>
<path d="M12.8032 10.5246L8.53965 6.26114H7.06403V6.26123L12.8031 12.0002H12.8032C12.8032 12.0002 12.8032 10.9827 12.8032 10.5246V10.5246Z" fill="#D80027"/>
<path d="M14.3681 6.26051V11.9996V11.9997C14.3681 14.7952 18.0203 15.6518 18.0203 15.6518C18.0203 15.6518 21.6724 14.7952 21.6724 11.9997V11.9996V6.26051H14.3681Z" fill="#6DA544"/>
<path d="M17.2377 8.86949H18.8029V13.0434H17.2377V8.86949Z" fill="#F0F0F0"/>
<path d="M18.0203 9.65218C18.4526 9.65218 18.803 9.30179 18.803 8.86955C18.803 8.43732 18.4526 8.08693 18.0203 8.08693C17.5881 8.08693 17.2377 8.43732 17.2377 8.86955C17.2377 9.30179 17.5881 9.65218 18.0203 9.65218Z" fill="#A2001D"/>
<path d="M15.4116 7.30414H16.4551V8.34762H15.4116V7.30414Z" fill="#FFDA44"/>
<path d="M15.4116 9.65184H16.4551V10.6953H15.4116V9.65184Z" fill="#FFDA44"/>
<path d="M15.4116 11.9995H16.4551V13.043H15.4116V11.9995Z" fill="#FFDA44"/>
<path d="M19.5857 7.30414H20.6292V8.34762H19.5857V7.30414Z" fill="#FFDA44"/>
<path d="M19.5857 9.65184H20.6292V10.6953H19.5857V9.65184Z" fill="#FFDA44"/>
<path d="M19.5857 11.9995H20.6292V13.043H19.5857V11.9995Z" fill="#FFDA44"/>
</g>
<defs>
<clipPath id="clip0_6422_7686">
<rect width="24" height="24" fill="white" transform="translate(0.802734)"/>
</clipPath>
</defs>
</svg>
