<svg width="25" height="24" viewBox="0 0 25 24" fill="none" xmlns="http://www.w3.org/2000/svg">
<g clip-path="url(#clip0_6422_7816)">
<path d="M24.8028 12C24.8028 18.6274 19.4302 24 12.8028 24C6.17544 24 0.802811 18.6274 0.802811 12C0.802811 12.0028 12.8028 0.00129724 12.8028 -1.52588e-05C19.4302 -1.52588e-05 24.8028 5.37261 24.8028 12Z" fill="#FFDA44"/>
<path d="M12.8025 5.73929V9.78662L8.62862 5.73929H12.8025Z" fill="#0052B4"/>
<path d="M7.06359 12.0001H10.5891L7.06359 7.30443L6.54187 10.9566L7.06359 12.0001Z" fill="#0052B4"/>
<path d="M12.7703 12.001H12.8035C12.8035 11.9898 12.8035 11.9789 12.8035 11.9677C12.7925 11.9788 12.7814 11.9899 12.7703 12.001Z" fill="#F0F0F0"/>
<path d="M12.8025 6.26084C12.8025 4.14936 12.8025 2.76584 12.8025 -1.52588e-05H12.8005C6.17397 0.00110974 0.802521 5.37322 0.802521 12H7.06338V8.47447L10.5889 12H12.7705C12.7811 11.9893 12.7918 11.9786 12.8026 11.9679C12.8026 11.1594 12.8026 10.4381 12.8026 9.78645L9.27696 6.26084H12.8025Z" fill="#F0F0F0"/>
<path d="M12.8025 10.5242L8.53899 6.26076H7.06337V6.26085L12.8024 11.9999H12.8025C12.8025 11.9999 12.8025 10.9823 12.8025 10.5242V10.5242Z" fill="#D80027"/>
<path d="M6.87347 1.56535C6.41086 1.82879 5.96766 2.12237 5.54616 2.44285H6.03854L4.73719 3.38851L5.23416 4.91837L3.93282 3.9729L3.79435 4.07354C3.25402 4.68713 2.77496 5.35595 2.36766 6.07117V12.0002H5.49811V4.6959V4.69581H12.8025C12.8025 3.70848 12.8025 2.76788 12.8025 1.56535H6.87347Z" fill="#D80027"/>
<path d="M5.92911 2.16367C5.79969 2.25428 5.67209 2.34742 5.54642 2.44299L4.73759 3.38865L3.93322 3.97299L3.79358 4.07443C3.49892 4.40912 3.22259 4.76031 2.96619 5.12654C3.25845 5.26838 3.58653 5.34812 3.93322 5.34812C5.15787 5.34812 6.15059 4.3554 6.15059 3.13074C6.15069 2.78396 6.071 2.45598 5.92911 2.16367V2.16367Z" fill="#0052B4"/>
<path d="M3.79364 4.07413L3.93328 3.97269L5.23462 4.9182L4.73761 3.38834L6.03886 2.44269H5.54639C4.90917 2.92733 4.32197 3.47408 3.79364 4.07413V4.07413Z" fill="#FFDA44"/>
<path d="M9.09672 2.0872L9.35575 2.88431H10.1939L9.51583 3.37702L9.77472 4.17413L9.09672 3.68147L8.41867 4.17413L8.67751 3.37702L7.99947 2.88431H8.83764L9.09672 2.0872Z" fill="#FFDA44"/>
<path d="M3.93305 7.30452L4.19208 8.10163H5.03021L4.35221 8.59438L4.6111 9.39149L3.93305 8.89879L3.25496 9.39149L3.51385 8.59438L2.83585 8.10163H3.67397L3.93305 7.30452Z" fill="#FFDA44"/>
</g>
<defs>
<clipPath id="clip0_6422_7816">
<rect width="24" height="24" fill="white" transform="translate(0.802734)"/>
</clipPath>
</defs>
</svg>
