<svg width="25" height="24" viewBox="0 0 25 24" fill="none" xmlns="http://www.w3.org/2000/svg">
<g clip-path="url(#clip0_6422_7811)">
<path d="M12.8026 24C19.4301 24 24.8026 18.6274 24.8026 12C24.8026 5.37257 19.4301 -1.52588e-05 12.8026 -1.52588e-05C6.17523 -1.52588e-05 0.802643 5.37257 0.802643 12C0.802643 18.6274 6.17523 24 12.8026 24Z" fill="#0052B4"/>
<path d="M12.8026 24C19.4301 24 24.8026 18.6274 24.8026 12C24.8026 5.37257 19.4301 -1.52588e-05 12.8026 -1.52588e-05C6.17523 -1.52588e-05 0.802643 5.37257 0.802643 12C0.802643 18.6274 6.17523 24 12.8026 24Z" fill="#FFDA44"/>
<path d="M12.8025 -1.52588e-05C6.52666 -1.52588e-05 1.37707 4.81785 0.848175 10.9565H24.7568C24.2279 4.81785 19.0783 -1.52588e-05 12.8025 -1.52588e-05V-1.52588e-05Z" fill="#0052B4"/>
<path d="M12.8024 24.0001C19.0782 24.0001 24.2278 19.1822 24.7567 13.0436H0.848099C1.37699 19.1822 6.52658 24.0001 12.8024 24.0001Z" fill="#0052B4"/>
<path d="M10.7158 16.174L9.37112 16.8065L10.0871 18.1088L8.62703 17.8294L8.44201 19.3045L7.42497 18.2196L6.40797 19.3045L6.22295 17.8294L4.76279 18.1087L5.47886 16.8065L4.1342 16.174L5.4789 15.5415L4.76279 14.2393L6.2229 14.5186L6.40801 13.0436L7.42497 14.1284L8.44206 13.0436L8.62703 14.5186L10.0872 14.2393L9.37117 15.5416L10.7158 16.174Z" fill="#F0F0F0"/>
</g>
<defs>
<clipPath id="clip0_6422_7811">
<rect width="24" height="24" fill="white" transform="translate(0.802734)"/>
</clipPath>
</defs>
</svg>
