<svg width="25" height="24" viewBox="0 0 25 24" fill="none" xmlns="http://www.w3.org/2000/svg">
<g clip-path="url(#clip0_6422_7778)">
<path d="M7.58559 22.8095C9.16322 23.5723 10.9331 24.0002 12.803 24.0002C14.6729 24.0002 16.4427 23.5723 18.0203 22.8095L19.0638 12.0002L18.0203 1.19093C16.4427 0.428089 14.6729 0.000213623 12.803 0.000213623C10.9331 0.000213623 9.16322 0.428089 7.58559 1.19093L6.54211 12.0002L7.58559 22.8095Z" fill="#FFDA44"/>
<path d="M18.0203 22.8087C22.0342 20.8678 24.8029 16.7574 24.8029 11.9999C24.8029 7.24238 22.0342 3.13192 18.0203 1.19101V22.8087Z" fill="#D80027"/>
<path d="M7.58549 22.8087V1.19101C3.57154 3.13192 0.802868 7.24234 0.802868 11.9999C0.802868 16.7574 3.57154 20.8678 7.58549 22.8087Z" fill="#0052B4"/>
<path d="M12.8029 16.1741C12.8029 14.2592 12.8029 12.0002 12.8029 12.0002H15.9334V13.5654C15.9334 13.8374 15.4116 14.8337 14.1239 15.6524C13.6361 15.9625 13.1312 16.0623 12.8029 16.1741Z" fill="#D80027"/>
<path d="M9.67265 8.86996H12.8031V12.0004H9.67265V8.86996Z" fill="#D80027"/>
<path d="M14.3683 7.82614C14.3683 7.24981 13.9011 6.78265 13.3248 6.78265C13.1345 6.78265 12.9566 6.8344 12.8031 6.92337C12.6494 6.8344 12.4716 6.78265 12.2813 6.78265C11.7051 6.78265 11.2379 7.24981 11.2379 7.82614H8.62916V13.0435C8.62916 14.9858 10.1716 16.109 11.3812 16.6913C11.2907 16.8459 11.2379 17.0253 11.2379 17.2174C11.2379 17.7938 11.7051 18.2609 12.2813 18.2609C12.4716 18.2609 12.6495 18.2092 12.8031 18.1202C12.9567 18.2092 13.1345 18.2609 13.3248 18.2609C13.9011 18.2609 14.3683 17.7938 14.3683 17.2174C14.3683 17.0253 14.3154 16.8459 14.2248 16.6913C15.4344 16.109 16.9769 14.9858 16.9769 13.0435V7.82614H14.3683ZM15.4117 13.0435C15.4117 13.3154 15.4117 14.1428 14.124 14.9615C13.6362 15.2716 13.1314 15.4727 12.8031 15.5845C12.4747 15.4727 11.9699 15.2716 11.4821 14.9615C10.1944 14.1428 10.1944 13.3154 10.1944 13.0435V9.39134H15.4117V13.0435Z" fill="#FF9811"/>
</g>
<defs>
<clipPath id="clip0_6422_7778">
<rect width="24" height="24" fill="white" transform="translate(0.802734)"/>
</clipPath>
</defs>
</svg>
