<svg width="25" height="24" viewBox="0 0 25 24" fill="none" xmlns="http://www.w3.org/2000/svg">
<g clip-path="url(#clip0_6422_7773)">
<path d="M18.02 1.19093C16.4423 0.428089 14.6724 0.000213623 12.8026 0.000213623C10.9327 0.000213623 9.16283 0.428089 7.5852 1.19093L6.54172 12.0002L7.5852 22.8095C9.16283 23.5723 10.9327 24.0002 12.8026 24.0002C14.6724 24.0002 16.4423 23.5723 18.02 22.8095L19.0634 12.0002L18.02 1.19093Z" fill="#D80027"/>
<path d="M7.58542 1.19101C3.57151 3.13196 0.802795 7.24238 0.802795 11.9999C0.802795 16.7574 3.57151 20.8678 7.58542 22.8087V1.19101Z" fill="black"/>
<path d="M18.0202 1.19101V22.8087C22.0341 20.8678 24.8028 16.7574 24.8028 11.9999C24.8028 7.24238 22.0341 3.13196 18.0202 1.19101Z" fill="#496E2D"/>
<path d="M12.8027 7.82651C10.4975 7.82651 8.62878 9.69523 8.62878 12.0004C8.62878 14.3056 10.4975 16.1743 12.8027 16.1743C15.1078 16.1743 16.9766 14.3056 16.9766 12.0004C16.9766 9.69523 15.1079 7.82651 12.8027 7.82651ZM12.8027 14.6091C11.3619 14.6091 10.194 13.4411 10.194 12.0004C10.194 10.5597 11.362 9.39171 12.8027 9.39171C14.2434 9.39171 15.4114 10.5597 15.4114 12.0004C15.4114 13.4411 14.2434 14.6091 12.8027 14.6091Z" fill="#FFDA44"/>
<path d="M12.8029 10.4348C12.2266 10.4348 11.7594 10.9019 11.7594 11.4783V13.0435H13.8464V11.4783C13.8464 10.9019 13.3792 10.4348 12.8029 10.4348V10.4348Z" fill="#FFDA44"/>
</g>
<defs>
<clipPath id="clip0_6422_7773">
<rect width="24" height="24" fill="white" transform="translate(0.802734)"/>
</clipPath>
</defs>
</svg>
