<svg width="25" height="24" viewBox="0 0 25 24" fill="none" xmlns="http://www.w3.org/2000/svg">
<g clip-path="url(#clip0_6422_7670)">
<path d="M12.8027 24C19.4302 24 24.8027 18.6274 24.8027 12C24.8027 5.37258 19.4302 0 12.8027 0C6.17532 0 0.802734 5.37258 0.802734 12C0.802734 18.6274 6.17532 24 12.8027 24Z" fill="#F0F0F0"/>
<path d="M12.8027 -9.15527e-05C10.3945 -9.15527e-05 8.15235 0.70983 6.27304 1.93106L9.35924 3.99961L5.49838 5.99958L9.35924 7.99955L5.49838 9.99952L9.35924 11.9993L5.49838 13.9992L9.35924 15.9991L5.49838 17.9993L9.35924 19.9992L6.27266 22.0684C8.15207 23.2899 10.3943 23.9999 12.8027 23.9999C19.4301 23.9999 24.8027 18.6273 24.8027 11.9999C24.8027 5.37253 19.4301 -9.15527e-05 12.8027 -9.15527e-05V-9.15527e-05Z" fill="#D80027"/>
</g>
<defs>
<clipPath id="clip0_6422_7670">
<rect width="24" height="24" fill="white" transform="translate(0.802734)"/>
</clipPath>
</defs>
</svg>
