<svg width="25" height="25" viewBox="0 0 25 25" fill="none" xmlns="http://www.w3.org/2000/svg">
<g clip-path="url(#clip0_6422_7875)">
<path d="M24.8027 12.7255C24.8027 19.3529 19.4301 24.7255 12.8027 24.7255C6.17533 24.7255 0.802704 19.3529 0.802704 12.7255C4.92442 8.60378 8.42008 5.10812 12.8027 0.725494C19.4301 0.725494 24.8027 6.09812 24.8027 12.7255Z" fill="#D80027"/>
<path d="M12.8027 12.7255C12.8027 6.09812 12.8027 5.31681 12.8027 0.725494C6.17533 0.725494 0.802704 6.09812 0.802704 12.7255H12.8027Z" fill="#0052B4"/>
<path d="M11.2375 7.74806L9.77197 8.43749L10.5523 9.85682L8.96099 9.55232L8.75929 11.16L7.65088 9.97762L6.54238 11.16L6.34077 9.55232L4.74936 9.85673L5.52974 8.4374L4.06424 7.74806L5.52979 7.05876L4.74936 5.63938L6.34072 5.94384L6.54243 4.33621L7.65088 5.51859L8.75933 4.33621L8.96099 5.94384L10.5524 5.63938L9.77197 7.05881L11.2375 7.74806Z" fill="#F0F0F0"/>
<path d="M7.65115 9.98193C8.88481 9.98193 9.88489 8.98186 9.88489 7.7482C9.88489 6.51454 8.88481 5.51447 7.65115 5.51447C6.4175 5.51447 5.41742 6.51454 5.41742 7.7482C5.41742 8.98186 6.4175 9.98193 7.65115 9.98193Z" fill="#0052B4"/>
<path d="M7.65084 8.93818C6.99454 8.93818 6.46063 8.40423 6.46063 7.74793C6.46063 7.09163 6.99459 6.55768 7.65084 6.55768C8.30713 6.55768 8.84108 7.09163 8.84108 7.74793C8.84104 8.40423 8.30704 8.93818 7.65084 8.93818Z" fill="#F0F0F0"/>
</g>
<defs>
<clipPath id="clip0_6422_7875">
<rect width="24" height="24" fill="white" transform="translate(0.802734 0.725586)"/>
</clipPath>
</defs>
</svg>
