<svg width="25" height="25" viewBox="0 0 25 25" fill="none" xmlns="http://www.w3.org/2000/svg">
<g clip-path="url(#clip0_6422_7840)">
<path d="M12.8028 24.2821C19.4302 24.2821 24.8028 18.9095 24.8028 12.2821C24.8028 5.65467 19.4302 0.282085 12.8028 0.282085C6.17535 0.282085 0.802765 5.65467 0.802765 12.2821C0.802765 18.9095 6.17535 24.2821 12.8028 24.2821Z" fill="#F0F0F0"/>
<path d="M24.0564 16.4555C24.5388 15.1555 24.8028 13.7495 24.8028 12.2816C24.8028 10.8138 24.5388 9.40772 24.0564 8.10774H1.54916C1.06681 9.40772 0.802765 10.8138 0.802765 12.2816C0.802765 13.7495 1.06681 15.1555 1.54916 16.4555L12.8028 17.499L24.0564 16.4555Z" fill="#0052B4"/>
<path d="M12.8028 24.2814C17.9624 24.2814 22.3609 21.0249 24.0564 16.4553H1.54922C3.24474 21.0249 7.64326 24.2814 12.8028 24.2814Z" fill="#D80027"/>
</g>
<defs>
<clipPath id="clip0_6422_7840">
<rect width="24" height="24" fill="white" transform="translate(0.802734 0.282227)"/>
</clipPath>
</defs>
</svg>
