<svg width="25" height="24" viewBox="0 0 25 24" fill="none" xmlns="http://www.w3.org/2000/svg">
<g clip-path="url(#clip0_6422_7793)">
<path d="M16.9765 0.746299C15.6765 0.263955 14.2704 -9.15527e-05 12.8026 -9.15527e-05C11.3347 -9.15527e-05 9.92867 0.263955 8.62869 0.746299L7.58521 11.9999L8.62869 23.2535C9.92867 23.7359 11.3347 23.9999 12.8026 23.9999C14.2704 23.9999 15.6765 23.7359 16.9765 23.2535L18.02 11.9999L16.9765 0.746299Z" fill="#FFDA44"/>
<path d="M24.8024 12.0002C24.8024 6.84071 21.5459 2.44214 16.9763 0.746674V23.2539C21.5459 21.5583 24.8024 17.1599 24.8024 12.0002V12.0002Z" fill="#D80027"/>
<path d="M0.80275 12.0002C0.80275 17.1599 4.05925 21.5583 8.62886 23.2539V0.746674C4.05925 2.44214 0.80275 6.8407 0.80275 12.0002V12.0002Z" fill="#6DA544"/>
</g>
<defs>
<clipPath id="clip0_6422_7793">
<rect width="24" height="24" fill="white" transform="translate(0.802734)"/>
</clipPath>
</defs>
</svg>
