<svg width="25" height="24" viewBox="0 0 25 24" fill="none" xmlns="http://www.w3.org/2000/svg">
<g clip-path="url(#clip0_6422_7822)">
<path d="M12.8028 23.9998C19.4302 23.9998 24.8028 18.6272 24.8028 11.9998C24.8028 5.37238 19.4302 -0.000198364 12.8028 -0.000198364C6.17535 -0.000198364 0.802765 5.37238 0.802765 11.9998C0.802765 18.6272 6.17535 23.9998 12.8028 23.9998Z" fill="#F0F0F0"/>
<path d="M0.803162 12C0.803162 16.5485 3.33394 20.5057 7.06402 22.5409V1.45905C3.33394 3.49426 0.803162 7.45145 0.803162 12Z" fill="#D80027"/>
<path d="M24.0568 16.1741C24.5392 14.8742 24.8032 13.4681 24.8032 12.0002C24.8032 10.5324 24.5392 9.12629 24.0568 7.82635H1.5496C1.06721 9.12629 0.803162 10.5324 0.803162 12.0002C0.803162 13.4681 1.06721 14.8742 1.5496 16.1741L12.8032 17.2176L24.0568 16.1741Z" fill="#D80027"/>
<path d="M12.8028 23.9991C17.9624 23.9991 22.3609 20.7426 24.0564 16.173H1.54922C3.24469 20.7426 7.64326 23.9991 12.8028 23.9991V23.9991Z" fill="#6DA544"/>
<path d="M0.802765 11.9997C0.802765 17.544 4.56312 22.2093 9.67231 23.5863V0.41304C4.56312 1.79004 0.802765 6.45532 0.802765 11.9997Z" fill="#D80027"/>
<path d="M8.14421 5.28003L7.03744 4.17326L6.29963 4.91117L5.56182 4.17326L4.45505 5.28003L5.19291 6.01789L4.45496 6.75579L5.56172 7.86256L6.29958 7.12465L7.03744 7.86256L8.14421 6.75579L7.40635 6.01789L8.14421 5.28003Z" fill="#F0F0F0"/>
</g>
<defs>
<clipPath id="clip0_6422_7822">
<rect width="24" height="24" fill="white" transform="translate(0.802734)"/>
</clipPath>
</defs>
</svg>
