<svg width="25" height="25" viewBox="0 0 25 25" fill="none" xmlns="http://www.w3.org/2000/svg">
<g clip-path="url(#clip0_6422_7756)">
<path d="M12.8026 24.7257C19.43 24.7257 24.8026 19.3531 24.8026 12.7257C24.8026 6.09829 19.43 0.725708 12.8026 0.725708C6.17513 0.725708 0.802551 6.09829 0.802551 12.7257C0.802551 19.3531 6.17513 24.7257 12.8026 24.7257Z" fill="#F0F0F0"/>
<path d="M17.3212 10.1171H14.3089L12.8028 7.50842L11.2968 10.1171H8.28439L9.79067 12.7258L8.28439 15.3345H11.2968L12.8028 17.9432L14.3089 15.3345H17.3212L15.815 12.7258L17.3212 10.1171ZM14.6532 12.7258L13.7281 14.3284H11.8777L10.9524 12.7258L11.8776 11.1232H13.728L14.6532 12.7258ZM12.8028 9.52063L13.1472 10.1171H12.4586L12.8028 9.52063ZM10.0272 11.1232H10.7158L10.3715 11.7197L10.0272 11.1232ZM10.0272 14.3284L10.3715 13.7319L10.7159 14.3284H10.0272ZM12.8028 15.9309L12.4585 15.3345H13.1472L12.8028 15.9309ZM15.5785 14.3284H14.8898L15.2342 13.7319L15.5785 14.3284ZM14.8898 11.1232H15.5785L15.2341 11.7197L14.8898 11.1232Z" fill="#0052B4"/>
<path d="M20.2726 3.33496H5.33285C4.23771 4.20721 3.29853 5.26668 2.564 6.46541H23.0414C22.3069 5.26673 21.3677 4.20721 20.2726 3.33496V3.33496Z" fill="#0052B4"/>
<path d="M5.33285 22.1174H20.2725C21.3677 21.2451 22.3069 20.1857 23.0414 18.9869H2.564C3.29857 20.1856 4.23776 21.2451 5.33285 22.1174V22.1174Z" fill="#0052B4"/>
</g>
<defs>
<clipPath id="clip0_6422_7756">
<rect width="24" height="24" fill="white" transform="translate(0.802734 0.725586)"/>
</clipPath>
</defs>
</svg>
