<svg width="25" height="24" viewBox="0 0 25 24" fill="none" xmlns="http://www.w3.org/2000/svg">
<g clip-path="url(#clip0_6422_7647)">
<path d="M16.9769 0.746635C15.6769 0.264291 14.2708 0.000244141 12.803 0.000244141C11.3351 0.000244141 9.92909 0.264291 8.6291 0.746635L7.58562 12.0002L8.6291 23.2539C9.92909 23.7362 11.3351 24.0002 12.803 24.0002C14.2708 24.0002 15.6769 23.7362 16.9769 23.2539L18.0204 12.0002L16.9769 0.746635Z" fill="#FFDA44"/>
<path d="M24.8028 12.0006C24.8028 6.84104 21.5463 2.44248 16.9767 0.747009V23.2543C21.5463 21.5587 24.8028 17.1602 24.8028 12.0006V12.0006Z" fill="#D80027"/>
<path d="M0.802841 12.0006C0.802841 17.1602 4.05934 21.5587 8.62895 23.2542V0.747009C4.05934 2.44248 0.802841 6.84104 0.802841 12.0006V12.0006Z" fill="black"/>
</g>
<defs>
<clipPath id="clip0_6422_7647">
<rect width="24" height="24" fill="white" transform="translate(0.802734)"/>
</clipPath>
</defs>
</svg>
