<svg width="25" height="24" viewBox="0 0 25 24" fill="none" xmlns="http://www.w3.org/2000/svg">
<g clip-path="url(#clip0_6422_7804)">
<path d="M12.8028 24.0002C19.4302 24.0002 24.8028 18.6277 24.8028 12.0002C24.8028 5.37283 19.4302 0.000244141 12.8028 0.000244141C6.17535 0.000244141 0.802765 5.37283 0.802765 12.0002C0.802765 18.6277 6.17535 24.0002 12.8028 24.0002Z" fill="#FFDA44"/>
<path d="M24.8028 12.0003C24.8028 7.88186 22.7277 4.24839 19.5662 2.08731H6.03931C2.87792 4.24839 0.802765 7.88186 0.802765 12.0003C0.802765 16.1189 2.87792 19.7523 6.03931 21.9134H19.5662C22.7277 19.7523 24.8028 16.1189 24.8028 12.0003Z" fill="#A2001D"/>
<path d="M10.1943 8.86957H15.4117V6.78265L14.3682 7.30437L12.803 5.73917L11.2378 7.30437L10.1943 6.78265V8.86957Z" fill="#FFDA44"/>
<path d="M17.4987 12.0005H14.891C14.9933 11.8236 15.0527 11.6189 15.0527 11.3999C15.0527 10.7349 14.5136 10.1959 13.8487 10.1959C13.3892 10.1959 12.9902 10.4533 12.7872 10.8316C12.5842 10.4533 12.1852 10.1959 11.7258 10.1959C11.0609 10.1959 10.5218 10.7349 10.5218 11.3999C10.5218 11.619 10.5813 11.8237 10.6835 12.0005H8.10727C8.10727 12.7985 8.80228 13.4453 9.60019 13.4453H9.5521C9.5521 14.0998 9.98743 14.6525 10.5843 14.83L9.41161 16.0028L10.5184 17.1095L12.0884 15.5395C12.1499 15.5621 12.2135 15.5801 12.2792 15.5925L11.3306 17.7344C11.7852 17.9193 12.282 18.0219 12.803 18.0219C13.324 18.0219 13.8208 17.9193 14.2755 17.7344L13.3268 15.5925C13.3925 15.5801 13.4561 15.5621 13.5176 15.5395L15.0876 17.1095L16.1943 16.0028L15.0216 14.8301C15.6184 14.6524 16.0538 14.0999 16.0538 13.4454H16.0056C16.8036 13.4453 17.4987 12.7985 17.4987 12.0005V12.0005Z" fill="#FFDA44"/>
<path d="M12.8027 12.7826L11.1071 13.5652V15.1304L12.8027 16.1739L14.4984 15.1304V13.5652L12.8027 12.7826Z" fill="#6DA544"/>
<path d="M11.1071 12H14.4984V14.087H11.1071V12Z" fill="#0052B4"/>
</g>
<defs>
<clipPath id="clip0_6422_7804">
<rect width="24" height="24" fill="white" transform="translate(0.802734)"/>
</clipPath>
</defs>
</svg>
