<svg width="25" height="24" viewBox="0 0 25 24" fill="none" xmlns="http://www.w3.org/2000/svg">
<g clip-path="url(#clip0_6422_7655)">
<path d="M12.8028 24.0001C19.4303 24.0001 24.8028 18.6275 24.8028 12.0001C24.8028 5.3727 19.4303 0.00012207 12.8028 0.00012207C6.17542 0.00012207 0.802834 5.3727 0.802834 12.0001C0.802834 18.6275 6.17542 24.0001 12.8028 24.0001Z" fill="#F0F0F0"/>
<path d="M24.8028 11.9999C24.8028 6.84031 21.5463 2.44179 16.9767 0.746277V23.2535C21.5463 21.558 24.8028 17.1595 24.8028 11.9999V11.9999Z" fill="#D80027"/>
<path d="M0.802845 11.9999C0.802845 17.1595 4.05934 21.558 8.62895 23.2535V0.746277C4.05934 2.44179 0.802845 6.84031 0.802845 11.9999Z" fill="#6DA544"/>
</g>
<defs>
<clipPath id="clip0_6422_7655">
<rect width="24" height="24" fill="white" transform="translate(0.802734)"/>
</clipPath>
</defs>
</svg>
