<svg width="25" height="24" viewBox="0 0 25 24" fill="none" xmlns="http://www.w3.org/2000/svg">
<g clip-path="url(#clip0_6422_7794)">
<path d="M12.8027 24C19.4301 24 24.8027 18.6274 24.8027 12C24.8027 5.37258 19.4301 0 12.8027 0C6.17528 0 0.802696 5.37258 0.802696 12C0.802696 18.6274 6.17528 24 12.8027 24Z" fill="#F0F0F0"/>
<path d="M12.8028 -9.15527e-05C19.4302 -9.15527e-05 24.8028 5.37253 24.8028 11.9999C24.8028 18.6273 19.4302 23.9999 12.8028 23.9999" fill="#D80027"/>
<path d="M9.15051 4.69603V3.13083H7.58531V4.69603H6.02006V6.26124H7.58531V7.82649H9.15051V6.26124H10.7157V4.69603H9.15051Z" fill="#ACABB1"/>
</g>
<defs>
<clipPath id="clip0_6422_7794">
<rect width="24" height="24" fill="white" transform="translate(0.802734)"/>
</clipPath>
</defs>
</svg>
