<svg width="25" height="24" viewBox="0 0 25 24" fill="none" xmlns="http://www.w3.org/2000/svg">
<g clip-path="url(#clip0_6422_7666)">
<path d="M12.8028 23.9999C19.4302 23.9999 24.8028 18.6274 24.8028 11.9999C24.8028 5.37252 19.4302 -6.10352e-05 12.8028 -6.10352e-05C6.17539 -6.10352e-05 0.802811 5.37252 0.802811 11.9999C0.802811 18.6274 6.17539 23.9999 12.8028 23.9999Z" fill="#FFDA44"/>
<path d="M12.8027 23.9998C16.4398 23.9998 19.6987 22.3815 21.8994 19.8259H3.70613C5.90677 22.3815 9.16566 23.9998 12.8027 23.9998Z" fill="#338AF3"/>
<path d="M24.8028 11.9999C24.8028 5.37256 19.4302 -6.10352e-05 12.8028 -6.10352e-05C6.17544 -6.10352e-05 0.802811 5.37256 0.802811 11.9999C0.802811 13.0831 0.947186 14.1322 1.2162 15.1304H24.3895C24.6584 14.1322 24.8028 13.0831 24.8028 11.9999Z" fill="#338AF3"/>
<path d="M1.75662 16.6956C1.98795 17.2392 2.25837 17.762 2.56404 18.2608H23.0415C23.3472 17.7619 23.6176 17.2392 23.849 16.6956H1.75662Z" fill="#338AF3"/>
<path d="M6.30178 7.56858L3.95728 6.53387L6.30178 5.49915L7.33645 3.15469L8.37112 5.49915L10.7156 6.53387L8.37112 7.56858L7.33645 9.91304L6.30178 7.56858Z" fill="#F0F0F0"/>
<path d="M7.33679 4.44724L7.97574 5.89516L9.42371 6.5342L7.97574 7.1732L7.33679 8.62113L6.69774 7.1732L5.24982 6.5342L6.69774 5.89516L7.33679 4.44724Z" fill="#D80027"/>
</g>
<defs>
<clipPath id="clip0_6422_7666">
<rect width="24" height="24" fill="white" transform="translate(0.802734)"/>
</clipPath>
</defs>
</svg>
