<svg width="24" height="24" viewBox="0 0 24 24" fill="none" xmlns="http://www.w3.org/2000/svg">
    <g clip-path="url(#clip0_6681_9206)">
        <path d="M12 24.0117C18.6274 24.0117 24 18.6391 24 12.0117C24 5.3843 18.6274 0.0117188 12 0.0117188C5.37258 0.0117188 0 5.3843 0 12.0117C0 18.6391 5.37258 24.0117 12 24.0117Z" fill="#F0F0F0"/>
        <path d="M24 12.0117C24 7.25417 21.2314 3.14342 17.2174 1.20242V22.8209C21.2314 20.88 24 16.7692 24 12.0117Z" fill="#D80027"/>
        <path d="M0 12.0117C0 16.7692 2.76867 20.88 6.78263 22.821V1.20242C2.76867 3.14342 0 7.25417 0 12.0117Z" fill="#D80027"/>
        <path d="M14.0869 13.5769L16.1738 12.5334L15.1304 12.0117V10.9682L13.0434 12.0117L14.0869 9.92473H13.0434L11.9999 8.35953L10.9565 9.92473H9.91297L10.9565 12.0117L8.86949 10.9682V12.0117L7.82605 12.5334L9.91297 13.5769L9.39125 14.6204H11.4782V16.1856H12.5217V14.6204H14.6086L14.0869 13.5769Z" fill="#D80027"/>
    </g>
    <defs>
        <clipPath id="clip0_6681_9206">
            <rect width="24" height="24" fill="white" transform="translate(0 0.0117188)"/>
        </clipPath>
    </defs>
</svg>
