<svg width="25" height="24" viewBox="0 0 25 24" fill="none" xmlns="http://www.w3.org/2000/svg">
<g clip-path="url(#clip0_6422_7801)">
<path d="M18.0202 1.19099C16.4426 0.42815 14.6727 0.000274658 12.8028 0.000274658C10.933 0.000274658 9.16307 0.42815 7.58545 1.19099L6.54196 12.0003L7.58545 22.8096C9.16307 23.5724 10.933 24.0003 12.8028 24.0003C14.6727 24.0003 16.4426 23.5724 18.0202 22.8096L19.0637 12.0003L18.0202 1.19099Z" fill="#FFDA44"/>
<path d="M7.58534 1.19107C3.57144 3.13202 0.802719 7.24245 0.802719 11.9999C0.802719 16.7574 3.57144 20.8678 7.58534 22.8088V1.19107Z" fill="#0052B4"/>
<path d="M18.0201 1.19107V22.8088C22.034 20.8678 24.8028 16.7574 24.8028 11.9999C24.8028 7.24245 22.034 3.13202 18.0201 1.19107Z" fill="#D80027"/>
<path d="M16.9765 9.44179H14.1069C14.1069 8.72142 13.523 8.13745 12.8026 8.13745C12.0822 8.13745 11.4982 8.72142 11.4982 9.44179H8.62869C8.62869 10.1511 9.24655 10.726 9.95572 10.726H9.91297C9.91297 11.4353 10.4879 12.0103 11.1973 12.0103C11.1973 12.6383 11.6483 13.1601 12.244 13.2717L11.2319 15.5564C11.7169 15.7536 12.2468 15.8631 12.8026 15.8631C13.3583 15.8631 13.8883 15.7536 14.3732 15.5564L13.3612 13.2717C13.9569 13.1601 14.4079 12.6383 14.4079 12.0103C15.1172 12.0103 15.6922 11.4353 15.6922 10.726H15.6494C16.3587 10.726 16.9765 10.151 16.9765 9.44179V9.44179Z" fill="#FF9811"/>
<path d="M12.8027 11.2175L11.107 12.0001V13.5653L12.8027 14.6088L14.4984 13.5653V12.0001L12.8027 11.2175Z" fill="#0052B4"/>
<path d="M11.107 10.4349H14.4984V12.0001H11.107V10.4349Z" fill="#D80027"/>
</g>
<defs>
<clipPath id="clip0_6422_7801">
<rect width="24" height="24" fill="white" transform="translate(0.802734)"/>
</clipPath>
</defs>
</svg>
