<svg width="25" height="25" viewBox="0 0 25 25" fill="none" xmlns="http://www.w3.org/2000/svg">
<g clip-path="url(#clip0_6422_7871)">
<path d="M23.6121 17.9428C24.375 16.3652 24.8028 14.5953 24.8028 12.7254C24.8028 10.8556 24.375 9.08564 23.6121 7.50806L12.8028 6.9863L1.99354 7.50802C1.2307 9.08564 0.802826 10.8556 0.802826 12.7254C0.802826 14.5953 1.2307 16.3652 1.99354 17.9428L12.8028 18.4646L23.6121 17.9428Z" fill="#FFDA44"/>
<path d="M12.8029 0.725769C8.04537 0.725769 3.93462 3.49444 1.99362 7.50839H23.6121C21.6712 3.49444 17.5604 0.725769 12.8029 0.725769V0.725769Z" fill="black"/>
<path d="M12.8029 24.7255C8.04537 24.7255 3.93462 21.9568 1.99362 17.9428H23.6121C21.6712 21.9568 17.5604 24.7255 12.8029 24.7255V24.7255Z" fill="#0052B4"/>
<path d="M24.2362 9.07333H1.3695C1.0019 10.225 0.802826 11.452 0.802826 12.7255C0.802826 13.9991 1.0019 15.226 1.3695 16.3777H24.2361C24.6037 15.226 24.8028 13.9991 24.8028 12.7255C24.8028 11.452 24.6037 10.225 24.2362 9.07333Z" fill="#A2001D"/>
<path d="M4.9765 12.203H20.6287V13.2465H4.9765V12.203Z" fill="#FFDA44"/>
<path d="M7.06357 10.1159H18.5419V11.1594H7.06357V10.1159Z" fill="#FFDA44"/>
<path d="M18.6165 12.7251C18.6165 12.7251 15.9332 15.8555 12.8028 15.8555C9.67238 15.8555 9.67233 12.7251 9.67233 12.7251C9.67233 12.7251 9.67233 9.59464 12.8028 9.59464C15.9332 9.59464 18.6165 12.7251 18.6165 12.7251Z" fill="#F0F0F0"/>
<path d="M12.8026 15.8555C9.67214 15.8555 6.98892 12.7251 6.98892 12.7251C6.98892 12.7251 9.67214 9.59464 12.8026 9.59464" fill="black"/>
<path d="M10.7159 11.6817H11.7593V13.7687H10.7159V11.6817Z" fill="#F0F0F0"/>
<path d="M13.8461 11.6817H14.8896V13.7687H13.8461V11.6817Z" fill="black"/>
<path d="M4.97662 13.7692C5.55292 13.7692 6.0201 13.302 6.0201 12.7257C6.0201 12.1494 5.55292 11.6822 4.97662 11.6822C4.40032 11.6822 3.93314 12.1494 3.93314 12.7257C3.93314 13.302 4.40032 13.7692 4.97662 13.7692Z" fill="#0052B4"/>
<path d="M20.6289 13.7692C21.2052 13.7692 21.6724 13.302 21.6724 12.7257C21.6724 12.1494 21.2052 11.6822 20.6289 11.6822C20.0526 11.6822 19.5854 12.1494 19.5854 12.7257C19.5854 13.302 20.0526 13.7692 20.6289 13.7692Z" fill="#0052B4"/>
</g>
<defs>
<clipPath id="clip0_6422_7871">
<rect width="24" height="24" fill="white" transform="translate(0.802734 0.725586)"/>
</clipPath>
</defs>
</svg>
