<svg width="25" height="24" viewBox="0 0 25 24" fill="none" xmlns="http://www.w3.org/2000/svg">
<g clip-path="url(#clip0_6422_7695)">
<path d="M24.8028 11.9998C24.8028 18.6272 19.4302 23.9998 12.8028 23.9998C6.17547 23.9998 0.802841 18.6272 0.802841 11.9998C0.802841 12.0027 12.8028 0.00115991 12.8028 -0.000152588C19.4302 -0.000152588 24.8028 5.37247 24.8028 11.9998Z" fill="#0052B4"/>
<path d="M12.7708 12.001H12.8041C12.8041 11.9899 12.8041 11.979 12.8041 11.9678C12.793 11.9789 12.7819 11.99 12.7708 12.001Z" fill="#F0F0F0"/>
<path d="M12.803 6.26033C12.803 4.14884 12.803 2.76533 12.803 -0.000534058H12.801C6.17449 0.000590942 0.80304 5.3727 0.80304 11.9995H7.0639V8.47395L10.5894 11.9995H12.771C12.7817 11.9888 12.7924 11.9781 12.8031 11.9674C12.8031 11.1589 12.8031 10.4375 12.8031 9.78593L9.27748 6.26033H12.803Z" fill="#F0F0F0"/>
<path d="M18.0205 8.86911C19.1731 8.86911 20.1075 7.93474 20.1075 6.78214C20.1075 5.62954 19.1731 4.69518 18.0205 4.69518C16.8679 4.69518 15.9335 5.62954 15.9335 6.78214C15.9335 7.93474 16.8679 8.86911 18.0205 8.86911Z" fill="#6DA544"/>
<path d="M6.87401 1.56424C4.99718 2.63294 3.43685 4.19322 2.36819 6.07005V11.999H5.49865V4.69479V4.69469H12.803C12.803 3.70736 12.803 2.76677 12.803 1.56424H6.87401Z" fill="#D80027"/>
<path d="M12.8031 10.5231L8.53954 6.25964H7.06391V6.25974L12.803 11.9987H12.8031C12.8031 11.9987 12.8031 10.9812 12.8031 10.5231V10.5231Z" fill="#D80027"/>
<path d="M14.368 6.25964H21.6723V9.3901H14.368V6.25964Z" fill="#D80027"/>
<path d="M14.3681 14.086V16.173H15.4661C16.1245 16.8181 17.0256 17.2164 18.0203 17.2164C19.0149 17.2164 19.9161 16.8181 20.5744 16.173H20.629H21.6724V14.086H14.3681Z" fill="#FFDA44"/>
<path d="M14.3681 8.86929V11.9997C14.3681 14.7953 18.0203 15.6519 18.0203 15.6519C18.0203 15.6519 21.6724 14.7953 21.6724 11.9997V8.86929H14.3681Z" fill="#338AF3"/>
<path d="M18.0203 10.5403C17.1073 10.5403 17.1073 11.3751 16.1943 11.3751C15.2813 11.3751 15.2813 10.5403 14.3684 10.5403V12.0012C15.2813 12.0012 15.2813 12.836 16.1943 12.836C17.1073 12.836 17.1073 12.0012 18.0203 12.0012C18.9334 12.0012 18.9334 12.836 19.8465 12.836C20.7596 12.836 20.7596 12.0012 21.6727 12.0012V10.5403C20.7596 10.5403 20.7596 11.3751 19.8465 11.3751C18.9334 11.3751 18.9334 10.5403 18.0203 10.5403V10.5403Z" fill="#F3F3F3"/>
<path d="M18.0203 7.61604C17.1073 7.61604 17.1073 8.45084 16.1943 8.45084C15.2813 8.45084 15.2813 7.61604 14.3684 7.61604V9.0769C15.2813 9.0769 15.2813 9.9117 16.1943 9.9117C17.1073 9.9117 17.1073 9.0769 18.0203 9.0769C18.9334 9.0769 18.9334 9.9117 19.8465 9.9117C20.7596 9.9117 20.7596 9.0769 21.6727 9.0769V7.61604C20.7596 7.61604 20.7596 8.45084 19.8465 8.45084C18.9334 8.45084 18.9334 7.61604 18.0203 7.61604Z" fill="#F3F3F3"/>
</g>
<defs>
<clipPath id="clip0_6422_7695">
<rect width="24" height="24" fill="white" transform="translate(0.802734)"/>
</clipPath>
</defs>
</svg>
