<svg width="25" height="24" viewBox="0 0 25 24" fill="none" xmlns="http://www.w3.org/2000/svg">
<g clip-path="url(#clip0_6422_7796)">
<path d="M12.8028 24C19.4302 24 24.8028 18.6274 24.8028 12C24.8028 5.37258 19.4302 0 12.8028 0C6.17537 0 0.80279 5.37258 0.80279 12C0.80279 18.6274 6.17537 24 12.8028 24Z" fill="#F0F0F0"/>
<path d="M24.6999 10.4354C24.3689 7.90481 23.2321 5.45953 21.288 3.51539C19.3439 1.57125 16.8985 0.434486 14.3679 0.103455L14.368 10.4354H24.6999Z" fill="#0052B4"/>
<path d="M11.2377 0.103546C8.70712 0.434577 6.2618 1.5713 4.31765 3.51544C2.37356 5.45962 1.23679 7.90495 0.905764 10.4356L11.2378 10.4355L11.2377 0.103546Z" fill="#0052B4"/>
<path d="M0.90571 13.566C1.23674 16.0966 2.37351 18.542 4.3176 20.4861C6.26174 22.4302 8.70702 23.5669 11.2377 23.8981L11.2377 13.5661L0.90571 13.566Z" fill="#0052B4"/>
<path d="M14.3679 23.8979C16.8985 23.5669 19.3438 22.4302 21.288 20.486C23.2321 18.5419 24.3688 16.0966 24.6998 13.566H14.3679V23.8979Z" fill="#0052B4"/>
<path d="M16.8998 7.61383C16.8998 7.45426 17.0295 7.32456 17.1891 7.32456H17.809C18.7889 7.32456 19.5861 6.5274 19.5861 5.54758C19.5861 4.56775 18.7889 3.77054 17.809 3.77054H17.2203C17.0282 3.62622 16.7704 3.5372 16.4861 3.5372C15.893 3.5372 15.4122 3.92181 15.4122 4.39628C15.4122 4.86615 15.8838 5.24734 16.469 5.25475L16.4687 5.25817H17.809C17.9686 5.25817 18.0983 5.38792 18.0983 5.54748C18.0983 5.70704 17.9686 5.83675 17.809 5.83675H17.1891C16.2092 5.83675 15.4121 6.6339 15.4121 7.61373C15.4121 8.59356 16.2092 9.39076 17.1891 9.39076H19.586V7.90304H17.1891C17.0295 7.90309 16.8998 7.77339 16.8998 7.61383V7.61383Z" fill="#F0F0F0"/>
<path d="M7.50834 7.61379C7.50834 7.45423 7.63804 7.32453 7.79765 7.32453H8.41752C9.3974 7.32453 10.1946 6.52737 10.1946 5.54755C10.1946 4.56772 9.39745 3.77051 8.41752 3.77051H7.82887C7.63673 3.62619 7.37896 3.53717 7.09462 3.53717C6.50151 3.53717 6.02071 3.92178 6.02071 4.39625C6.02071 4.86612 6.49232 5.24731 7.07751 5.25472L7.07723 5.25814H8.41757C8.57718 5.25814 8.70688 5.38789 8.70688 5.54745C8.70688 5.70701 8.57718 5.83672 8.41757 5.83672H7.7977C6.81782 5.83672 6.02071 6.63387 6.02071 7.6137C6.02071 8.59353 6.81777 9.39073 7.7977 9.39073H10.1946V7.90301H7.79765C7.63804 7.90306 7.50834 7.77336 7.50834 7.61379V7.61379Z" fill="#F0F0F0"/>
<path d="M16.8995 18.6847C16.8995 18.5251 17.0292 18.3954 17.1889 18.3954H17.8087C18.7886 18.3954 19.5858 17.5983 19.5858 16.6184C19.5858 15.6386 18.7886 14.8414 17.8087 14.8414H17.2201C17.0279 14.6971 16.7702 14.6081 16.4858 14.6081C15.8927 14.6081 15.4119 14.9927 15.4119 15.4671C15.4119 15.937 15.8835 16.3182 16.4687 16.3256L16.4684 16.329H17.8087C17.9683 16.329 18.098 16.4588 18.098 16.6183C18.098 16.7779 17.9683 16.9076 17.8087 16.9076H17.1888C16.2089 16.9076 15.4118 17.7048 15.4118 18.6846C15.4118 19.6644 16.2089 20.4616 17.1888 20.4616H19.5858V18.974H17.1889C17.0292 18.974 16.8995 18.8442 16.8995 18.6847V18.6847Z" fill="#F0F0F0"/>
<path d="M7.50837 18.6847C7.50837 18.5251 7.63808 18.3954 7.79769 18.3954H8.41756C9.39744 18.3954 10.1946 17.5983 10.1946 16.6184C10.1946 15.6386 9.39748 14.8414 8.41756 14.8414H7.82891C7.63677 14.6971 7.379 14.6081 7.09466 14.6081C6.5015 14.6081 6.0207 14.9927 6.0207 15.4671C6.0207 15.937 6.49231 16.3182 7.0775 16.3256L7.07722 16.329H8.41756C8.57717 16.329 8.70687 16.4588 8.70687 16.6183C8.70687 16.7779 8.57717 16.9076 8.41756 16.9076H7.79769C6.81781 16.9076 6.0207 17.7048 6.0207 18.6846C6.0207 19.6644 6.81777 20.4616 7.79769 20.4616H10.1946V18.974H7.79769C7.63808 18.974 7.50837 18.8442 7.50837 18.6847Z" fill="#F0F0F0"/>
</g>
<defs>
<clipPath id="clip0_6422_7796">
<rect width="24" height="24" fill="white" transform="translate(0.802734)"/>
</clipPath>
</defs>
</svg>
