<svg width="25" height="24" viewBox="0 0 25 24" fill="none" xmlns="http://www.w3.org/2000/svg">
<g clip-path="url(#clip0_6422_7690)">
<path d="M12.8028 23.9998C19.4302 23.9998 24.8028 18.6273 24.8028 11.9998C24.8028 5.37243 19.4302 -0.000152588 12.8028 -0.000152588C6.17535 -0.000152588 0.802765 5.37243 0.802765 11.9998C0.802765 18.6273 6.17535 23.9998 12.8028 23.9998Z" fill="#F0F0F0"/>
<path d="M20.1097 2.47969C15.8135 -0.826211 9.79246 -0.826211 5.49628 2.47965L12.803 9.78633L20.1097 2.47969Z" fill="#D80027"/>
<path d="M12.8029 14.2134L5.49628 21.52C9.79246 24.8259 15.8135 24.8259 20.1097 21.52L12.803 14.2133L12.8029 14.2134Z" fill="#D80027"/>
<path d="M10.5892 11.9989L3.28256 4.6922C-0.0233453 8.98839 -0.0233453 15.0094 3.28256 19.3056L10.5892 11.9989Z" fill="#6DA544"/>
<path d="M15.0165 11.9989L22.3231 19.3056C25.629 15.0094 25.629 8.98839 22.3231 4.6922L15.0165 11.9989Z" fill="#6DA544"/>
<path d="M12.8029 17.217C15.6844 17.217 18.0203 14.8811 18.0203 11.9996C18.0203 9.11814 15.6844 6.78224 12.8029 6.78224C9.92144 6.78224 7.58554 9.11814 7.58554 11.9996C7.58554 14.8811 9.92144 17.217 12.8029 17.217Z" fill="#F0F0F0"/>
<path d="M12.8029 8.34727L13.2547 9.1299H14.1584L13.7066 9.91248L14.1584 10.6951H13.2547L12.8029 11.4777L12.3511 10.6951H11.4474L11.8992 9.91248L11.4474 9.1299H12.3511L12.8029 8.34727Z" fill="#D80027"/>
<path d="M10.5061 11.9995L10.9579 12.7821H11.8616L11.4098 13.5647L11.8616 14.3473H10.9579L10.5061 15.1299L10.0542 14.3473H9.15057L9.6024 13.5647L9.15057 12.7821H10.0542L10.5061 11.9995Z" fill="#D80027"/>
<path d="M15.0995 11.9995L15.5513 12.7821H16.4549L16.0031 13.5647L16.4549 14.3473H15.5513L15.0995 15.1299L14.6476 14.3473H13.7439L14.1958 13.5647L13.7439 12.7821H14.6476L15.0995 11.9995Z" fill="#D80027"/>
</g>
<defs>
<clipPath id="clip0_6422_7690">
<rect width="24" height="24" fill="white" transform="translate(0.802734)"/>
</clipPath>
</defs>
</svg>
