<?xml version="1.0" encoding="UTF-8"?>
<svg width="116px" height="116px" viewBox="0 0 116 116" version="1.1" xmlns="http://www.w3.org/2000/svg" xmlns:xlink="http://www.w3.org/1999/xlink">
    <!-- Generator: Sketch 53.2 (72643) - https://sketchapp.com -->
    <title>Icons/Tipscircle</title>
    <desc>Created with Sketch.</desc>
    <g id="2019_Final" stroke="none" stroke-width="1" fill="none" fill-rule="evenodd">
        <g id="Icons/Tipscircle" transform="translate(-11.000000, -11.000000)" fill="#858484" fill-rule="nonzero">
            <path d="M69,11.5 C37.245625,11.5 11.5,37.245625 11.5,69 C11.5,100.754375 37.245625,126.5 69,126.5 C100.754375,126.5 126.5,100.754375 126.5,69 C126.5,37.245625 100.754375,11.5 69,11.5 Z M73.7916667,92.704375 L73.7916667,97.75 L69,97.75 L69,92.9679167 C64.040625,92.8816667 58.90875,91.698125 54.625,89.484375 L56.8052083,81.606875 C61.3860417,83.3845833 67.4858333,85.2725 72.2583333,84.194375 C77.7639583,82.9485417 78.89,77.2847917 72.8045833,74.5583333 C68.3435417,72.47875 54.7016667,70.7010417 54.7016667,59.0189583 C54.7016667,52.4879167 59.6802083,46.6420833 69,45.3627083 L69,40.25 L73.7916667,40.25 L73.7916667,45.1279167 C77.2608333,45.2189583 81.1516667,45.8227083 85.4929167,47.1404167 L83.7583333,55.0322917 C80.0783333,53.7385417 76.0102083,52.5645833 72.0522917,52.8041667 C64.9175,53.2210417 64.2897917,59.3975 69.2683333,61.985 C77.4716667,65.8422917 88.1666667,68.7029167 88.1666667,78.9810417 C88.17625,87.213125 81.7314583,91.5927083 73.7916667,92.704375 Z" id="TipsCircle"></path>
        </g>
    </g>
</svg>