<svg width="25" height="25" viewBox="0 0 25 25" fill="none" xmlns="http://www.w3.org/2000/svg">
<g clip-path="url(#clip0_6422_7758)">
<path d="M12.8029 24.7257C19.4303 24.7257 24.8029 19.3531 24.8029 12.7257C24.8029 6.09829 19.4303 0.725708 12.8029 0.725708C6.17544 0.725708 0.802856 6.09829 0.802856 12.7257C0.802856 19.3531 6.17544 24.7257 12.8029 24.7257Z" fill="#FFDA44"/>
<path d="M20.1089 3.20633C18.0854 1.65097 15.5525 0.725708 12.8031 0.725708C10.0537 0.725708 7.52078 1.65102 5.49733 3.20633L12.8031 10.5121L20.1089 3.20633Z" fill="#6DA544"/>
<path d="M3.28345 5.41986C1.72818 7.44331 0.802872 9.9762 0.802872 12.7256C0.802872 15.475 1.72818 18.008 3.2835 20.0315L10.5893 12.7256L3.28345 5.41986Z" fill="black"/>
<path d="M5.49733 22.2452C7.52083 23.8006 10.0537 24.7258 12.8031 24.7258C15.5525 24.7258 18.0854 23.8005 20.1089 22.2452L12.8031 14.9395L5.49733 22.2452Z" fill="#6DA544"/>
<path d="M22.3226 20.0314C23.878 18.0079 24.8033 15.475 24.8033 12.7256C24.8033 9.97621 23.878 7.44331 22.3226 5.41986L15.0169 12.7256L22.3226 20.0314Z" fill="black"/>
</g>
<defs>
<clipPath id="clip0_6422_7758">
<rect width="24" height="24" fill="white" transform="translate(0.802734 0.725586)"/>
</clipPath>
</defs>
</svg>
