<svg width="17px" height="17px" viewBox="0 0 17 17" version="1.1" xmlns="http://www.w3.org/2000/svg">
    <g id="Page-1" stroke="none" stroke-width="1" fill="none" fill-rule="evenodd">
        <g id="UI_ELEMENTS" transform="translate(-789.000000, -1926.000000)" fill="#9B9B9B" fill-rule="nonzero">
            <g id="Group-12" transform="translate(127.000000, 1912.000000)">
                <g id="Search-Bar">
                    <g id="Search" transform="translate(662.000000, 14.000000)">
                        <g id="Page-1">
                            <path d="M2.15209288,6.96258502 C2.15209288,4.31395032 4.30060799,2.15896891 6.94113226,2.15896891 C9.58178905,2.15896891 11.7303042,4.3138174 11.7303042,6.96258502 C11.7303042,9.61135264 9.58178905,11.766467 6.94113226,11.766467 C4.30060799,11.766467 2.15209288,9.61135264 2.15209288,6.96258502 M16.3209763,14.2076184 L12.8060193,10.6823969 C13.4876501,9.6055043 13.8827946,8.32963515 13.8827946,6.96258502 C13.8827946,3.12354672 10.76868,0 6.94113226,0 C3.11384955,0 0,3.12354672 0,6.96258502 C0,10.8018892 3.11345202,13.925303 6.94113226,13.925303 C8.23628378,13.925303 9.44941168,13.567092 10.4882891,12.9453068 L14.0335908,16.5018967 C15.5465886,18.0192758 17.8349016,15.7264596 16.3209763,14.2076184" id="Fill-1"></path>
                        </g>
                    </g>
                </g>
            </g>
        </g>
    </g>
</svg>
