<svg width="25" height="25" viewBox="0 0 25 25" fill="none" xmlns="http://www.w3.org/2000/svg">
<g clip-path="url(#clip0_6422_7732)">
<path d="M12.8027 24.7791C19.4301 24.7791 24.8027 19.4066 24.8027 12.7791C24.8027 6.15173 19.4301 0.779144 12.8027 0.779144C6.17524 0.779144 0.802658 6.15173 0.802658 12.7791C0.802658 19.4066 6.17524 24.7791 12.8027 24.7791Z" fill="#F0F0F0"/>
<path d="M24.701 11.2138H14.3679H14.3678V0.880555C13.8555 0.813851 13.3331 0.778976 12.8026 0.778976C12.2721 0.778976 11.7497 0.813851 11.2374 0.880555V11.2137V11.2137H0.904175C0.837472 11.7261 0.802597 12.2485 0.802597 12.779C0.802597 13.3096 0.837472 13.8318 0.904175 14.3442H11.2373H11.2373V24.6774C11.7497 24.7441 12.2721 24.779 12.8026 24.779C13.3331 24.779 13.8555 24.7441 14.3678 24.6774V14.3443V14.3442H24.701C24.7677 13.8318 24.8026 13.3096 24.8026 12.779C24.8026 12.2485 24.7677 11.7261 24.701 11.2138V11.2138Z" fill="#D80027"/>
<path d="M8.10683 6.51767V4.95242H6.54163V6.51767H4.97638V8.08288H6.54163V9.64808H8.10683V8.08288H9.67204V6.51767H8.10683Z" fill="#D80027"/>
<path d="M19.0637 6.51767V4.95242H17.4985V6.51767H15.9333V8.08288H17.4985V9.64808H19.0637V8.08288H20.6289V6.51767H19.0637Z" fill="#D80027"/>
<path d="M8.10683 17.4748V15.9096H6.54163V17.4748H4.97638V19.04H6.54163V20.6053H8.10683V19.04H9.67204V17.4748H8.10683Z" fill="#D80027"/>
<path d="M19.0637 17.4748V15.9096H17.4985V17.4748H15.9333V19.04H17.4985V20.6053H19.0637V19.04H20.6289V17.4748H19.0637Z" fill="#D80027"/>
</g>
<defs>
<clipPath id="clip0_6422_7732">
<rect width="24" height="24" fill="white" transform="translate(0.802734 0.779297)"/>
</clipPath>
</defs>
</svg>
