<svg width="25" height="24" viewBox="0 0 25 24" fill="none" xmlns="http://www.w3.org/2000/svg">
<g clip-path="url(#clip0_6422_7788)">
<path d="M12.8028 24.0002C19.4302 24.0002 24.8028 18.6276 24.8028 12.0002C24.8028 5.37277 19.4302 0.000183105 12.8028 0.000183105C6.17539 0.000183105 0.802811 5.37277 0.802811 12.0002C0.802811 18.6276 6.17539 24.0002 12.8028 24.0002Z" fill="#F0F0F0"/>
<path d="M8.6288 11.9999V23.2535C9.92874 23.7359 11.3348 23.9999 12.8027 23.9999C19.4301 23.9999 24.8027 18.6272 24.8027 11.9999C24.8027 5.37248 8.6288 11.9999 8.6288 11.9999Z" fill="#6DA544"/>
<path d="M12.8027 0.000213623C11.3348 0.000213623 9.92874 0.264261 8.6288 0.746604V12.0002H24.8027C24.8027 5.37284 19.4301 0.000213623 12.8027 0.000213623Z" fill="#D80027"/>
</g>
<defs>
<clipPath id="clip0_6422_7788">
<rect width="24" height="24" fill="white" transform="translate(0.802734)"/>
</clipPath>
</defs>
</svg>
