<svg width="25" height="24" viewBox="0 0 25 24" fill="none" xmlns="http://www.w3.org/2000/svg">
<g clip-path="url(#clip0_6422_7682)">
<path d="M12.8028 24C19.4302 24 24.8028 18.6274 24.8028 12C24.8028 5.37255 19.4302 -3.05176e-05 12.8028 -3.05176e-05C6.17537 -3.05176e-05 0.802788 5.37255 0.802788 12C0.802788 18.6274 6.17537 24 12.8028 24Z" fill="#F0F0F0"/>
<path d="M12.8027 -3.05176e-05C8.54785 -3.05176e-05 4.81051 2.21448 2.67976 5.55367L18.9528 22.3054C22.4564 20.21 24.8027 16.3792 24.8027 12C24.8027 5.37259 19.4301 -3.05176e-05 12.8027 -3.05176e-05Z" fill="#FFDA44"/>
<path d="M24.8029 11.9999C24.8029 8.88633 23.6171 6.05002 21.6725 3.9173V20.0825C23.6171 17.9497 24.8029 15.1134 24.8029 11.9999Z" fill="#0052B4"/>
<path d="M15.793 22.5875L17.0499 22.5867L17.4377 21.391L17.8268 22.5863L18.4573 22.5859C18.8439 22.3789 19.2178 22.1515 19.5776 21.9048L2.89765 5.22493C2.62278 5.62599 2.37209 6.04477 2.14667 6.47884L2.29489 6.93409L3.55184 6.93329L2.5354 7.67274L2.92456 8.86801L1.90718 8.12982L1.30039 8.5712C0.976903 9.65757 0.802856 10.8083 0.802856 11.9997C0.802856 18.6271 6.17548 23.9997 12.8029 23.9997C14.204 23.9997 15.5489 23.7592 16.7989 23.3176L15.793 22.5875ZM3.47937 11.478L3.86703 10.2823L2.84975 9.54404L4.1067 9.54324L4.4944 8.34751L4.88356 9.54277L6.14051 9.54198L5.12403 10.2814L5.51318 11.4767L4.49581 10.7385L3.47937 11.478ZM6.06804 14.0867L6.4557 12.891L5.43842 12.1527L6.69537 12.1519L7.08307 10.9562L7.47223 12.1515L8.72918 12.1507L7.71275 12.8901L8.1019 14.0854L7.08453 13.3472L6.06804 14.0867ZM8.65667 16.6954L9.04432 15.4997L8.02704 14.7614L9.284 14.7606L9.6717 13.5649L10.0609 14.7601L11.3178 14.7594L10.3014 15.4988L10.6905 16.6941L9.67315 15.9558L8.65667 16.6954ZM12.2618 18.5646L11.2453 19.3041L11.6329 18.1084L10.6157 17.3701L11.8726 17.3693L12.2604 16.1736L12.6495 17.3688L13.9065 17.368L12.89 18.1075L13.2792 19.3028L12.2618 18.5646ZM13.834 21.9128L14.2216 20.7171L13.2043 19.9788L14.4613 19.978L14.849 18.7823L15.2382 19.9775L16.4951 19.9767L15.4787 20.7162L15.8678 21.9114L14.8504 21.1732L13.834 21.9128Z" fill="#0052B4"/>
</g>
<defs>
<clipPath id="clip0_6422_7682">
<rect width="24" height="24" fill="white" transform="translate(0.802734)"/>
</clipPath>
</defs>
</svg>
