<svg width="25" height="24" viewBox="0 0 25 24" fill="none" xmlns="http://www.w3.org/2000/svg">
<g clip-path="url(#clip0_6422_7790)">
<path d="M0.802612 12.0002C0.802612 13.4681 1.06666 14.8741 1.549 16.1741L12.8026 16.6959L24.0562 16.1742C24.5386 14.8741 24.8026 13.4681 24.8026 12.0002C24.8026 10.5324 24.5386 9.12632 24.0562 7.82633L12.8026 7.30457L1.549 7.82628C1.06666 9.12632 0.802612 10.5324 0.802612 12.0002H0.802612Z" fill="#D80027"/>
<path d="M12.8024 0.000213623C7.64278 0.000213623 3.24427 3.25671 1.54875 7.82632H24.056C22.3605 3.25671 17.9619 0.000213623 12.8024 0.000213623V0.000213623Z" fill="black"/>
<path d="M24.056 16.1741H1.54875C3.24427 20.7437 7.64278 24.0002 12.8024 24.0002C17.9619 24.0002 22.3605 20.7437 24.056 16.1741Z" fill="#496E2D"/>
<path d="M16.3891 5.73912L14.9236 5.04977L15.704 3.63044L14.1126 3.9349L13.911 2.32718L12.8025 3.5096L11.694 2.32718L11.4923 3.9349L9.90096 3.63044L10.6814 5.04977L9.21584 5.73912H16.3891Z" fill="#D80027"/>
</g>
<defs>
<clipPath id="clip0_6422_7790">
<rect width="24" height="24" fill="white" transform="translate(0.802734)"/>
</clipPath>
</defs>
</svg>
