<svg width="25" height="25" viewBox="0 0 25 25" fill="none" xmlns="http://www.w3.org/2000/svg">
<g clip-path="url(#clip0_6422_7752)">
<path d="M12.8027 24.7255C19.4301 24.7255 24.8027 19.3529 24.8027 12.7255C24.8027 6.09808 19.4301 0.725494 12.8027 0.725494C6.17529 0.725494 0.802704 6.09808 0.802704 12.7255C0.802704 19.3529 6.17529 24.7255 12.8027 24.7255Z" fill="#F0F0F0"/>
<path d="M16.7 9.59441H15.13C15.1429 9.76695 15.1503 9.94105 15.1503 10.1161C15.1503 11.2769 14.8601 12.4021 14.3543 13.203C14.1983 13.45 13.936 13.7989 13.585 14.0342V9.59436H12.0198V14.0342C11.6689 13.7989 11.4066 13.4501 11.2506 13.203C10.7447 12.4021 10.4546 11.2769 10.4546 10.1161C10.4546 9.94105 10.462 9.76691 10.4749 9.59441H8.90491C8.89483 9.76611 8.88934 9.94002 8.88934 10.1161C8.88934 13.3344 10.6082 15.8553 12.8024 15.8553C14.9966 15.8553 16.7154 13.3344 16.7154 10.1161C16.7155 9.94002 16.71 9.76611 16.7 9.59441V9.59441Z" fill="#D80027"/>
<path d="M5.75902 6.4646H7.32423V7.50809H8.88943V6.4646H10.4546V7.50809H12.0198V6.4646H13.585V7.50809H15.1502V6.4646H16.7154V7.50809H18.2806V6.4646H19.8458V7.50809H23.6116C21.6708 3.49414 17.56 0.725464 12.8025 0.725464C8.04502 0.725464 3.93423 3.49414 1.99323 7.50809H5.75902V6.4646Z" fill="#6DA544"/>
<path d="M19.846 17.9426V18.9861H18.2808V17.9426H16.7156V18.9861H15.1504V17.9426H13.5852V18.9861H12.02V17.9426H10.4548V18.9861H8.88957V17.9426H7.32422V18.9861H5.75902V17.9426H1.99323C3.93422 21.9565 8.04497 24.7252 12.8025 24.7252C17.56 24.7252 21.6708 21.9565 23.6118 17.9426H19.846Z" fill="#D80027"/>
</g>
<defs>
<clipPath id="clip0_6422_7752">
<rect width="24" height="24" fill="white" transform="translate(0.802734 0.725586)"/>
</clipPath>
</defs>
</svg>
