<svg width="25" height="25" viewBox="0 0 25 25" fill="none" xmlns="http://www.w3.org/2000/svg">
<g clip-path="url(#clip0_6422_7831)">
<path d="M12.8028 24.8028C19.4302 24.8028 24.8028 19.4302 24.8028 12.8028C24.8028 6.17536 19.4302 0.802774 12.8028 0.802774C6.17541 0.802774 0.802826 6.17536 0.802826 12.8028C0.802826 19.4302 6.17541 24.8028 12.8028 24.8028Z" fill="#F0F0F0"/>
<path d="M24.8029 12.8024C24.8029 7.64288 21.5464 3.24432 16.9768 1.54885V24.0561C21.5464 22.3605 24.8029 17.962 24.8029 12.8024V12.8024Z" fill="#D80027"/>
<path d="M0.802826 12.8025C0.802826 17.9621 4.05933 22.3606 8.62893 24.0561V1.54892C4.05933 3.24439 0.802826 7.64295 0.802826 12.8025V12.8025Z" fill="#D80027"/>
</g>
<defs>
<clipPath id="clip0_6422_7831">
<rect width="24" height="24" fill="white" transform="translate(0.802734 0.802734)"/>
</clipPath>
</defs>
</svg>
