<svg width="25" height="24" viewBox="0 0 25 24" fill="none" xmlns="http://www.w3.org/2000/svg">
<g clip-path="url(#clip0_6422_7792)">
<path d="M12.8027 23.9999C19.4301 23.9999 24.8027 18.6274 24.8027 11.9999C24.8027 5.37252 19.4301 -6.10352e-05 12.8027 -6.10352e-05C6.1753 -6.10352e-05 0.802719 5.37252 0.802719 11.9999C0.802719 18.6274 6.1753 23.9999 12.8027 23.9999Z" fill="#D80027"/>
<path d="M4.97652 6.26108H20.6287V17.7394H4.97652V6.26108Z" fill="#6DA544"/>
<path d="M14.7353 15.3915C12.8624 15.3915 11.344 13.8731 11.344 12.0002C11.344 10.1272 12.8624 8.60886 14.7353 8.60886C15.3193 8.60886 15.8688 8.75651 16.3485 9.01648C15.5959 8.2805 14.5668 7.82623 13.431 7.82623C11.1258 7.82623 9.25708 9.69495 9.25708 12.0001C9.25708 14.3053 11.1258 16.174 13.431 16.174C14.5668 16.174 15.596 15.7197 16.3485 14.9838C15.8688 15.2438 15.3193 15.3915 14.7353 15.3915Z" fill="#F0F0F0"/>
</g>
<defs>
<clipPath id="clip0_6422_7792">
<rect width="24" height="24" fill="white" transform="translate(0.802734)"/>
</clipPath>
</defs>
</svg>
