<svg width="35" height="34" viewBox="0 0 35 34" fill="none" xmlns="http://www.w3.org/2000/svg">
    <path d="M22.4233 3.78022C23.1722 3.78022 23.7792 3.17315 23.7792 2.42429C23.7792 1.67543 23.1722 1.06836 22.4233 1.06836C21.6745 1.06836 21.0674 1.67543 21.0674 2.42429C21.0674 3.17315 21.6745 3.78022 22.4233 3.78022Z" stroke="#767676" stroke-width="1.5" stroke-miterlimit="10"/>
    <path d="M26.6607 9.88271C28.252 9.88271 29.542 8.66857 29.542 7.17085C29.542 5.67313 28.252 4.45898 26.6607 4.45898C25.0693 4.45898 23.7793 5.67313 23.7793 7.17085C23.7793 8.66857 25.0693 9.88271 26.6607 9.88271Z" stroke="#767676" stroke-width="1.5" stroke-miterlimit="10"/>
    <path d="M32.2543 6.83077C32.8159 6.83077 33.2712 6.37547 33.2712 5.81382C33.2712 5.25218 32.8159 4.79688 32.2543 4.79688C31.6926 4.79688 31.2373 5.25218 31.2373 5.81382C31.2373 6.37547 31.6926 6.83077 32.2543 6.83077Z" stroke="#767676" stroke-width="1.5" stroke-miterlimit="10"/>
    <path d="M30.9388 14.5105C30.7574 14.5364 30.5708 14.5506 30.3829 14.5506C28.9236 14.5506 27.6536 13.7485 26.9862 12.5602C26.1853 12.9645 25.2704 13.1757 24.301 13.1278C21.7182 12.9982 19.5709 10.9935 19.2586 8.42632C19.1782 7.76802 19.2236 7.13174 19.3661 6.53305C17.8616 5.99396 16.7833 4.55554 16.7833 2.86572C16.7833 2.72188 16.7911 2.57933 16.8067 2.43938C16.5889 2.43031 16.3712 2.42383 16.1522 2.42383C7.74939 2.42512 0.952228 9.29456 1.06886 17.7242C1.1855 26.1539 7.81289 32.4791 15.9371 32.5918C24.3671 32.7097 31.2369 25.9116 31.2369 17.5091C31.2369 16.4828 31.1332 15.4798 30.9388 14.5105ZM8.97016 23.5401C7.24787 23.7112 5.81197 22.2753 5.98304 20.5531C6.10874 19.2793 7.1403 18.2478 8.41421 18.1221C10.1365 17.951 11.5724 19.3868 11.4013 21.1091C11.2756 22.3829 10.2441 23.4144 8.97016 23.5401ZM13.9608 10.19C12.9176 10.3611 12.0273 9.4721 12.1983 8.42762C12.302 7.79523 12.8113 7.28595 13.4437 7.18228C14.4869 7.01123 15.3773 7.9002 15.2062 8.94467C15.1025 9.57706 14.5932 10.0863 13.9608 10.19ZM18.5225 29.5543C17.1514 29.7266 15.998 28.5733 16.1704 27.2023C16.2883 26.2679 17.0425 25.5137 17.9769 25.3958C19.348 25.2235 20.5014 26.3768 20.329 27.7478C20.2111 28.6822 19.4568 29.4364 18.5225 29.5543ZM20.5312 21.1427C19.786 21.2646 19.151 20.6296 19.2728 19.8845C19.3467 19.4335 19.7109 19.0693 20.1618 18.9955C20.907 18.8737 21.542 19.5087 21.4202 20.2538C21.3463 20.7047 20.9822 21.0689 20.5312 21.1427Z" stroke="#767676" stroke-width="1.5" stroke-miterlimit="10"/>
</svg>